<svg width="80" height="30" viewBox="0 0 80 30" fill="none" xmlns="http://www.w3.org/2000/svg">
<g clip-path="url(#clip0_456_2893)">
<path fill-rule="evenodd" clip-rule="evenodd" d="M7.75365 9.0867H16.7344V5.04492H3.69554V16.6616C3.69554 16.6616 5.68174 15.7328 8.59858 15.8453C11.5154 15.9578 12.5649 16.9668 12.7204 18.2007C12.8771 19.4359 12.4436 21.4813 10.3987 21.6585C8.35368 21.8344 6.75321 21.5531 5.38172 21.1175C4.01024 20.6818 3 20.294 3 20.294V24.9235C3 24.9235 6.42136 26.0772 9.51821 25.9947C12.6151 25.9121 14.5878 25.012 15.6801 23.978C16.7724 22.9451 17.9332 20.7859 17.654 18.5215C17.0271 13.4444 12.5465 11.3966 7.72549 12.633L7.75488 9.0855L7.75365 9.0867Z" fill="#000001"/>
<path d="M22.7518 21.7031H18.5638V25.8454H22.7518V21.7031Z" fill="#000001"/>
<path d="M22.7518 21.7031H18.5638V25.8454H22.7518V21.7031Z" stroke="#231F20" stroke-width="0.48" stroke-miterlimit="22.93"/>
<path fill-rule="evenodd" clip-rule="evenodd" d="M24.3976 21.7392H28.1777V9.11239H24.5262V5H32.3167C32.3167 10.5702 32.3179 16.1092 32.3179 21.7392H35.9499V25.8588H24.3976V21.7392Z" fill="#000001"/>
<path fill-rule="evenodd" clip-rule="evenodd" d="M37.5454 21.7392H41.3256V9.11239H37.674V5H45.4645C45.4645 10.5702 45.462 16.1092 45.462 21.7392H49.0977V25.8588H37.5454V21.7392Z" fill="#000001"/>
<path fill-rule="evenodd" clip-rule="evenodd" d="M59.5577 9.80405H66.633C67.8564 9.80405 68.8568 10.7819 68.8568 11.9775V18.893C68.8568 20.0886 67.8564 21.0665 66.633 21.0665H59.5577C58.3344 21.0665 57.3339 20.0886 57.3339 18.893V11.9775C57.3339 10.7819 58.3344 9.80405 59.5577 9.80405ZM56.3384 8.79271H69.8989V22.0467H56.3384V8.79271ZM57.5298 6.44568H68.869C70.8283 6.44568 72.4325 8.01236 72.4325 9.92853V21.0114C72.4325 22.9264 70.8295 24.4942 68.869 24.4942H57.5298C55.5706 24.4942 53.9664 22.9276 53.9664 21.0114V9.92733C53.9664 8.01236 55.5694 6.44448 57.5298 6.44448V6.44568ZM52.5031 5.04297H73.7354V25.7952H52.5031V5.04297ZM62.6851 12.1882H63.617V14.9996L66.4934 14.9852L66.4983 15.896L63.617 15.9104V18.7266H62.6851V15.9152L59.8087 15.9296L59.8038 15.0187L62.6851 15.0044V12.1882Z" fill="#F04A23"/>
<path fill-rule="evenodd" clip-rule="evenodd" d="M74.595 6.37586C74.6856 6.96112 75.2453 7.48654 75.9677 7.37643C76.5653 7.28547 77.0906 6.74928 76.9853 6.03835C76.8984 5.4459 76.3339 4.91929 75.6114 5.0306C75.0126 5.12275 74.4836 5.66253 74.5938 6.37586M75.2587 6.79715H75.5857V6.33636C76.0094 6.27772 75.8943 6.74688 76.089 6.79715H76.3902C76.3584 6.70499 76.2114 6.3974 76.1465 6.3208L76.0535 6.23702C76.0228 6.21189 76.0388 6.22625 76.0155 6.20471C76.2959 6.11614 76.4526 5.55721 75.7338 5.55601L75.2587 5.55841V6.79835V6.79715ZM75.8759 6.05989C75.8 6.12093 75.7216 6.11135 75.5943 6.10417L75.5857 5.79658C75.9114 5.7511 75.9592 5.89831 75.8943 6.03595C75.8918 6.04074 75.8771 6.05391 75.8759 6.06109V6.05989ZM75.653 5.26997C76.2151 5.17781 76.6718 5.59431 76.7416 6.06109C76.8274 6.6272 76.4184 7.05807 75.9359 7.13706C75.3677 7.22922 74.9097 6.81391 74.8387 6.34474C74.7505 5.76546 75.1583 5.35135 75.653 5.26997Z" fill="#F04A23"/>
</g>
<defs>
<clipPath id="clip0_456_2893">
<rect width="74" height="21" fill="white" transform="translate(3 5)"/>
</clipPath>
</defs>
</svg>
