<svg width="80" height="30" viewBox="0 0 80 30" fill="none" xmlns="http://www.w3.org/2000/svg">
<g clip-path="url(#clip0_451_52)">
<path fill-rule="evenodd" clip-rule="evenodd" d="M50.776 -4.28062V-10.0441L53.0781 -12.8841V-17.2416H49.6877V-15.1673H46.2274V-17.2416H42.4184V-15.1673H38.9582V-17.2416H35.5677V-12.8841L37.8559 -10.0441V-4.28062H13.5646L38.8187 -35.8269L64.0727 -4.28062H50.776ZM38.8187 -39.5996L8.68127 -1.9418H68.97L38.8187 -39.5996ZM24.6011 13.358V12.7872C24.0848 13.1909 23.457 13.539 22.4663 13.539C20.5967 13.539 19.6898 12.286 19.6898 10.0447V4.82408H22.6477V9.66878C22.6477 10.7825 23.0244 11.0749 23.6244 11.0749C24.2244 11.0749 24.6011 10.7825 24.6011 9.71054V4.82408H27.559V13.3719H24.6011M69.0398 13.358L66.7516 7.38565L68.97 4.81016H65.6214L65.0494 5.548C64.6866 6.02133 63.975 6.99585 63.7657 7.39957C63.7797 6.85663 63.8076 5.548 63.8076 4.97721V1.44114L60.8636 2.61055V13.358H63.8076V10.7686L64.575 9.79408L65.8726 13.358H69.0398ZM59.9427 4.99114C59.5939 4.78231 59.1754 4.62918 58.5614 4.62918C57.808 4.62918 57.236 4.93545 56.7337 5.42271V4.81016H53.7897V13.358H56.7337V8.70819C56.7337 7.66408 57.1801 7.32996 57.8917 7.32996C58.4638 7.32996 58.8824 7.63623 59.2591 8.05388L59.9427 4.99114ZM49.5481 11.047C49.2691 11.2698 48.7807 11.4647 48.2924 11.4647C47.6506 11.4647 47.3855 11.0749 47.3855 10.5319C47.3855 9.94722 47.6925 9.61309 48.2924 9.61309C48.8505 9.61309 49.2272 9.71054 49.5481 9.86368V11.047ZM52.3247 13.358V7.8033C52.3247 5.81251 51.2782 4.62918 48.8784 4.62918C47.3994 4.62918 46.2414 4.90761 45.195 5.40878L45.9623 7.34388C46.7995 6.88447 47.4692 6.73133 48.3482 6.73133C49.1435 6.73133 49.5481 6.99585 49.5481 7.74761V8.16526C49.0737 7.95643 48.5575 7.8033 47.7762 7.8033C45.9623 7.8033 44.6927 8.74996 44.6927 10.5876C44.6927 12.5088 45.8089 13.539 47.4692 13.539C48.2505 13.539 49.004 13.2188 49.5621 12.7872V13.358H52.3247ZM44.581 4.81016H41.7766L41.5534 6.07702C41.358 7.05153 41.079 8.94486 40.9813 9.55741C40.8697 8.94486 40.5209 7.06545 40.3116 6.03526L40.0465 4.79624H37.6327L37.3537 6.03526C37.1444 7.06545 36.7956 8.93094 36.6839 9.55741C36.5863 8.94486 36.3072 7.05153 36.1258 6.07702L35.8886 4.81016H33.0423L35.4561 13.358H37.7862L38.1489 11.6456C38.3722 10.6154 38.6931 8.74996 38.8047 8.12349C38.9024 8.73603 39.2512 10.6294 39.4465 11.6039L39.8093 13.3441H42.1952L44.581 4.81016ZM32.2331 13.358V1.44114L29.2891 2.61055V13.358H32.2331ZM14.332 8.65251C15.0855 8.65251 15.4622 9.07016 15.4622 9.73839C15.4622 10.3927 15.0994 10.866 14.3181 10.866H11.8206V8.65251H14.332ZM14.1925 4.4482C14.9459 4.4482 15.1831 4.838 15.1831 5.33918C15.1831 5.88212 14.918 6.23016 14.1925 6.23016H11.8066V4.43428H14.1925V4.4482ZM14.2623 13.358C17.1365 13.358 18.5596 12.0076 18.5596 9.6827C18.5596 8.40192 17.9597 7.59447 16.9272 7.1629C17.6946 6.71741 18.2945 6.17447 18.2945 4.93545C18.2945 3.0282 17.1365 1.97016 14.2902 1.97016H8.77894V13.3719H14.2623V13.358ZM67.8678 1.95624C67.3655 1.95624 67.0027 2.30428 67.0027 2.83329C67.0027 3.36232 67.3794 3.71036 67.8678 3.71036C68.37 3.71036 68.7328 3.36232 68.7328 2.83329C68.7328 2.30428 68.3561 1.95624 67.8678 1.95624ZM67.8678 3.9331C67.2399 3.9331 66.7795 3.45977 66.7795 2.84722C66.7795 2.23467 67.2538 1.76134 67.8678 1.76134C68.4817 1.76134 68.9561 2.23467 68.9561 2.84722C68.9561 3.45977 68.4817 3.9331 67.8678 3.9331ZM67.7422 3.40408H67.4352V2.29036H67.8817C68.1608 2.29036 68.3282 2.45741 68.3282 2.68016C68.3282 2.83329 68.2584 2.94467 68.1189 3.00035L68.3561 3.39016H68.0352L67.8399 3.04212H67.7422V3.40408ZM67.8817 2.81937C67.9794 2.81937 68.0352 2.76369 68.0352 2.68016C68.0352 2.58271 67.9794 2.54094 67.8817 2.54094H67.7422V2.81937H67.8817Z" fill="black"/>
<path fill-rule="evenodd" clip-rule="evenodd" d="M54.3602 -12.4188V-13.9899L60.9062 -5.80083H54.1235L52.0622 -8.38685V-9.58254L54.3602 -12.4188ZM50.8644 -18.3556L38.9563 -33.2461L35.5719 -29.0195L44.0956 -18.3556H50.8644ZM34.5413 -17.1877V-18.3556H38.817L32.9257 -25.7244L29.2906 -21.1641L34.5413 -14.5878V-17.1877ZM36.3101 -5.81473L26.6583 -17.8829L23.051 -13.3643L29.0817 -5.81473H36.3101ZM23.817 -5.81473L20.4187 -10.0692L17.0064 -5.81473H23.817ZM8.97021 30.0004H69.0399V16.9173H8.97021V30.0004Z" fill="#DA322A"/>
<path fill-rule="evenodd" clip-rule="evenodd" d="M31.4962 19.3284H37.3789V21.2686H33.7339V22.8878H36.5485V24.7164H33.7339V27.6896H31.4962V19.3284ZM40.5735 23.0972V21.0872H41.6431C41.9668 21.0872 42.206 21.1849 42.389 21.3664C42.5719 21.5478 42.6564 21.7991 42.6564 22.1201C42.6564 22.4272 42.5579 22.6645 42.3749 22.846C42.192 23.0274 41.9527 23.1112 41.6572 23.1112H40.5735V23.0972ZM38.3922 27.6896H40.5735V24.842H41.5164L42.9519 27.6896H45.3585L43.543 24.4791C43.9511 24.2418 44.2748 23.9068 44.5141 23.502C44.7533 23.0972 44.88 22.6226 44.88 22.0643C44.88 21.6176 44.8096 21.2128 44.6689 20.8778C44.5281 20.5288 44.317 20.2497 44.0637 20.0124C43.7963 19.789 43.4867 19.6076 43.1208 19.4959C42.7549 19.3842 42.3468 19.3145 41.8823 19.3145H38.3922V27.6896Z" fill="#FFFFFE"/>
</g>
<defs>
<clipPath id="clip0_451_52">
<rect width="79.2" height="30" fill="white"/>
</clipPath>
</defs>
</svg>
