<svg width="80" height="30" viewBox="0 0 80 30" fill="none" xmlns="http://www.w3.org/2000/svg">
<rect x="18" y="2" width="43" height="26.5644" fill="#FFCD05"/>
<path d="M33.6697 13.6062H29.6089L29.6399 9.68266C29.5314 8.54606 27.9893 8.3748 27.749 9.53474C27.8033 13.0224 27.749 16.5178 27.7723 20.0132C27.7723 20.4959 27.6018 21.0019 28.0513 21.3833C28.7255 21.9516 29.6322 21.4067 29.6554 20.5893C29.6864 19.4138 29.4694 18.1292 29.6012 16.9537C29.6089 16.8837 29.6012 16.8136 29.6632 16.7591L33.662 16.8292V19.8886C33.662 21.0564 32.7088 21.7336 31.9183 22.4031C30.9186 23.2517 29.8492 24.0224 28.8572 24.8787C26.4239 25.1979 23.9828 24.1236 23.634 21.4767C23.8433 17.4364 23.3473 13.108 23.634 9.10658C23.8898 5.47104 28.5705 4.80932 31.2983 5.94592C34.4989 7.27713 33.4992 10.8426 33.6697 13.6062Z" fill="#231F20"/>
<path d="M55.5003 5.83008V9.59017H52.7724V24.794C52.7259 24.8563 52.7182 24.8641 52.6407 24.8641C52.2997 24.8641 51.92 24.7707 51.5635 24.8563L48.3319 22.116V9.59017H45.6041V5.83008H55.508H55.5003Z" fill="#231F20"/>
<path d="M43.2404 5.90036L46.7355 20.8084L40.4816 15.577L34.4834 20.3569L37.6685 5.89258H43.2482L43.2404 5.90036ZM41.5355 14.5649L40.4893 9.27121L39.4431 14.5649H41.5355Z" fill="#231F20"/>
<path d="M30.4924 24.8871L40.4893 16.7363L50.1685 24.8871H30.4924Z" fill="#231F20"/>
</svg>
