<svg width="80" height="30" viewBox="0 0 80 30" fill="none" xmlns="http://www.w3.org/2000/svg">
<g clip-path="url(#clip0_454_2805)">
<path d="M31.4683 13.7995C31.7557 13.5466 31.9588 13.2067 32.2671 12.9726C33.1963 12.2667 34.6809 12.1732 35.3947 13.2197L35.5387 12.6406H37.6276L37.7357 12.7494V18.5472C37.7357 19.0234 37.3611 19.8793 37.0183 20.217C35.7354 21.4809 31.5043 21.3237 31.3249 18.9458H33.6659C33.7135 18.9458 33.9922 19.414 34.1867 19.5089C35.26 20.0308 35.5712 18.461 35.4681 17.7123C35.3752 17.587 35.3644 17.6884 35.2866 17.75C34.6232 18.2769 34.4885 18.5153 33.5226 18.4371C31.4848 18.2733 31.0879 16.4781 31.237 14.7561C31.2443 14.6742 31.2709 14.6148 31.1837 14.5576C30.4894 14.3699 29.6675 14.4184 29.3167 15.1497C29.2331 15.3236 29.0912 15.8418 29.0912 16.0099V18.7277H26.7863V12.6762L26.8943 12.5675H28.9112C29.1309 12.6559 28.9436 13.5125 29.056 13.5103C29.3059 13.3806 29.3779 13.0907 29.594 12.8921C30.0464 12.4761 30.9388 12.2391 31.4683 12.6037V13.7995ZM34.186 14.1785C33.0508 14.4148 33.2035 17.113 34.6679 16.9122C35.8384 16.7521 35.9119 13.8191 34.186 14.1785Z" fill="black"/>
<path d="M54.9864 10.4668C56.3716 10.632 57.2561 11.8307 56.8455 13.2077C56.6755 13.7781 56.3168 13.9006 55.9588 14.3072C57.4139 14.6115 57.6955 16.577 56.981 17.6924C56.5761 18.3251 55.5194 18.9462 54.7696 18.9462H49.6194L49.6914 10.4668H54.9857H54.9864ZM52.2132 13.8006H53.9059C54.112 13.8006 54.4944 13.4056 54.5182 13.178C54.542 12.9505 54.2524 12.496 54.05 12.496H52.2132V13.8006ZM52.2132 15.3225C52.0497 15.6863 52.1923 16.0204 52.2067 16.3654C52.2103 16.4451 52.0396 16.9169 52.2492 16.9169H54.122C54.444 16.9169 54.7941 16.469 54.8042 16.1487C54.8128 15.874 54.47 15.3225 54.1941 15.3225H52.2132Z" fill="black"/>
<path d="M12.02 13.1479H9.75104L9.59186 13.0529C9.29365 12.1361 8.34788 11.91 7.52673 12.2869C6.27627 12.8616 6.29932 15.4047 7.19106 16.3034C7.9193 17.0368 9.61779 17.0136 9.85909 15.8294H8.81464L8.70659 15.7207V14.09H12.1641V18.6196L12.056 18.7283H10.6874L10.5902 18.6087L10.5066 17.8586C9.89583 18.3362 9.4197 18.8073 8.60143 18.8762C3.04928 19.3414 2.52778 11.3469 7.00522 10.167C9.30157 9.56189 11.7434 10.6113 12.0207 13.1479H12.02Z" fill="black"/>
<path d="M47.6032 18.728H45.4063L45.1902 18.2221C44.9193 18.5301 44.4785 18.7555 44.078 18.841C42.605 19.1549 40.8827 18.5511 41.1392 16.7538C41.3927 14.9811 43.6285 15.3094 44.8091 14.9384C45.8774 14.6028 44.9467 13.4483 43.9102 13.9614C43.6862 14.0723 43.581 14.4521 43.5335 14.4521H41.5166C41.3164 14.2383 41.6088 13.6222 41.7687 13.4012C42.6122 12.2409 46.007 12.1815 46.9794 13.0859C47.6832 13.7404 47.4728 15.7761 47.4613 16.7379C47.4577 17.0647 47.3554 17.3749 47.3835 17.7525C47.4102 18.1033 47.5607 18.3888 47.6018 18.728H47.6032ZM45.2262 16.0465C44.7126 16.2378 43.035 16.3849 43.6091 17.2756C43.9837 17.8561 45.129 17.5452 45.2219 16.8748C45.2586 16.6125 45.2067 16.3146 45.2262 16.0465Z" fill="black"/>
<path d="M22.7381 12.4436C24.7276 12.2885 26.2965 13.4379 26.4247 15.5027C26.6991 19.9221 20.1328 20.0939 19.7359 16.1455C19.5277 14.0721 20.6593 12.6059 22.7381 12.4436ZM22.9521 14.1025C21.9227 14.2482 21.8846 15.7658 22.154 16.5391C22.53 17.6189 23.9238 17.3334 24.0491 16.2267C24.1355 15.4607 24.0923 13.9416 22.9521 14.1025Z" fill="black"/>
<path d="M58.5051 13.536C59.9745 11.9988 63.3902 12.422 64.1322 14.5991C65.0967 17.4278 63.0546 19.6136 60.1892 19.0736C57.6559 18.596 56.8059 15.313 58.5051 13.536ZM60.6934 14.3969C59.9897 14.5426 59.9392 15.7145 60.0019 16.2914C60.1705 17.8496 61.8567 17.7445 62.0101 16.3733C62.1182 15.4043 61.9698 14.1331 60.6941 14.3969H60.6934Z" fill="black"/>
<path d="M67.5414 12.6612C70.1612 12.4156 71.9454 14.3955 71.1927 16.9872C70.275 20.147 65.0758 19.7673 64.694 16.4241C64.4628 14.3984 65.4727 12.8547 67.5407 12.6612H67.5414ZM67.6804 14.3963C66.9342 14.5506 66.9133 15.8298 66.9983 16.4255C67.1993 17.8351 68.856 17.7677 68.9957 16.3712C69.0944 15.379 69.0015 14.123 67.6804 14.3963Z" fill="black"/>
<path d="M14.8292 16.1907C14.8976 17.1988 15.8261 17.7191 16.7265 17.2662C16.8208 17.2191 17.0268 16.9879 17.0981 16.9879H19.151C18.932 18.0264 17.7976 18.7135 16.8028 18.8649C14.3257 19.2411 12.4032 17.7655 12.6769 15.1485C13.0399 11.6807 18.6432 11.2857 19.2771 15.013C19.3297 15.3217 19.4377 15.9515 19.2591 16.1907H14.8292ZM14.9012 14.9586H17.0261C17.2667 14.9586 17.011 14.3941 16.9188 14.2694C16.3202 13.4592 14.8464 13.9513 14.9012 14.9586Z" fill="black"/>
<path d="M74.7589 10.9004V12.7847H75.8034C75.8163 12.7847 75.9834 12.9528 75.9834 12.9659V14.1255C75.9834 14.3414 74.8792 14.0747 74.6869 14.1617V16.5171C74.6869 16.5395 74.8137 16.9026 74.8389 16.9439C75.0967 17.3657 75.8257 17.115 75.9193 17.2476C75.9914 17.5317 76.072 18.7297 75.8819 18.879C75.7241 19.0036 75.1803 18.9355 74.939 18.9449C74.4895 18.963 74.0588 19.0167 73.5863 18.9275C71.774 18.5833 72.5605 15.5633 72.3711 14.2798C72.2962 14.0486 71.5197 14.2059 71.3 14.1617L71.3727 12.7847C71.4412 12.7122 72.3207 12.9086 72.4525 12.6753V10.9004H74.7575H74.7589Z" fill="black"/>
<path d="M40.6882 12.6406V18.6921L40.5802 18.8009H38.4193L38.3076 18.5508L38.3832 12.6406H40.6882Z" fill="black"/>
<path d="M40.6882 10.3205V11.8062L40.5802 11.9149H38.4913L38.3832 11.8062V10.3568L38.4913 10.248H40.5082C40.5319 10.248 40.6176 10.3437 40.6882 10.3205Z" fill="black"/>
</g>
<defs>
<clipPath id="clip0_454_2805">
<rect width="72" height="11" fill="white" transform="translate(4 10)"/>
</clipPath>
</defs>
</svg>
