<svg width="80" height="30" viewBox="0 0 80 30" fill="none" xmlns="http://www.w3.org/2000/svg">
<g clip-path="url(#clip0_456_2914)">
<path fill-rule="evenodd" clip-rule="evenodd" d="M0.0723267 11.0988H3.62378V15.9238H6.39259V11.0723H9.91773V22.7426H6.39259V17.3992H3.59747V22.6828H0.0723267V11.0988Z" fill="#E40F1A"/>
<path d="M0.0723267 11.0988H3.62378V15.9238H6.39259V11.0723H9.91773V22.7426H6.39259V17.3992H3.59747V22.6828H0.0723267V11.0988Z" stroke="#E40F1A" stroke-width="0.22" stroke-miterlimit="2.61"/>
<path fill-rule="evenodd" clip-rule="evenodd" d="M16.7181 15.904C16.8167 16.1632 16.922 16.655 16.9285 17.3129C16.9417 18.4627 16.9417 19.8184 16.9154 20.0976C16.8694 20.6425 16.6786 21.4268 16.2248 21.8122C15.771 22.1977 15.212 22.0382 14.87 21.5132C14.5215 20.9881 14.4031 20.4897 14.4294 19.001C14.4557 17.5123 14.3768 16.4822 14.653 15.8707C14.9292 15.2593 15.2186 15.0068 15.4817 14.9602C16.0407 14.8472 16.4616 15.2261 16.7247 15.904H16.7181ZM15.5343 13.95C15.5343 13.95 16.6786 13.8836 17.5994 14.2491C18.5201 14.6146 19.2107 15.0267 19.8552 16.1432C20.4997 17.2597 20.5721 18.8747 20.1183 20.1906C19.6645 21.5065 18.7503 22.1512 18.1452 22.4835C17.5336 22.8158 16.58 22.9886 15.6461 22.9886C14.7122 22.9886 13.5086 22.7826 12.6997 22.1313C11.8908 21.4799 11.3515 20.7688 11.1015 19.8052C10.8516 18.8415 10.7004 17.1135 11.7198 15.7511C12.7392 14.3887 14.0216 14.1361 14.6135 14.0364C15.1397 13.9434 15.4882 13.9567 15.5409 13.9567L15.5343 13.95Z" fill="#E40F1A"/>
<path d="M16.7181 15.904C16.8167 16.1632 16.922 16.655 16.9285 17.3129C16.9417 18.4627 16.9417 19.8184 16.9154 20.0976C16.8694 20.6426 16.6786 21.4268 16.2248 21.8122C15.771 22.1977 15.212 22.0382 14.87 21.5132C14.5215 20.9881 14.4031 20.4897 14.4294 19.001C14.4557 17.5123 14.3768 16.4822 14.653 15.8707C14.9292 15.2593 15.2186 15.0068 15.4817 14.9602C16.0407 14.8472 16.4616 15.2261 16.7247 15.904H16.7181ZM15.5343 13.95C15.5343 13.95 16.6786 13.8836 17.5994 14.2491C18.5201 14.6146 19.2107 15.0267 19.8552 16.1432C20.4997 17.2597 20.5721 18.8747 20.1183 20.1906C19.6645 21.5065 18.7503 22.1512 18.1452 22.4835C17.5336 22.8158 16.58 22.9886 15.6461 22.9886C14.7122 22.9886 13.5086 22.7826 12.6997 22.1313C11.8908 21.4799 11.3515 20.7688 11.1015 19.8052C10.8516 18.8415 10.7004 17.1135 11.7198 15.7511C12.7392 14.3887 14.0216 14.1361 14.6135 14.0364C15.1397 13.9434 15.4882 13.9567 15.5409 13.9567L15.5343 13.95Z" stroke="#E40F1A" stroke-width="0.22" stroke-miterlimit="2.61"/>
<path fill-rule="evenodd" clip-rule="evenodd" d="M24.6694 16.6084V22.6895H21.3679V14.2358H24.6825V15.3722C24.6825 15.3722 25.1232 14.7076 25.794 14.382C26.4648 14.0563 27.6224 13.7573 28.8062 14.2624C29.99 14.7675 30.1807 15.8375 30.207 16.2495V22.6895H26.9581V16.8011C26.9581 16.5951 26.9581 16.2362 26.695 15.9106C26.5109 15.6846 25.9716 15.545 25.5244 15.7909C25.0706 16.0368 24.6102 16.5419 24.676 16.6017L24.6694 16.6084Z" fill="#E40F1A"/>
<path d="M24.6694 16.6084V22.6895H21.3679V14.2358H24.6825V15.3722C24.6825 15.3722 25.1232 14.7076 25.794 14.382C26.4648 14.0563 27.6224 13.7573 28.8062 14.2624C29.99 14.7675 30.1807 15.8375 30.207 16.2495V22.6895H26.9581V16.8011C26.9581 16.5951 26.9581 16.2362 26.695 15.9106C26.5109 15.6846 25.9716 15.545 25.5244 15.7909C25.0706 16.0368 24.6102 16.5419 24.676 16.6017L24.6694 16.6084Z" stroke="#E40F1A" stroke-width="0.22" stroke-miterlimit="2.61"/>
<path fill-rule="evenodd" clip-rule="evenodd" d="M31.7197 16.2436C32.3774 14.9077 34.0479 13.8444 36.113 13.9507C38.1781 14.057 39.3619 14.8147 40.0853 16.217C40.7101 17.4133 40.618 18.9817 40.6115 18.9817L34.6661 18.9684V20.6897C34.6661 20.6897 34.7253 21.0353 34.8634 21.2148C34.9949 21.3942 35.5342 22.0987 37.1521 21.8395C38.941 21.5537 38.8884 20.271 38.9278 20.271H40.3418C40.3418 20.271 40.3221 21.1217 39.7368 21.6866C39.1514 22.2515 38.1057 22.8364 36.9416 22.956C35.7776 23.0756 34.1268 23.1089 32.7983 21.9923C32.0222 21.3344 31.6671 20.6299 31.4369 19.972C31.1541 19.1612 31.0686 17.5861 31.7263 16.2502L31.7197 16.2436ZM34.6595 17.8519C34.6595 17.8519 34.6398 16.7487 34.7319 16.217C34.8239 15.6853 35.1133 15.2533 35.3764 15.0672C35.6855 14.8413 36.3168 14.808 36.6588 15.1603C37.0008 15.5125 37.0732 15.8116 37.1192 15.9644C37.1652 16.1173 37.2573 16.6157 37.2507 17.0876C37.2507 17.5595 37.2507 17.832 37.2507 17.8519H34.6529H34.6595Z" fill="#E40F1A"/>
<path d="M31.7197 16.2436C32.3774 14.9077 34.0479 13.8444 36.113 13.9507C38.1781 14.057 39.3619 14.8147 40.0853 16.217C40.7101 17.4133 40.618 18.9817 40.6115 18.9817L34.6661 18.9684V20.6897C34.6661 20.6897 34.7253 21.0353 34.8634 21.2148C34.9949 21.3942 35.5342 22.0987 37.1521 21.8395C38.941 21.5537 38.8884 20.271 38.9278 20.271H40.3418C40.3418 20.271 40.3221 21.1217 39.7368 21.6866C39.1514 22.2515 38.1057 22.8364 36.9416 22.956C35.7776 23.0756 34.1268 23.1089 32.7983 21.9923C32.0222 21.3344 31.6671 20.6299 31.4369 19.972C31.1541 19.1612 31.0686 17.5861 31.7263 16.2502L31.7197 16.2436ZM34.6595 17.8519C34.6595 17.8519 34.6398 16.7487 34.7319 16.217C34.8239 15.6853 35.1133 15.2533 35.3764 15.0672C35.6855 14.8413 36.3168 14.808 36.6588 15.1603C37.0008 15.5125 37.0732 15.8116 37.1192 15.9644C37.1652 16.1173 37.2573 16.6157 37.2507 17.0876C37.2507 17.5595 37.2507 17.832 37.2507 17.8519H34.6529H34.6595Z" stroke="#E40F1A" stroke-width="0.22" stroke-miterlimit="2.61"/>
<path fill-rule="evenodd" clip-rule="evenodd" d="M61.736 16.2436C62.3937 14.9077 64.0642 13.8444 66.1293 13.9507C68.1878 14.057 69.3782 14.8147 70.1017 16.217C70.7265 17.4133 70.6278 18.9817 70.6147 18.9817L64.6758 18.9684V20.6897C64.6758 20.6897 64.735 21.0353 64.8666 21.2148C64.9981 21.3942 65.5374 22.0987 67.1553 21.8395C68.9442 21.5537 68.8915 20.2644 68.931 20.2644H70.345C70.345 20.2644 70.3253 21.1217 69.74 21.6866C69.1546 22.2515 68.1089 22.8364 66.9448 22.956C65.7807 23.0756 64.13 23.1089 62.8015 21.9923C62.0254 21.3344 61.6703 20.6299 61.4467 19.972C61.1639 19.1612 61.0784 17.5861 61.736 16.2502V16.2436ZM64.6693 17.8519C64.6693 17.8519 64.6495 16.7487 64.7416 16.217C64.8337 15.6853 65.1231 15.2533 65.3861 15.0672C65.6952 14.8413 66.3266 14.808 66.6686 15.1603C67.0106 15.5125 67.0829 15.8116 67.129 15.9644C67.175 16.1173 67.2671 16.6157 67.2605 17.0876C67.2605 17.5595 67.2605 17.832 67.2605 17.8519H64.6627H64.6693Z" fill="#E40F1A"/>
<path d="M61.736 16.2436C62.3937 14.9077 64.0642 13.8444 66.1293 13.9507C68.1878 14.057 69.3782 14.8147 70.1017 16.217C70.7265 17.4133 70.6278 18.9817 70.6147 18.9817L64.6758 18.9684V20.6897C64.6758 20.6897 64.735 21.0353 64.8666 21.2148C64.9981 21.3942 65.5374 22.0987 67.1553 21.8395C68.9442 21.5537 68.8915 20.2644 68.931 20.2644H70.345C70.345 20.2644 70.3253 21.1217 69.74 21.6866C69.1546 22.2515 68.1089 22.8364 66.9448 22.956C65.7807 23.0756 64.13 23.1089 62.8015 21.9923C62.0254 21.3344 61.6703 20.6299 61.4467 19.972C61.1639 19.1612 61.0784 17.5861 61.736 16.2502V16.2436ZM64.6693 17.8519C64.6693 17.8519 64.6495 16.7487 64.7416 16.217C64.8337 15.6853 65.1231 15.2533 65.3861 15.0672C65.6952 14.8413 66.3266 14.808 66.6686 15.1603C67.0106 15.5125 67.0829 15.8116 67.129 15.9644C67.175 16.1173 67.2671 16.6157 67.2605 17.0876C67.2605 17.5595 67.2605 17.832 67.2605 17.8519H64.6627H64.6693Z" stroke="#E40F1A" stroke-width="0.22" stroke-miterlimit="2.61"/>
<path fill-rule="evenodd" clip-rule="evenodd" d="M40.3221 14.2359H43.913L45.4519 18.2568L47.0895 14.2359L51.6144 14.2492L53.0678 18.9878L54.3503 14.2359H57.2375L58.6581 18.9147L59.9274 14.2359H61.4137L59.1119 22.7029H56.4022L54.8896 17.765L53.5545 22.7029H50.7725L48.2931 14.535L44.814 23.1482C44.814 23.1482 44.3142 24.5572 43.6959 25.1088C43.0777 25.6604 42.4069 26.0725 41.2888 25.8731C40.1708 25.6737 39.7302 25.0822 39.6512 24.391C39.5723 23.6998 39.9209 22.9688 40.7101 22.8159C41.4993 22.6631 42.0123 22.9688 42.1964 23.3542C42.3806 23.7397 42.42 24.1784 42.3148 24.4243C42.2096 24.6702 42.0386 24.823 42.0386 24.823C42.0386 24.823 42.4792 24.9426 42.887 24.504C43.2948 24.072 43.5249 23.4606 43.5973 23.208C43.6696 22.9621 43.6696 22.8757 43.6696 22.8757L40.3286 14.2227L40.3221 14.2359Z" fill="#E40F1A"/>
<path d="M40.3221 14.2359H43.913L45.4519 18.2568L47.0895 14.2359L51.6144 14.2492L53.0678 18.9878L54.3503 14.2359H57.2375L58.6581 18.9147L59.9274 14.2359H61.4137L59.1119 22.7029H56.4022L54.8896 17.765L53.5545 22.7029H50.7725L48.2931 14.535L44.814 23.1482C44.814 23.1482 44.3142 24.5572 43.6959 25.1088C43.0777 25.6604 42.4069 26.0725 41.2888 25.8731C40.1708 25.6737 39.7302 25.0822 39.6512 24.391C39.5723 23.6998 39.9209 22.9688 40.7101 22.8159C41.4993 22.6631 42.0123 22.9688 42.1964 23.3542C42.3806 23.7397 42.42 24.1784 42.3148 24.4243C42.2096 24.6702 42.0386 24.823 42.0386 24.823C42.0386 24.823 42.4792 24.9426 42.887 24.504C43.2948 24.072 43.5249 23.4606 43.5973 23.208C43.6696 22.9621 43.6696 22.8757 43.6696 22.8757L40.3286 14.2227L40.3221 14.2359Z" stroke="#E40F1A" stroke-width="0.22" stroke-miterlimit="2.61"/>
<path fill-rule="evenodd" clip-rule="evenodd" d="M71.6077 11.0723H74.7712V22.7027H71.6077V11.0723Z" fill="#E40F1A"/>
<path d="M71.6077 11.0723H74.7712V22.7027H71.6077V11.0723Z" stroke="#E40F1A" stroke-width="0.22" stroke-miterlimit="2.61"/>
<path fill-rule="evenodd" clip-rule="evenodd" d="M75.7642 11.0859H78.9276V22.7164H75.7642V11.0859Z" fill="#E40F1A"/>
<path d="M75.7642 11.0859H78.9276V22.7164H75.7642V11.0859Z" stroke="#E40F1A" stroke-width="0.22" stroke-miterlimit="2.61"/>
</g>
<defs>
<clipPath id="clip0_456_2914">
<rect width="79" height="15" fill="white" transform="translate(0 11)"/>
</clipPath>
</defs>
</svg>
