<svg width="80" height="30" viewBox="0 0 80 30" fill="none" xmlns="http://www.w3.org/2000/svg">
<path fill-rule="evenodd" clip-rule="evenodd" d="M26.8539 25.5269C26.7503 25.6055 26.7528 25.6083 26.7421 25.6118C26.7098 25.6223 26.7124 25.5878 26.6803 25.5982C26.3643 25.5383 26.3426 25.5215 26.2157 25.4307C25.8845 25.1938 25.6146 25.3655 25.4555 25.2205C25.3395 25.1148 25.4245 25.0456 25.2483 24.9212C24.9368 24.7011 25.0743 24.5617 24.9262 24.3289C24.7371 24.0316 24.8598 23.9056 24.7472 23.5478C24.6928 23.3748 24.1301 22.2296 24.0817 22.1451C23.8442 21.7309 23.8482 21.7296 23.8268 21.6942C23.5167 21.1794 23.4983 21.0975 23.4456 21.0674C23.3998 21.0412 23.3446 21.1004 23.3384 21.107C23.2961 21.1523 23.3522 21.1828 22.993 21.8003C22.643 22.4018 22.2786 22.7733 22.1321 22.9246C21.7797 23.2888 21.5474 24.4927 21.4821 24.7099C21.458 24.7899 21.3509 25.1462 21.2956 25.7369C21.2438 26.2898 21.2106 26.3289 21.3086 26.4635C21.4924 26.716 21.417 26.7978 21.4799 27.1486L21.3937 27.2625C21.3918 27.2645 21.3177 27.2989 21.3028 27.4106C21.291 27.4986 21.4121 27.8863 21.4523 27.9922C21.6148 28.4205 21.5423 28.62 21.5171 28.7551C21.4959 28.8693 21.5469 29.1548 21.5089 29.1928C21.5061 29.1956 21.4145 29.2029 21.4076 29.2006C21.3968 29.1968 21.3953 29.1811 21.3878 29.1725C21.3543 29.1345 21.3556 29.1349 21.3222 29.0965C21.1616 28.9116 21.0774 29.0358 20.8254 29.0058C20.5475 28.9726 20.4921 28.6977 20.3591 28.8731C20.2258 29.0487 20.2011 29.0209 19.9958 29.1016C19.689 29.2222 19.7913 29.5077 19.7629 29.583C19.7615 29.5867 19.6831 29.6336 19.6768 29.6342C19.6666 29.6352 19.666 29.6168 19.6589 29.6093C19.5689 29.5134 19.6021 29.4974 19.5713 29.345C19.5136 29.06 19.3527 29.1335 19.2021 29.0404C19.1099 28.9834 19.1162 28.9766 19.0849 28.9542C18.9766 28.8761 18.9625 28.911 18.8491 28.9817C18.6534 29.1037 18.4363 29.0411 18.4175 29.3305C18.4111 29.4296 18.4484 29.4501 18.3672 29.5052C18.3341 29.5277 18.3282 29.52 18.3033 29.488C18.2718 29.4475 18.2688 29.4495 18.2554 29.3991C18.2219 29.2732 18.1916 29.0318 18.1874 29.0153C18.1539 28.8828 17.9018 28.717 17.7412 28.9564C17.7321 28.97 17.7342 28.9911 17.7213 29.0011C17.7078 29.0115 17.6862 29.0027 17.6711 29.0106C17.6545 29.0191 17.6485 29.0472 17.6299 29.0484C17.5837 29.0514 17.5818 28.8444 17.5816 28.8262C17.5789 28.5257 17.6006 28.4301 17.7138 28.2307C17.8249 28.0348 17.774 27.8221 18.0655 27.6801C18.2383 27.596 18.2868 27.676 18.4556 27.4814C18.6184 27.2937 18.7817 27.28 18.8241 27.2625C18.948 27.2114 18.9391 27.1683 19.1289 26.8163C19.4513 26.2183 19.4003 26.0829 19.5549 25.5465C19.5734 25.4819 19.6818 24.9294 19.7116 24.7026C19.7834 24.1573 19.9467 23.3258 20.0515 22.0034C20.066 21.8212 20.0149 21.7785 20.0232 20.9738C20.0303 20.276 20.1197 20.2848 20.1184 20.1378C20.1176 20.0424 20.0744 19.9939 19.732 19.8767C19.3945 19.7612 19.0942 20.3101 19.1634 20.5849C19.2131 20.782 19.4181 20.9077 18.5176 22.0748C18.4301 22.1884 18.1559 22.6292 18.1153 22.7071C17.8882 23.1427 17.7416 23.3867 17.6074 24.0619C17.5511 24.3454 17.6803 24.4296 17.69 24.7045C17.692 24.7606 17.6779 24.7571 17.6275 24.8445C17.5657 24.9516 17.6953 25.1334 17.7197 25.3506C17.76 25.7093 17.5013 25.7967 17.4853 25.8083C17.363 25.8971 17.4487 26.0307 17.3588 26.0757C17.3151 26.0976 17.3025 26.1081 17.2795 26.0644C17.1896 25.8931 17.2289 25.8449 17.0377 25.7743C16.8436 25.7027 16.827 25.637 16.6579 25.7554C16.484 25.8772 16.4407 25.853 16.3748 25.9144C16.2613 26.0202 16.3544 26.1746 16.2577 26.1872C16.2028 26.1944 16.1963 26.1934 16.1694 26.1443C16.1188 26.0523 16.144 25.9288 16.0522 25.8894C16.016 25.8738 15.9768 25.8656 15.9409 25.8495C15.8973 25.83 15.8578 25.802 15.814 25.7826C15.5736 25.6761 15.4632 26.0294 15.4611 26.0301C15.4459 26.0347 15.4351 26.0013 15.4199 26.0059L15.3568 25.9915C15.3513 25.7549 15.36 25.7548 15.3562 25.7346C15.3393 25.6457 15.2404 25.6126 15.2267 25.608C15.0886 25.5618 15.0453 25.6039 15.0342 25.605C15.0041 25.622 15.0001 25.6074 14.9699 25.6244C14.8921 25.6682 14.9023 25.6806 14.8952 25.6833C14.8832 25.6877 14.8739 25.6601 14.862 25.6645C14.8662 25.6448 14.863 25.624 14.8672 25.6043C14.9023 25.4416 14.9578 25.3906 15.0311 25.0905C15.1144 24.7496 15.3195 24.7567 15.5042 24.5996C15.7169 24.4186 15.7817 24.4246 15.8731 24.39C15.917 24.3734 16.2925 24.1487 16.3189 24.124C16.4695 23.9827 17.0193 22.8045 17.1566 22.132C17.2339 21.753 17.2348 21.6592 17.2353 21.6176C17.2389 21.2546 16.9486 20.0846 16.9241 19.8137C16.8723 19.2422 16.8648 19.0233 17.0173 18.526C17.2269 17.8426 17.9064 17.0365 18.2017 16.8052C18.3104 16.72 18.3296 16.697 18.2704 16.6399C18.2631 16.6329 18.2595 16.619 18.2494 16.6178C18.205 16.6123 18.2083 16.6257 18.1216 16.6596C17.9027 16.7452 17.4628 16.8197 17.2839 16.8358C16.1875 16.9346 15.9982 16.8413 15.2233 16.5455C14.6997 16.3457 14.1112 15.8874 13.6782 15.6441C13.0398 15.2852 12.1456 15.398 11.6143 15.6772C11.1013 15.9468 11.1028 16.0792 11.0143 15.9846C10.9166 15.88 11.3392 15.492 11.6843 15.3042C12.3467 14.944 12.9099 14.929 13.11 14.8865C13.3207 14.8417 14.0251 14.9245 14.7807 15.3067C15.3353 15.5872 15.3917 15.956 16.8989 15.8146C17.5089 15.7574 18.5454 15.4379 18.7003 15.3749C19.2033 15.1703 19.2892 15.151 19.3969 15.096C19.8347 14.8726 20.2038 14.6883 20.1416 14.2802C20.1052 14.0412 19.9513 13.9581 19.29 13.5599C18.874 13.3093 18.6355 13.2202 17.7474 12.7815C16.56 12.195 16.0949 13.6042 14.9701 13.639C14.9092 13.6408 14.5014 13.6534 14.2863 13.3044C14.1957 13.1575 14.3205 13.0077 14.3295 12.9996C14.3981 12.9377 14.4294 13.033 14.5933 12.952C14.694 12.9022 14.7405 12.9327 14.8897 12.842C15.0272 12.7585 15.0404 12.7867 15.1792 12.705C15.2364 12.6713 15.4575 12.541 15.7483 12.1007C15.8386 11.9642 15.935 11.8578 15.9047 11.7893C15.8726 11.7172 15.6161 11.7608 15.6122 11.7611C15.1028 11.8095 14.7735 11.7541 14.5042 11.9451C14.3387 12.0625 14.2635 12.0876 14.2588 12.0901C14.1607 12.1423 14.0517 12.3363 14.0499 12.3475C14.0461 12.37 14.062 12.394 14.0553 12.4158C14.0234 12.5215 13.9868 12.4886 13.8806 12.4602C13.7811 12.4335 13.6436 12.4527 13.6224 12.4515C13.4856 12.4438 13.0362 12.2055 12.9144 11.9662C12.778 11.6979 12.949 11.6259 13.3048 11.3337C13.8461 10.8893 13.9805 10.9147 14.3187 10.7878C14.5147 10.7142 14.4373 10.6416 14.5954 10.3004C14.7512 9.9638 15.0381 9.78837 15.116 9.74746C15.3324 9.63379 15.3481 9.6682 16.1786 9.24021C16.5004 9.07437 16.4875 8.95137 16.8097 8.53862C16.8818 8.44605 17.2003 8.02597 17.3506 8.02507C17.5239 8.02404 17.4683 8.25087 17.4306 8.49655C17.4051 8.66214 17.3644 8.67024 17.4029 8.76095C17.4292 8.82258 17.5382 8.77272 17.5489 8.7679C17.7536 8.67429 18.0246 8.16891 19.0251 7.79226C19.3823 7.6578 19.2607 8.01754 19.2421 8.11288C19.1384 8.64522 19.0612 8.63299 19.0408 8.75355C19.0224 8.86272 19.1651 8.91148 19.7866 9.09978C20.6246 9.35369 20.6263 9.34539 21.4587 9.6152C21.7675 9.71529 21.8928 9.81102 21.9178 9.5876C21.9614 9.19859 21.9737 9.2011 22.0324 8.81344C22.0746 8.53495 22.246 7.69267 22.4966 7.01424C22.649 6.60143 22.6434 6.60027 22.7919 6.29354C23.0791 5.70061 23.1295 5.72184 23.1289 5.66477C23.1287 5.65229 23.1098 5.64869 23.1009 5.63994C23.0914 5.63074 23.0872 5.61183 23.074 5.61086C23.0554 5.60951 22.9561 5.65602 22.9462 5.66072C22.7644 5.74583 22.7686 5.75413 22.4329 5.8577C22.0542 5.97466 21.7952 5.88549 21.9546 5.70852C22.0071 5.6503 22.1247 5.51906 22.1778 5.473C22.2404 5.41864 22.5788 4.95617 23.0206 4.58067C23.0698 4.53886 23.3399 4.34368 23.396 4.31029C23.8649 4.03167 23.9193 4.05445 24.2979 3.92598C24.4529 3.87342 24.4641 3.80883 24.6672 3.58953C25.8914 2.26766 26.4898 2.45995 26.6786 2.50999C26.8417 2.55322 26.8686 2.53785 26.9948 2.31494C27.2779 1.81561 27.6945 1.56935 27.7758 1.48566C27.8537 1.4055 27.8424 1.39778 27.9314 1.24216C28.2288 0.721922 28.63 1.20176 28.6303 1.20209C28.9138 1.47639 29.1551 1.64102 29.0943 2.05614C29.0515 2.3484 29.2268 2.58378 29.0607 2.56519C29.0133 2.55985 29.0168 2.55014 28.9994 2.50543C28.934 2.33688 28.8678 2.40231 28.8005 2.44586C28.6033 2.57336 28.4232 2.56892 28.3386 2.61421C28.3303 2.61865 28.1413 2.71064 28.112 2.73084C27.782 2.95812 27.6466 3.28074 27.6224 3.33832C27.4778 3.683 27.5453 4.22582 27.7158 4.29311C27.8484 4.34535 28.3517 4.25027 28.4108 4.23206C29.0238 4.0437 29.0411 3.74264 29.2139 3.49477C29.3403 3.31349 29.2961 3.2938 29.3081 3.27926C29.3223 3.26196 29.3515 3.26537 29.3691 3.2516C29.3772 3.24523 29.3699 3.22419 29.38 3.22272C29.4011 3.21963 29.4205 3.23655 29.4414 3.24092C29.5507 3.26382 29.6853 3.19293 29.7528 3.60716C29.8166 3.99906 29.8363 4.1016 29.7573 4.30881C29.585 4.76106 28.3875 5.22533 28.1659 5.35612C27.8239 5.55798 27.7224 5.56024 27.5279 6.7593C27.2266 8.61678 27.2364 9.30113 27.2396 9.52346C27.2442 9.84833 27.3721 9.83939 27.5097 9.81584C28.0255 9.72777 28.9731 9.39184 29.2419 9.30203C29.5453 9.20071 29.6276 9.16057 29.6438 9.15491C29.7513 9.11734 30.5838 8.8265 30.9828 8.67166C31.2623 8.56313 31.2912 8.53605 31.2886 8.23691C31.2881 8.16975 31.2829 7.55494 31.2858 7.39765C31.2861 7.38292 31.2894 7.20993 31.4328 7.28591C31.7357 7.44629 31.9331 7.79135 31.9637 7.84494C32.1435 8.15907 32.2117 8.14826 32.5327 8.15392C32.9532 8.16132 32.949 8.20552 33.3692 8.21832C33.6826 8.2279 34.6187 8.16486 34.9111 8.68787C35.0108 8.86626 35.0252 8.89057 35.3627 8.89688C35.5015 8.89945 36.8412 8.92454 37.096 8.97073C37.1948 8.98861 37.3882 9.00116 37.4222 9.20148C37.4776 9.527 37.2454 9.89433 37.2181 9.96966C37.0919 10.3185 37.0266 10.3302 36.8612 10.45C36.7473 10.5324 36.6941 10.6493 36.6872 10.6593C36.5577 10.8451 36.5203 10.6722 36.479 10.6039C36.3882 10.4536 36.3694 10.4685 36.2052 10.4077C35.5745 10.1743 35.3248 10.1733 35.1742 10.1969C34.618 10.2844 34.2681 10.4958 34.1972 10.5385C34.1007 10.5969 33.694 10.7602 33.9546 11.0609C33.9572 11.0639 34.0697 11.2518 34.6538 11.2844C35.5044 11.332 35.7101 11.5113 35.9465 11.5596C36.284 11.6284 36.3836 11.3326 36.52 11.5184C36.579 11.5986 36.6207 11.6101 36.6335 11.7762C36.6872 12.4746 36.4003 12.5067 35.9419 12.4181C35.6201 12.3559 35.6206 12.3619 35.2953 12.3126C34.5183 12.195 34.4625 12.2088 34.0762 12.1627C32.5306 11.9786 31.4053 12.7348 31.1878 12.8782C30.5579 13.2938 29.982 14.0233 29.7392 14.8548C29.6122 15.2903 29.58 15.3301 29.8078 15.5898C30.6754 16.5785 31.1302 17.4878 31.1833 18.5938C31.2127 19.2063 31.2308 19.2038 31.2777 19.8146C31.2872 19.938 31.383 21.1836 31.4021 21.3572C31.4518 21.8088 31.4556 22.4588 31.9727 23.474C32.2943 24.1056 32.2786 24.2229 33.551 25.5519C33.8125 25.825 33.8691 25.9193 33.948 25.9205C34.0315 25.9218 34.1384 25.7726 34.3213 25.7039C34.6131 25.5941 34.6301 25.8679 34.918 25.7457C35.5613 25.4726 35.7677 26.004 36.0249 26.2974C36.0612 26.3389 36.3066 26.619 36.2404 26.9526C36.1759 27.2775 36.0467 27.2311 36.0036 27.2764C36.0035 27.2766 35.885 27.5242 35.8732 27.5295C35.8557 27.5374 35.8348 27.5292 35.8156 27.5278C35.7224 27.521 35.7668 27.4748 35.7559 27.3413C35.7477 27.2414 35.6757 27.1377 35.6337 27.1209C35.5596 27.0911 35.5559 27.1023 35.4862 27.1413C35.3361 27.2254 35.3233 27.6415 35.2219 27.7102C35.2206 27.711 35.1331 27.7085 35.132 27.7076C35.1061 27.6856 35.1187 27.6791 35.1139 27.5346C35.1051 27.2755 34.907 27.3617 34.8548 27.3722C34.6329 27.4169 34.4445 27.2637 34.3356 27.2106C34.0289 27.061 34.0402 27.4392 33.9622 27.6118C33.9192 27.7071 33.8299 27.66 33.8268 27.6572C33.795 27.6293 33.8037 27.351 33.6796 27.3023C33.4834 27.2253 33.324 27.5004 32.8666 26.8822C32.7903 26.7791 32.7877 26.761 32.6601 26.7689C32.6444 26.7699 32.6379 26.798 32.6223 26.7969C32.6085 26.7959 32.6067 26.7737 32.5965 26.7643C32.431 26.6118 32.0694 26.7014 31.9394 26.0592C31.8847 25.7892 31.8725 25.7935 31.7549 25.5445C31.3868 24.7646 30.4587 24.093 29.2851 22.4766C29.0436 22.1441 28.9906 22.1404 29.0373 21.744C29.0947 21.2586 28.8173 21.3085 27.7786 20.7056C27.4527 20.5164 27.4605 20.5052 27.4321 20.4888C27.232 20.3734 27.2406 20.5391 26.2378 20.9957C25.42 21.368 25.1492 21.2982 25.095 21.3783C25.0549 21.4376 25.1072 21.5592 25.1887 21.7503C25.206 21.7907 25.3186 22.0546 25.4021 22.2562C25.4682 22.4158 25.7736 23.0998 25.8901 23.4242C26.0612 23.9007 26.0505 23.928 26.4637 24.2209C26.6025 24.3193 26.6471 24.3871 26.8065 24.3777C27.0329 24.3645 27.029 24.4444 27.2534 24.4185C27.5701 24.3818 27.5478 24.5447 27.7677 24.8373C27.7883 24.8648 27.9445 25.0726 27.9632 25.2199C27.9645 25.2301 27.9877 25.413 27.8437 25.268C27.8374 25.2615 27.8371 25.2505 27.8306 25.2443C27.7353 25.1532 27.6491 25.1783 27.6412 25.2186C27.6268 25.2912 27.7064 25.41 27.7073 25.413C27.7386 25.5194 27.6714 25.5359 27.5837 25.4683C27.5759 25.4622 27.5792 25.4478 27.5721 25.4409C27.5539 25.4233 27.428 25.3354 27.3685 25.3865C27.2781 25.4641 27.3873 25.5935 27.3036 25.6413C27.2531 25.67 27.2583 25.6252 27.2531 25.6188C27.242 25.6049 27.2212 25.6011 27.2106 25.587C27.1831 25.5504 27.2184 25.5353 27.1853 25.5048C27.1788 25.4988 27.0603 25.4377 26.9346 25.4742C26.8791 25.4903 26.8568 25.525 26.8539 25.5269ZM15.0335 10.2294C15.0055 10.2499 14.7032 10.4721 14.8015 10.5953C14.8474 10.6528 14.9443 10.6136 15.096 10.5465C15.1254 10.5335 15.2611 10.4735 15.3969 10.2808C15.4029 10.2721 15.4598 10.1914 15.4587 10.1641C15.4571 10.1297 15.4277 9.99134 15.0335 10.2294ZM26.2985 3.03262C26.3795 2.95606 26.4312 2.93631 26.4155 2.83519C26.403 2.75497 26.3731 2.7762 26.2927 2.78366C25.9592 2.81467 25.7935 2.97929 25.7606 3.01197C25.6982 3.07392 25.6815 3.07495 25.6997 3.16167C25.7145 3.23236 25.8977 3.19518 25.9036 3.19422C26.1998 3.14668 26.2926 3.03706 26.2985 3.03262ZM34.063 8.90691C34.1119 8.92975 34.2185 8.99723 34.3958 8.9861C34.4113 8.98514 34.5503 8.97646 34.5819 8.93528C34.6243 8.88002 34.5861 8.83062 34.5806 8.82354C34.5152 8.73908 34.1241 8.57934 33.954 8.64116C33.9407 8.64599 33.7954 8.6988 33.8923 8.80694C33.9138 8.83094 34.0489 8.89971 34.063 8.90691Z" fill="#CF1F36"/>
<path fill-rule="evenodd" clip-rule="evenodd" d="M40.9761 16.1581C40.9754 16.1683 40.9611 16.2016 40.968 16.2778C41.0045 16.676 41.0207 16.6756 41.0167 18.3357C41.0133 19.7136 41.0205 19.7383 41.2506 20.0343C41.4197 20.2519 41.3883 20.277 41.3915 21.3593C41.3932 21.9232 41.4 22.0048 41.3347 22.0511C41.2708 22.0966 41.2618 22.073 39.2227 22.0716C38.177 22.0708 38.0942 22.1041 38.0492 22.0132C38.0125 21.9389 38.0252 21.9342 38.0218 20.7801C38.0201 20.2425 38.0193 20.1891 38.156 20.0321C38.4308 19.7168 38.3915 19.6271 38.3917 18.2071C38.3922 13.7516 38.3986 13.7502 38.3635 13.5799C38.2716 13.1337 38.0405 13.2106 38.0248 12.8663C38.0245 12.8593 38.0072 11.2683 38.0361 11.1828C38.0732 11.0729 38.1174 11.106 39.0297 11.1069C42.1829 11.1101 42.1847 11.1023 42.2482 11.126C42.3955 11.181 42.394 11.4797 42.6758 12.4873C42.6986 12.569 42.6825 12.5725 42.9335 13.5166C42.9661 13.6396 42.9522 13.6426 43.3159 15.0612C43.3954 15.371 43.3956 15.5337 43.4241 15.5512C43.4371 15.5593 43.4544 15.5448 43.4697 15.5451C43.4959 15.5457 43.5161 15.571 43.5377 15.5085C43.5725 15.4081 43.5469 15.4015 43.8548 14.2186C44.0642 13.4142 44.0843 13.2754 44.1844 12.9345C44.2742 12.6286 44.5688 11.2877 44.6692 11.1759C44.7493 11.0868 44.7707 11.1085 46.2991 11.1074C46.4897 11.1073 48.6646 11.1056 48.6825 11.1075C48.8565 11.1256 48.8305 11.2066 48.8329 11.8382C48.8366 12.8547 48.8192 12.9028 48.7877 12.9894C48.688 13.2639 48.4744 13.2055 48.4601 13.9607C48.4591 14.0158 48.4568 19.0093 48.4636 19.3014C48.4803 20.0196 48.7615 19.9419 48.8216 20.3278C48.8607 20.5792 48.8362 21.9332 48.8344 21.9438C48.8089 22.0978 48.745 22.0791 48.1003 22.0748C46.0435 22.0613 45.0537 22.0987 44.9535 22.0547C44.8465 22.0077 44.8574 21.9604 44.8574 20.716C44.8574 20.1904 44.8762 20.1836 45.0078 20.0048C45.2464 19.6804 45.214 19.5447 45.218 18.3358C45.2198 17.8 45.1863 17.3547 45.2306 16.4684C45.2318 16.4445 45.2444 16.1937 45.1907 16.1724C45.1576 16.1592 45.1618 16.1783 45.1349 16.2011C45.124 16.2103 45.1051 16.2121 45.0997 16.2252C45.0871 16.2553 45.0941 16.4941 44.7137 17.9558C44.7114 17.9647 44.5165 18.7785 44.4427 19.046C44.3984 19.2069 44.3211 19.5847 44.1557 20.1958C44.0948 20.4206 43.9783 20.9482 43.7698 21.7401C43.704 21.9902 43.7277 22.0747 43.4688 22.0787C42.7385 22.09 42.7098 22.071 42.6555 22.0349C42.557 21.9695 42.4738 21.5255 42.3178 20.9072C42.2906 20.7995 42.2813 20.8035 41.9657 19.564C41.8999 19.3058 41.8911 19.3097 41.8288 19.0506C41.6414 18.2712 41.3334 17.2769 41.1547 16.4051C41.1505 16.3848 41.1068 16.1714 41.0798 16.1576C41.0759 16.1556 41.0777 16.1642 41.0253 16.1645C40.9997 16.1646 41.0012 16.158 40.9761 16.1581Z" fill="#121212"/>
<path fill-rule="evenodd" clip-rule="evenodd" d="M65.9235 16.5396L65.9261 16.5992C65.9407 16.6093 65.913 16.6423 65.9276 16.6524C66.011 16.7094 67.22 16.7438 67.2561 18.1444C67.2751 18.8821 67.1884 19.6592 67.5168 20.0199C67.6608 20.178 67.6383 20.1988 67.6381 20.7171C67.6377 21.9743 67.6438 21.9811 67.6132 22.0179C67.5461 22.0985 67.5257 22.0718 66.4346 22.0746C66.2596 22.0751 64.3507 22.08 64.247 22.0735C64.0125 22.0588 63.9871 21.9427 63.9134 21.4264C63.8079 20.6869 63.8559 19.3384 63.8416 18.9164C63.8209 18.3031 63.7717 17.9437 63.0265 17.814C62.6431 17.7473 62.6638 17.9493 62.6628 18.0157C62.6456 19.2285 62.6533 19.3154 62.6633 19.428C62.7066 19.9146 62.9269 20.0196 62.988 20.1927C63.0336 20.322 63.0366 20.3242 63.0395 21.7465C63.0401 21.9871 63.0726 22.0781 62.8323 22.0793C61.2555 22.0869 61.2569 22.0621 59.6799 22.0742C59.0139 22.0793 58.8964 22.1205 58.8939 21.8755C58.8927 21.7571 58.8853 21.0423 58.8965 20.3952C58.9012 20.1231 58.9497 20.1348 59.0725 19.9864C59.3232 19.6839 59.276 19.21 59.2766 18.4655C59.2801 13.7494 59.2656 13.749 59.2478 13.6374C59.1818 13.2222 58.9306 13.1615 58.9016 12.9337C58.8898 12.8419 58.8889 11.252 58.9053 11.1953C58.9388 11.0792 58.9868 11.1092 60.0015 11.1084C63.7313 11.1057 63.7306 11.1044 64.0548 11.1077C64.2052 11.1092 64.4689 11.1262 64.5049 11.1285C65.0428 11.163 65.9522 11.219 66.581 11.7538C67.0914 12.188 67.6173 12.9597 67.4539 14.6047C67.4118 15.0296 67.2188 15.6197 66.9303 15.9393C66.5137 16.4008 66.1325 16.4811 65.9235 16.5396ZM63.4188 13.4244C63.288 13.3909 63.2899 13.3831 63.1547 13.3717C62.7349 13.3361 62.7031 13.4034 62.6869 13.4376C62.6605 13.4931 62.6606 13.496 62.6605 14.7986C62.6605 15.525 62.638 15.6088 62.833 15.6234C63.2531 15.6548 63.4956 15.5492 63.5487 15.5262C64.0878 15.2916 64.0217 14.3532 63.9967 14.2187C63.8887 13.6354 63.7422 13.5465 63.4188 13.4244Z" fill="#111111"/>
<path fill-rule="evenodd" clip-rule="evenodd" d="M53.3456 19.3063C53.3656 19.48 53.3706 19.5818 53.5007 19.7557C53.7044 20.0277 54.3995 20.0852 54.5435 19.4984C54.6941 18.8846 54.5868 18.5235 54.618 17.7598C54.6222 17.656 54.6037 17.6512 54.6517 17.5588C54.7013 17.4638 54.7377 17.4988 56.7205 17.4936C57.6687 17.491 57.6686 17.4866 57.7483 17.507C57.9213 17.5512 57.8691 17.6382 57.8737 18.5308C57.8746 18.7313 57.8856 20.9084 57.8702 21.0386C57.8475 21.2301 57.6313 21.3505 57.2436 21.5706C57.0124 21.7018 56.4413 21.9235 56.3389 21.9539C56.1852 21.9997 55.515 22.1867 55.1147 22.2292C54.8149 22.261 53.447 22.4278 52.2869 22.1128C52.151 22.0759 51.227 21.8843 50.6352 21.2094C49.8425 20.3053 49.9151 19.1554 49.9156 17.3727C49.9166 14.034 49.901 14.0326 49.9692 13.5133C50.0237 13.0986 50.1429 12.145 51.1046 11.552C51.1193 11.5429 51.5842 11.1565 52.8 10.9624C53.0772 10.9181 54.0675 10.8509 54.851 10.9666C55.0243 10.9922 55.505 11.0432 56.393 11.3424C56.4049 11.3464 56.4109 11.3361 56.9773 11.5841C57.121 11.6471 57.681 11.9226 57.8012 12.0453C57.8829 12.1286 57.8712 12.1453 57.8735 13.5772C57.876 14.9979 57.8728 15 57.8501 15.0416C57.7987 15.1361 57.7669 15.1127 56.5275 15.1154C55.7876 15.117 55.7887 15.1134 55.0479 15.1234C54.78 15.127 54.6452 15.139 54.6186 14.9257C54.5709 14.5431 54.6838 14.1063 54.5226 13.6454C54.3327 13.1023 53.6744 13.205 53.4989 13.4445C53.3324 13.672 53.3218 13.7857 53.3052 15.1854C53.2965 15.9166 53.3018 15.9156 53.3101 18.2734C53.3126 19.0082 53.3068 19.0083 53.3456 19.3063Z" fill="#121212"/>
<path fill-rule="evenodd" clip-rule="evenodd" d="M38.7769 25.7736C38.7289 25.7627 38.3644 25.6801 38.2158 25.5203C38.0279 25.3181 37.9912 24.8118 38.0426 24.38C38.1408 23.5552 38.8191 23.5437 39.9303 23.545C41.4544 23.5467 41.5637 23.5425 41.9183 23.6349C41.9663 23.6475 42.2636 23.7249 42.4107 24.0122C42.4967 24.1801 42.5762 24.6592 42.4444 24.7146C42.3908 24.7372 41.6037 24.7544 41.485 24.6861C41.3531 24.6102 41.4581 24.3768 40.8292 24.3429C40.3629 24.3177 39.7659 24.3326 39.6735 24.3349C38.994 24.3518 39.0909 24.8147 39.2834 24.9049C39.585 25.0463 41.1237 24.9735 41.5396 25.0159C42.3521 25.0988 42.6526 25.2649 42.6592 26.1198C42.6679 27.2363 42.3245 27.3227 40.831 27.3251C39.2129 27.3278 38.5906 27.3758 38.2678 27.0743C38.0483 26.8693 38.0032 26.4607 38.0211 26.2502C38.0359 26.0754 38.1592 26.0947 38.3219 26.0943C38.9831 26.0927 39.0886 26.0922 39.1346 26.1964C39.1503 26.2321 39.1588 26.2707 39.1745 26.3064C39.266 26.5149 39.4685 26.5147 39.7373 26.5179C40.9947 26.5328 41.0411 26.5266 41.1534 26.5117C41.1931 26.5063 41.5374 26.4603 41.5334 26.1846C41.5288 25.8646 41.0636 25.857 40.9605 25.8503C40.3003 25.8077 39.5097 25.8915 38.7769 25.7736Z" fill="#141414"/>
<path fill-rule="evenodd" clip-rule="evenodd" d="M57.1712 24.4213C56.4635 24.419 55.7558 24.4167 55.0481 24.4145C54.6768 24.4127 54.5915 24.4 54.5852 24.6412C54.578 24.9164 54.5906 25.0236 54.7235 25.0459C54.7655 25.0529 57.0805 25.0452 57.1705 25.0474C57.3657 25.0522 57.367 25.1419 57.364 25.349C57.3603 25.607 57.3665 25.6962 57.3136 25.7488C57.2573 25.8049 57.2434 25.7931 55.4343 25.79C54.7207 25.7889 54.5985 25.7291 54.5885 25.992C54.5734 26.3887 54.6425 26.4002 54.7297 26.4214C54.7695 26.431 56.8108 26.4189 57.3646 26.4261C57.5781 26.4288 57.5843 26.486 57.5826 26.7003C57.5799 27.0556 57.6082 27.2315 57.4897 27.2699C57.3933 27.3012 56.0836 27.2743 54.4694 27.286C53.6259 27.292 53.5382 27.3178 53.5053 27.1501C53.476 27.0004 53.4907 26.3213 53.4922 26.2493C53.5116 25.3589 53.4779 24.7593 53.4938 24.0621C53.5012 23.7405 53.4727 23.596 53.6955 23.5871C53.7844 23.5835 54.9964 23.5839 55.0483 23.5841C57.2228 23.5895 57.32 23.5791 57.3696 23.5896C57.4701 23.6108 57.5228 23.6273 57.511 24.1917C57.5054 24.4604 57.4039 24.4202 57.1712 24.4213Z" fill="#141414"/>
<path fill-rule="evenodd" clip-rule="evenodd" d="M44.2049 25.1068C44.4379 24.6979 44.492 24.5423 44.9169 23.7869C45.0349 23.5772 45.0716 23.5818 45.5276 23.5848C46.3921 23.5904 46.4386 23.5606 46.5395 23.6892C46.604 23.7713 47.2185 24.9131 47.2762 25.0203C47.6926 25.7939 47.8291 26.035 47.8675 26.1081C48.0286 26.4145 48.0411 26.4062 48.2024 26.7139C48.4118 27.113 48.417 27.1098 48.435 27.1445C48.4739 27.2192 48.4931 27.2358 48.4264 27.2856C48.4122 27.2962 48.2449 27.2896 48.2291 27.289C48.0688 27.2828 47.4576 27.3081 47.3317 27.2687C47.1129 27.2002 47.0651 26.6881 46.8134 26.6374C46.6844 26.6114 44.8012 26.6246 44.7547 26.6305C44.3774 26.6784 44.5146 27.2428 44.1127 27.2851C43.9923 27.2978 43.2418 27.2907 43.2099 27.2876C43.1398 27.2808 43.1446 27.2683 43.1154 27.231C43.1102 27.2242 43.0989 27.2209 43.0974 27.2124C43.0903 27.1718 43.1607 27.0463 43.1683 27.0328C43.394 26.6304 43.5088 26.3988 43.5525 26.3245C43.57 26.2947 44.183 25.1497 44.2049 25.1068ZM46.1306 25.142C45.8245 24.5722 45.8561 24.489 45.7225 24.5187C45.7092 24.5216 45.6837 24.5273 45.6218 24.6553C45.3447 25.2291 45.3407 25.226 45.317 25.276C45.1157 25.7015 45.0174 25.744 45.1191 25.8274C45.1546 25.8565 45.1717 25.8456 45.7204 25.8525C46.3539 25.8606 46.4198 25.8574 46.4352 25.8028C46.4655 25.6947 46.4289 25.6979 46.3738 25.6002C46.2464 25.3739 46.2592 25.3681 46.1306 25.142Z" fill="#131313"/>
<path fill-rule="evenodd" clip-rule="evenodd" d="M50.3515 25.1839C52.4905 25.1891 52.5079 25.1505 52.5996 25.2258C52.6653 25.2796 52.6633 25.4216 52.6492 25.7994C52.6395 26.0588 52.5349 26.0162 52.1528 26.0144C51.1661 26.0099 50.2021 26.0046 50.1638 26.017C50.0083 26.0672 50.0572 26.2015 50.0537 27.023C50.0528 27.2314 50.0465 27.2868 49.8372 27.2878C49.0528 27.2917 49.0283 27.2925 48.9911 27.2224C48.9547 27.1537 48.945 27.1355 48.9539 26.2508C48.9688 24.7593 48.9345 23.7913 48.9854 23.6696C49.0267 23.5709 49.0625 23.5876 50.2229 23.5854C50.4136 23.585 52.5281 23.581 52.6061 23.5885C52.7967 23.607 52.7877 23.7083 52.7813 24.1273C52.7775 24.3725 52.7846 24.4469 52.539 24.4509C52.1758 24.4567 50.7634 24.4473 50.609 24.4463C50.2161 24.4437 50.0659 24.3991 50.0533 24.6432C50.0309 25.0772 50.0734 25.1191 50.1023 25.1476C50.1578 25.2022 50.1695 25.1746 50.3515 25.1839Z" fill="#151515"/>
<path fill-rule="evenodd" clip-rule="evenodd" d="M64.3103 25.7367C63.9142 25.2614 63.9077 25.2683 63.5153 24.79C63.0397 24.2103 63.0292 24.2194 62.9887 24.1683C62.6269 23.7116 62.5493 23.7231 62.599 23.625C62.6286 23.5664 62.6395 23.5727 62.705 23.5765C63.234 23.6068 63.6267 23.5497 63.7993 23.6062C63.969 23.6617 64.2985 24.1525 64.6198 24.525C64.9316 24.8864 65.0027 25.0879 65.1505 25.0324C65.1778 25.0222 65.1738 25.0173 65.3869 24.7559C65.4925 24.6262 65.4934 24.6273 65.5025 24.616C66.0294 23.9598 66.0365 23.9665 66.0813 23.9086C66.2673 23.6683 66.259 23.582 66.6921 23.5804C66.7544 23.5802 67.417 23.5777 67.4711 23.5832C67.4828 23.5845 67.5894 23.5954 67.5849 23.6759C67.5839 23.6941 67.5832 23.7055 67.4538 23.8618C67.4118 23.9125 67.0059 24.4027 66.9268 24.494C66.778 24.6656 66.7842 24.669 66.6363 24.8421C66.3681 25.1559 66.3652 25.1516 66.102 25.4693C65.6992 25.9556 65.6559 25.9478 65.6467 26.1852C65.6259 26.7295 65.6759 27.1865 65.5814 27.2555C65.4914 27.3212 64.6355 27.2813 64.6331 27.2807C64.4981 27.2464 64.528 27.1419 64.5253 26.3789C64.524 26.0262 64.5404 26.0049 64.3103 25.7367Z" fill="#141414"/>
<path fill-rule="evenodd" clip-rule="evenodd" d="M61.9319 24.4896C60.983 24.4887 60.9835 24.4846 60.9011 24.4883C60.6762 24.4985 60.7117 24.6369 60.7096 24.8984C60.6919 27.1462 60.7307 27.1638 60.6656 27.2324C60.6124 27.2886 60.5471 27.285 60.4522 27.2862C59.7389 27.2953 59.7275 27.281 59.6906 27.26C59.5901 27.2026 59.6272 27.1439 59.6226 26.1207C59.6167 24.7949 59.6314 24.6524 59.6076 24.58C59.5713 24.4692 59.496 24.4903 58.7797 24.4878C58.1506 24.4856 58.0165 24.5479 58.0131 24.2551C58.0061 23.6656 58.0159 23.6557 58.0709 23.6104C58.1123 23.5763 58.3085 23.5822 58.3293 23.5828C58.3456 23.5833 58.3453 23.5831 58.9083 23.5844C62.0535 23.5912 62.0534 23.5787 62.1275 23.5838C62.3337 23.5982 62.3268 23.6751 62.3235 24.2552C62.3219 24.5356 62.2114 24.491 61.9319 24.4896Z" fill="#151515"/>
</svg>
