<svg width="80" height="30" viewBox="0 0 80 30" fill="none" xmlns="http://www.w3.org/2000/svg">
<g clip-path="url(#clip0_456_2962)">
<path d="M69 2H13V20.8646H69V2Z" fill="#009B3E"/>
<path fill-rule="evenodd" clip-rule="evenodd" d="M31.4489 16.1336L30.5 7.50304H29.9167L26.8056 18.1144H23.6945L20.5834 7.50304H20L18.8334 18.1144H15.9167L17.4722 4.75195H22.5278L24.8611 12.6122L25.25 15.3633L25.6389 12.6122L27.9722 4.75195H33.0278L34.2256 15.0384C34.2593 15.2244 34.4226 15.3607 34.6093 15.3607H35.75V18.1144H33.7563C32.6182 18.1144 31.633 17.276 31.4489 16.1336ZM45.8611 13.0052V14.9703C45.8611 15.1878 45.6874 15.3633 45.4722 15.3633H36.9167V18.1144H46.25C47.5359 18.1144 48.5834 17.0559 48.5834 15.7563V12.2192C48.5834 10.9196 47.5359 9.86112 46.25 9.86112H38.8611C38.6459 9.86112 38.4722 9.68558 38.4722 9.46811V7.89606C38.4722 7.67859 38.6459 7.50304 38.8611 7.50304H48.5834V4.75195H38.0834C36.7974 4.75195 35.75 5.81047 35.75 7.11003V10.2541C35.75 11.5537 36.7974 12.6122 38.0834 12.6122H45.4722C45.6874 12.6122 45.8611 12.7878 45.8611 13.0052ZM58.85 7.50304H55.5574L53.8852 12.6122H61.3648L59.9389 8.25501C59.7678 7.80435 59.3297 7.50304 58.85 7.50304ZM52.0834 18.1144H49.1667L52.6408 7.50304H49.75V4.75195H61.7071L66.0834 18.1144H63.1667L62.2671 15.3633H52.9856L52.0859 18.1144H52.0834Z" fill="white"/>
<path fill-rule="evenodd" clip-rule="evenodd" d="M16.5622 23.822H15.4837L14.8045 27.4141H14.0034L14.6774 23.822H13.6015L13.7337 23.1172H16.6867L16.5622 23.822Z" fill="#1D1D1B"/>
<path fill-rule="evenodd" clip-rule="evenodd" d="M19.0745 27.4137H18.2812L18.6597 25.4276C18.7349 25.0399 18.6726 24.88 18.4704 24.88C18.0478 24.88 17.48 25.873 17.3426 26.6119L17.1923 27.4137H16.4041L17.2804 22.7656H18.0686L17.8223 24.1019C17.7652 24.3822 17.6719 24.7019 17.4826 25.2285L17.4956 25.2337C17.7782 24.6678 18.2137 24.1779 18.8126 24.1779C19.4115 24.1779 19.6008 24.6102 19.4867 25.2285L19.0771 27.411L19.0745 27.4137Z" fill="#1D1D1B"/>
<path fill-rule="evenodd" clip-rule="evenodd" d="M21.6515 24.7842C21.2419 24.7842 20.9826 25.1667 20.8712 25.5807C21.5971 25.5545 21.973 25.4026 21.973 25.0646C21.973 24.8864 21.8537 24.7842 21.6515 24.7842ZM20.783 26.1231C20.7778 26.1938 20.7649 26.3012 20.7649 26.372C20.7649 26.7336 20.9023 26.8436 21.3378 26.8436C21.6412 26.8436 21.9626 26.7729 22.2504 26.6523V27.2759C21.903 27.4095 21.4934 27.4803 21.0786 27.4803C20.2852 27.4803 19.9689 27.1108 19.9689 26.4113C19.9689 25.0881 20.7623 24.1895 21.7397 24.1895C22.5149 24.1895 22.7534 24.5772 22.7534 24.9598C22.7534 25.717 22.0093 26.0864 20.783 26.1257V26.1231Z" fill="#1D1D1B"/>
<path fill-rule="evenodd" clip-rule="evenodd" d="M26.9741 23.8349C26.7719 23.7641 26.5515 23.7327 26.3752 23.7327C25.8333 23.7327 25.6078 24.0078 25.6078 24.2934C25.6078 24.9432 26.8367 24.9615 26.8367 25.9938C26.8367 26.8218 26.1056 27.4846 25.0659 27.4846C24.7937 27.4846 24.5189 27.4584 24.2985 27.4087L24.4437 26.6252C24.6459 26.7012 24.8974 26.7589 25.123 26.7589C25.6648 26.7589 25.9552 26.5231 25.9552 26.1353C25.9552 25.5117 24.7393 25.5117 24.7393 24.4873C24.7393 23.7117 25.307 23.0488 26.4141 23.0488C26.6604 23.0488 26.873 23.0619 27.1141 23.1065L26.9767 23.8375L26.9741 23.8349Z" fill="#1D1D1B"/>
<path fill-rule="evenodd" clip-rule="evenodd" d="M29.1545 24.8281C28.4311 24.8281 28.0967 25.6822 28.0967 26.3425C28.0967 26.6543 28.1797 26.7827 28.3352 26.7827C28.7837 26.7827 29.3437 25.7451 29.4682 25.077L29.5071 24.8726C29.406 24.8464 29.2919 24.8281 29.1545 24.8281ZM29.8286 27.4141H29.0482C29.1052 27.1652 29.1986 26.8482 29.3437 26.408H29.3308C29.0793 26.8718 28.6437 27.4849 28.0215 27.4849C27.5419 27.4849 27.2852 27.1731 27.2852 26.4971C27.2852 25.2997 27.9204 24.1914 29.2945 24.1914C29.673 24.1914 30.0515 24.2176 30.4041 24.2884C30.1267 25.7582 29.9634 26.5809 29.8311 27.4141H29.8286Z" fill="#1D1D1B"/>
<path fill-rule="evenodd" clip-rule="evenodd" d="M33.256 23.4288C33.1419 23.3974 32.9967 23.379 32.8852 23.379C32.5197 23.379 32.3382 23.5572 32.25 24.0419L32.2112 24.2515H32.9241L32.8049 24.8829H32.0867L31.5941 27.5318C31.4049 28.5511 30.8941 28.9965 30.1189 28.9965C29.9349 28.9965 29.7482 28.9781 29.5719 28.9388L29.7612 28.2707C29.8752 28.3022 30.0204 28.3231 30.1267 28.3231C30.4793 28.3231 30.6815 28.1581 30.8008 27.5266L31.2986 24.8856H30.7619L30.8889 24.2541H31.4256L31.4619 24.0183C31.6123 23.172 32.0478 22.7188 32.9293 22.7188C33.1056 22.7188 33.2767 22.7318 33.44 22.7685L33.256 23.4314V23.4288Z" fill="#1D1D1B"/>
<path fill-rule="evenodd" clip-rule="evenodd" d="M34.4459 24.7842C34.0363 24.7842 33.777 25.1667 33.6656 25.5807C34.3889 25.5545 34.7674 25.4026 34.7674 25.0646C34.7674 24.8864 34.6481 24.7842 34.4459 24.7842ZM33.5748 26.1231C33.5696 26.1938 33.5567 26.3012 33.5567 26.372C33.5567 26.7336 33.6941 26.8436 34.1296 26.8436C34.433 26.8436 34.7519 26.7729 35.0422 26.6523V27.2759C34.6948 27.4095 34.2852 27.4803 33.8704 27.4803C33.077 27.4803 32.7607 27.1108 32.7607 26.4113C32.7607 25.0881 33.5541 24.1895 34.5315 24.1895C35.3067 24.1895 35.5452 24.5772 35.5452 24.9598C35.5452 25.717 34.8011 26.0864 33.5748 26.1257V26.1231Z" fill="#1D1D1B"/>
<path fill-rule="evenodd" clip-rule="evenodd" d="M37.9148 24.8799H37.1785L36.9141 26.3052C36.8441 26.6877 36.8959 26.7899 37.1526 26.7899C37.3107 26.7899 37.43 26.7716 37.5441 26.7454L37.4689 27.3952C37.2615 27.4476 37.0204 27.479 36.8259 27.479C36.1518 27.479 35.9626 27.1541 36.1078 26.3969L36.3904 24.8825H35.8537L35.9807 24.2511H36.5096L36.6937 23.2764L37.513 23.1113L37.2978 24.2511H38.0418L37.9148 24.8825V24.8799Z" fill="#1D1D1B"/>
<path fill-rule="evenodd" clip-rule="evenodd" d="M39.0193 28.4063C38.6045 28.8203 38.2 28.9985 37.7904 28.9985C37.6322 28.9985 37.456 28.9801 37.3237 28.9461L37.456 28.2465C37.5752 28.291 37.7074 28.3094 37.8397 28.3094C38.0419 28.3094 38.2545 28.2203 38.4256 28.0474C38.6148 27.8561 38.716 27.6203 38.716 27.2325C38.716 26.3286 38.5137 25.2832 38.2311 24.2456H39.1126C39.2889 24.9399 39.4263 25.836 39.4263 26.5041C39.4263 26.588 39.4134 26.6902 39.3952 26.7714H39.4082C39.823 25.9958 40.1963 25.1679 40.606 24.1094L41.3734 24.3268C40.466 26.4334 39.7556 27.6491 39.0167 28.4011L39.0193 28.4063Z" fill="#1D1D1B"/>
<path fill-rule="evenodd" clip-rule="evenodd" d="M46.0296 23.9545C45.7834 23.8654 45.5137 23.8209 45.2622 23.8209C44.1396 23.8209 43.7559 24.9554 43.7559 25.8069C43.7559 26.3545 43.9763 26.7161 44.6685 26.7161C44.9822 26.7161 45.2856 26.6454 45.55 26.5379L45.493 27.2951C45.1715 27.3973 44.7878 27.4681 44.4222 27.4681C43.1311 27.4681 42.8408 26.6663 42.8408 25.9667C42.8408 24.5021 43.6911 23.082 45.3426 23.082C45.69 23.082 45.9856 23.1266 46.2371 23.2026L46.0296 23.9545Z" fill="#1D1D1B"/>
<path fill-rule="evenodd" clip-rule="evenodd" d="M47.8444 24.8805C47.2585 24.8805 46.9059 25.588 46.9059 26.2168C46.9059 26.56 47.0433 26.7775 47.4089 26.7775C47.9689 26.7775 48.3604 26.146 48.3604 25.4412C48.3604 25.0797 48.21 24.8805 47.8444 24.8805ZM47.3026 27.477C46.4263 27.477 46.0815 27.0578 46.0815 26.3425C46.0815 25.0194 46.9578 24.1836 47.9637 24.1836C48.8581 24.1836 49.1926 24.6683 49.1926 25.3364C49.1926 26.6412 48.2852 27.4744 47.3026 27.4744V27.477Z" fill="#1D1D1B"/>
<path fill-rule="evenodd" clip-rule="evenodd" d="M53.9734 27.4142H53.1852L53.5637 25.4282C53.6389 25.0404 53.5689 24.8727 53.3874 24.8727C52.9726 24.8727 52.41 25.8605 52.2726 26.6046L52.1223 27.4142H51.3341L51.7126 25.4282C51.7826 25.0404 51.7256 24.8727 51.5286 24.8727C51.1137 24.8727 50.5589 25.8605 50.4137 26.6098L50.2634 27.4116H49.4752L49.7889 25.7557C49.8641 25.381 49.9963 24.6422 50.0611 24.2465H50.8363C50.7974 24.443 50.7171 24.7496 50.5537 25.2264L50.5667 25.2317C50.8493 24.6657 51.2719 24.1758 51.8656 24.1758C52.2493 24.1758 52.5008 24.3854 52.5008 24.7941C52.5008 24.9225 52.4697 25.043 52.4049 25.2526H52.4178C52.7082 24.6657 53.136 24.1758 53.7271 24.1758C54.3182 24.1758 54.5074 24.6081 54.3882 25.2264L53.9708 27.409L53.9734 27.4142Z" fill="#1D1D1B"/>
<path fill-rule="evenodd" clip-rule="evenodd" d="M56.9082 24.8812C56.4597 24.8812 55.9048 25.9188 55.7804 26.5738L55.7441 26.7781C55.8452 26.8096 55.9826 26.8358 56.0967 26.8358C56.8148 26.8358 57.1493 25.9816 57.1493 25.3214C57.1493 25.0096 57.0611 24.8812 56.9108 24.8812H56.9082ZM55.9515 27.4725C55.8374 27.4725 55.7441 27.4672 55.6119 27.4463L55.3345 28.9476H54.5463L55.1452 25.7642C55.2515 25.2166 55.3526 24.6506 55.4148 24.2498H56.19C56.1408 24.4987 56.0656 24.7528 55.9074 25.2428L55.9204 25.2506C56.2289 24.6271 56.6697 24.1816 57.2245 24.1816C57.7041 24.1816 57.9608 24.4934 57.9608 25.1668C57.9608 26.3642 57.3256 27.4725 55.9515 27.4725Z" fill="#1D1D1B"/>
<path fill-rule="evenodd" clip-rule="evenodd" d="M60.1463 24.8281C59.4204 24.8281 59.0885 25.6822 59.0885 26.3425C59.0885 26.6543 59.1715 26.7827 59.327 26.7827C59.7756 26.7827 60.3356 25.7451 60.4626 25.077L60.4989 24.8726C60.3978 24.8464 60.2837 24.8281 60.1463 24.8281ZM60.8204 27.4141H60.04C60.097 27.1652 60.1904 26.8482 60.3356 26.408H60.3226C60.0711 26.8718 59.6356 27.4849 59.0133 27.4849C58.5337 27.4849 58.277 27.1731 58.277 26.4971C58.277 25.2997 58.9122 24.1914 60.2863 24.1914C60.6648 24.1914 61.0407 24.2176 61.3959 24.2884C61.1185 25.7582 60.9552 26.5809 60.823 27.4141H60.8204Z" fill="#1D1D1B"/>
<path fill-rule="evenodd" clip-rule="evenodd" d="M64.3281 27.4135H63.5348L63.9133 25.4275C63.9885 25.0397 63.9263 24.8799 63.7241 24.8799C63.3015 24.8799 62.7363 25.8729 62.5963 26.6118L62.4459 27.4135H61.6578L61.9715 25.7576C62.0726 25.2493 62.1737 24.6887 62.2411 24.2485H63.0163C62.98 24.4397 62.9022 24.7332 62.7337 25.2284L62.7467 25.2336C63.0319 24.6677 63.4648 24.1777 64.0637 24.1777C64.6626 24.1777 64.8519 24.61 64.7378 25.2284L64.3281 27.4109V27.4135Z" fill="#1D1D1B"/>
<path fill-rule="evenodd" clip-rule="evenodd" d="M66.0341 28.4063C65.6193 28.8203 65.2148 28.9985 64.8052 28.9985C64.6471 28.9985 64.4708 28.9801 64.3385 28.9461L64.4708 28.2465C64.59 28.291 64.7222 28.3094 64.8545 28.3094C65.0567 28.3094 65.2693 28.2203 65.4404 28.0474C65.6296 27.8561 65.7308 27.6203 65.7308 27.2325C65.7308 26.3286 65.5285 25.2832 65.2459 24.2456H66.1274C66.3037 24.9399 66.4437 25.836 66.4437 26.5041C66.4437 26.588 66.4308 26.6902 66.4126 26.7714H66.4256C66.8404 25.9958 67.2137 25.1679 67.6233 24.1094L68.3908 24.3268C67.4833 26.4334 66.7704 27.6491 66.0341 28.4011V28.4063Z" fill="#1D1D1B"/>
</g>
<defs>
<clipPath id="clip0_456_2962">
<rect width="56" height="27" fill="white" transform="translate(13 2)"/>
</clipPath>
</defs>
</svg>
