<svg width="80" height="30" viewBox="0 0 80 30" fill="none" xmlns="http://www.w3.org/2000/svg">
<path fill-rule="evenodd" clip-rule="evenodd" d="M21.6506 10.9101C21.8299 10.8794 21.8285 10.8831 22.0101 10.8692C24.8108 10.8695 71.6409 10.8687 71.6632 10.8695C71.9076 10.8788 71.906 10.9773 71.9433 11.0108C71.9579 11.0239 71.9841 11.0175 71.9987 11.0306C71.9904 11.0921 72.0057 11.0909 71.9976 11.1511C71.9888 11.216 71.974 11.2106 71.9659 11.2739V23.1278C71.9634 23.3483 71.9956 23.3441 71.9908 23.3624C71.9851 23.3841 71.9424 23.3695 71.9283 23.3868C71.9006 23.4209 71.9457 23.4844 71.7876 23.5081C71.7836 23.5087 21.8601 23.5242 21.7609 23.5C21.549 23.4481 21.5984 23.0623 21.5984 22.8763C21.5984 16.8732 21.598 11.1762 21.5988 11.1471C21.6035 10.9707 21.6424 10.9479 21.6506 10.9101ZM62.1291 15.1418V20.8804C62.1294 21.1853 62.1022 21.354 62.4304 21.3616C62.5196 21.3636 63.4608 21.3853 63.5454 21.3504C63.751 21.2654 63.7226 21.0452 63.7227 20.8804C63.7249 16.5286 63.7122 16.529 63.683 16.1407C63.6705 15.974 63.6315 15.8935 63.7998 15.9065C63.9405 15.9173 63.887 15.9867 64.0271 16.2785C64.7604 17.8071 65.8964 19.9423 66.4146 21.0088C66.6188 21.429 66.7544 21.3619 67.5446 21.3619C68.2286 21.3619 68.4798 21.419 68.5111 21.1256C68.5185 21.0565 68.5139 13.6517 68.5136 13.6469C68.5002 13.3016 68.1127 13.3773 67.9188 13.3773C67.1308 13.3772 66.9218 13.3208 66.8941 13.6423C66.894 13.6436 66.8872 17.4051 66.898 17.7614C66.9003 17.8393 66.9512 18.3545 66.9219 18.386C66.8897 18.4208 66.8326 18.4306 66.7853 18.4258C66.7505 18.4223 66.718 18.3943 66.7004 18.364C66.6586 18.292 66.7012 18.2358 66.3261 17.4972C64.4655 13.8319 64.5059 13.8119 64.3076 13.5148C64.2011 13.355 64.1447 13.3762 62.6793 13.3773C62.6415 13.3773 62.2741 13.3777 62.2098 13.4273C62.1137 13.5014 62.1291 13.5252 62.1291 15.1418ZM45.5374 20.5061C45.5371 20.2735 45.5886 19.8934 45.3495 19.8385C45.2777 19.8221 42.4679 19.8344 42.3457 19.8305C41.9337 19.8174 41.9811 19.6714 41.9807 19.2586C41.9796 18.1541 41.9333 18.0143 42.2115 17.9651C42.2729 17.9543 44.6696 17.9635 44.7113 17.9586C45.0028 17.9255 44.9739 17.6483 44.9741 17.6373C45.0013 16.6617 44.9679 16.6273 44.908 16.5658C44.8183 16.4737 44.7933 16.5162 42.3452 16.4961C42.2956 16.4956 42.0215 16.5302 41.9851 16.2624C41.9535 16.03 41.9786 15.232 41.9813 15.1424C41.9831 15.0853 41.9672 14.8895 42.2115 14.8464C42.2716 14.8358 45.1488 14.8437 45.2134 14.8412C45.5173 14.8291 45.5342 14.6804 45.5371 14.5164C45.5376 14.4912 45.5374 13.6552 45.5367 13.6476C45.5351 13.628 45.5228 13.4768 45.4433 13.4212C45.3716 13.3711 45.3617 13.3773 41.7211 13.3773C40.4906 13.3773 40.3496 13.3241 40.3221 13.6423C40.318 13.689 40.3205 20.1865 40.3208 20.7556C40.3209 21.2013 40.2776 21.3604 40.7232 21.3619C41.0922 21.3631 45.2155 21.3765 45.3355 21.3571C45.5922 21.3154 45.5372 20.9514 45.5374 20.5061ZM52.7728 16.1355L52.7921 15.7649C52.8175 13.5779 51.1055 13.4363 50.2049 13.3823C50.0371 13.3723 47.2207 13.3784 47.2086 13.379C46.9376 13.3953 46.9393 13.5796 46.9339 13.6423C46.9336 13.6456 46.9273 21.0707 46.9374 21.1338C46.9407 21.1548 46.965 21.3071 47.096 21.345C47.1814 21.3697 47.1828 21.3701 48.2079 21.3619C48.2357 21.3616 48.4792 21.3596 48.5301 21.2322C48.5885 21.0862 48.5279 18.649 48.5674 18.5057C48.6404 18.2416 49.2826 18.3151 49.412 18.4298C49.5203 18.5259 51.2075 21.1062 51.34 21.2418C51.4905 21.3959 51.5229 21.3423 52.9481 21.3701C52.9694 21.3705 53.1764 21.3746 53.187 21.2526C53.1996 21.1087 53.154 21.1231 53.0739 21.0048C52.8948 20.74 52.8898 20.7447 52.8747 20.7215C52.0784 19.4942 52.0764 19.4981 51.3836 18.4736C51.0724 18.0134 51.5344 18.1306 51.9668 17.7829C52.6381 17.2432 52.7147 16.6168 52.7728 16.1355ZM60.7554 16.5189C60.6314 15.5425 60.2786 13.538 58.0651 13.2584C54.9332 12.8628 54.3153 14.9538 54.1589 15.5054C54.1257 15.6228 53.9395 16.2797 53.921 17.0123C53.907 17.5663 53.872 19.5097 54.941 20.6343C55.0741 20.7743 55.737 21.4716 57.19 21.5119C61.1705 21.6226 60.8147 17.54 60.7554 16.5189ZM24.7038 17.3873C24.7352 20.9567 26.6401 21.5255 28.2481 21.5129C28.7278 21.5092 30.5686 21.4103 31.2444 19.5089C31.8068 17.9271 31.7239 15.1108 30.4435 13.9493C29.3495 12.9571 27.0874 13.0327 26.1093 13.7434C24.8233 14.6778 24.7075 16.3474 24.7038 17.3873ZM38.5506 14.899C38.4013 14.217 38.1573 13.3984 35.8578 13.3773C35.8569 13.3773 33.2566 13.3772 33.2374 13.3775C32.8636 13.3848 32.9096 13.5209 32.9088 13.8943C32.9079 14.463 32.8983 20.0717 32.9089 21.0041C32.913 21.3574 33.01 21.3617 33.3628 21.3619C36.4501 21.3629 37.1968 21.4215 38.2267 20.7537C38.7649 20.4046 39.1173 19.5669 38.9703 18.6357C38.7237 17.0733 37.4292 17.2439 37.4148 17.0919C37.4118 17.0596 37.4537 17.0395 37.4682 17.0104C37.4829 16.9811 37.4744 16.9362 37.5016 16.9178C37.5604 16.8781 37.6375 16.8766 37.7037 16.8512C38.1561 16.6783 38.3564 16.2275 38.388 16.1561C38.6103 15.6556 38.5779 15.2664 38.5506 14.899Z" fill="#104578"/>
<path fill-rule="evenodd" clip-rule="evenodd" d="M19.6057 11.2041C19.6469 11.2424 19.6879 11.2806 19.7291 11.3189C19.7606 11.3457 19.7485 11.3547 19.779 11.3806C19.8159 11.4121 19.8241 11.3972 19.8596 11.4299C19.8813 11.45 19.8906 11.4807 19.911 11.5021C19.9303 11.5226 19.9581 11.5338 19.9776 11.5543C20.013 11.5989 20.0484 11.6437 20.0837 11.6885C20.3969 12.1757 20.4717 12.5452 20.5355 12.8916C20.5726 13.0936 20.5684 13.0946 20.5684 20.3798C20.5684 21.2981 20.5981 21.2963 20.595 21.3759C20.5834 21.6803 20.5353 21.6692 20.5057 21.7506C20.5025 21.759 20.456 22.1 20.452 22.1084C20.4447 22.1243 20.4143 22.1176 20.405 22.1324C20.3422 22.2312 20.3934 22.2488 20.3365 22.3495C20.326 22.3681 20.2974 22.3701 20.2851 22.3874C20.264 22.4169 20.2589 22.4555 20.2389 22.4857C20.2389 22.4857 20.1436 22.6116 20.1353 22.6225C20.0977 22.6657 20.0882 22.6564 20.0199 22.7553C19.9681 22.8303 19.9558 22.8151 19.8957 22.8817C19.877 22.9024 19.8755 22.935 19.8569 22.9557C19.8189 22.9925 19.8051 22.967 19.7676 23.0032C19.7359 23.0339 19.7653 23.0521 19.7301 23.0784C19.7019 23.0994 19.655 23.0837 19.6288 23.1069C19.6072 23.1259 19.6274 23.1726 19.6042 23.1897C19.5101 23.2592 19.4777 23.1657 19.386 23.2396C19.3664 23.2553 19.387 23.303 19.3633 23.3115C19.3346 23.3218 19.308 23.2734 19.2779 23.2783C19.2586 23.2814 19.2679 23.3204 19.2509 23.3298C19.2162 23.349 19.1739 23.3485 19.1353 23.3571C18.8063 23.4302 18.8059 23.4207 18.7779 23.4287C18.7298 23.4423 18.6889 23.4752 18.6409 23.4886C18.5548 23.5128 18.5529 23.5099 9.7848 23.5099C8.75785 23.5099 8.75186 23.5101 8.41067 23.3793C8.37411 23.3653 8.33207 23.3656 8.29752 23.3473C8.28093 23.3384 8.28267 23.3066 8.26471 23.3018C8.24013 23.2952 8.21431 23.3272 8.19023 23.3187C8.16965 23.3115 8.17339 23.2756 8.15555 23.2632C8.12611 23.2425 8.08544 23.2431 8.055 23.2239C8.03504 23.2113 8.02793 23.1841 8.00884 23.1704C7.92152 23.1076 7.90305 23.146 7.82047 23.0792C7.80001 23.0626 7.79801 23.0298 7.7783 23.0124C7.75448 22.9913 7.7173 22.9892 7.69397 22.9676C7.67214 22.9472 7.66865 22.9121 7.64769 22.8908C7.62723 22.8698 7.59255 22.866 7.57309 22.844C7.55176 22.8201 7.55063 22.7823 7.52955 22.7578C7.51258 22.7381 7.47928 22.7372 7.46318 22.7168C7.39619 22.6313 7.43499 22.6128 7.37561 22.5229C7.36388 22.5053 7.33868 22.4986 7.32908 22.4797C7.29489 22.4132 7.27955 22.3384 7.24649 22.2713C7.23851 22.2548 7.21468 22.2494 7.20757 22.2326C7.16166 22.1239 7.07009 21.7874 7.05949 21.7482C6.99474 21.5104 7.00248 21.5064 7.00248 14.8908C7.00248 13.0028 6.96181 12.5961 7.21006 12.0423C7.21817 12.0243 7.24312 12.0191 7.2536 12.0025C7.27319 11.9715 7.27805 11.9323 7.29889 11.902C7.31223 11.8825 7.34442 11.8785 7.35353 11.8566C7.36051 11.84 7.3312 11.8205 7.3393 11.8044C7.35078 11.7821 7.38571 11.7817 7.40168 11.7624C7.42251 11.737 7.42526 11.6999 7.44622 11.6745C7.46431 11.6528 7.49612 11.6462 7.5152 11.6255C7.53616 11.6028 7.54265 11.5689 7.56423 11.5468C7.58531 11.5251 7.61837 11.5181 7.6402 11.4972C7.66091 11.4772 7.66752 11.445 7.68936 11.4263C7.71406 11.405 7.75073 11.4013 7.77568 11.3805C7.79515 11.3642 7.79752 11.3316 7.81885 11.3179C7.87835 11.2796 7.95083 11.2647 8.01159 11.2286C8.03117 11.2168 8.03641 11.188 8.05612 11.1765C8.08756 11.1581 8.12985 11.1627 8.15979 11.1419C8.17826 11.129 8.17027 11.0895 8.1916 11.0822C8.21693 11.0735 8.24275 11.1107 8.26882 11.1047C8.28729 11.1003 8.28317 11.066 8.29989 11.0569C8.40505 10.9996 8.42027 11.0515 8.5293 10.9984C8.54465 10.9909 8.54078 10.9592 8.55737 10.9557C8.58781 10.9492 8.61825 10.9781 8.64894 10.9731C8.69872 10.965 8.74101 10.9307 8.78991 10.9181C9.05463 10.8502 18.0754 10.8779 18.6422 10.8982C19.0705 10.9134 19.1244 11.0051 19.1444 11.0136C19.2528 11.0598 19.2655 11.0136 19.3693 11.0683C19.3881 11.0781 19.3869 11.1093 19.4041 11.1215C19.4342 11.1429 19.4747 11.1449 19.5055 11.1649C19.5249 11.1775 19.5292 11.209 19.5507 11.2175C19.5683 11.2243 19.5881 11.1973 19.6057 11.2041L10.2408 19.9218C10.4677 19.9344 10.4702 19.9221 10.4845 19.9354C10.5151 19.9636 10.4694 20.031 10.5 20.0593C10.5344 20.0793 10.5009 20.1042 10.5359 20.1244C10.5442 20.1293 10.5465 20.114 10.6528 20.1478C10.7001 20.1629 10.7408 20.2013 10.7903 20.2054C10.8303 20.2089 10.8656 20.1747 10.9056 20.1693C10.9472 20.1637 10.9896 20.1725 11.0318 20.173C11.1151 20.174 11.1985 20.1737 11.2818 20.174C16.1068 20.1833 16.1067 20.198 16.5246 20.1624C16.9051 20.1299 16.9048 20.0532 16.9162 20.046C16.9557 20.0209 17.0701 20.014 17.1536 19.889C17.2437 19.7542 17.2554 19.7638 17.263 19.7521C17.4453 19.472 17.4117 18.9901 17.4117 18.8828C17.4122 15.1637 17.4143 15.1615 17.3769 15.0192C17.2539 14.5512 16.9576 14.4103 16.9001 14.383C16.7182 14.2964 16.72 14.2877 16.5204 14.2812C15.9272 14.2616 11.4717 14.2769 11.0326 14.2784C10.8135 14.2791 10.8229 14.3275 10.7661 14.3325C10.7318 14.3355 10.702 14.2967 10.6678 14.3009C10.6507 14.3031 10.6606 14.3395 10.6452 14.3475C10.609 14.3662 10.5652 14.3633 10.5261 14.3745C10.2147 14.463 10.2772 14.5585 10.2369 14.5981C10.2146 14.6199 10.1779 14.6193 10.1509 14.635C10.0625 14.6865 10.115 14.717 10.1064 14.7358C10.0971 14.7561 10.0636 14.7558 10.0519 14.7747C10.0317 14.8075 10.0266 14.8473 10.0148 14.884C9.93637 15.1289 9.9849 15.1319 9.99513 15.2646C10.015 15.5234 9.995 15.5224 9.995 18.5085C9.995 19.2658 9.95159 19.5843 10.1751 19.8687C10.1925 19.8909 10.2234 19.8998 10.2408 19.9218L19.6057 11.2041Z" fill="#104577" fill-opacity="0.99"/>
<path fill-rule="evenodd" clip-rule="evenodd" d="M7.39487 6.95183C7.41234 6.96431 7.4071 6.9965 7.42456 7.00897C7.52037 7.07783 7.54095 7.02095 7.64412 7.07634C7.66221 7.08594 7.65685 7.12536 7.67706 7.12798C7.70712 7.1321 7.73157 7.08245 7.76039 7.09193C7.78447 7.09991 7.76538 7.14882 7.78584 7.16391C7.81665 7.18662 7.86344 7.17452 7.89699 7.19298C7.91483 7.20283 7.91109 7.23989 7.93118 7.24375C7.95875 7.24899 7.98382 7.20558 8.01052 7.21456C8.0331 7.22217 8.01962 7.26646 8.03921 7.2803C8.07027 7.30226 8.11556 7.29378 8.14887 7.31224C8.16633 7.32197 8.16471 7.35615 8.18417 7.36064C8.21024 7.36663 8.23594 7.32983 8.26139 7.33819C8.28235 7.34517 8.27399 7.38435 8.29245 7.39657C8.32439 7.41766 8.36893 7.41217 8.40224 7.43125C8.41933 7.44111 8.41783 7.47417 8.43692 7.47928C8.46336 7.48614 8.49181 7.45109 8.51713 7.46144C8.53734 7.46968 8.52424 7.50885 8.54171 7.52195C8.57202 7.54478 8.61544 7.54228 8.64887 7.56025C8.66521 7.5691 8.66933 7.59655 8.68742 7.60067C8.71212 7.60615 8.73807 7.57696 8.76177 7.58557C8.78148 7.59268 8.77686 7.62811 8.79445 7.63946C8.82639 7.66017 8.86569 7.66591 8.90211 7.67639C9.1107 7.73639 9.11606 7.70683 9.13178 7.71681C9.15399 7.73066 9.1354 7.77557 9.15623 7.79141C9.18667 7.81474 9.23383 7.80214 9.26751 7.82048C9.28535 7.83008 9.28173 7.86713 9.30169 7.87063C9.33001 7.87549 9.35508 7.83145 9.38228 7.84044C9.40498 7.84792 9.39089 7.89258 9.41035 7.90631C9.44154 7.92826 9.48707 7.91891 9.52038 7.93737C9.53834 7.94722 9.53622 7.98265 9.55618 7.98714C9.58238 7.99288 9.60746 7.95334 9.63278 7.96232C9.65461 7.9698 9.64401 8.01135 9.66297 8.02444C9.69466 8.04615 9.73982 8.03929 9.77313 8.0585C9.79009 8.06823 9.78735 8.10216 9.80643 8.10678C9.83413 8.11352 9.86307 8.07622 9.88952 8.08682C9.9101 8.09505 9.89463 8.13572 9.91222 8.14932C9.94241 8.1724 9.98632 8.16916 10.0199 8.18699C10.0361 8.19573 10.0402 8.22305 10.0582 8.22692C10.0833 8.23215 10.1093 8.20246 10.1335 8.21107C10.1532 8.21818 10.1481 8.25374 10.1657 8.26521C10.1975 8.28592 10.2399 8.2843 10.2733 8.30214C10.2901 8.31125 10.294 8.33957 10.3125 8.34406C10.3369 8.34992 10.3626 8.32123 10.3864 8.32934C10.4054 8.33595 10.401 8.37088 10.4187 8.38036C10.4453 8.39483 10.6312 8.43188 10.7806 8.39807C10.9125 8.36813 10.8944 8.33395 10.9259 8.31836C10.9926 8.28505 11.0688 8.27345 11.1348 8.23902C11.1545 8.22879 11.1579 8.19885 11.1771 8.18749C11.2734 8.13011 11.2906 8.17415 11.3829 8.11264C11.4013 8.10054 11.4024 8.07035 11.421 8.05875C11.4528 8.03916 11.4971 8.04515 11.5274 8.02332C11.5466 8.0096 11.5365 7.96818 11.5586 7.95995C11.5829 7.95097 11.6073 7.99051 11.6327 7.9844C11.6531 7.97941 11.6514 7.94398 11.6695 7.93313C11.7017 7.91379 11.7458 7.91965 11.7766 7.89795C11.7958 7.88435 11.7865 7.84343 11.8084 7.83507C11.8319 7.82609 11.8556 7.86501 11.8798 7.85853C11.9009 7.85291 11.9001 7.81761 11.9185 7.80563C11.9494 7.78555 11.9919 7.78754 12.022 7.76608C12.0406 7.75286 12.0356 7.71556 12.0568 7.7072C12.079 7.69847 12.1031 7.73228 12.1258 7.72542C12.1461 7.7193 12.1463 7.68599 12.1642 7.67489C12.1962 7.65543 12.2388 7.6578 12.27 7.63709C12.2882 7.62512 12.2844 7.58906 12.3049 7.5817C12.3277 7.57347 12.3522 7.6059 12.3753 7.59904C12.3953 7.59318 12.3956 7.5605 12.4134 7.54952C12.445 7.52993 12.4872 7.53155 12.5183 7.51097C12.5367 7.49874 12.5341 7.46356 12.5547 7.45558C12.5759 7.44747 12.5996 7.47828 12.6211 7.47105C12.6415 7.46406 12.6426 7.43163 12.6607 7.41978C12.6917 7.39957 12.7325 7.39844 12.7632 7.37811C12.7811 7.36613 12.7834 7.33757 12.8017 7.32634C12.8983 7.26721 12.9147 7.31112 13.0123 7.25061C13.0299 7.23964 13.0324 7.21169 13.0503 7.20109C13.1469 7.14345 13.1636 7.18499 13.2599 7.12437C13.278 7.11301 13.2811 7.08457 13.3 7.07459C13.3653 7.03953 13.4408 7.02669 13.5065 6.99238C13.5245 6.98302 13.5286 6.95633 13.5463 6.94635C13.6427 6.89195 13.7564 6.89432 13.7751 6.8947C13.8173 6.89557 13.8577 6.91416 13.8999 6.91503C13.9518 6.93948 13.9562 6.91952 14.0098 6.9446C14.0269 6.95271 14.033 6.97541 14.0492 6.98514C14.1513 7.04665 14.1553 7.0313 14.3657 7.08632C14.3991 7.10989 14.3685 7.13098 14.402 7.15468C14.449 7.18774 14.4581 7.15792 14.5099 7.18786C14.5281 7.19847 14.5266 7.23402 14.5471 7.23889C14.5725 7.24475 14.597 7.20471 14.6214 7.21381C14.6437 7.22205 14.6331 7.26409 14.6523 7.27781C14.6828 7.29977 14.7272 7.2934 14.7595 7.31274C14.7778 7.32359 14.776 7.35952 14.7967 7.36451C14.8218 7.3705 14.8459 7.32971 14.8697 7.33931C14.8924 7.34829 14.8807 7.39108 14.9001 7.40593C14.9297 7.42851 14.974 7.42289 15.0053 7.44298C15.0239 7.45483 15.0214 7.49276 15.043 7.49725C15.0694 7.50274 15.0931 7.45645 15.1183 7.46656C15.142 7.47591 15.1254 7.52257 15.1458 7.53816C15.1757 7.56112 15.2219 7.55164 15.2543 7.57097C15.2726 7.58195 15.2689 7.6205 15.29 7.62424C15.3178 7.62923 15.3419 7.58145 15.3685 7.59143C15.3924 7.60054 15.3746 7.64807 15.3949 7.66379C15.4891 7.73677 15.5197 7.64969 15.6168 7.71668C15.6385 7.73165 15.6221 7.77482 15.6423 7.79178C15.735 7.86938 15.7683 7.77369 15.8656 7.84306C15.8888 7.85965 15.8746 7.90032 15.8872 7.92589C15.9157 7.9839 15.9322 7.95758 15.9972 7.95658C16.037 7.95583 16.0832 7.94523 16.116 7.96768C16.1397 7.98403 16.1241 8.02569 16.1364 8.05176C16.1645 8.11027 16.1821 8.0827 16.2466 8.08158C16.2863 8.08083 16.3327 8.06948 16.365 8.09231C16.389 8.10928 16.3717 8.15194 16.3842 8.17864C16.393 8.19772 16.4068 8.21918 16.427 8.22529C16.4483 8.23166 16.4709 8.20458 16.4922 8.21107C16.5209 8.23228 16.4968 8.24812 16.5268 8.2702C16.5717 8.30339 16.5799 8.2828 16.6293 8.31212C16.6467 8.32247 16.6518 8.35092 16.6714 8.35603C16.6942 8.3619 16.7189 8.33196 16.7407 8.34119C16.7612 8.34979 16.7556 8.38622 16.7738 8.39907C16.8043 8.42053 16.8461 8.42015 16.8787 8.43837C16.8959 8.4481 16.9009 8.47617 16.9201 8.48091C16.9433 8.48677 16.9684 8.45708 16.9906 8.46619C17.0109 8.47455 17.0057 8.51035 17.0233 8.52357C17.0659 8.55538 17.1226 8.56474 17.1652 8.59655C17.2004 8.59094 17.2362 8.61527 17.2714 8.60965C17.3179 8.60229 17.3591 8.57472 17.4035 8.55888C17.4406 8.54553 17.4834 8.54453 17.5157 8.52208C17.5345 8.50898 17.5243 8.46793 17.546 8.45995C17.5704 8.45097 17.5955 8.48964 17.6208 8.48328C17.6412 8.47816 17.6394 8.44298 17.6574 8.43213C17.6897 8.41279 17.734 8.41878 17.7647 8.39708C17.7839 8.38348 17.7742 8.34219 17.7962 8.33395C17.8201 8.32497 17.8441 8.36414 17.8688 8.35778C17.8897 8.35229 17.8883 8.31686 17.9065 8.30513C17.9377 8.28505 17.9806 8.28804 18.0107 8.26646C18.0295 8.25311 18.0237 8.21481 18.0452 8.20621C18.0672 8.19747 18.0909 8.23253 18.1136 8.22579C18.1342 8.21968 18.1343 8.18562 18.1527 8.17427C18.1843 8.15456 18.227 8.15693 18.2581 8.13622C18.2763 8.12412 18.2724 8.08819 18.293 8.08071C18.3158 8.07247 18.3404 8.10491 18.3636 8.09817C18.3836 8.09231 18.3837 8.0595 18.4014 8.04877C18.4336 8.02943 18.4763 8.03193 18.5076 8.01135C18.5258 7.99937 18.5219 7.96332 18.5425 7.95596C18.5653 7.94772 18.5899 7.98016 18.6132 7.9733C18.6331 7.96743 18.6332 7.93475 18.6509 7.92402C18.6831 7.90468 18.7258 7.90718 18.7571 7.88659C18.7753 7.87462 18.7714 7.83857 18.792 7.8312C18.8148 7.82297 18.8394 7.85541 18.8627 7.84855C18.8826 7.84268 18.8827 7.81 18.9004 7.79927C18.9326 7.77993 18.9753 7.78243 19.0066 7.76184C19.0248 7.74987 19.0209 7.71381 19.0415 7.70645C19.0643 7.69822 19.0889 7.73066 19.1122 7.72379C19.1321 7.71793 19.1322 7.68525 19.1499 7.67452C19.1821 7.65518 19.2248 7.65768 19.2561 7.63709C19.2743 7.62512 19.2704 7.58906 19.291 7.5817C19.3138 7.57347 19.3384 7.6059 19.3617 7.59904C19.3816 7.59318 19.3817 7.5605 19.3994 7.54977C19.4315 7.53031 19.4741 7.5328 19.5053 7.51209C19.5237 7.49999 19.52 7.46406 19.5406 7.45658C19.5628 7.44834 19.587 7.48078 19.6096 7.47367C19.63 7.46731 19.6305 7.4345 19.6484 7.42302C19.6794 7.40306 19.7208 7.40306 19.7515 7.38248C19.7697 7.37013 19.7705 7.34006 19.7893 7.32821C19.8848 7.26746 19.9022 7.31249 19.9983 7.25124C20.0161 7.24001 20.0186 7.21194 20.0365 7.20121C20.1347 7.14245 20.1509 7.18587 20.2478 7.12574C20.2654 7.11476 20.2679 7.08707 20.2858 7.07621C20.3837 7.01671 20.4012 7.059 20.4965 6.99213C20.5128 6.98065 20.5129 6.95358 20.529 6.94198C20.5605 6.91927 20.6029 6.91528 20.6343 6.89258C20.6882 6.92664 20.6976 6.89744 20.7517 6.93163C20.7939 6.95832 20.775 6.97417 20.8127 7.00535C20.8304 7.02007 20.8576 7.01957 20.8753 7.03417C20.8575 7.07708 20.8281 7.11463 20.8102 7.15755C20.7401 7.32546 20.6789 7.82098 20.3234 9.54042C20.1865 10.2033 20.2335 10.2096 20.2209 10.2668C20.2173 10.2837 20.1785 10.2757 20.1764 10.2927C20.1726 10.3232 20.2023 10.3493 20.2072 10.3797C20.2118 10.4094 20.2245 10.4476 20.2044 10.4701C20.1946 10.481 20.027 10.5085 20.0116 10.5111C19.9216 10.5258 18.8221 10.5116 18.6416 10.4999C18.3806 10.4828 18.3804 10.4809 9.78473 10.4815C9.28423 10.4815 9.28647 10.5011 8.78672 10.509C7.78247 10.5246 7.75677 10.5404 7.64575 10.4164C7.63127 10.4003 7.60857 10.3908 7.59921 10.3714C7.5558 10.2803 7.16296 7.57771 7.03821 7.03267C7.06079 7.01483 7.09048 7.00722 7.11306 6.98938C7.12703 6.97841 7.1662 6.90555 7.28696 6.91865C7.32439 6.92264 7.35745 6.94784 7.39487 6.95183Z" fill="#104577" fill-opacity="0.98"/>
<path fill-rule="evenodd" clip-rule="evenodd" d="M55.6422 17.3882C55.6428 16.9131 55.6259 16.6328 55.7279 16.1479C55.7311 16.1328 55.8194 15.6569 56.0111 15.358C56.187 15.0835 56.2592 15.0149 56.5451 14.8516C56.9199 14.6376 57.6538 14.6297 58.0542 14.7928C58.7098 15.0601 58.8666 15.6527 58.9593 16.0099C59.0381 16.3138 59.119 17.1721 59.1025 17.515C59.0264 19.1054 58.6633 19.9352 57.5668 20.0314C55.5602 20.2073 55.6428 18.0453 55.6422 17.3882Z" fill="#104578"/>
<path fill-rule="evenodd" clip-rule="evenodd" d="M26.4509 16.508C26.463 16.3957 26.5501 15.5888 26.9126 15.1733C26.9934 15.0806 27.4377 14.5715 28.3692 14.6842C29.3145 14.7984 29.5226 15.4273 29.5533 15.4877C29.9917 16.3503 29.9443 18.3476 29.5988 19.1239C29.5532 19.2266 29.3129 19.9347 28.3749 20.0271C26.7428 20.188 26.5541 18.7865 26.4935 18.511C26.3966 18.0693 26.4043 16.9965 26.4509 16.508Z" fill="#104578"/>
<path fill-rule="evenodd" clip-rule="evenodd" d="M37.3063 19.0044C37.2641 19.2077 37.3008 19.8278 35.9822 19.8637C35.4794 19.8773 34.7606 19.9331 34.6306 19.8494C34.5093 19.7712 34.5306 19.6563 34.531 18.5102C34.531 18.4807 34.5311 18.1571 34.5347 18.1427C34.5902 17.9215 34.6335 17.924 34.8607 17.921C36.8411 17.8949 37.3056 18.0202 37.3063 19.0044Z" fill="#134779"/>
<path fill-rule="evenodd" clip-rule="evenodd" d="M48.5546 16.0144C48.5546 14.9847 48.5277 14.9502 48.6776 14.8429C48.7346 14.8022 49.0489 14.8014 49.0814 14.8013C50.1651 14.7988 51.09 14.7161 51.1198 15.7637C51.1458 16.6764 50.6191 16.8602 49.9549 16.893C49.8063 16.9003 48.84 16.8961 48.8312 16.8957C48.4849 16.8785 48.5546 16.587 48.5546 16.0144Z" fill="#124679"/>
<path fill-rule="evenodd" clip-rule="evenodd" d="M34.5308 15.7651C34.5308 15.7153 34.5308 15.1461 34.5309 15.1426C34.5408 14.9171 34.5252 14.8704 34.7409 14.8064C34.7588 14.801 35.6963 14.7944 35.8533 14.8135C36.4155 14.8817 36.9207 15.0102 36.8963 15.6419C36.8633 16.4948 35.8963 16.5107 34.8601 16.4955C34.4641 16.4898 34.5309 16.2385 34.5308 15.7651Z" fill="#14487A"/>
<path fill-rule="evenodd" clip-rule="evenodd" d="M16.4922 8.2115C16.5703 8.23795 16.6614 8.19092 16.7393 8.21736C16.7947 8.23608 16.814 8.31217 16.8664 8.33825C16.903 8.35659 16.9525 8.32353 16.9892 8.34186C17.0422 8.36856 17.0856 8.41509 17.1181 8.46487C17.1223 8.47148 17.1013 8.4751 17.1324 8.56205C17.1379 8.57702 17.1599 8.58189 17.1652 8.59698C17.1226 8.56517 17.0659 8.55581 17.0233 8.524C17.0057 8.51078 17.0109 8.47497 16.9906 8.46662C16.9684 8.45751 16.9433 8.4872 16.9201 8.48134C16.9009 8.4766 16.8959 8.44853 16.8787 8.4388C16.8461 8.42058 16.8043 8.42096 16.7738 8.3995C16.7555 8.38665 16.7612 8.35022 16.7407 8.34162C16.7189 8.33238 16.6942 8.36232 16.6713 8.35646C16.6517 8.35135 16.6466 8.3229 16.6293 8.31255C16.5799 8.28323 16.5717 8.30382 16.5267 8.27063C16.4968 8.24855 16.5209 8.23271 16.4922 8.2115Z" fill="#0E3C6D" fill-opacity="0.25"/>
<path fill-rule="evenodd" clip-rule="evenodd" d="M20.1354 22.625C20.1496 22.6623 20.1966 22.6808 20.2108 22.7181C20.269 22.872 20.1145 22.9431 20.0956 22.9518C20.0956 22.9518 19.8761 22.9577 19.8571 22.9582C19.8756 22.9375 19.8771 22.9049 19.8959 22.8842C19.9559 22.8176 19.9682 22.8328 20.02 22.7579C20.0883 22.6589 20.0978 22.6683 20.1354 22.625Z" fill="#0F4179" fill-opacity="0.19"/>
<path fill-rule="evenodd" clip-rule="evenodd" d="M13.9 6.91355C13.9619 6.89359 13.9409 6.86015 14.0032 6.84007C14.0121 6.8372 14.0727 6.81774 14.1206 6.84244C14.1452 6.85516 14.1385 6.86015 14.3658 7.08483C14.1554 7.02982 14.1514 7.04516 14.0494 6.98366C14.0331 6.97393 14.027 6.95122 14.0099 6.94311C13.9563 6.91804 13.9519 6.938 13.9 6.91355Z" fill="#0F4174" fill-opacity="0.27"/>
<path fill-rule="evenodd" clip-rule="evenodd" d="M7.39487 6.95042C7.35745 6.94643 7.32439 6.92123 7.28696 6.91723C7.1662 6.90414 7.12703 6.97699 7.11306 6.98797C7.09048 7.00581 7.06079 7.01342 7.03821 7.03126C7.06391 6.82642 7.05268 6.82317 7.06578 6.81132C7.08274 6.7961 7.24829 6.79685 7.27773 6.81694C7.32651 6.85037 7.34597 6.91699 7.39487 6.95042Z" fill="#0F4378" fill-opacity="0.37"/>
<path fill-rule="evenodd" clip-rule="evenodd" d="M20.6344 6.89249C20.6446 6.88551 20.653 6.8149 20.7636 6.80292C20.9241 6.78571 20.8642 6.87316 20.8754 7.03409C20.8577 7.01949 20.8305 7.01999 20.8128 7.00527C20.7751 6.97408 20.794 6.95824 20.7518 6.93154C20.6976 6.89736 20.6883 6.92655 20.6344 6.89249Z" fill="#0F4273" fill-opacity="0.36"/>
<path fill-rule="evenodd" clip-rule="evenodd" d="M19.6056 11.2048C19.8262 11.2031 19.8263 11.1943 19.8431 11.203C19.8939 11.2291 19.9111 11.3002 19.9619 11.3263C19.8843 11.324 19.8066 11.3218 19.729 11.3195C19.6878 11.2812 19.6468 11.2431 19.6056 11.2048Z" fill="#0F4074" fill-opacity="0.21"/>
<path fill-rule="evenodd" clip-rule="evenodd" d="M19.729 11.3203C19.8066 11.3226 19.8843 11.3248 19.9619 11.327L19.9594 11.4524L19.9775 11.5557C19.958 11.5353 19.9302 11.524 19.9109 11.5036C19.8906 11.4821 19.8812 11.4514 19.8595 11.4313C19.8241 11.3987 19.8158 11.4135 19.7789 11.3821C19.7485 11.3561 19.7606 11.3471 19.729 11.3203Z" fill="#0F4375" fill-opacity="0.33"/>
<path fill-rule="evenodd" clip-rule="evenodd" d="M10.2407 19.9219C10.4676 19.9345 10.4701 19.9221 10.4845 19.9355C10.5151 19.9637 10.4694 20.031 10.5 20.0594C10.4627 20.0474 10.4212 20.0529 10.3839 20.041C10.3305 20.0239 10.3002 19.9987 10.294 19.9936C10.2584 19.964 10.276 19.9513 10.2407 19.9219Z" fill="#0F4379" fill-opacity="0.24"/>
<path fill-rule="evenodd" clip-rule="evenodd" d="M19.9595 11.4528C19.9888 11.484 20.0584 11.4189 20.0877 11.4501C20.0877 11.4501 20.0841 11.6712 20.0837 11.6904C20.0484 11.6456 20.013 11.6008 19.9776 11.5561L19.9595 11.4528Z" fill="#0F4477" fill-opacity="0.27"/>
<path fill-rule="evenodd" clip-rule="evenodd" d="M21.8874 10.8164L22.01 10.8689C21.8285 10.8829 21.8299 10.8792 21.6506 10.9098C21.6727 10.8938 21.6624 10.8515 21.6844 10.8354C21.6844 10.8354 21.8712 10.818 21.8874 10.8164Z" fill="#0F4172" fill-opacity="0.42"/>
</svg>
