<svg width="80" height="30" viewBox="0 0 80 30" fill="none" xmlns="http://www.w3.org/2000/svg">
<g clip-path="url(#clip0_451_61)">
<g clip-path="url(#clip1_451_61)">
<path d="M31.4371 22.9229V20.4863H28.2145H25.7731V28.5756H28.2145V26.0981H31.0054V23.6615H28.2145V22.9229H31.4371Z" fill="#FF0000"/>
<path d="M36.8647 25.6261C37.7898 25.2004 38.4374 24.2668 38.4374 23.1845C38.4374 21.6969 37.2296 20.4863 35.7339 20.4863H31.9613V23.6615H34.1868V22.7895H35.4615C35.8624 22.7895 36.1914 23.1178 36.1914 23.5179C36.1914 23.918 35.8624 24.2463 35.4615 24.2463H31.9613V28.5756H34.4027V25.8775H34.6032L36.4997 28.5756H38.9411L36.8647 25.6261Z" fill="#FF0000"/>
<path d="M53.6101 20.7676H41.1975V28.2875H53.6101V20.7676Z" fill="#FF0000"/>
<path d="M44.7748 24.0413C44.6874 24.0824 44.4921 24.1285 44.2403 24.1285C43.5207 24.1285 43.1506 23.6823 43.1506 23.0872C43.1506 22.3794 43.6595 21.9844 44.2865 21.9844C44.5281 21.9844 44.7183 22.0357 44.8005 22.0767L44.7029 22.4512C44.6052 22.4101 44.4716 22.3742 44.3071 22.3742C43.9319 22.3742 43.6441 22.5999 43.6441 23.0616C43.6441 23.4771 43.8908 23.7387 44.3122 23.7387C44.4561 23.7387 44.6103 23.7079 44.7029 23.672L44.7748 24.0413Z" fill="white"/>
<path d="M46.1626 23.5635L46.0135 24.097H45.5253L46.1626 22.0195H46.7794L47.427 24.097H46.9182L46.7588 23.5635H46.1626ZM46.692 23.2147L46.5635 22.7736C46.5275 22.6505 46.4916 22.4966 46.4607 22.3735H46.4556C46.4247 22.4966 46.3939 22.6556 46.3579 22.7736L46.2346 23.2147H46.6971H46.692Z" fill="white"/>
<path d="M48.4086 22.4145H47.8484V22.0195H49.4469V22.4145H48.8763V24.097H48.4035V22.4145H48.4086Z" fill="white"/>
<path d="M50.1819 24.0982V23.8161L50.4389 23.5801C50.8758 23.1903 51.0916 22.9646 51.0968 22.7286C51.0968 22.5645 50.9991 22.4362 50.7678 22.4362C50.5931 22.4362 50.444 22.5234 50.3412 22.6004L50.2076 22.2618C50.3566 22.149 50.5931 22.0566 50.8655 22.0566C51.3178 22.0566 51.5696 22.3234 51.5696 22.6876C51.5696 23.0261 51.3229 23.2929 51.0351 23.5493L50.8501 23.7032L51.6056 23.7084V24.0931H50.1819V24.0982Z" fill="white"/>
<path d="M43.1713 26.7759V26.4938L43.4283 26.2579C43.8651 25.868 44.081 25.6423 44.0861 25.4063C44.0861 25.2422 43.9885 25.114 43.7572 25.114C43.5825 25.114 43.4334 25.2012 43.3306 25.2781L43.197 24.9396C43.346 24.8267 43.5824 24.7344 43.8549 24.7344C44.3072 24.7344 44.559 25.0011 44.559 25.3653C44.559 25.7039 44.3123 25.9706 44.0245 26.2271L43.8394 26.381L44.595 26.3861V26.7708H43.1713V26.7759Z" fill="white"/>
<path d="M46.0443 25.1902H46.0391L45.6536 25.3697L45.5765 25.0157L46.1059 24.7695H46.4966V26.7752H46.0443V25.185V25.1902Z" fill="white"/>
<path d="M48.3212 25.1902H48.3161L47.9306 25.3697L47.8535 25.0157L48.3829 24.7695H48.7735V26.7752H48.3212V25.185V25.1902Z" fill="white"/>
<path d="M49.9968 26.7759V26.4938L50.2538 26.2579C50.6907 25.868 50.9066 25.6423 50.9117 25.4063C50.9117 25.2422 50.8141 25.114 50.5828 25.114C50.408 25.114 50.259 25.2012 50.1562 25.2781L50.0225 24.9396C50.1716 24.8267 50.408 24.7344 50.6804 24.7344C51.1327 24.7344 51.3846 25.0011 51.3846 25.3653C51.3846 25.7039 51.1379 25.9706 50.85 26.2271L50.665 26.381L51.4206 26.3861V26.7708H49.9968V26.7759Z" fill="white"/>
</g>
<g clip-path="url(#clip2_451_61)">
<path d="M47.334 12.638V8.79511C48.0973 8.78657 49.136 8.75288 49.4148 7.88314C49.6173 7.25112 49.4585 6.58968 48.8225 6.3197C48.6956 6.26561 48.2721 6.13844 48.1561 6.13844H46.9575V17.2875H41.6937V1.91596L48.9565 1.91406C51.621 2.04929 53.9791 3.27442 54.5559 6.08198C55.1105 8.78087 54.216 11.6416 51.3851 12.4349C50.0822 12.7998 48.6726 12.5768 47.333 12.638H47.334Z" fill="#FD6D01"/>
<path d="M59.7646 17.2871L54.0595 11.2786C54.562 10.5076 55.0691 9.68956 55.1575 8.74438L55.204 8.71116C56.2696 8.82314 57.3233 8.55173 57.2054 7.25021C57.1001 6.08913 55.9871 6.11808 55.0931 6.13231C54.7561 4.20873 53.4316 2.73639 51.7047 1.9383C53.3366 1.95443 55.0386 1.83628 56.6648 1.91268C60.4142 2.08824 62.7949 3.962 62.5133 7.96337C62.3878 9.74792 61.3138 10.7249 59.6951 11.2383L59.6532 11.3716L66.0385 17.2866H59.7646V17.2871Z" fill="#FD6D01"/>
<path d="M72.1953 4.00331L71.3493 1.86905L71.9828 1.96443L72.8355 3.48611C72.8895 3.48991 72.9332 3.46571 72.9802 3.44531C73.3229 3.29537 73.8878 2.83084 74.2145 2.74496C74.4284 2.6885 74.6389 2.78814 74.685 3.00735L73.2378 4.27187L73.6509 5.45193L75.2288 3.28968C75.344 3.31482 75.6772 3.51696 75.6655 3.64032C75.6518 3.78267 74.9172 4.67471 75.0145 4.76297L76.8631 4.81848C76.9768 4.96652 77.2457 5.22132 77.271 5.40353C77.2856 5.50744 77.2569 5.46189 77.1996 5.47328C76.934 5.52737 75.7891 5.5416 75.6847 5.62938L75.0149 6.89817C75.907 6.76104 76.708 6.37576 77.5408 6.05121C77.727 6.0066 77.9389 6.60399 77.875 6.70268C77.2898 6.87919 76.7145 7.21845 76.1317 7.38594C75.7675 7.49081 75.0225 7.54395 74.7348 7.68345C74.6596 7.71998 74.2493 8.30693 74.2159 8.39328C74.1887 8.46351 74.2258 8.46825 74.2855 8.46446C74.4523 8.45402 74.6991 8.38285 74.8739 8.34584C75.9931 8.10812 77.0877 7.74323 78.2097 7.51453C78.7093 9.24357 78.5711 11.2065 77.8276 12.8454C77.7444 13.0286 77.5512 13.4485 77.4332 13.5861C77.303 13.7384 76.7451 13.8205 76.5279 13.8585C73.3779 14.4046 70.1624 13.6373 67.002 13.8252C66.3745 13.8627 65.6756 14.0397 65.0735 14.062C64.987 14.0653 64.8977 14.0786 64.816 14.0383C64.7577 14.0093 64.3826 13.4115 64.322 13.3038C63.2193 11.3427 63.1258 8.81748 63.8834 6.71549L65.662 6.56555C65.7395 6.4996 64.7135 5.41397 64.682 5.29772C64.6547 5.19712 64.9147 4.79808 64.9635 4.76961C65.0453 4.72169 65.1187 4.80899 65.1713 4.85549C65.5957 5.22891 66.0704 5.88893 66.4874 6.32783C66.5245 6.36674 66.5405 6.41799 66.563 6.46449L67.1191 6.42273L65.4011 4.4294C65.3264 4.27709 65.9722 3.70485 66.1109 3.62324L67.5886 3.86144L67.6436 2.58791L68.5559 2.25007C68.617 2.24438 68.6339 2.28376 68.664 2.32456C68.7566 2.4503 69.3658 3.8937 69.4447 3.86096C69.7089 3.68066 70.4205 1.89041 70.5309 1.86526C70.577 1.85482 70.6494 1.86573 70.6912 1.89136C70.8675 2.00001 71.5401 3.78172 71.7967 4.05218L72.1944 4.00236L72.1953 4.00331ZM70.7378 3.43487L70.6047 3.51316L69.9058 4.88776L70.3867 6.4232L71.0414 5.94634L71.2407 4.68088L70.7378 3.43392V3.43487ZM68.3886 3.57674V4.24103L68.7181 4.26428L68.3886 3.57722V3.57674ZM67.5896 5.6645V4.73924C67.237 4.56226 66.8009 4.49013 66.4145 4.38385L67.5896 5.6645ZM72.4768 4.76297C72.2611 4.84268 71.9979 4.93615 72.2188 5.18858C72.3372 5.05668 72.5163 4.97174 72.4768 4.76297ZM68.9507 5.23935L68.3886 5.09511L68.4356 6.37576C68.508 6.36389 68.5244 6.2875 68.5517 6.23293C68.6114 6.11479 68.9813 5.28348 68.9503 5.23935H68.9507ZM74.8739 5.66497L74.3682 5.72333L73.6524 6.94514C73.7967 6.92616 74.0378 6.99639 74.1463 6.89864L74.8744 5.66497H74.8739ZM71.9128 7.98854C72.0736 7.54537 72.9182 6.8716 73.0202 6.4716C73.0742 6.25951 72.9464 5.90127 72.8298 5.71289L71.8061 6.57836L71.8197 7.58523L71.9128 7.98854ZM69.7512 7.75178C69.6553 7.34751 69.6276 6.91288 69.4922 6.51858C69.4767 6.47303 69.4866 6.40992 69.4236 6.42368L69.151 7.05522L69.7517 7.7513L69.7512 7.75178ZM70.9732 7.04052C70.9385 7.00398 70.5582 7.17669 70.5488 7.21418C70.5563 7.55818 70.4929 7.85284 70.9023 7.89507L70.9732 7.04052ZM66.086 7.98854L67.2751 8.40942L68.1973 7.54537C68.0788 7.42485 67.9576 7.2436 67.8001 7.18429C67.6944 7.14443 66.8267 7.06661 66.72 7.08796C66.5781 7.11643 66.2006 7.82817 66.086 7.98902V7.98854ZM65.5219 7.22984H64.2999C64.5438 7.45 64.9255 7.543 65.2183 7.7048C65.3114 7.71429 65.5487 7.25404 65.5215 7.22984H65.5219ZM73.6519 7.84715C73.4587 7.92971 73.2021 7.83908 73.0437 7.96814L72.5243 8.8431L73.1701 8.73634L73.6514 7.84715H73.6519ZM70.3152 12.6385V9.8158C70.3152 9.75554 69.9331 9.27441 69.8696 9.17762C69.8203 9.17335 69.103 9.69718 69.0231 9.69718H67.5426L69.3282 8.60538C69.3789 8.53468 68.9944 8.20254 68.9221 8.13896C68.8671 8.12804 68.8116 8.17597 68.767 8.20539C68.4003 8.44975 67.3174 9.55294 67.0382 9.63882C66.7849 9.71711 66.399 9.68579 66.1325 9.69623L66.6025 9.03337L65.5962 8.65046L64.9574 9.53016L64.352 9.60655C64.3116 10.444 64.4244 11.3422 64.7459 12.1166L70.3157 12.6381L70.3152 12.6385ZM64.8169 8.27419L64.3943 8.17882L64.3473 8.98545C64.4446 8.90241 64.8757 8.34299 64.8169 8.27419ZM77.4116 9.79208H76.6125C76.5505 9.64973 75.9912 8.94844 75.8939 8.94844L74.8486 9.22174L75.109 9.7916L74.5454 9.8661L74.1003 9.28153C73.7638 9.45994 71.8136 9.86515 71.6736 10.0488C71.6402 10.0924 71.6284 10.1394 71.6284 10.194C71.713 11.1007 71.6689 12.0246 71.8743 12.9152C73.3924 13.2392 74.9496 13.2677 76.4927 13.3963C76.6163 13.3863 76.6741 13.3109 76.746 13.2245C77.1808 12.7021 77.7345 11.0205 77.7867 10.3373C77.813 9.99184 77.7853 8.8654 77.5766 8.60586C77.4652 8.46731 77.0642 8.72638 76.8946 8.7017L77.4116 9.79255V9.79208Z" fill="#FD6D01"/>
<path d="M77.0825 14.0137C77.1699 14.1048 76.6538 14.6998 76.5668 14.7975C76.3553 15.0357 75.5441 15.8281 75.2752 15.8656C75.0205 15.9012 74.4367 15.8352 74.1458 15.8158C71.4493 15.6355 68.7983 14.9868 66.1084 14.7254C65.8048 14.696 65.1223 14.8184 65.0509 14.3695C65.0353 14.2713 65.2892 14.268 65.3639 14.2571C66.0153 14.1598 66.7185 14.0863 67.376 14.0587C70.6154 13.9226 73.8713 14.6808 77.0825 14.0137Z" fill="#FD6D01"/>
<path d="M74.8739 16.1017C74.8998 16.2146 74.8551 16.1785 74.8128 16.2075C72.9473 17.491 70.0083 17.584 67.9674 16.6929C67.3202 16.4106 66.1104 15.6632 65.6864 15.1052C65.6502 15.0578 65.5952 15.045 65.6164 14.9629C67.7508 15.016 69.8344 15.537 71.9438 15.8099C72.9158 15.9356 73.8996 16.0001 74.8744 16.1017H74.8739Z" fill="#FD6D01"/>
<path d="M78.1979 2.68489C79.4044 2.43389 79.5407 4.17337 78.5025 4.27681C77.4769 4.3793 77.3636 2.85856 78.1979 2.68489ZM78.2449 2.82771C77.6315 2.95583 77.639 3.99781 78.3027 4.12497C79.2629 4.30907 79.3339 2.60043 78.2449 2.82771Z" fill="#FD6D01"/>
<path d="M78.1166 3.00602C78.3741 3.02737 78.777 2.89546 78.7755 3.26699C78.7746 3.50755 78.6035 3.49569 78.589 3.55453C78.5622 3.66129 78.8343 3.85156 78.7746 3.90707C78.4447 3.94219 78.5725 3.43733 78.2581 3.52748L78.2111 3.93127L78.117 3.88335V3.00554L78.1166 3.00602ZM78.2576 3.38608C78.7727 3.45726 78.7713 3.07672 78.2576 3.14836V3.38608Z" fill="#FD6D01"/>
<path d="M20.5338 16.5038C19.3884 17.4869 17.9214 17.0817 17.4773 15.6279L17.2441 14.7961C17.1844 15.5928 17.0152 16.6945 16.1419 16.9806C15.6997 17.1254 14.9904 17.0841 14.6567 16.7192C14.5608 16.6143 14.4893 16.3624 14.4005 16.3562C14.0362 16.3315 14.1067 16.9194 13.7387 16.9754C13.4506 17.0196 13.4412 16.8544 13.3599 16.8397C13.319 16.8321 13.2325 16.9223 13.1338 16.9332C12.5853 16.9935 11.9165 16.8905 11.3543 16.9213C10.9092 16.5541 11.4577 16.6006 11.5066 16.2869C11.5888 15.7612 11.508 14.7169 11.4624 14.1555C11.4347 13.8163 11.3665 12.9883 11.2514 12.7083C11.0916 12.3202 10.6681 12.3321 10.6159 12.7781C10.693 13.8632 10.5172 15.0813 10.615 16.1498C10.6385 16.4056 10.7104 16.4568 10.9365 16.5598C10.99 16.7667 10.9045 16.8601 10.7141 16.9095C10.1637 17.0528 9.5748 16.9275 9.01642 16.9095L8.83781 16.6755C9.04321 16.4843 9.20819 16.4075 9.25002 16.0957C9.34402 15.3968 9.29279 13.9477 9.25613 13.2037C9.24532 12.9807 9.17858 12.7411 9.19738 12.5038C9.05261 12.2002 8.67424 12.3278 8.53794 12.5774L8.50316 16.2884C8.53183 16.4345 9.08269 16.6817 8.62301 16.8857C8.51115 16.9356 8.06604 16.9697 7.91422 16.9768C7.62234 16.9906 6.97935 16.9901 6.71378 16.9085C6.61978 16.8796 6.53424 16.7942 6.52766 16.6926C6.48629 16.6627 6.42707 16.8497 6.3561 16.8744C6.10276 16.9621 4.72794 16.984 4.44687 16.9204C4.36415 16.9019 4.29082 16.8065 4.24899 16.8037C4.19494 16.7999 4.08684 16.9019 4.0027 16.919C3.69813 16.9802 3.25114 16.9783 2.93481 16.9797C2.69839 16.9806 1.63332 17.0101 1.55154 16.7572C1.47916 16.5332 1.96046 16.4331 1.92333 16.1484L1.9661 9.65073C1.78232 9.12073 1.43168 9.51645 1.25637 9.82961C1.00162 10.2856 0.970594 11.1867 0.254752 11.0457C0.113275 11.0182 0 10.8412 0 10.6984C0 10.3473 0.300814 8.80804 0.43148 8.47447C0.626068 7.97721 0.863899 8.40947 1.09797 8.44126C2.11557 8.57933 3.43633 8.33023 4.48729 8.44126C4.77119 8.40947 5.06965 7.95728 5.24732 8.42702C5.36717 8.74351 5.69337 10.223 5.72016 10.5632C5.75541 11.0097 5.26659 11.2056 4.95308 10.9067C4.6753 10.6415 4.43794 9.31005 3.92186 9.38454C3.88191 9.39024 3.80294 9.42772 3.80294 9.45856V16.1479C3.80294 16.175 3.94912 16.398 3.9886 16.4345C4.24523 16.6718 4.41914 16.4981 4.55357 16.2414L4.55498 12.5413C4.51361 12.3231 4.04124 12.3416 4.13807 12.0493L5.71687 11.3423L6.10934 11.4111L6.15399 16.2414C6.14835 16.3387 6.50133 16.603 6.54552 16.5954C6.65926 16.4782 6.84727 16.3719 6.85996 16.1977C6.74763 15.0908 7.0005 13.7071 6.85996 12.6343C6.82001 12.3292 6.42754 12.3435 6.43647 12.046C6.90649 11.9534 7.69096 11.3209 8.11492 11.2958C8.51068 11.2721 8.36403 11.5273 8.43124 11.7617C8.52525 12.0896 8.73018 11.655 8.78329 11.5919C9.08269 11.2384 9.69889 11.2365 10.0961 11.4092C10.2968 11.4965 10.3752 11.7807 10.5943 11.8566C10.7118 11.8562 10.8598 11.4827 10.9961 11.4063C11.21 11.2868 11.6593 11.3238 11.8854 11.4035C12.5486 11.6379 12.7385 12.7956 12.8198 13.4016C12.9543 14.4023 12.9825 15.4224 13.1155 16.4241L13.296 16.5503V9.69486C13.296 9.59759 13.0045 9.404 12.9749 9.3053C12.8551 8.89914 13.8026 8.70033 14.0795 8.58882C14.1975 8.54137 14.4687 8.35015 14.5434 8.34256C14.6412 8.3326 14.8931 8.4963 14.8931 8.55656V11.4505L15.0101 11.5216C15.584 10.8854 16.3431 11.4182 16.6989 11.9999C17.0232 12.5309 17.0919 13.1544 17.2197 13.7517C17.3297 12.5371 17.8444 10.9902 19.3606 11.2578C20.1775 11.4021 20.9202 12.901 20.617 13.6222C20.5291 13.831 18.9334 14.3453 18.7059 14.5892C18.704 15.0727 19.0603 15.6573 19.582 15.6853C20.2316 15.7199 19.7757 14.7847 20.4591 15.0357C20.8356 15.1738 20.8191 15.775 20.7232 16.1014C20.6809 16.2457 20.5498 16.3785 20.5329 16.5024C20.6617 16.3918 20.8953 16.3116 20.9075 16.0971C20.9117 16.0217 20.861 15.9463 20.8661 15.867C20.9282 14.9337 20.9935 13.5572 20.9112 12.6338C20.8671 12.1394 20.4328 12.3534 20.4957 11.9098C20.6292 11.8552 20.7326 11.7484 20.8619 11.6872C21.0546 11.5966 21.8015 11.291 21.9787 11.2493C22.0957 11.2218 22.216 11.2369 22.334 11.2351C22.5502 11.3494 22.3848 12.1864 22.53 12.1845C22.9751 11.5568 23.5288 10.9105 24.3396 11.4263V10.1689C24.3396 10.1001 24.2526 9.80589 24.2211 9.71906C24.1765 9.59711 23.9758 9.3314 23.9711 9.30768C23.9039 8.96509 24.9525 8.74493 25.1706 8.63532C25.4296 8.50531 25.5988 8.18076 25.8817 8.5651L25.9344 16.2452L26.3127 16.62C26.2794 16.8411 26.0608 16.946 25.8629 16.9731C25.5941 17.0096 24.5769 17.0172 24.3269 16.9664C23.5899 16.8165 24.3396 16.2471 24.3396 16.1944V12.565L24.2183 12.9404C23.8569 13.4111 23.5561 12.9233 23.4475 12.5375C23.0494 12.5418 22.7274 13.0149 22.6113 13.3584C22.4247 13.9107 22.428 14.9816 22.4581 15.5795C22.4647 15.7104 22.4929 16.2049 22.5159 16.2803C22.5667 16.4473 23.0249 16.4877 22.7274 16.8203C22.6644 16.891 22.49 16.9664 22.3909 16.9783C22.0976 17.0143 21.1237 17.0191 20.8417 16.974C20.61 16.9375 20.5028 16.7292 20.5333 16.5024L20.5338 16.5038ZM18.877 12.0089C18.7868 11.9193 18.6533 11.953 18.5611 12.0218C18.2448 12.2571 18.3515 13.5259 18.5132 13.8941C19.1581 13.7181 19.4631 13.403 19.2399 12.7093C19.2159 12.6348 18.9094 12.0412 18.877 12.0089ZM15.35 12.0981C15.1474 12.1575 14.9086 13.1202 14.8926 13.3465C14.8376 14.1086 14.8334 15.133 15.3401 15.7351C15.4581 15.7451 15.6244 15.4205 15.6696 15.3166C15.977 14.6035 15.929 13.5577 15.7561 12.8108C15.7091 12.6087 15.6089 12.0218 15.3504 12.0977L15.35 12.0981Z" fill="black"/>
<path d="M32.7163 16.5608C32.7295 16.5375 32.8719 16.4901 32.9349 16.3786C33.2192 15.8752 32.8503 13.8481 32.6717 13.2413C32.612 13.0382 32.4428 12.4109 32.2125 12.3938C31.851 12.3668 32.047 13.5089 32.0503 13.7262C32.062 14.4759 31.968 15.4325 32.0484 16.1475C32.079 16.4194 32.1763 16.473 32.3732 16.6296C32.3901 16.9176 32.0484 16.9399 31.8313 16.9722C31.5065 17.0211 30.7949 17.0391 30.4837 16.9679C30.3624 16.9404 30.2769 16.7867 30.1998 16.7942C30.1415 16.7999 30.0198 16.9143 29.9249 16.9451C29.4191 17.1093 29.0379 16.9129 28.6816 16.5556C28.1759 16.8806 27.8408 17.1477 27.2053 17.0035C26.2389 16.7843 25.995 15.9644 26.0777 15.0543C26.1398 14.3744 26.8349 13.7324 27.4253 13.4728C27.587 13.4016 27.987 13.3385 28.0871 13.2161C28.2492 13.0173 28.1087 12.2486 27.8901 12.0902C27.7364 11.9787 27.084 11.8989 27.1649 12.158C27.1898 12.2373 27.4662 12.3061 27.4892 12.5461C27.571 13.3869 26.2451 13.5032 26.1308 12.5855C26.0312 11.7827 26.7203 11.386 27.4173 11.3305C29.24 11.1863 29.4417 11.7367 29.6452 13.4021C29.7444 14.2135 29.7317 15.0386 29.8027 15.8524L29.8858 16.009C29.9582 16.0507 30.0682 15.9198 30.1711 16.0498L30.3333 16.5518C30.5025 16.5257 30.5758 16.2438 30.5913 16.1005C30.7103 15.0239 30.5016 13.7357 30.5923 12.6358C30.6435 12.3554 30.0287 12.2131 30.1909 11.9488C30.3671 11.8164 30.5655 11.7196 30.762 11.6233C30.9072 11.5521 31.5455 11.2517 31.6527 11.238C32.1307 11.1768 31.945 11.6655 32.0714 11.6631C32.4136 11.1549 32.8517 11.0259 33.3795 11.3874C34.2354 11.973 34.3684 14.2211 34.4441 15.1995C34.4761 15.6137 34.3548 16 34.5931 16.3776C34.6932 16.5361 34.9395 16.6173 34.7477 16.8341C34.5988 17.003 33.5938 16.9992 33.3382 16.9802C33.113 16.9632 32.5123 16.9157 32.7158 16.5613L32.7163 16.5608ZM28.1919 13.944C27.438 13.9701 27.3764 15.2132 27.5602 15.7442C27.6645 16.045 28.0523 16.2362 28.2445 15.9615C28.3164 15.8586 28.3014 14.8797 28.2901 14.6752C28.2774 14.4441 28.221 14.1765 28.1919 13.944Z" fill="black"/>
<path d="M36.8416 9.64807C36.8129 9.54605 36.4895 9.39422 36.443 9.29173C36.2517 8.8718 36.7471 8.93396 36.9953 8.85425C37.3689 8.73467 37.8211 8.41914 38.2004 8.2711C38.4223 8.22792 38.4147 8.59328 38.4411 8.74464L38.4843 15.7225C38.5271 16.0186 39.0657 15.9559 38.7 16.363C38.56 16.5191 37.6848 16.8375 37.4451 16.8987C37.1682 16.9694 36.773 17.1137 36.9342 16.6729L36.819 16.5984C36.2287 17.3652 35.2802 16.9974 34.86 16.2501C34.4614 15.5412 34.4741 14.1083 34.5986 13.314C34.7631 12.2687 35.4686 10.4955 36.7697 11.4279C36.788 11.4288 36.8416 11.3149 36.8416 11.3083V9.64759V9.64807ZM36.3076 12.048C36.1234 12.0789 35.9429 12.9363 35.9133 13.1237C35.831 13.6433 35.8216 14.1861 35.9232 14.7028C36.0501 15.3476 36.483 16.2776 36.7711 15.081C36.9323 14.411 36.9205 13.6091 36.7809 12.9349C36.7476 12.7721 36.5323 12.0106 36.3072 12.048H36.3076Z" fill="black"/>
<path d="M34.9488 8.30743C36.0162 8.08347 36.0515 9.78784 34.9883 9.6213C34.3298 9.51833 34.319 8.43934 34.9488 8.30743ZM35.0447 8.40043C34.2602 8.51574 34.6409 9.87847 35.3807 9.45475C35.8945 9.16057 35.6266 8.31503 35.0447 8.40043Z" fill="black"/>
<path d="M34.8676 8.58008C35.2558 8.48091 35.73 8.74236 35.2436 9.00807L35.4316 9.33879C35.2412 9.42135 35.1858 9.02563 35.1261 9.00617L35.0076 9.03464V9.33974H34.8676V8.58056V8.58008ZM35.0086 8.91223C35.3926 8.96537 35.3987 8.62279 35.0086 8.67451V8.91223Z" fill="black"/>
</g>
</g>
<defs>
<clipPath id="clip0_451_61">
<rect width="79.2" height="30" fill="white"/>
</clipPath>
<clipPath id="clip1_451_61">
<rect width="27.8423" height="8.08931" fill="white" transform="translate(25.7729 20.4863)"/>
</clipPath>
<clipPath id="clip2_451_61">
<rect width="79.2" height="15.4261" fill="white" transform="translate(0 1.86133)"/>
</clipPath>
</defs>
</svg>
