<svg width="80" height="30" viewBox="0 0 80 30" fill="none" xmlns="http://www.w3.org/2000/svg">
<g clip-path="url(#clip0_451_140)">
<path d="M23.3245 12.7047H18.0586L18.0988 7.75323C17.9581 6.31889 15.9583 6.10275 15.6468 7.56657C15.7171 11.9678 15.6468 16.379 15.6769 20.7901C15.6769 21.3992 15.4558 22.0377 16.0387 22.5191C16.913 23.2363 18.0888 22.5486 18.1189 21.517C18.1591 20.0336 17.8777 18.4126 18.0486 16.9291C18.0586 16.8407 18.0486 16.7523 18.129 16.6835L23.3144 16.7719V20.6329C23.3144 22.1065 22.0784 22.9612 21.0533 23.8061C19.757 24.877 18.3701 25.8496 17.0838 26.9302C13.9283 27.333 10.7628 25.9773 10.3106 22.637C10.5819 17.5382 9.93872 12.0759 10.3106 7.02624C10.6422 2.4383 16.712 1.60323 20.2494 3.03758C24.3998 4.71753 23.1034 9.21705 23.3245 12.7047Z" fill="#EF5948"/>
<path d="M51.6335 2.89062V7.63575H48.0961V26.8226C48.0358 26.9012 48.0257 26.911 47.9252 26.911C47.4831 26.911 46.9906 26.7931 46.5284 26.9012L42.3378 23.443V7.63575H38.8004V2.89062H51.6435H51.6335Z" fill="#EF5948"/>
<path d="M35.7353 2.97857L40.2676 21.7921L32.1577 15.1902L24.3795 21.2223L28.5098 2.96875H35.7453L35.7353 2.97857ZM33.5244 13.913L32.1678 7.23249L30.8111 13.913H33.5244Z" fill="#EF5948"/>
<path d="M19.2042 26.9403L32.1679 16.6543L44.7196 26.9403H19.2042Z" fill="#EF5948"/>
<path d="M57.7235 15.2297L57.4521 16.8114C57.4521 16.8114 55.2011 14.7581 55.6533 13.2747C56.1055 11.7912 56.809 10.8088 56.809 10.8088L57.2612 11.7028C57.2612 11.7028 57.0502 8.13657 57.2612 7.56676C57.4722 6.99695 60.0951 4.23633 60.0951 4.23633C60.0951 4.23633 59.7635 7.6257 61.2206 8.25446C62.6778 8.88321 63.0195 9.67898 63.0195 9.67898V7.83201C63.0195 7.83201 67.6422 10.8382 66.9789 13.7561C66.3056 16.6739 64.3962 17.057 64.3962 17.057L64.3661 14.6206C64.3661 14.6206 63.4516 16.9981 62.4165 17.057C62.4165 17.057 61.9442 13.6676 59.9243 12.921C59.9243 12.921 59.7635 16.163 58.638 16.7328C58.638 16.7328 58.6681 15.6325 57.7235 15.2493V15.2297Z" fill="#EF5948"/>
<path d="M62.4568 20.0235H62.1754V21.1729H62.4769C62.7683 21.1729 62.9894 21.1238 63.1201 21.0256C63.2607 20.9273 63.3311 20.78 63.3311 20.5737C63.3311 20.3673 63.2607 20.2298 63.1201 20.1414C62.9794 20.053 62.7583 20.0137 62.4568 20.0137V20.0235Z" fill="#EF5948"/>
<path d="M55.4322 18.1875V23.6793L61.311 26.1452L67.1899 23.6793V18.1875H55.4221H55.4322ZM60.3966 20.0246H58.8088V21.125H60.286V21.8618H58.8088V23.5516H57.8943V19.2878H60.3966V20.0246ZM63.7128 23.5516L62.6677 21.9109H62.1753V23.5516H61.2507V19.2878H62.527C63.1199 19.2878 63.5621 19.3959 63.8435 19.6022C64.1249 19.8085 64.2656 20.1327 64.2656 20.565C64.2656 20.8204 64.1952 21.0365 64.0545 21.233C63.9138 21.4295 63.7128 21.5867 63.4516 21.6948C64.1048 22.6575 64.5369 23.2765 64.7379 23.5516H63.7128Z" fill="#EF5948"/>
</g>
<defs>
<clipPath id="clip0_451_140">
<rect width="57" height="24.6" fill="white" transform="translate(10.2001 2.40039)"/>
</clipPath>
</defs>
</svg>
