<svg width="80" height="30" viewBox="0 0 80 30" fill="none" xmlns="http://www.w3.org/2000/svg">
<path fill-rule="evenodd" clip-rule="evenodd" d="M21.5107 7.94407C21.3198 7.8984 21.3199 7.90146 21.1244 7.87976C21.0141 7.86757 21.0164 7.84014 20.6231 7.84448C20.065 7.85066 19.2975 8.16445 19.0231 8.40263C18.695 8.6875 18.6919 8.68433 18.6702 8.7157C18.5683 8.86325 18.5437 8.84334 18.4452 8.99283C18.1229 9.48199 18.1358 9.50586 18.117 9.55354C18.0282 9.77887 18.02 9.77442 17.965 9.89382C17.8982 10.0389 17.7546 10.5308 17.7534 11.1119C17.7529 11.3658 17.849 11.9013 17.896 12.0583C17.9306 12.1741 18.1223 12.6275 18.2017 12.7668C18.2297 12.8159 18.2322 12.8143 18.6299 13.3298C18.7554 13.4925 19.3714 13.9556 19.5127 13.9988C19.6811 14.0505 19.6795 14.0523 19.8381 14.131C20.023 14.2228 20.0991 14.2046 20.2303 14.2413C20.2511 14.2471 20.2715 14.2549 20.2926 14.2602C20.441 14.2969 20.9971 14.3148 21.2356 14.2905C21.2544 14.2887 21.7861 14.1918 21.8435 14.1633C22.2809 13.9461 22.5635 13.8643 23.1063 13.3733C23.1735 13.3124 23.4343 13.0029 23.468 12.9535C23.7038 12.6089 23.6951 12.6032 23.8357 12.2105C23.8402 12.1979 23.843 12.1827 23.8535 12.1744C23.8954 12.1416 23.9014 12.1576 23.9437 12.1904C23.9614 12.2042 23.9877 12.2094 23.9987 12.2289C24.0112 12.2511 23.9293 12.5435 23.9378 12.7809C23.9461 13.0093 23.932 13.0186 23.9424 19.1798C23.9431 19.5535 23.9503 23.8216 23.9452 23.8515C23.9423 23.8687 23.9232 23.9819 23.7924 24.0069C23.6697 24.0304 21.9258 24.0217 21.9025 24.0211C20.8431 23.9961 20.8432 24.041 20.289 24.0205C19.7447 24.0005 19.7456 24.023 18.898 24.0229C17.7197 24.0227 17.7207 24.0031 17.6183 24.0038C17.1453 24.0075 16.6807 23.9554 16.4514 23.9448C16.0868 23.928 16.0747 23.9347 15.2807 23.7451C14.8523 23.6428 14.6795 23.5581 14.3364 23.4618C14.2498 23.4375 14.2145 23.4094 14.1074 23.3656C13.9441 23.2987 13.9519 23.282 13.7848 23.2254C13.4906 23.1256 13.5133 23.0777 13.2285 22.9522C13.1147 22.9021 13.123 22.889 13.0132 22.8291C12.8331 22.7309 12.664 22.5982 12.6147 22.568C12.5979 22.5577 12.4715 22.4802 12.4063 22.4362C12.4034 22.4343 12.2656 22.3208 12.2609 22.3176C11.929 22.0959 11.8564 21.9981 11.6242 21.8308C11.5114 21.7495 11.507 21.7099 11.1722 21.3973C10.9419 21.1823 10.9695 21.1569 10.7438 20.9363C10.6379 20.8328 10.5529 20.6876 10.2863 20.3384C9.84327 19.7581 9.81056 19.5975 9.72337 19.4544C9.63068 19.3022 9.46461 19.0027 9.40073 18.8387C9.36001 18.7339 9.33658 18.7357 9.29586 18.6153C9.22392 18.403 9.09462 18.1422 9.08994 18.128C8.8729 17.4737 8.84703 17.295 8.83268 17.2314C8.72357 16.7489 8.68674 16.756 8.65564 16.3426C8.61619 15.8188 8.58404 15.7413 8.57569 15.6723C8.49112 14.9726 8.59795 14.1321 8.61898 13.9517C8.67779 13.4469 8.66365 13.4451 8.78683 12.9525C8.88954 12.5421 8.8827 12.5411 8.89221 12.5057C8.90061 12.4744 8.98958 12.1433 9.00009 12.1159C9.13985 11.7516 9.15209 11.7569 9.16333 11.7249C9.25396 11.4674 9.41036 11.1448 9.52241 10.9018C9.67297 10.5754 9.76277 10.4872 9.8327 10.3351C9.84872 10.3002 9.92094 10.1433 10.0863 9.92781C10.3769 9.5492 10.5182 9.29834 10.6029 9.21505C10.6361 9.18244 10.8505 8.94448 10.9547 8.84395C11.0701 8.73251 11.042 8.70697 11.1632 8.60721C11.384 8.42545 11.4355 8.32129 11.6252 8.1832C11.7955 8.05924 12.0539 7.81038 12.2356 7.68486C12.7259 7.34614 12.7277 7.34525 12.7744 7.32249C13.0261 7.1997 13.2684 6.99896 13.4461 6.94082C13.6734 6.86649 13.7006 6.8014 14.059 6.66442C14.1076 6.64584 14.5907 6.46118 14.669 6.43703C14.6999 6.42746 15.0149 6.33026 15.057 6.31941C15.335 6.24792 15.3662 6.25165 15.3867 6.24664C15.4657 6.22739 15.4896 6.1851 15.6704 6.15756C16.2815 6.06448 16.3365 6.06159 16.395 6.05859C17.0625 6.02365 17.0609 6.00022 17.7297 6C18.1071 5.99989 18.8296 6.06816 18.9019 6.0819C19.1498 6.12897 19.1482 6.13219 19.3994 6.15662C19.656 6.1816 19.6468 6.22221 19.8985 6.27618C20.2977 6.36175 20.2914 6.38123 20.4075 6.41973C20.6827 6.51103 20.6775 6.52254 20.9495 6.62302C21.3235 6.76112 21.3067 6.79583 21.6687 6.96063C21.8155 7.02745 21.8923 7.11347 22.0664 7.22252C22.4278 7.44879 22.4078 7.48412 22.7783 7.84304C22.8611 7.92321 23.0815 8.20612 23.1241 8.27617C23.1418 8.3051 23.3047 8.59787 23.3065 8.60182C23.5888 9.22078 23.607 9.93622 23.61 10.0549C23.6109 10.0907 23.6129 10.1692 23.5659 10.4996C23.4849 11.0692 23.281 11.3113 23.2341 11.3883C23.1305 11.5584 23.1137 11.545 22.9889 11.7009C22.8821 11.8344 22.866 11.8157 22.7826 11.878C22.7509 11.9018 22.5547 12.0486 22.3492 12.118C22.2108 12.1647 21.7933 12.3557 21.2307 12.1826C21.054 12.1283 20.7464 12.055 20.3872 11.6817C20.3613 11.6547 20.1823 11.4686 20.09 11.3216C20.0584 11.2714 19.9397 10.955 19.9385 10.9509C19.8675 10.7101 19.7813 10.5097 19.7846 10.222C19.792 9.58771 19.9812 9.28465 20.0234 9.17026C20.1176 8.91522 20.1784 8.88746 20.3118 8.74208C20.4591 8.58151 20.4557 8.57795 20.685 8.39468C20.7994 8.30321 20.8224 8.32669 20.9459 8.25291C21.1263 8.14515 21.1292 8.1412 21.4591 8.11204C21.547 8.08828 21.5503 8.09385 21.5532 8.08662C21.5636 8.0608 21.5416 8.02886 21.5521 8.00305C21.5383 7.98341 21.5245 7.96377 21.5107 7.94407Z" fill="#FDB914"/>
<path fill-rule="evenodd" clip-rule="evenodd" d="M6.8777 13.4051C6.87786 13.4051 6.9478 13.4109 7.03932 13.4651C7.2084 13.5653 7.65311 13.6967 7.58362 14.4486C7.5824 14.4617 7.57522 14.5723 7.50039 14.7875C7.48976 14.818 7.44614 14.9434 7.2271 15.0843C7.1689 15.1217 7.0332 15.1391 7.02998 15.2281C7.02814 15.28 7.03598 15.2794 7.07654 15.3128C7.15677 15.3788 7.18899 15.3332 7.32463 15.3981C7.46411 15.4648 7.47891 15.6053 7.54312 15.7876C7.57266 15.8715 7.57266 15.8736 7.58674 16.8991C7.59191 17.2786 7.5987 17.3287 7.53533 17.3859C7.50957 17.4092 7.46745 17.4472 7.10358 17.4325C6.82968 17.4214 6.89962 17.2739 6.87286 17.0665C6.84053 16.8165 6.83313 16.8179 6.83452 16.565C6.83603 16.2773 6.80058 15.9841 6.72325 15.8365C6.58749 15.5773 6.42348 15.5247 5.82332 15.5443C5.52772 15.5539 5.27362 15.4885 5.27479 15.7305C5.28191 17.2611 5.29916 17.2646 5.26572 17.3435C5.22416 17.4415 5.01218 17.4359 4.98882 17.4353C4.56202 17.424 4.43239 17.4589 4.42944 17.2327C4.42616 16.9834 4.43211 16.9836 4.4335 14.117C4.4335 14.068 4.43372 13.5545 4.43895 13.5054C4.45437 13.3608 4.582 13.3463 4.60008 13.3443C4.60453 13.3438 6.36784 13.3321 6.54588 13.3489C6.57269 13.3514 6.57052 13.3586 6.8777 13.4051ZM5.28397 14.5066L5.28898 14.6684C5.2936 14.6826 5.32442 14.776 5.43386 14.7845C5.496 14.7894 5.49534 14.7519 6.213 14.7806C6.68002 14.7992 6.85233 14.6985 6.8644 14.4503C6.88198 14.089 6.4035 14.0796 5.82376 14.0879C5.42045 14.0936 5.40938 14.0993 5.37761 14.1157C5.26049 14.1759 5.28375 14.3995 5.28397 14.5066Z" fill="#E2232A"/>
<path fill-rule="evenodd" clip-rule="evenodd" d="M2.76349 14.8023C3.5132 14.7978 3.62486 14.7355 3.68567 14.901C3.69775 14.9339 3.69981 14.9395 3.69769 15.3393C3.69652 15.5649 3.51693 15.543 3.31981 15.5432C2.01094 15.5445 1.89755 15.5277 1.82556 15.6236C1.78327 15.6799 1.80397 15.6882 1.80141 16.953C1.80069 17.2964 1.84581 17.4397 1.53969 17.4334C1.21806 17.4266 1.2165 17.4419 1.1425 17.4191C0.994729 17.3736 1.02182 17.2477 1.0097 16.9524C0.989165 16.4521 1.03551 16.4529 1.01326 15.9529C0.98911 15.4091 1.00441 13.9051 1.00914 13.839C1.03334 13.502 1.00374 13.491 1.06389 13.4129C1.13516 13.3204 1.1662 13.3388 2.09579 13.3405C2.22932 13.3407 2.39879 13.341 3.76485 13.3397C4.10312 13.3394 4.07452 13.4597 4.06824 13.6717C4.06178 13.8894 4.1212 14.0706 3.87696 14.0758C3.68033 14.0801 3.68167 14.0679 2.65216 14.0696C1.9775 14.0707 1.91858 14.0465 1.83396 14.18C1.7855 14.2565 1.78505 14.5918 1.81999 14.671C1.88659 14.8222 1.99503 14.8057 2.76349 14.8023Z" fill="#E2252C"/>
<path fill-rule="evenodd" clip-rule="evenodd" d="M23.7377 27.8223C23.7579 27.8274 23.8569 27.8292 23.9224 27.9022C23.9879 27.9753 23.9064 28.0562 23.9072 28.0814C23.908 28.1051 23.9257 28.1252 23.9322 28.148C23.9473 28.201 23.8946 28.222 23.888 28.2246C23.873 28.2306 23.8721 28.2235 23.6851 28.2314C23.675 28.2318 23.5362 28.2488 23.5261 28.0799C23.513 27.8619 23.6637 27.8293 23.6873 27.8242C23.7037 27.8206 23.7213 27.8258 23.7377 27.8223Z" fill="#8B8B8B"/>
<path fill-rule="evenodd" clip-rule="evenodd" d="M21.5525 8.00195C21.542 8.02777 21.564 8.0597 21.5536 8.08552C21.5507 8.09275 21.5474 8.08719 21.4595 8.11095C21.4696 8.09987 21.4732 8.08391 21.4833 8.07283C21.496 8.05898 21.5003 8.06544 21.5139 8.05147C21.5361 8.02877 21.53 8.02504 21.5525 8.00195Z" fill="#FACB5B"/>
<path fill-rule="evenodd" clip-rule="evenodd" d="M34.0296 20.3249C33.5856 20.2417 33.5018 20.2483 33.0036 19.803C32.6326 19.4715 32.3872 18.7606 32.7462 18.1437C33.3338 17.134 34.0209 17.2431 35.5954 17.2438C37.428 17.2444 37.6325 17.1708 37.6552 17.6065C37.6826 18.1278 37.4459 18.1783 37.1684 18.1835C35.5873 18.2133 34.3215 18.0613 34.0039 18.3622C33.9582 18.4055 33.5348 18.8067 34.0448 19.1479C34.3903 19.3792 34.423 19.3122 36.5111 19.3186C37.7999 19.3227 38.1697 19.4403 38.1655 18.7821C38.1566 17.4082 38.3379 16.585 37.8234 16.4167C37.3134 16.2498 34.1169 16.376 33.7586 16.3368C33.713 16.3318 33.4264 16.3003 33.3844 15.9025C33.3029 15.1327 33.9289 15.2558 34.1564 15.2592C35.3725 15.2776 37.4249 15.2295 37.8135 15.2942C37.8916 15.3073 38.4734 15.3353 38.9272 15.8491C39.518 16.5179 39.4426 16.948 39.4431 18.6506C39.4436 19.9821 39.5207 20.2696 39.1226 20.3316C38.9679 20.3557 38.9672 20.3391 37.1651 20.3476C34.5479 20.3599 34.2799 20.3418 34.0296 20.3249Z" fill="#141414"/>
<path fill-rule="evenodd" clip-rule="evenodd" d="M54.4317 15.2649C55.5061 15.2572 55.5036 15.2644 57.3094 15.2648C58.0579 15.2649 58.6196 15.2901 58.9705 15.5693C59.7682 16.2037 59.8047 16.504 59.8043 17.7386C59.8034 20.0914 59.8212 20.1181 59.6913 20.2517C59.5614 20.3852 59.4516 20.3413 55.8705 20.3478C54.0407 20.3511 53.9703 20.367 53.3311 19.7522C52.8244 19.265 52.7322 18.2271 53.6798 17.5247C54.0717 17.2341 54.8502 17.243 54.9546 17.2441C57.159 17.2693 57.5874 17.1946 57.8521 17.3182C58.0681 17.419 58.0856 17.9767 57.8265 18.1188C57.5375 18.2774 55.3923 18.1174 54.6837 18.2175C54.1977 18.2861 53.8907 18.8934 54.4383 19.1667C54.7753 19.3348 54.7864 19.3333 56.0014 19.3241C58.1169 19.3083 58.2491 19.3912 58.4532 19.1508C58.5198 19.0723 58.5614 19.0232 58.5741 17.8697C58.5866 16.7407 58.5892 16.5285 58.1038 16.4021C57.5852 16.2671 54.5855 16.377 54.1664 16.3349C53.5799 16.2759 53.7486 15.547 53.8331 15.4223C53.9754 15.2117 54.3805 15.2669 54.4317 15.2649Z" fill="#141414"/>
<path fill-rule="evenodd" clip-rule="evenodd" d="M28.4031 20.3295C27.7003 20.2725 27.6677 20.2672 26.9818 19.8012C26.6605 19.583 26.3424 19.1028 26.2708 18.9293C25.9114 18.0571 25.9527 17.5858 26.1464 17.0715C26.291 16.6876 26.2526 16.6677 26.4978 16.3392C26.916 15.7787 27.2019 15.687 27.2381 15.6668C27.5818 15.475 27.6587 15.3158 28.7947 15.27C29.2031 15.2535 31.5273 15.2615 31.5392 15.263C32.0666 15.3255 31.9282 16.0717 31.8384 16.1953C31.7321 16.3417 31.6058 16.3424 31.4106 16.3413C31.1057 16.3395 31.1088 16.3361 30.4942 16.3361C28.3813 16.3361 28.1177 16.2911 27.7416 16.6834C26.7089 17.7607 27.4138 19.3278 28.6629 19.3214C28.8826 19.3202 30.4956 19.3118 31.4097 19.3126C32.2021 19.3134 31.883 20.2371 31.7668 20.2989C31.5917 20.3923 28.4128 20.3298 28.4031 20.3295Z" fill="#151515"/>
<path fill-rule="evenodd" clip-rule="evenodd" d="M69.9978 15.2596C70.1498 15.2606 70.5745 15.2288 70.6663 15.3628C70.8954 15.6973 70.7511 16.2144 70.663 16.3059C70.3707 16.6107 69.1174 16.1598 68.9696 16.6911C68.9127 16.8957 68.9946 19.8393 68.9326 20.0823C68.8807 20.2864 68.711 20.3219 68.6837 20.3277C68.6158 20.342 68.1092 20.3804 67.937 20.2946C67.7413 20.197 67.7582 20.1359 67.7582 18.1252C67.7582 16.643 67.8005 16.5199 67.5038 16.452C67.2264 16.3883 66.9298 16.5081 66.7327 16.2889C66.5395 16.0739 66.497 15.2987 66.9904 15.258C67.3387 15.2292 67.7192 15.3897 67.7508 14.8529C67.7553 14.7735 67.7198 14.5256 67.9338 14.376C68.0833 14.2713 68.8176 14.1418 68.9296 14.5998C68.9807 14.8088 68.9087 14.8997 69.0617 15.1356C69.1656 15.2953 69.5717 15.2606 69.9978 15.2596Z" fill="#141414"/>
<path fill-rule="evenodd" clip-rule="evenodd" d="M75.0995 15.2609C75.3987 15.2574 75.7115 15.1915 75.7739 15.6395C75.8382 16.1003 75.6837 16.2875 75.6478 16.3308C75.5221 16.4832 74.911 16.4148 74.4455 16.4289C73.8706 16.4466 73.9946 16.9281 73.9899 17.2123C73.9449 19.9275 74.0988 20.2234 73.7793 20.3196C73.7364 20.3326 73.033 20.412 72.8685 20.2268C72.7248 20.0648 72.8004 20.0324 72.7874 16.9508C72.7843 16.2617 72.3214 16.476 71.9664 16.4003C71.5518 16.3116 71.6411 15.5707 71.7464 15.4157C71.896 15.1954 72.2988 15.2781 72.4809 15.2407C73.0537 15.1227 72.4807 14.3104 73.2666 14.2962C73.8214 14.2862 73.9315 14.3213 73.9957 14.865C74.0526 15.346 74.441 15.2634 75.0995 15.2609Z" fill="#151515"/>
<path fill-rule="evenodd" clip-rule="evenodd" d="M49.8551 15.2269C50.834 15.2925 50.9164 15.3368 51.3229 15.5903C51.3509 15.6079 51.8072 15.8255 52.0925 16.2879C52.5046 16.9558 52.3154 18.0066 52.2475 18.5281C52.2309 18.6559 52.1787 19.0574 51.7643 20.0651C51.5917 20.4849 50.8104 20.4344 50.7843 20.4264C50.2693 20.2706 50.6314 19.8934 50.7412 19.558C50.7697 19.4708 51.1083 18.6176 51.1459 17.7346C51.1624 17.3471 50.9977 16.735 50.7752 16.5528C50.335 16.1922 49.7325 16.0658 49.0762 16.2009C48.8819 16.241 48.5036 16.4425 48.3313 16.2461C48.1937 16.0891 48.1736 15.4798 48.5283 15.3422C48.8466 15.2187 49.7486 15.226 49.8551 15.2269Z" fill="#161616"/>
<path fill-rule="evenodd" clip-rule="evenodd" d="M47.1067 20.3447C47.0611 20.3432 46.7142 20.3755 46.6015 20.2069C46.5022 20.0585 46.5093 19.6188 46.51 19.5672C46.5184 19.0429 46.5218 19.0456 46.523 18.5201C46.5325 14.3911 46.4959 14.3837 46.5709 14.1969C46.6864 13.9086 47.461 13.9888 47.5936 14.1111C47.6763 14.1873 47.7615 14.2658 47.6924 15.5118C47.66 16.0975 47.7224 16.1169 47.7114 18.7818C47.7059 20.119 47.7272 20.163 47.5468 20.2857C47.4346 20.3621 47.2318 20.3431 47.1067 20.3447Z" fill="#161616"/>
<path fill-rule="evenodd" clip-rule="evenodd" d="M40.8284 15.2598C41.1874 15.2718 41.1855 15.2671 41.2161 15.2728C41.2443 15.2781 41.4333 15.3134 41.4808 15.5143C41.4833 15.525 41.5194 16.271 41.5209 17.7375C41.5235 20.1179 41.514 20.1247 41.4618 20.2094C41.3369 20.4119 40.5388 20.3797 40.3985 20.2621C40.224 20.1158 40.3064 20.0656 40.2784 15.9061C40.2738 15.2428 40.4936 15.2844 40.8284 15.2598Z" fill="#131313"/>
<path fill-rule="evenodd" clip-rule="evenodd" d="M61.3644 15.255C61.3907 15.2582 61.5682 15.2497 61.6606 15.316C61.8849 15.477 61.8239 15.6293 61.8449 16.1653C61.8624 16.6153 61.9011 19.9948 61.8229 20.1869C61.7283 20.419 60.963 20.3784 60.8148 20.2461C60.6816 20.1273 60.7055 20.0975 60.7055 18.2581C60.7055 15.57 60.7091 15.5685 60.7255 15.5156C60.8269 15.1915 61.3634 15.255 61.3644 15.255Z" fill="#1B1B1B"/>
<path fill-rule="evenodd" clip-rule="evenodd" d="M43.5749 15.2547C44.5926 15.2798 44.7291 15.451 45.062 15.7147C45.1204 15.761 45.3263 15.8644 45.5332 16.2998C45.7298 16.7134 45.8029 17.5924 45.5572 17.759C45.2328 17.9788 44.6844 18.0456 44.582 17.4835C44.5056 17.0645 44.5269 16.6678 43.8325 16.3066C43.7672 16.2726 43.4938 16.1305 42.9222 16.18C42.5468 16.2126 42.166 16.5969 42.0616 16.0262C42.0553 15.9914 42.0254 15.5189 42.2715 15.3903C42.5653 15.2371 43.1787 15.2543 43.5749 15.2547Z" fill="#181818"/>
<path fill-rule="evenodd" clip-rule="evenodd" d="M63.9805 15.2541C64.6681 15.2643 64.9547 15.3461 65.385 15.6854C66.1525 16.2909 66.157 17.4871 65.9393 17.7316C65.7693 17.9226 65.0778 18.1767 64.9356 17.4662C64.8712 17.1444 64.8289 16.6557 64.3857 16.4057C64.3283 16.3734 63.9481 16.0781 63.1991 16.1879C62.9654 16.2221 62.6447 16.456 62.465 16.2441C62.418 16.1886 62.1733 15.4746 62.7867 15.3236C63.1115 15.2436 63.5252 15.2548 63.9805 15.2541Z" fill="#181818"/>
</svg>
