<svg width="80" height="30" viewBox="0 0 80 30" fill="none" xmlns="http://www.w3.org/2000/svg">
<g clip-path="url(#clip0_454_2609)">
<path d="M71.0589 11.1226C71.0589 11.1226 71.3122 10.9217 71.3207 10.9173C71.4515 10.8125 71.3333 10.8299 71.2658 10.7993C71.2151 10.7731 71.156 10.6989 71.0885 10.6159C70.89 10.3888 70.5565 10.2621 70.223 10.3145C69.7249 10.4019 69.4082 10.8474 69.4504 11.3191C69.4758 11.5506 69.5391 11.7341 69.5518 11.8084C69.5813 11.9525 69.3871 12.1229 69.3533 12.2189C69.3196 12.315 69.3913 12.3849 69.3998 12.3849C69.4378 12.3587 69.8093 11.9874 69.8093 11.9874C69.8093 12.0311 69.8093 12.0661 69.822 12.1141C69.8979 12.6121 70.3581 12.9484 70.8394 12.8654C71.3249 12.7824 71.6542 12.315 71.5782 11.8127C71.5275 11.4851 71.3418 11.2361 71.0674 11.1182M70.413 12.3762C70.2737 12.4024 70.1428 12.3019 70.1217 12.1622C70.1006 12.018 70.1935 11.887 70.3328 11.8608C70.4721 11.8389 70.603 11.935 70.6241 12.0792C70.6452 12.2189 70.5523 12.3544 70.413 12.3762Z" fill="#FFDD00"/>
<path d="M71.3883 7L63.7723 14.8755L71.3883 22.751L79 14.8755L71.3883 7ZM73.2289 19.3352L71.3883 21.2353L69.7291 19.5143C69.7291 19.5143 69.6827 18.6364 69.1719 17.8021C69.1634 17.7933 69.5898 17.7016 69.5898 17.7016L69.2394 17.077L69.7502 16.8935L69.8136 17.0639C69.8136 17.0639 70.0964 17.0639 70.3793 16.9853C70.6663 16.911 70.717 16.8018 70.717 16.8018V16.531L71.5909 16.2034C71.5909 16.2034 71.1139 16.8324 70.9872 17.4526C70.8605 18.0729 70.8605 18.7805 70.8605 18.7805L70.1977 19.309H71.9835C71.9835 19.309 71.9329 18.3655 72.1102 17.789C72.2875 17.2124 72.659 16.911 72.659 16.911C72.659 16.911 72.6674 17.1032 72.7434 17.4832C72.8701 18.1384 73.3936 18.7892 73.3936 18.7892L72.8068 19.3352H73.2332H73.2289ZM73.8622 16.8062C73.7144 16.0986 73.6469 15.4302 73.6469 15.4302L73.7693 15.3778L74.0015 15.7098L74.7572 15.2381L74.6474 15.0546L75.6395 14.6833V14.3645L74.5672 14.7663L74.4997 14.4212L73.6891 14.7052C73.668 14.8668 73.7144 15.0852 73.7144 15.0852L73.5371 15.1507C73.5371 15.1507 73.5202 15.0197 73.4442 14.858C73.3725 14.6921 72.7941 13.5738 72.7941 13.5738H73.478L73.6047 14.2247L74.4448 13.9408L74.4659 12.792C74.3941 12.7439 74.2548 12.674 73.8749 12.5343C73.3894 12.3595 72.469 12.2591 71.7302 12.5823C70.7086 13.0366 70.3539 13.4909 70.0458 14.0893C69.8009 14.5566 69.8009 15.024 69.8009 15.1332V15.6006H70.7128C70.7128 15.6006 70.7043 15.2948 70.8183 15.024L71.688 15.8365L70.7043 16.2034V16.0287H69.7882C69.7882 16.0287 69.6658 16.365 69.6996 16.579L69.0959 16.8018L68.8003 16.1815L68.2346 16.6664C68.2346 16.6664 67.5085 15.7666 66.1111 15.7884L65.2245 14.8755L71.3756 8.51133L77.5266 14.8711L74.2886 18.2214C74.2886 18.2214 73.9973 17.5182 73.8537 16.8105" fill="#FFDD00"/>
<path d="M73.8073 22.1965C73.8073 22.0479 73.7186 21.9824 73.5497 21.9824H73.2795V22.7119H73.3977V22.4017H73.5075L73.689 22.7119H73.8241L73.6257 22.393C73.7355 22.3799 73.8115 22.3275 73.8115 22.1965M73.3977 22.3013V22.0873H73.5371C73.6088 22.0873 73.6933 22.096 73.6933 22.1877C73.6933 22.2926 73.6173 22.3013 73.5286 22.3013H73.3977Z" fill="#FFDD00"/>
<path d="M73.5244 21.6758C73.1867 21.6758 72.8954 21.9422 72.8954 22.3397C72.8954 22.711 73.1571 22.9993 73.5244 22.9993C73.8579 22.9993 74.1492 22.7372 74.1492 22.3397C74.1492 21.9422 73.8579 21.6758 73.5244 21.6758ZM73.5244 22.8814C73.2162 22.8814 73.0305 22.6367 73.0305 22.3397C73.0305 22.0165 73.2458 21.7894 73.5244 21.7894C73.8031 21.7894 74.0141 22.0121 74.0141 22.3397C74.0141 22.6673 73.7988 22.8814 73.5244 22.8814Z" fill="#FFDD00"/>
<path d="M13.4198 10.7353H2.27441C2.12243 10.7353 2 10.862 2 11.0236V13.046C2 13.2032 2.12665 13.3255 2.27441 13.3255H4.33883C4.41483 13.3255 4.47815 13.2644 4.47815 13.1857V12.2073C4.47815 12.1331 4.54148 12.0675 4.61325 12.0675H6.4708C6.5468 12.0675 6.61012 12.1287 6.61012 12.2073V17.414C6.61012 17.4882 6.55102 17.5538 6.4708 17.5538H4.91299C4.837 17.5538 4.77789 17.6149 4.77789 17.6979V18.5977C4.77789 18.755 4.90032 18.886 5.04808 18.886H10.6461C10.7981 18.886 10.9205 18.7593 10.9205 18.5977V17.6979C10.9205 17.6149 10.8614 17.5581 10.7812 17.5581H9.21915C9.14316 17.5581 9.07983 17.4926 9.07983 17.414V12.2073C9.07983 12.1331 9.13893 12.0675 9.21915 12.0675H11.0809C11.1527 12.0675 11.216 12.1287 11.216 12.2073V13.1857C11.216 13.2644 11.2793 13.3255 11.3511 13.3255H13.4155C13.5675 13.3255 13.69 13.2032 13.69 13.046V11.0236C13.69 10.862 13.5675 10.7353 13.4155 10.7353M25.0506 10.7353H15.024C14.758 10.7353 14.5427 10.9537 14.5427 11.2289V18.3793C14.5427 18.6545 14.758 18.8773 15.024 18.8773H25.2532C25.4052 18.8773 25.5234 18.7506 25.5234 18.589V17.6935C25.5234 17.6105 25.4643 17.5494 25.3841 17.5494H17.2911C17.1391 17.5494 17.0167 17.4227 17.0167 17.2698V15.6406C17.0167 15.5619 17.08 15.4964 17.156 15.4964H25.0464C25.3081 15.4964 25.5234 15.2737 25.5234 15.0028V11.2333C25.5234 10.9581 25.3081 10.7397 25.0464 10.7397M23.0537 13.8803C23.0537 14.0331 22.9313 14.1642 22.7793 14.1642H17.1644C17.0884 14.1642 17.0251 14.0987 17.0251 14.02V12.3471C17.0251 12.1942 17.1475 12.0675 17.2995 12.0675H22.7793C22.9313 12.0675 23.0537 12.1942 23.0537 12.3471V13.8803ZM38.3786 17.5494H37.3189C37.2556 17.5494 37.1923 17.5275 37.1416 17.4839L35.0983 15.7367C35.0476 15.7017 35.035 15.6362 35.0519 15.5794C35.073 15.5226 35.1236 15.4833 35.1827 15.4833H37.4076C38.1844 15.4877 38.653 15.0072 38.653 14.1991V12.0151C38.653 11.207 38.1844 10.7266 37.4076 10.7266H26.7224C26.5704 10.7266 26.448 10.8532 26.448 11.0149V11.9147C26.448 11.9933 26.5071 12.0588 26.5831 12.0588H27.5288C27.609 12.0588 27.6681 12.12 27.6681 12.1986V17.4052C27.6681 17.4839 27.6047 17.5494 27.5288 17.5494H26.5831C26.5113 17.5494 26.448 17.6105 26.448 17.6892V18.589C26.448 18.7462 26.5704 18.8773 26.7224 18.8773H31.0877C31.2397 18.8773 31.3621 18.7506 31.3621 18.589V17.6892C31.3621 17.6062 31.303 17.5494 31.227 17.5494H30.2813C30.2053 17.5494 30.1462 17.4839 30.1462 17.4052V15.6318C30.1462 15.5532 30.2053 15.4877 30.2813 15.4877H31.455C31.5183 15.4877 31.5858 15.5139 31.6365 15.5532L31.7125 15.6275L35.2503 18.803C35.301 18.8511 35.3643 18.8729 35.436 18.8729H38.3744C38.5263 18.8729 38.6488 18.7462 38.6488 18.5846V17.8246C38.6488 17.6673 38.5263 17.5406 38.3744 17.5406M30.2813 14.1598C30.2053 14.1598 30.1462 14.0943 30.1462 14.02V12.2073C30.1462 12.1331 30.2053 12.0675 30.2813 12.0675H35.9004C36.0524 12.0675 36.1706 12.1942 36.1706 12.3471V13.8715C36.1706 14.0288 36.0524 14.1554 35.9004 14.1554H30.2813V14.1598ZM64.0087 17.6935C64.0087 17.6105 63.9453 17.5494 63.8693 17.5494H62.9026C62.8012 17.5494 62.7084 17.497 62.6619 17.4052L59.2846 10.8838C59.2339 10.7921 59.1452 10.7353 59.0397 10.7353H54.5647C54.4127 10.7353 54.2903 10.862 54.2903 11.0236V11.9234C54.2903 12.002 54.3536 12.0675 54.4296 12.0675H55.0375C55.0882 12.0675 55.1304 12.0937 55.1557 12.1331C55.181 12.1724 55.181 12.2292 55.1599 12.2685L52.5762 17.248L52.496 17.4052C52.4496 17.497 52.3567 17.5494 52.2596 17.5494H51.3435H50.2796C50.2163 17.5494 50.1572 17.5275 50.1023 17.4839L48.059 15.7367C48.0126 15.7017 47.9957 15.6362 48.0126 15.5794C48.0337 15.5226 48.0885 15.4833 48.1434 15.4833H50.3725C51.1493 15.4877 51.6179 15.0072 51.6179 14.1991V12.0151C51.6179 11.207 51.1493 10.7266 50.3725 10.7266H39.6873C39.5353 10.7266 39.4129 10.8532 39.4129 11.0149V11.9147C39.4129 11.9933 39.4762 12.0588 39.548 12.0588H40.4937C40.5697 12.0588 40.633 12.12 40.633 12.1986V17.4052C40.633 17.4839 40.5697 17.5494 40.4937 17.5494H39.548C39.4762 17.5494 39.4129 17.6105 39.4129 17.6892V18.589C39.4129 18.7462 39.5353 18.8773 39.6873 18.8773H44.0526C44.2046 18.8773 44.3312 18.7506 44.3312 18.589V17.6892C44.3312 17.6062 44.2679 17.5494 44.1919 17.5494H43.2462C43.1702 17.5494 43.1111 17.4839 43.1111 17.4052V15.6318C43.1111 15.5532 43.1702 15.4877 43.2462 15.4877H44.4199C44.4832 15.4877 44.5507 15.5139 44.6014 15.5532L44.6774 15.6275L48.2152 18.803C48.2659 18.8511 48.3292 18.8729 48.401 18.8729H51.3477C51.3477 18.8729 51.3773 18.8642 51.3899 18.8642C51.4026 18.8642 51.4195 18.8729 51.4322 18.8729H55.3541C55.5061 18.8729 55.6285 18.7462 55.6285 18.5846V17.6892C55.6285 17.6062 55.5652 17.545 55.4934 17.545H54.8349C54.7884 17.545 54.742 17.5188 54.7167 17.4795C54.6913 17.4402 54.6913 17.3878 54.7124 17.3441L55.2021 16.3569C55.2528 16.2565 55.3457 16.204 55.447 16.204H59.293C59.3985 16.204 59.4956 16.2565 59.5379 16.3569L60.0234 17.3441C60.0234 17.3441 60.0402 17.3878 60.0402 17.4052C60.0402 17.4314 60.0402 17.4577 60.0234 17.4795C59.998 17.5232 59.9516 17.545 59.9052 17.545H59.2466C59.1706 17.545 59.1072 17.6105 59.1072 17.6892V18.5846C59.1072 18.7462 59.2339 18.8729 59.3817 18.8729H63.7554C63.9031 18.8729 64.0298 18.7462 64.0298 18.5846V17.6892L64.0087 17.6935ZM43.2336 14.1598C43.1576 14.1598 43.0985 14.0943 43.0985 14.02V12.2073C43.0985 12.1331 43.1576 12.0675 43.2336 12.0675H48.8485C49.0004 12.0675 49.1229 12.1942 49.1229 12.3471V13.8715C49.1229 14.0288 49.0047 14.1554 48.8485 14.1554H43.2336V14.1598ZM58.6808 14.8063C58.6555 14.85 58.6133 14.8762 58.5669 14.8762H56.1478C56.1014 14.8762 56.0507 14.85 56.0296 14.8063C56.0043 14.7626 56.0001 14.7102 56.0212 14.6665L57.1104 12.465C57.1568 12.3733 57.2497 12.3078 57.351 12.3078C57.4523 12.3078 57.5494 12.3733 57.6001 12.465L58.6851 14.6665C58.7062 14.7102 58.702 14.7626 58.6851 14.8063" fill="#231F20"/>
</g>
<defs>
<clipPath id="clip0_454_2609">
<rect width="77" height="16" fill="white" transform="translate(2 7)"/>
</clipPath>
</defs>
</svg>
