<svg width="80" height="30" viewBox="0 0 80 30" fill="none" xmlns="http://www.w3.org/2000/svg">
<g clip-path="url(#clip0_451_152)">
<g clip-path="url(#clip1_451_152)">
<mask id="mask0_451_152" style="mask-type:luminance" maskUnits="userSpaceOnUse" x="-5" y="-5" width="89" height="40">
<path d="M83.3999 -4.80078H-4.20007V34.1992H83.3999V-4.80078Z" fill="white"/>
</mask>
<g mask="url(#mask0_451_152)">
<mask id="mask1_451_152" style="mask-type:luminance" maskUnits="userSpaceOnUse" x="35" y="12" width="6" height="14">
<path d="M40.2403 12.5508H35.0448V25.5107H40.2403V12.5508Z" fill="white"/>
</mask>
<g mask="url(#mask1_451_152)">
<mask id="mask2_451_152" style="mask-type:luminance" maskUnits="userSpaceOnUse" x="35" y="12" width="6" height="14">
<path d="M40.1983 25.5018C39.2641 25.5018 38.3825 25.5111 37.5113 25.4834C37.3958 25.4834 37.2279 25.28 37.1754 25.1506C36.6611 23.7455 36.1783 22.3312 35.664 20.9261C35.5905 20.7412 35.3806 20.5933 35.2546 20.4177C35.1917 20.3345 35.1182 20.2236 35.1182 20.1311C35.1077 19.595 35.1182 19.0589 35.1182 18.5227C35.1182 18.2639 35.2546 18.1899 35.5275 18.1807C36.5037 18.1437 36.85 17.8664 36.934 17.0067C36.976 16.6092 36.976 16.1932 36.913 15.7865C36.8081 15.084 36.4407 14.7974 35.6325 14.7882C35.2336 14.7882 35.1077 14.668 35.1182 14.326C35.1497 13.8453 35.1287 13.3646 35.1182 12.8932C35.1182 12.6436 35.2232 12.5142 35.5065 12.5511C36.1573 12.6159 36.8186 12.6251 37.4483 12.7638C38.5084 12.9949 39.1907 13.6234 39.4845 14.5478C39.8624 15.731 39.8729 16.9328 39.558 18.1345C39.3901 18.7538 39.0227 19.2807 38.4244 19.6597C38.1411 19.8353 38.1411 20.011 38.2355 20.2698C38.8653 21.906 39.4845 23.5514 40.1143 25.1876C40.1353 25.2523 40.1563 25.3262 40.2088 25.4834" fill="white"/>
</mask>
<g mask="url(#mask2_451_152)">
<mask id="mask3_451_152" style="mask-type:luminance" maskUnits="userSpaceOnUse" x="34" y="12" width="7" height="14">
<path d="M40.3977 12.3496H34.8558V25.6608H40.3977V12.3496Z" fill="white"/>
</mask>
<g mask="url(#mask3_451_152)">
<path d="M52.5732 2.55078H2.91638V26.9454H52.5732V2.55078Z" fill="#E8912B"/>
</g>
</g>
</g>
<mask id="mask4_451_152" style="mask-type:luminance" maskUnits="userSpaceOnUse" x="41" y="12" width="4" height="14">
<path d="M44.785 12.5508H41.8671V25.6032H44.785V12.5508Z" fill="white"/>
</mask>
<g mask="url(#mask4_451_152)">
<mask id="mask5_451_152" style="mask-type:luminance" maskUnits="userSpaceOnUse" x="41" y="12" width="4" height="14">
<path d="M41.9301 19.0401C41.9301 17.0434 41.9301 15.0467 41.9301 13.0501C41.9301 12.6895 42.035 12.5416 42.4654 12.5601C43.0846 12.5879 43.7144 12.5786 44.3336 12.5601C44.6485 12.5601 44.7535 12.6618 44.7535 12.9299C44.7535 16.9972 44.7535 21.0553 44.7535 25.1226C44.7535 25.4276 44.617 25.5108 44.3022 25.5016C43.6934 25.4923 43.0846 25.4831 42.4758 25.5016C42.056 25.5201 41.9196 25.3999 41.9196 25.0209C41.9405 23.0242 41.9196 21.0275 41.9196 19.0309" fill="white"/>
</mask>
<g mask="url(#mask5_451_152)">
<mask id="mask6_451_152" style="mask-type:luminance" maskUnits="userSpaceOnUse" x="41" y="12" width="4" height="14">
<path d="M44.9319 12.3477H41.9091V25.6589H44.9319V12.3477Z" fill="white"/>
</mask>
<g mask="url(#mask6_451_152)">
<path d="M52.5731 2.54883H2.91626V26.9435H52.5731V2.54883Z" fill="#E8912B"/>
</g>
</g>
</g>
<mask id="mask7_451_152" style="mask-type:luminance" maskUnits="userSpaceOnUse" x="45" y="12" width="6" height="14">
<path d="M50.9462 12.457H45.3203V25.5094H50.9462V12.457Z" fill="white"/>
</mask>
<g mask="url(#mask7_451_152)">
<mask id="mask8_451_152" style="mask-type:luminance" maskUnits="userSpaceOnUse" x="45" y="12" width="6" height="14">
<path d="M50.8832 25.5C49.9071 25.5 49.0149 25.5093 48.1228 25.4908C47.9968 25.4908 47.8184 25.3337 47.7659 25.2135C46.9997 23.5311 46.2545 21.8395 45.5093 20.1478C45.4673 20.0554 45.4568 19.9537 45.4463 19.8613C45.4463 19.7873 45.4463 19.7226 45.4463 19.6487C45.1314 17.6335 45.8242 15.8217 46.8633 14.0838C47.0312 13.7973 47.2096 13.5015 47.3041 13.1964C47.4615 12.651 47.8394 12.5216 48.4272 12.5586C49.0569 12.6048 49.6867 12.5678 50.4109 12.5678C49.8441 13.6309 49.3193 14.6015 48.7945 15.5813C48.4482 16.2284 48.1018 16.8847 47.7239 17.5226C47.5455 17.8276 47.556 18.0864 47.7029 18.4007C48.7001 20.5915 49.6762 22.7916 50.6628 24.9916C50.7258 25.1303 50.7783 25.2782 50.8727 25.5093" fill="white"/>
</mask>
<g mask="url(#mask8_451_152)">
<mask id="mask9_451_152" style="mask-type:luminance" maskUnits="userSpaceOnUse" x="45" y="12" width="6" height="14">
<path d="M50.9777 12.3477H45.1838V25.6589H50.9777V12.3477Z" fill="white"/>
</mask>
<g mask="url(#mask9_451_152)">
<path d="M52.5732 2.54883H2.91638V26.9435H52.5732V2.54883Z" fill="#E8912B"/>
</g>
</g>
</g>
<mask id="mask10_451_152" style="mask-type:luminance" maskUnits="userSpaceOnUse" x="25" y="12" width="5" height="14">
<path d="M29.8597 12.457H25.7452V25.6019H29.8597V12.457Z" fill="white"/>
</mask>
<g mask="url(#mask10_451_152)">
<mask id="mask11_451_152" style="mask-type:luminance" maskUnits="userSpaceOnUse" x="25" y="12" width="5" height="14">
<path d="M29.8072 19.0664C29.6392 20.416 29.5762 21.7933 29.2614 23.1152C28.9255 24.5018 27.8129 25.3152 26.207 25.5741C25.8816 25.6295 25.7662 25.5463 25.7662 25.2598C25.7662 24.7421 25.7557 24.2152 25.7767 23.6975C25.7767 23.5589 25.9236 23.411 26.0076 23.2816C26.2175 22.9673 26.5534 22.6622 26.6269 22.3295C26.7738 21.6177 26.8473 20.8782 26.8368 20.1479C26.8158 18.6874 26.7318 17.2268 26.6478 15.7663C26.6268 15.3596 26.3959 15.0175 25.9971 14.7772C25.8816 14.7032 25.7872 14.5276 25.7767 14.3982C25.7557 13.8805 25.7767 13.3536 25.7662 12.836C25.7662 12.5217 25.8921 12.4477 26.228 12.5032C27.9703 12.762 29.2404 13.9915 29.4713 15.6461C29.5343 16.1083 29.6287 16.5705 29.6392 17.0327C29.6707 17.7075 29.6392 18.3823 29.6392 19.0571C29.6917 19.0571 29.7442 19.0571 29.7967 19.0664" fill="white"/>
</mask>
<g mask="url(#mask11_451_152)">
<mask id="mask12_451_152" style="mask-type:luminance" maskUnits="userSpaceOnUse" x="25" y="12" width="5" height="14">
<path d="M29.8175 12.3477H25.5352V25.6589H29.8175V12.3477Z" fill="white"/>
</mask>
<g mask="url(#mask12_451_152)">
<path d="M52.5731 2.54883H2.91626V26.9435H52.5731V2.54883Z" fill="#E8912B"/>
</g>
</g>
</g>
<mask id="mask13_451_152" style="mask-type:luminance" maskUnits="userSpaceOnUse" x="31" y="12" width="4" height="14">
<path d="M34.4988 12.5508H31.5809V25.6032H34.4988V12.5508Z" fill="white"/>
</mask>
<g mask="url(#mask13_451_152)">
<mask id="mask14_451_152" style="mask-type:luminance" maskUnits="userSpaceOnUse" x="31" y="12" width="4" height="14">
<path d="M34.4045 19.0404C34.4045 21.0278 34.394 23.0152 34.415 24.9934C34.415 25.4187 34.2576 25.5296 33.8062 25.5111C33.2184 25.4834 32.6202 25.4926 32.0324 25.5111C31.7175 25.5111 31.6125 25.4094 31.6125 25.1413C31.623 24.485 31.6125 23.8195 31.6125 23.1539C31.6125 19.7984 31.6125 16.4521 31.6125 13.0965C31.6125 12.6621 31.749 12.5234 32.2423 12.5604C32.7881 12.5974 33.3339 12.5881 33.8692 12.5604C34.2995 12.5327 34.415 12.6713 34.415 13.0411C34.4045 15.0378 34.415 17.0437 34.415 19.0404" fill="white"/>
</mask>
<g mask="url(#mask14_451_152)">
<mask id="mask15_451_152" style="mask-type:luminance" maskUnits="userSpaceOnUse" x="31" y="12" width="4" height="14">
<path d="M34.6038 12.3477H31.5809V25.6589H34.6038V12.3477Z" fill="white"/>
</mask>
<g mask="url(#mask15_451_152)">
<path d="M52.5731 2.54883H2.91626V26.9435H52.5731V2.54883Z" fill="#E8912B"/>
</g>
</g>
</g>
<mask id="mask16_451_152" style="mask-type:luminance" maskUnits="userSpaceOnUse" x="21" y="12" width="5" height="14">
<path d="M25.0945 12.457H21.2004V25.6019H25.0945V12.457Z" fill="white"/>
</mask>
<g mask="url(#mask16_451_152)">
<mask id="mask17_451_152" style="mask-type:luminance" maskUnits="userSpaceOnUse" x="21" y="12" width="5" height="14">
<path d="M25.063 12.4863C25.063 13.1981 25.063 13.8729 25.063 14.5385C25.063 14.6124 24.9895 14.7049 24.9265 14.7418C24.3282 15.0376 24.1918 15.5553 24.1393 16.073C23.9189 18.0512 23.9294 20.0293 24.1393 22.0075C24.1918 22.5067 24.3282 23.0151 24.895 23.3109C24.979 23.3572 25.063 23.4681 25.063 23.542C25.0735 24.2168 25.063 24.8824 25.063 25.548C23.5515 25.6312 22.208 24.6051 21.8197 23.6899C21.5678 23.0983 21.3369 22.479 21.3159 21.8596C21.2529 20.0109 21.2319 18.1528 21.3159 16.2948C21.3579 15.1116 21.7357 13.9838 22.8693 13.1981C23.4886 12.7636 24.1813 12.5141 25.0735 12.4863" fill="white"/>
</mask>
<g mask="url(#mask17_451_152)">
<mask id="mask18_451_152" style="mask-type:luminance" maskUnits="userSpaceOnUse" x="21" y="12" width="5" height="14">
<path d="M25.2834 12.3477H21.001V25.6589H25.2834V12.3477Z" fill="white"/>
</mask>
<g mask="url(#mask18_451_152)">
<path d="M52.5732 2.54883H2.91638V26.9435H52.5732V2.54883Z" fill="#E8912B"/>
</g>
</g>
</g>
<mask id="mask19_451_152" style="mask-type:luminance" maskUnits="userSpaceOnUse" x="16" y="3" width="10" height="7">
<path d="M25.5353 3.88086H16.4457V9.88015H25.5353V3.88086Z" fill="white"/>
</mask>
<g mask="url(#mask19_451_152)">
<mask id="mask20_451_152" style="mask-type:luminance" maskUnits="userSpaceOnUse" x="16" y="3" width="10" height="7">
<path d="M23.8349 7.80789C24.3597 8.44572 24.895 9.08355 25.5248 9.84155C24.7166 9.84155 24.0343 9.85079 23.3626 9.8323C23.2471 9.8323 23.1107 9.66591 23.0162 9.56423C22.6069 9.11128 22.2395 8.63984 21.8092 8.19613C21.6832 8.06672 21.4418 7.95579 21.2529 7.94655C20.4762 7.91882 19.689 7.94655 18.9018 7.92806C18.5449 7.92806 18.4189 8.04823 18.4294 8.35328C18.4504 8.72304 18.4294 9.08355 18.4294 9.4533C18.4294 9.72138 18.335 9.85079 18.0201 9.84155C17.6422 9.84155 17.2539 9.84155 16.8655 9.84155C16.5926 9.84155 16.4562 9.75835 16.4562 9.49952C16.4562 7.75243 16.4562 6.00533 16.4562 4.25823C16.4562 4.00865 16.5821 3.89772 16.8655 3.90697C18.9332 3.91621 20.9905 3.86999 23.0582 3.95319C24.8845 4.02714 25.8606 5.71877 24.8635 6.97594C24.6221 7.29023 24.2128 7.50284 23.8244 7.80789M20.6756 5.23809V5.20111C20.2977 5.20111 19.9094 5.20111 19.5315 5.20111C18.272 5.20111 18.4819 5.11792 18.4399 6.18096C18.4399 6.51374 18.5764 6.63391 18.9437 6.62467C19.9933 6.61543 21.0429 6.62467 22.0926 6.62467C22.271 6.62467 22.4389 6.59694 22.6069 6.55072C23.0162 6.44904 23.2891 6.2087 23.2471 5.82045C23.2051 5.4507 22.8903 5.25657 22.4809 5.24733C21.8826 5.22884 21.2739 5.24733 20.6651 5.24733" fill="white"/>
</mask>
<g mask="url(#mask20_451_152)">
<mask id="mask21_451_152" style="mask-type:luminance" maskUnits="userSpaceOnUse" x="16" y="3" width="10" height="7">
<path d="M25.5352 3.69531H16.2147V9.90721H25.5352V3.69531Z" fill="white"/>
</mask>
<g mask="url(#mask21_451_152)">
<path d="M52.5732 2.54883H2.91638V26.9435H52.5732V2.54883Z" fill="#E8912B"/>
</g>
</g>
</g>
<mask id="mask22_451_152" style="mask-type:luminance" maskUnits="userSpaceOnUse" x="4" y="12" width="6" height="14">
<path d="M9.40286 12.5508H4.42773V25.6032H9.40286V12.5508Z" fill="white"/>
</mask>
<g mask="url(#mask22_451_152)">
<mask id="mask23_451_152" style="mask-type:luminance" maskUnits="userSpaceOnUse" x="4" y="12" width="6" height="14">
<path d="M4.44873 12.5796C5.40387 12.5796 6.34851 12.5703 7.28266 12.598C7.37713 12.598 7.51358 12.8384 7.54506 12.977C7.7025 13.8922 7.82846 14.8166 7.9754 15.7317C8.21681 17.3217 8.44772 18.9116 8.68913 20.5016C8.92005 22.0638 9.15096 23.626 9.40286 25.179C9.44485 25.4286 9.35038 25.5118 9.07749 25.5118C8.67864 25.5118 8.27979 25.4933 7.88094 25.5118C7.55556 25.521 7.42961 25.4008 7.36663 25.1328C7.09373 23.9218 6.79985 22.7109 6.51645 21.4999C6.09661 19.7066 5.66627 17.9225 5.24643 16.1292C4.98403 15.0199 4.72163 13.9014 4.46972 12.7829C4.45923 12.7275 4.46972 12.672 4.46972 12.5703" fill="white"/>
</mask>
<g mask="url(#mask23_451_152)">
<mask id="mask24_451_152" style="mask-type:luminance" maskUnits="userSpaceOnUse" x="4" y="12" width="6" height="14">
<path d="M9.41335 12.3496H4.37524V25.6608H9.41335V12.3496Z" fill="white"/>
</mask>
<g mask="url(#mask24_451_152)">
<path d="M52.5731 2.55078H2.91626V26.9454H52.5731V2.55078Z" fill="#E8912B"/>
</g>
</g>
</g>
<mask id="mask25_451_152" style="mask-type:luminance" maskUnits="userSpaceOnUse" x="11" y="12" width="6" height="14">
<path d="M16.4353 12.5508H11.6805V25.5107H16.4353V12.5508Z" fill="white"/>
</mask>
<g mask="url(#mask25_451_152)">
<mask id="mask26_451_152" style="mask-type:luminance" maskUnits="userSpaceOnUse" x="11" y="12" width="6" height="14">
<path d="M12.8455 12.5679C13.9266 12.5679 13.9161 12.5679 14.105 13.5016C14.7348 16.7277 15.3751 19.9631 16.0048 23.1892C16.1413 23.8547 16.2462 24.5203 16.3932 25.1859C16.4456 25.4447 16.3302 25.5186 16.0678 25.5094C15.6165 25.5094 15.1756 25.5002 14.7243 25.5094C14.3989 25.5186 14.273 25.3892 14.2205 25.1212C13.8951 23.5127 13.5592 21.9135 13.2339 20.3051C12.961 18.974 12.6776 17.6521 12.4257 16.321C12.2052 15.2025 12.0163 14.0747 11.8064 12.9469C11.7539 12.6789 11.8379 12.5402 12.1738 12.5679C12.3942 12.5772 12.6251 12.5679 12.8455 12.5679Z" fill="white"/>
</mask>
<g mask="url(#mask26_451_152)">
<mask id="mask27_451_152" style="mask-type:luminance" maskUnits="userSpaceOnUse" x="11" y="12" width="6" height="14">
<path d="M16.4667 12.3477H11.6805V25.6589H16.4667V12.3477Z" fill="white"/>
</mask>
<g mask="url(#mask27_451_152)">
<path d="M52.5731 2.54883H2.91626V26.9435H52.5731V2.54883Z" fill="#E8912B"/>
</g>
</g>
</g>
<mask id="mask28_451_152" style="mask-type:luminance" maskUnits="userSpaceOnUse" x="4" y="3" width="11" height="7">
<path d="M14.7034 3.88086H4.42773V9.88015H14.7034V3.88086Z" fill="white"/>
</mask>
<g mask="url(#mask28_451_152)">
<mask id="mask29_451_152" style="mask-type:luminance" maskUnits="userSpaceOnUse" x="4" y="3" width="11" height="7">
<path d="M4.53271 9.84472C5.27793 8.71696 5.93918 7.70938 6.60043 6.70179C7.12524 5.89757 7.67103 5.1026 8.18534 4.28913C8.36377 4.00257 8.59468 3.8824 8.95155 3.91013C9.12998 3.91938 9.30841 3.91013 9.47635 3.91013C10.7884 3.91013 10.7779 3.91013 11.4181 4.89923C12.3943 6.39674 13.3809 7.89425 14.3675 9.39177C14.441 9.51194 14.5145 9.63211 14.6299 9.84472C14.1471 9.84472 13.7587 9.7985 13.3809 9.85396C12.7931 9.93716 12.4257 9.76152 12.2263 9.28084C12.0059 8.73545 11.5756 8.5783 10.9248 8.61528C9.90669 8.67074 8.87808 8.64301 7.85996 8.61528C7.53458 8.61528 7.29317 8.67999 7.17772 8.9573C6.87333 9.73379 6.23307 9.97413 5.3514 9.84472C5.12049 9.80774 4.88958 9.84472 4.52222 9.84472M8.30079 7.27491H10.8828C10.442 6.59086 10.0536 5.98077 9.59181 5.26899C9.12998 5.98077 8.74163 6.58162 8.30079 7.27491Z" fill="white"/>
</mask>
<g mask="url(#mask29_451_152)">
<mask id="mask30_451_152" style="mask-type:luminance" maskUnits="userSpaceOnUse" x="4" y="3" width="11" height="7">
<path d="M14.7034 3.69727H4.37524V9.90916H14.7034V3.69727Z" fill="white"/>
</mask>
<g mask="url(#mask30_451_152)">
<path d="M52.5731 2.55078H2.91626V26.9454H52.5731V2.55078Z" fill="#E8912B"/>
</g>
</g>
</g>
<mask id="mask31_451_152" style="mask-type:luminance" maskUnits="userSpaceOnUse" x="32" y="3" width="11" height="7">
<path d="M42.2975 3.88086H32.1268V9.88015H42.2975V3.88086Z" fill="white"/>
</mask>
<g mask="url(#mask31_451_152)">
<mask id="mask32_451_152" style="mask-type:luminance" maskUnits="userSpaceOnUse" x="32" y="3" width="11" height="7">
<path d="M42.2136 9.83354C41.5838 9.83354 41.017 9.86127 40.4712 9.81505C40.3138 9.80581 40.0933 9.63942 40.0304 9.50076C39.705 8.73352 39.0857 8.5394 38.2041 8.6041C37.3014 8.67805 36.3882 8.63183 35.4751 8.61335C35.1707 8.61335 34.9398 8.67805 34.8348 8.94613C34.5199 9.70413 33.9112 9.99069 33.019 9.85203C32.7881 9.81505 32.5467 9.85203 32.2213 9.85203C32.3158 9.66715 32.3578 9.55622 32.4312 9.45454C33.5648 7.72593 34.7089 5.99732 35.832 4.26872C35.9999 4.01913 36.1888 3.9082 36.5142 3.9082C37.0285 3.92669 37.5428 3.88971 38.0466 3.92669C38.2355 3.93593 38.4875 4.0561 38.5714 4.19476C39.7575 5.97884 40.933 7.77215 42.1086 9.55622C42.1506 9.61169 42.1611 9.68564 42.224 9.83354M38.5189 7.27298C38.0676 6.57045 37.6793 5.96959 37.2174 5.25781C36.7556 5.96959 36.3673 6.57969 35.9264 7.27298H38.5189Z" fill="white"/>
</mask>
<g mask="url(#mask32_451_152)">
<mask id="mask33_451_152" style="mask-type:luminance" maskUnits="userSpaceOnUse" x="32" y="3" width="11" height="7">
<path d="M42.4129 3.69531H32.0848V9.90721H42.4129V3.69531Z" fill="white"/>
</mask>
<g mask="url(#mask33_451_152)">
<path d="M52.5731 2.54883H2.91626V26.9435H52.5731V2.54883Z" fill="#E8912B"/>
</g>
</g>
</g>
<mask id="mask34_451_152" style="mask-type:luminance" maskUnits="userSpaceOnUse" x="16" y="12" width="5" height="14">
<path d="M20.3398 12.5508H16.1204V25.5107H20.3398V12.5508Z" fill="white"/>
</mask>
<g mask="url(#mask34_451_152)">
<mask id="mask35_451_152" style="mask-type:luminance" maskUnits="userSpaceOnUse" x="16" y="12" width="5" height="14">
<path d="M17.0859 25.4446C16.9914 24.9269 16.8969 24.4093 16.8025 23.8916C16.624 22.921 16.5086 21.9411 16.2672 20.9798C16.0258 20.0554 16.2357 19.1587 16.3616 18.2621C16.6135 16.5057 16.8969 14.7494 17.1383 12.993C17.1908 12.651 17.3378 12.5401 17.7156 12.5586C18.4398 12.5771 19.1536 12.5678 19.8673 12.5586C20.1927 12.5586 20.2767 12.651 20.2032 12.9376C19.5524 15.6553 18.9122 18.3822 18.2614 21.1092C17.957 22.4033 17.6526 23.6975 17.3483 24.9916C17.3063 25.1488 17.2538 25.2967 17.2013 25.4538C17.1593 25.4538 17.1173 25.4538 17.0649 25.4538" fill="white"/>
</mask>
<g mask="url(#mask35_451_152)">
<mask id="mask36_451_152" style="mask-type:luminance" maskUnits="userSpaceOnUse" x="15" y="12" width="6" height="14">
<path d="M20.4972 12.3477H15.9629V25.6589H20.4972V12.3477Z" fill="white"/>
</mask>
<g mask="url(#mask36_451_152)">
<path d="M52.5731 2.54883H2.91626V26.9435H52.5731V2.54883Z" fill="#E8912B"/>
</g>
</g>
</g>
<mask id="mask37_451_152" style="mask-type:luminance" maskUnits="userSpaceOnUse" x="42" y="3" width="10" height="7">
<path d="M51.0617 3.88086H42.1925V9.88015H51.0617V3.88086Z" fill="white"/>
</mask>
<g mask="url(#mask37_451_152)">
<mask id="mask38_451_152" style="mask-type:luminance" maskUnits="userSpaceOnUse" x="42" y="3" width="9" height="7">
<path d="M46.5694 3.9074C47.8499 3.9074 49.1304 3.91664 50.4004 3.9074C50.8308 3.9074 50.9987 4.00908 50.9882 4.40657C50.9672 5.20154 50.9882 5.20154 50.0646 5.20154C49.4558 5.20154 48.847 5.20154 48.2383 5.20154C47.598 5.22003 47.598 5.22927 47.598 5.77466C47.598 6.97637 47.5875 8.16883 47.598 9.3613C47.598 9.70332 47.4825 9.86047 47.0837 9.83274C46.8108 9.81425 46.5379 9.83274 46.265 9.83274C45.6143 9.83274 45.6142 9.83274 45.6142 9.2781C45.6142 8.11337 45.6142 6.93939 45.6142 5.77466C45.6142 5.20154 45.6142 5.20154 44.9425 5.20154C44.1973 5.20154 43.4416 5.1923 42.6859 5.20154C42.3185 5.20154 42.1715 5.1091 42.182 4.76708C42.2135 3.80571 42.0456 3.9074 43.1477 3.9074C44.2813 3.9074 45.4148 3.9074 46.5484 3.9074" fill="white"/>
</mask>
<g mask="url(#mask38_451_152)">
<mask id="mask39_451_152" style="mask-type:luminance" maskUnits="userSpaceOnUse" x="42" y="3" width="10" height="7">
<path d="M51.2296 3.69531H42.161V9.90721H51.2296V3.69531Z" fill="white"/>
</mask>
<g mask="url(#mask39_451_152)">
<path d="M52.5732 2.54883H2.91638V26.9435H52.5732V2.54883Z" fill="#E8912B"/>
</g>
</g>
</g>
<mask id="mask40_451_152" style="mask-type:luminance" maskUnits="userSpaceOnUse" x="9" y="12" width="4" height="14">
<path d="M12.0059 12.5508H9.41333V25.5107H12.0059V12.5508Z" fill="white"/>
</mask>
<g mask="url(#mask40_451_152)">
<mask id="mask41_451_152" style="mask-type:luminance" maskUnits="userSpaceOnUse" x="9" y="12" width="3" height="14">
<path d="M10.1901 25.4725C10.1166 25.0935 10.0431 24.7145 9.98015 24.3262C9.78072 23.1245 9.52882 21.9413 9.42386 20.7303C9.36088 20.0001 9.48683 19.2421 9.61278 18.521C9.94866 16.6538 10.3475 14.7865 10.7254 12.9192C10.7464 12.7991 10.8618 12.7066 10.9353 12.5957C11.0088 12.7066 11.1137 12.8176 11.1347 12.9285C11.4076 14.4815 11.691 16.0437 11.9219 17.6059C11.9744 17.9849 11.8589 18.3824 11.7855 18.7706C11.3551 20.9152 10.9038 23.0598 10.463 25.2044C10.442 25.3061 10.379 25.3985 10.337 25.4909C10.2845 25.4909 10.2321 25.4909 10.1901 25.4817" fill="white"/>
</mask>
<g mask="url(#mask41_451_152)">
<mask id="mask42_451_152" style="mask-type:luminance" maskUnits="userSpaceOnUse" x="9" y="12" width="4" height="14">
<path d="M12.1844 12.5684H9.1615V25.6577H12.1844V12.5684Z" fill="white"/>
</mask>
<g mask="url(#mask42_451_152)">
<path d="M52.5732 2.54688H2.91638V26.9415H52.5732V2.54688Z" fill="#E8912B"/>
</g>
</g>
</g>
<mask id="mask43_451_152" style="mask-type:luminance" maskUnits="userSpaceOnUse" x="28" y="3" width="3" height="7">
<path d="M30.1745 3.88086H28.0123V9.98183H30.1745V3.88086Z" fill="white"/>
</mask>
<g mask="url(#mask43_451_152)">
<mask id="mask44_451_152" style="mask-type:luminance" maskUnits="userSpaceOnUse" x="28" y="3" width="3" height="7">
<path d="M28.0858 3.89935C28.7051 3.89935 29.2614 3.8901 29.8177 3.90859C29.9016 3.90859 30.0591 4.09347 30.0591 4.18591C30.0696 5.95149 30.0591 7.72632 30.0696 9.49191C30.0696 9.723 29.9541 9.8062 29.6917 9.82469C28.6211 9.91096 28.0858 9.48882 28.0858 8.55827V3.88086V3.89935Z" fill="white"/>
</mask>
<g mask="url(#mask44_451_152)">
<mask id="mask45_451_152" style="mask-type:luminance" maskUnits="userSpaceOnUse" x="28" y="3" width="3" height="8">
<path d="M30.3215 3.69531H28.0543V10.1291H30.3215V3.69531Z" fill="white"/>
</mask>
<g mask="url(#mask45_451_152)">
<path d="M52.5731 2.54883H2.91626V26.9435H52.5731V2.54883Z" fill="#E8912B"/>
</g>
</g>
</g>
<mask id="mask46_451_152" style="mask-type:luminance" maskUnits="userSpaceOnUse" x="60" y="7" width="15" height="19">
<path d="M74.7723 7.82617H60.3402V25.5745H74.7723V7.82617Z" fill="white"/>
</mask>
<g mask="url(#mask46_451_152)">
<mask id="mask47_451_152" style="mask-type:luminance" maskUnits="userSpaceOnUse" x="60" y="7" width="15" height="19">
<path d="M64.3183 18.8998V25.5H60.4348V15.914H61.0225C63.0378 15.914 65.053 15.914 67.0683 15.914C67.7715 15.914 68.4432 15.7939 69.01 15.4149C70.1331 14.6661 70.1541 13.6123 69.9127 12.54C69.7133 11.6711 68.8631 11.0333 67.7715 10.9131C67.1207 10.8391 66.4595 10.8484 65.8087 10.8484C64.1608 10.8484 62.513 10.8391 60.8651 10.8484C60.5187 10.8484 60.3823 10.7744 60.3928 10.4509C60.4138 9.70213 60.4033 8.96262 60.3928 8.21387C60.3928 7.96428 60.4872 7.8626 60.7811 7.8626C63.2477 7.88109 65.7038 7.82562 68.1703 7.90882C71.5606 8.02899 73.9117 10.2753 73.9222 13.261C73.9222 15.5628 72.8726 17.2729 70.469 18.2805C70.4165 18.3082 70.364 18.3452 70.28 18.3914C71.7495 20.7486 73.2189 23.0965 74.7409 25.5277H73.2294C72.3688 25.5277 71.4976 25.5184 70.6369 25.5277C70.301 25.5277 70.1331 25.426 69.9862 25.1672C68.8421 23.2167 67.677 21.2755 66.5435 19.325C66.344 18.983 66.1131 18.8536 65.6933 18.8813C65.2524 18.9091 64.8116 18.8813 64.3183 18.8813" fill="white"/>
</mask>
<g mask="url(#mask47_451_152)">
<mask id="mask48_451_152" style="mask-type:luminance" maskUnits="userSpaceOnUse" x="60" y="7" width="15" height="19">
<path d="M74.9087 7.6875H60.2982V25.6576H74.9087V7.6875Z" fill="white"/>
</mask>
<g mask="url(#mask48_451_152)">
<path d="M76.2627 2.48438H53.7382V26.8975H76.2627V2.48438Z" fill="#D93829"/>
</g>
</g>
</g>
<mask id="mask49_451_152" style="mask-type:luminance" maskUnits="userSpaceOnUse" x="55" y="3" width="13" height="19">
<path d="M67.2991 3.79688H55.2391V21.2309H67.2991V3.79688Z" fill="white"/>
</mask>
<g mask="url(#mask49_451_152)">
<mask id="mask50_451_152" style="mask-type:luminance" maskUnits="userSpaceOnUse" x="55" y="3" width="13" height="19">
<path d="M67.236 6.81101C66.9946 6.81101 66.8057 6.83874 66.6167 6.83874C64.3286 6.83874 62.0405 6.84798 59.7628 6.83874C59.322 6.83874 59.1855 6.94967 59.1855 7.33791C59.2065 8.70601 59.1855 10.0649 59.1855 11.433C59.1855 11.5716 59.2065 11.7103 59.217 11.8952H60.9174C61.9145 11.8952 62.9011 11.8952 63.8878 11.9044C64.0242 11.9044 64.2761 12.0431 64.2761 12.1262C64.3076 13.0229 64.2971 13.9288 64.2971 14.8809H59.217C59.2065 15.1213 59.1855 15.2969 59.1855 15.4725C59.1855 17.2011 59.175 18.939 59.1855 20.6676C59.1855 21.0466 59.0596 21.176 58.6187 21.1668C57.6741 21.139 56.7295 21.139 55.7848 21.1668C55.3335 21.176 55.26 21.0281 55.26 20.6769C55.2705 18.7449 55.26 16.8221 55.26 14.8902C55.26 11.3867 55.26 7.87405 55.2495 4.37062C55.2495 3.9454 55.3755 3.82523 55.8688 3.83447C59.4689 3.85296 63.0586 3.85296 66.6587 3.83447C67.11 3.83447 67.2255 3.95464 67.215 4.33364C67.1835 5.14711 67.215 5.96057 67.215 6.81101" fill="white"/>
</mask>
<g mask="url(#mask50_451_152)">
<mask id="mask51_451_152" style="mask-type:luminance" maskUnits="userSpaceOnUse" x="55" y="3" width="13" height="19">
<path d="M67.3516 3.69531H55.2601V21.2217H67.3516V3.69531Z" fill="white"/>
</mask>
<g mask="url(#mask51_451_152)">
<path d="M76.2627 2.48438H53.7382V26.8975H76.2627V2.48438Z" fill="#D93829"/>
</g>
</g>
</g>
</g>
</g>
</g>
<defs>
<clipPath id="clip0_451_152">
<rect width="79.2" height="30" fill="white"/>
</clipPath>
<clipPath id="clip1_451_152">
<rect width="87.6" height="39" fill="white" transform="translate(-4.20007 -4.80078)"/>
</clipPath>
</defs>
</svg>
