<svg width="80" height="30" viewBox="0 0 80 30" fill="none" xmlns="http://www.w3.org/2000/svg">
<path fill-rule="evenodd" clip-rule="evenodd" d="M33.085 21.9761C33.0948 21.9663 33.1045 21.9564 33.1143 21.9467C33.1072 21.9311 33.131 21.9118 33.1239 21.8962C33.1114 21.8687 33.0971 21.8814 32.5516 21.359C32.1407 20.9655 27.4209 16.4455 27.4147 16.4392C27.3715 16.3956 26.1227 15.2278 26.7723 13.4228C28.3315 9.09098 28.3264 9.08946 28.6683 8.14823C28.7081 8.03871 30.2001 3.88094 30.3067 3.58782C30.5974 2.78832 30.708 2.29019 31.3606 1.7074C31.8277 1.29031 32.5028 1.01397 33.1269 1.00122C33.1397 1.00099 46.3981 0.997712 46.5769 1.00297C46.8888 1.0121 47.6714 1.15114 48.3141 1.73944C48.988 2.35621 49.0865 2.96333 49.4971 4.06151C49.509 4.09343 50.6239 7.19904 50.7177 7.45556C50.8402 7.79032 52.415 12.1788 52.5624 12.5896C52.9547 13.6826 53.1571 14.0603 52.9939 14.9922C52.8759 15.6664 52.4639 16.1606 52.3927 16.2461C52.1776 16.504 52.1644 16.4909 50.4344 18.1516C50.1288 18.445 46.6641 21.7711 46.609 21.8137C46.5382 21.8686 46.5076 21.8617 46.5218 21.9508C46.5236 21.9623 46.5203 21.978 46.5298 21.9847C46.5363 21.9893 46.5365 21.9825 46.6289 21.9821C47.1626 21.9796 50.2701 21.9653 53.3004 21.9768C53.7011 21.9783 54.0917 22.0312 54.59 22.3578C54.9112 22.5683 55.5563 23.1738 55.5688 24.1753C55.5692 24.216 55.5689 27.7365 55.5689 27.742C55.567 28.0039 55.5522 28.8842 54.6531 29.5654C54.331 29.8095 53.8394 29.9774 53.4775 29.9901C53.2548 29.9979 53.2548 29.9971 26.5199 29.9971C26.287 29.9971 25.0653 30.1117 24.3146 28.9016C24.008 28.4075 24.0018 27.8382 24.0007 27.7421C24.0001 27.6872 23.9992 24.2776 24.0013 24.1751C24.0251 23.0023 24.9454 21.9878 26.2277 21.9769C26.2905 21.9764 32.145 21.9767 32.6595 21.9768C32.8064 21.9768 32.8052 21.9722 32.9516 21.9829C33.0556 21.9904 33.0555 21.9904 33.0645 21.99C33.0728 21.9895 33.0768 21.9765 33.085 21.9761Z" fill="#FDF000"/>
<path fill-rule="evenodd" clip-rule="evenodd" d="M42.3091 14.7982C41.7101 14.74 40.9707 14.6695 39.799 13.989C38.0508 12.9736 37.3768 12.2993 37.2861 11.1915C37.1956 10.0884 37.5762 9.6448 37.2344 9.25058C37.1287 9.12866 37.0635 9.04528 36.9895 9.09089C36.9645 9.10632 36.8472 9.37606 36.8205 9.44196C36.3379 10.6363 34.4165 15.0218 37.4866 22.4298C37.5914 22.6826 37.5787 22.7643 37.8053 22.766C37.8426 22.7663 38.2291 22.7692 38.2728 22.7676C38.282 22.7673 38.3613 22.7643 38.3728 22.7075C38.3785 22.6792 38.378 22.6773 38.263 22.364C37.8237 21.167 37.3771 19.5376 37.1617 18.2674C37.0314 17.4993 36.6942 15.4733 36.9916 13.4148C37.0459 13.0392 37.0389 13.0382 37.0483 13.0066C37.0646 12.9525 37.0849 12.975 37.1038 12.9753C37.1174 12.9755 37.1318 12.9637 37.1442 12.9693C37.1473 12.9707 37.2199 13.1218 37.2988 13.2231C37.3967 13.3487 37.7209 13.7648 38.8743 14.4387C39.529 14.8213 39.5189 14.8393 40.2083 15.1559C40.3613 15.2261 40.3305 15.3047 40.2972 15.575C40.0268 17.7674 40.5248 21.0021 40.8009 22.1234C40.9222 22.6157 40.9242 22.7104 41.0257 22.756C41.0286 22.7573 41.0283 22.7678 41.7813 22.7661C42.002 22.7656 42.0026 22.7391 42.2025 22.5483C45.2307 19.6581 48.4793 16.5465 48.5134 16.5239C48.6255 16.4496 48.641 16.5037 49.5658 16.9646C49.7565 17.0597 49.7604 17.047 49.9657 17.1017C50.0527 17.1248 50.0506 17.1638 49.9849 17.2251C49.9376 17.2692 49.9388 17.2691 49.8912 17.3133C49.8682 17.3347 47.6641 19.4343 44.5707 22.4007C44.2853 22.6745 44.2681 22.6632 44.2626 22.6712C44.2395 22.7056 44.2624 22.7611 44.295 22.771C44.3142 22.7768 44.3141 22.7739 44.4711 22.7677C44.541 22.7649 53.2726 22.7655 53.359 22.7673C53.9072 22.779 54.5398 23.1103 54.7353 23.8867C54.7721 24.0328 54.7676 24.0348 54.7676 27.2136C54.7676 27.7068 54.8197 28.1931 54.4813 28.6255C54.0017 29.2381 53.4111 29.1924 53.1835 29.1925C51.0224 29.1932 26.5964 29.2014 26.1695 29.1911C25.3923 29.1725 24.7792 28.5049 24.7924 27.7397C24.8003 27.286 24.7919 24.3424 24.7964 24.1723C24.8168 23.3951 25.3918 22.8593 26.0532 22.7787C26.169 22.7646 26.1696 22.7661 33.946 22.7661C35.1316 22.7661 35.1307 22.7764 35.2337 22.7758C35.3265 22.7751 35.3257 22.7235 35.3256 22.7147C35.3254 22.7093 35.3294 22.6957 35.2229 22.6039C35.1075 22.5046 35.102 22.4998 33.8441 21.2922C31.5014 19.0429 30.4389 18.051 30.3899 17.969C30.2815 17.7877 30.6457 16.3125 30.7499 15.9338C31.4782 13.2889 32.5507 11.2105 33.0907 10.2099C34.1329 8.27899 35.5339 6.34705 36.5641 5.15824C37.1384 4.49563 37.1443 4.50142 37.194 4.44376C37.7178 3.83664 39.3906 2.14918 40.1633 1.63017C40.1945 1.60924 40.5427 1.37535 40.5539 1.36997C40.5637 1.36529 40.686 1.30664 40.6763 1.42675C40.6732 1.46575 40.6576 1.50276 40.649 1.54094C40.5231 2.10339 40.9756 3.02609 40.2149 3.72087C40.0836 3.84085 40.04 3.81091 40.0372 3.88412C40.0338 3.97043 40.0827 3.9316 40.2601 3.94914C40.938 4.01621 41.4589 4.36313 41.6532 4.48586C41.9593 4.67918 44.6211 6.31869 44.7147 6.38231C45.5052 6.92014 45.5489 7.24081 46.0633 8.20286C46.1146 8.29881 46.4139 8.85857 46.9447 9.23888C47.3824 9.55259 47.376 9.55995 47.4141 9.58709C47.6806 9.77712 47.6736 9.78431 47.884 9.93517C47.9281 9.96681 48.232 10.1849 48.4323 10.3352C48.926 10.706 49.3636 11.0242 49.3724 11.0308C49.8361 11.3819 51.0377 12.246 51.2091 12.4052C51.5631 12.7339 51.6598 13.0207 51.7155 13.1824C51.9103 13.7481 52.3305 14.4885 51.7528 15.4431C51.7171 15.5021 51.6451 15.6211 51.1779 16.0862C50.8077 16.4547 50.2467 16.5336 49.7821 16.2996C49.7036 16.2601 49.0873 15.9497 48.8055 15.7971C48.3785 15.5659 48.3635 15.6009 47.921 15.4021C46.8883 14.9381 46.1621 14.9705 44.7048 14.8801C43.4582 14.8027 43.4485 14.8643 42.3091 14.7982Z" fill="black"/>
<path fill-rule="evenodd" clip-rule="evenodd" d="M35.9876 3.48463C35.9694 3.48509 35.9515 3.47814 35.9333 3.4786C35.8002 3.48194 35.8017 3.49392 35.5246 3.49398C33.1677 3.49468 33.165 3.48743 33.0637 3.51954C32.8627 3.58321 32.8532 3.69782 32.5268 4.6397C32.1705 5.66765 32.1824 5.67507 32.1231 5.74846C32.0495 5.83932 31.1877 6.4813 30.9118 6.70016C30.707 6.86271 30.2363 7.20975 30.0933 7.34576C30.0847 7.35394 30.0025 7.43212 29.9701 7.42896C29.8978 7.42195 29.9243 7.34465 29.927 7.33693C29.9329 7.31962 29.9962 7.22618 30.1371 6.80582C30.1509 6.76483 30.9078 4.63414 31.3328 3.42364C31.3795 3.29061 31.6383 2.27307 32.7761 2.01263C32.9933 1.96293 32.9949 1.96896 36.5772 1.96896C38.493 1.96896 38.4929 1.97012 38.7988 1.95744C38.8683 1.95457 38.8957 1.94369 38.8945 2.01322C38.8933 2.08578 38.8507 2.06356 38.6306 2.25576C37.2656 3.44756 34.3855 5.84219 31.7322 10.9645C30.527 13.2914 29.8414 15.0844 29.2754 16.5763C29.2612 16.6139 29.2281 16.7624 29.152 16.7645C29.1039 16.7658 29.0112 16.685 28.6046 16.3027C27.8262 15.5709 27.6505 15.2172 27.6587 15.1146C27.6764 14.8932 28.4235 13.569 28.584 13.3096C28.6398 13.2193 28.8177 12.917 28.9559 12.7021C29.0394 12.5723 29.3986 12.0102 29.437 11.95C29.7382 11.4788 30.5862 10.2808 30.9157 9.85705C31.2031 9.48744 31.6451 8.87312 32.2126 8.28138C32.2232 8.27044 32.3385 8.15011 32.3424 8.14309C32.3898 8.05696 32.3441 8.01176 32.2602 8.06146C32.2422 8.07216 31.7235 8.55334 31.4737 8.77816C30.5276 9.62964 29.8729 10.2659 28.6205 11.7166C28.312 12.074 28.2279 12.3113 28.1618 12.186C28.1266 12.1194 28.1989 12.1278 28.4948 11.3062C29.1169 9.5786 29.1188 9.57445 29.187 9.42967C29.6274 8.49328 29.9638 8.29547 31.4441 7.05778C31.8122 6.7501 31.8192 6.76027 32.1884 6.45376C32.3854 6.29021 32.4059 6.28231 32.9663 5.83295C33.0427 5.77167 34.1495 4.91873 34.2525 4.83932C34.6188 4.55702 34.6267 4.56918 34.993 4.28699C35.1117 4.19548 35.817 3.68688 35.8361 3.67542C35.8941 3.64063 35.8941 3.64262 35.951 3.60654C35.9909 3.58128 35.997 3.58087 35.9976 3.53351C35.9977 3.5169 35.9874 3.50123 35.9876 3.48463Z" fill="#010100"/>
<path fill-rule="evenodd" clip-rule="evenodd" d="M46.6382 1.98879C46.7474 2.00592 47.3867 2.10608 47.8376 2.67654C48.119 3.03247 48.2291 3.51972 48.5601 4.41248C48.7881 5.02744 50.5731 10.0529 50.7475 10.5436C50.984 11.2096 51.0032 11.2491 51.0316 11.3078C51.07 11.3868 51.1143 11.3975 51.0509 11.459C50.9876 11.5203 50.9853 11.4494 50.7232 11.2584C50.6534 11.2075 49.4073 10.2845 49.3787 10.2638C48.9485 9.95318 48.9429 9.94482 48.9169 9.90594C48.8415 9.79308 48.7532 9.48441 48.4591 8.67532C48.2542 8.11147 46.7174 3.74618 46.6663 3.6673C46.5325 3.4609 46.4126 3.49031 45.582 3.49031C41.6399 3.49031 41.3946 3.48984 41.2543 3.49148C41.2448 3.49159 41.1524 3.4927 41.1354 3.47949C41.0547 3.41669 41.111 3.39915 41.147 3.3036C41.3984 2.63713 41.0303 2.05626 41.2063 1.97908C41.2326 1.96756 41.2337 1.96879 46.1082 1.96879C46.4777 1.96879 46.4773 1.96949 46.6382 1.98879Z" fill="#010100"/>
<path fill-rule="evenodd" clip-rule="evenodd" d="M27.6863 28.0156C27.5345 28.0345 27.5347 28.0401 26.6369 28.0387C26.4674 28.0384 26.4278 28.027 26.4272 27.8578C26.4262 27.5726 26.4156 24.3897 26.4283 24.2935C26.4413 24.1953 26.5093 24.1804 26.5208 24.1779C26.5438 24.1728 27.4078 24.165 27.5716 24.1837C28.4162 24.2803 28.3635 24.8232 28.3584 25.4606C28.3548 25.9115 28.2824 25.9098 28.2308 26.0512C28.1825 26.183 28.344 26.2586 28.3561 26.629C28.3799 27.3566 28.3307 27.4859 28.3043 27.5553C28.1497 27.9618 27.7249 28.0059 27.6863 28.0156Z" fill="#FBEE00"/>
<path fill-rule="evenodd" clip-rule="evenodd" d="M50.08 28.0109C48.6694 28.2017 48.7926 27.2713 48.7926 26.9218C48.7926 24.8683 48.7863 24.8644 48.8386 24.6944C49.0528 23.9981 50.1502 24.1018 50.4747 24.372C50.767 24.6153 50.7235 24.968 50.7235 25.6354C50.7235 27.4352 50.7371 27.4471 50.6332 27.635C50.4991 27.8776 50.3587 27.9392 50.08 28.0109Z" fill="#FAEE00"/>
<path fill-rule="evenodd" clip-rule="evenodd" d="M51.8969 25.8131C51.8824 25.8341 51.8681 25.855 51.8536 25.8759C51.8648 26.2837 51.8823 26.2821 51.8928 26.6904C51.8986 26.9182 51.8981 27.1431 51.8981 27.626C51.8981 27.9468 51.9367 28.039 51.7217 28.0406C51.2859 28.0439 51.2771 28.0405 51.2339 27.9904C51.2046 27.9563 51.2104 27.8752 51.2104 27.8598C51.2094 27.5792 51.2026 25.6624 51.2104 24.3518C51.2114 24.178 51.2561 24.1716 51.4292 24.1715C51.8858 24.1713 51.9552 24.1664 52.0014 24.1965C52.082 24.249 52.0496 24.2735 52.213 25.1659C52.3284 25.7956 52.3655 26.3524 52.3872 26.3849C52.3948 26.3963 52.4674 26.4063 52.4801 26.3965C52.5008 26.3807 52.4973 26.24 52.4969 26.2263C52.4862 25.8017 52.4564 25.8028 52.4562 24.8193C52.4561 24.2551 52.428 24.1775 52.5984 24.1718C53.0567 24.1566 53.0762 24.1733 53.1071 24.1999C53.1435 24.2311 53.145 24.3386 53.1452 24.3511C53.1453 24.359 53.1452 27.8584 53.1452 27.8601C53.1442 28.0222 53.1126 28.0403 52.9496 28.0406C52.3953 28.0419 52.3336 28.0607 52.2976 27.9207C52.2936 27.9053 52.1429 27.063 52.1295 26.983C52.0151 26.2963 52.0141 26.0565 51.9771 25.9152C51.9444 25.7904 51.9485 25.7841 51.9358 25.7837C51.9195 25.7832 51.9131 25.8136 51.8969 25.8131Z" fill="#FCEF00"/>
<path fill-rule="evenodd" clip-rule="evenodd" d="M43.7749 9.23848C43.7563 9.23386 43.4299 9.15995 43.2503 9.07259C42.4073 8.66269 42.7598 7.96804 41.7694 7.11206C41.7546 7.09919 41.5721 6.94149 41.6742 6.88612C41.7245 6.85881 41.7526 6.89629 42.3028 7.22427C42.7031 7.46289 43.36 7.88898 43.5471 8.01751C43.5803 8.04031 43.8136 8.20064 43.9634 8.30022C45.0683 9.03487 46.6835 10.2874 47.03 10.5669C47.4671 10.9193 47.7276 11.1264 47.931 11.2974C49.4799 12.5988 49.4809 12.598 49.4838 12.6043C49.5272 12.6982 49.4488 12.7045 49.44 12.7052C49.4093 12.7077 49.3798 12.7101 49.1069 12.5131C48.6668 12.1954 47.9777 11.7397 47.9296 11.706C47.4974 11.4034 47.4858 11.422 47.053 11.1204C46.9775 11.0678 46.4227 10.7045 46.3902 10.6825C46.1836 10.5427 45.0941 9.85677 44.923 9.75748C44.032 9.24029 43.9585 9.27631 43.7749 9.23848Z" fill="#FCEF00"/>
<path fill-rule="evenodd" clip-rule="evenodd" d="M31.4318 27.4867C31.3922 27.4888 31.3526 27.4856 31.3131 27.4877C31.149 27.4965 31.1599 27.653 31.1304 27.8568C31.1265 27.8843 31.1217 27.9533 31.0948 27.985C31.0391 28.0508 30.9823 28.0392 30.613 28.0391C30.3896 28.0391 30.4333 27.945 30.4598 27.8036C30.5646 27.2455 31.0747 24.3027 31.1039 24.2443C31.1469 24.1583 31.2889 24.1722 31.5487 24.1734C31.5661 24.1735 31.7278 24.1742 31.7643 24.2011C31.8306 24.25 31.8854 24.7175 31.9805 25.223C32.0127 25.3942 32.4291 27.733 32.4404 27.7972C32.4666 27.9467 32.507 28.0384 32.309 28.0392C31.8954 28.0411 31.8113 28.0574 31.7804 27.9171C31.7604 27.8267 31.7541 27.541 31.6678 27.5032C31.6352 27.4891 31.4506 27.4869 31.4318 27.4867Z" fill="#FBEE00"/>
<path fill-rule="evenodd" clip-rule="evenodd" d="M42.9507 27.4856C42.8093 27.4882 42.8049 27.4645 42.7169 27.5065C42.604 27.5602 42.6648 27.9679 42.5372 28.0232C42.5031 28.0379 42.4907 28.0433 42.0733 28.0381C42.0604 28.038 41.9501 28.0366 41.9267 27.9683C41.9187 27.9451 41.9736 27.6543 41.9788 27.6271C42.0466 27.2677 42.0497 27.2324 42.0735 27.097C42.4896 24.7267 42.4992 24.7291 42.5335 24.5228C42.5795 24.2453 42.5771 24.1743 42.7752 24.1725C43.2291 24.1684 43.2282 24.1867 43.2352 24.1901C43.3218 24.2324 43.2884 24.2624 43.4376 25.0471C43.4487 25.1054 43.7451 26.762 43.762 26.8644C43.8196 27.213 43.9631 27.9058 43.9454 27.9743C43.9258 28.0505 43.8134 28.0397 43.4769 28.0378C43.2293 28.0364 43.2737 27.9285 43.2265 27.6263C43.1978 27.4429 43.0212 27.4883 42.9507 27.4856Z" fill="#FBEE00"/>
<path fill-rule="evenodd" clip-rule="evenodd" d="M38.9747 24.166C39.1756 24.1743 39.3377 24.1821 39.5581 24.2948C39.9653 24.5031 39.9201 25.065 39.9197 25.1114C39.918 25.3001 39.8319 25.2921 39.5644 25.3645C39.3639 25.4188 39.2393 25.4819 39.2317 25.2861C39.2235 25.0782 39.2995 24.7494 38.9736 24.7218C38.6997 24.6985 38.6787 24.9617 38.6762 24.9938C38.6424 25.4171 38.7567 25.5374 39.025 25.7642C39.3743 26.0596 39.9122 26.2569 39.9194 26.9822C39.9222 27.2604 39.9702 27.8049 39.3849 27.9796C39.2749 28.0124 38.1996 28.2377 38.0167 27.4552C37.9967 27.3695 37.9391 27.009 38.0436 26.9305C38.0823 26.9014 38.2611 26.8613 38.4489 26.8092C38.542 26.7834 38.5445 26.7529 38.6322 26.7938C38.769 26.8578 38.503 27.425 38.913 27.4776C38.9228 27.4788 39.1718 27.5191 39.221 27.2772C39.2339 27.2136 39.2398 26.9597 39.2165 26.8634C39.1317 26.5131 38.5576 26.2564 38.2894 25.9728C38.036 25.7047 37.9579 25.4314 37.9895 24.9363C38.0355 24.2167 38.6279 24.1726 38.9747 24.166Z" fill="#FBEE00"/>
<path fill-rule="evenodd" clip-rule="evenodd" d="M33.9427 28.0164C32.5424 28.191 32.6798 27.2724 32.6798 26.8067C32.6798 24.8328 32.6706 24.8263 32.7411 24.6521C33.0015 24.0082 34.0425 24.1197 34.3439 24.3656C34.6055 24.579 34.6126 24.8749 34.6115 25.1113C34.6104 25.3263 34.4998 25.3052 34.246 25.3736C34.0348 25.4306 33.9265 25.5062 33.9251 25.2872C33.9237 25.0762 33.9805 24.7372 33.6541 24.7324C33.3175 24.7273 33.3674 25.0596 33.3674 25.3449C33.3674 27.2624 33.3644 27.265 33.3879 27.3241C33.4025 27.3609 33.4435 27.4595 33.5982 27.4847C33.9027 27.5345 33.9213 27.2485 33.9235 27.2148C33.9268 27.1628 33.8997 26.9719 34.0043 26.9234C34.0481 26.9032 34.2006 26.8679 34.4141 26.8083C34.6701 26.737 34.6128 26.8921 34.6115 27.1576C34.608 27.8581 34.2365 27.941 33.9427 28.0164Z" fill="#FBEE00"/>
<path fill-rule="evenodd" clip-rule="evenodd" d="M41.7226 24.7348C41.7035 24.7347 41.4983 24.7347 41.4831 24.7377C41.4138 24.7511 41.411 24.7565 41.3857 24.8231C41.3803 24.8373 41.381 24.838 41.381 26.6911C41.381 27.9629 41.3862 27.9725 41.3475 28.0098C41.3157 28.0405 41.2088 28.0412 41.1964 28.0413C40.8081 28.044 40.7412 28.0448 40.7139 27.9865C40.6903 27.9363 40.6933 27.9335 40.6933 26.4573C40.6933 24.8159 40.6977 24.8076 40.6622 24.7693C40.6014 24.7042 40.2816 24.7411 40.1979 24.7288C40.0925 24.7134 40.0786 24.6721 40.0297 24.3519C40.0276 24.3381 40.0085 24.2123 40.0887 24.1877C40.1085 24.1816 40.2471 24.1817 40.2608 24.1817C40.6919 24.1819 41.947 24.1812 41.9559 24.1821C42.0934 24.1963 42.0604 24.3079 42.0103 24.5852C41.9765 24.7715 41.9114 24.7259 41.7226 24.7348Z" fill="#F9ED00"/>
<path fill-rule="evenodd" clip-rule="evenodd" d="M47.0439 27.4889C47.1768 27.4888 47.3438 27.4775 47.3815 27.5207C47.4025 27.5448 47.4311 27.5775 47.348 27.9192C47.312 28.067 47.1642 28.0384 46.9854 28.0384C46.0513 28.0384 46.0225 28.0498 45.994 27.9735C45.9798 27.9356 45.9814 27.9343 45.9814 24.9925C45.9814 24.279 45.9671 24.2137 46.053 24.1829C46.1027 24.1651 46.5597 24.1734 46.5756 24.1767C46.5873 24.1791 46.6567 24.1932 46.6697 24.2931C46.672 24.3104 46.6702 27.2961 46.6709 27.3322C46.6727 27.431 46.6636 27.4504 46.7566 27.4846C46.7672 27.4886 47.0209 27.4888 47.0439 27.4889Z" fill="#FAED00"/>
<path fill-rule="evenodd" clip-rule="evenodd" d="M45.2895 27.4892C45.5537 27.4892 45.6977 27.4699 45.7183 27.5589C45.725 27.5878 45.701 27.7264 45.6985 27.7409C45.6728 27.8891 45.678 28.0234 45.5238 28.0374C45.4013 28.0486 44.555 28.0396 44.4708 28.0386C44.2849 28.0366 44.2977 27.961 44.2977 27.7994C44.2974 24.2701 44.2979 24.2694 44.3108 24.2391C44.3354 24.1812 44.3525 24.1671 44.8217 24.1732C44.8352 24.1734 44.9506 24.1749 44.9751 24.2415C44.9879 24.2761 44.9864 24.2774 44.9864 26.8054C44.9864 27.4034 44.9752 27.4192 45.0422 27.4699C45.0783 27.4972 45.2133 27.489 45.2895 27.4892Z" fill="#FBEE00"/>
<path fill-rule="evenodd" clip-rule="evenodd" d="M29.9113 27.4921C29.9303 27.492 30.1389 27.4919 30.1486 27.4934C30.2541 27.5106 30.2404 27.6121 30.2387 27.6247C30.2355 27.6481 30.2152 27.7983 30.1847 27.9149C30.1473 28.0572 30.0552 28.0416 29.9113 28.0416C28.911 28.0417 28.9072 28.0446 28.8686 28.0206C28.8012 27.9789 28.8169 27.8359 28.8169 27.6854C28.8169 24.3161 28.8168 24.3161 28.8181 24.2958C28.8243 24.1968 28.9057 24.1817 28.9178 24.1794C28.9492 24.1737 29.3763 24.1762 29.3851 24.1772C29.3948 24.1782 29.4657 24.1856 29.49 24.2412C29.5061 24.2779 29.5042 24.2798 29.5042 26.6329C29.5042 27.4077 29.496 27.4197 29.5488 27.4661C29.5876 27.5002 29.6732 27.4922 29.9113 27.4921Z" fill="#FAEE00"/>
<path fill-rule="evenodd" clip-rule="evenodd" d="M47.921 24.1698C48.077 24.1698 48.2533 24.1526 48.286 24.2233C48.3118 24.2789 48.3084 24.2818 48.3084 25.6362C48.3084 27.9112 48.3085 27.9108 48.3078 27.915C48.2906 28.0213 48.2376 28.0368 48.1551 28.0388C47.7069 28.0497 47.6877 28.0316 47.6587 28.0044C47.6042 27.9533 47.6242 27.9213 47.6201 27.4489C47.6194 27.3536 47.6194 27.3541 47.6194 24.4083C47.6194 24.3916 47.6194 24.2349 47.6532 24.2018C47.6978 24.1583 47.8838 24.17 47.921 24.1698Z" fill="#F9ED00"/>
<path fill-rule="evenodd" clip-rule="evenodd" d="M35.673 25.9534C35.6709 25.9647 35.6585 25.9724 35.6565 25.9837C35.653 26.0024 35.6599 26.022 35.6568 26.0408C35.6533 26.0631 35.6374 26.083 35.6369 26.1056C35.6366 26.1199 35.6531 26.118 35.6562 26.2837C35.6716 26.4964 35.6999 26.4954 35.6939 27.8595C35.6939 27.8704 35.7005 27.9574 35.6661 27.9963C35.6157 28.0534 35.5261 28.0403 35.2909 28.0403C35.0853 28.0402 35.01 28.0642 35.0091 27.8594C35.0079 27.5788 34.9997 25.7546 35.0091 24.3513C35.0105 24.1352 35.1227 24.1746 35.4078 24.1748C35.4893 24.1748 35.6135 24.1602 35.6621 24.2152C35.6946 24.2519 35.695 24.258 35.6938 25.1698C35.693 25.8022 35.6466 25.8638 35.6566 25.9272C35.6581 25.9374 35.6713 25.9432 35.673 25.9534Z" fill="#FAED00"/>
<path fill-rule="evenodd" clip-rule="evenodd" d="M35.7647 25.9928C35.7669 25.9869 35.7927 25.9177 35.7927 25.9177C35.7941 25.91 35.7842 25.903 35.7857 25.8952C35.788 25.8837 35.8001 25.8758 35.8032 25.8645C35.8053 25.8568 35.8381 25.6285 35.9506 25.2315C36.2096 24.3173 36.1983 24.3123 36.2421 24.2424C36.2967 24.1551 36.4267 24.1741 36.7527 24.1727C36.9011 24.1722 36.9285 24.2127 36.8808 24.3529C36.8618 24.4087 36.4184 25.7955 36.3783 25.921C36.3062 26.1464 36.3301 26.1541 36.4476 26.5173C36.4837 26.6288 36.8833 27.8634 36.895 27.9128C36.9173 28.0068 36.908 28.0319 36.8121 28.0392C36.6826 28.0491 36.4344 28.0395 36.4016 28.0383C36.2306 28.0317 36.2356 27.9827 36.13 27.6182C35.7931 26.4548 35.8338 26.4443 35.8012 26.3442C35.7976 26.3333 35.7876 26.3251 35.784 26.3141C35.7815 26.3065 35.7824 26.3069 35.7621 26.2174C35.7646 26.2004 35.7504 26.1838 35.7528 26.1668C35.7561 26.1451 35.7786 26.128 35.7785 26.1059C35.7784 26.069 35.7568 26.0761 35.7524 26.04C35.7493 26.0149 35.7678 26.018 35.7647 25.9928Z" fill="#FAEE00"/>
<path fill-rule="evenodd" clip-rule="evenodd" d="M49.9684 19.8284C50.1295 19.8458 50.308 19.8641 50.5184 20.0558C51.1846 20.6629 50.5993 21.7458 49.734 21.5431C48.8557 21.3374 48.8372 20.0701 49.7344 19.8523C49.8581 19.8222 49.9475 19.829 49.9684 19.8284Z" fill="#FEF21D"/>
<path fill-rule="evenodd" clip-rule="evenodd" d="M49.8471 21.3908C49.6246 21.3449 49.4856 21.3108 49.3379 21.0655C49.0964 20.6643 49.3379 20.2441 49.4979 20.136C50.1298 19.7089 50.7877 20.314 50.6037 20.8963C50.4811 21.2845 50.2118 21.3462 50.1428 21.3659C49.9821 21.412 49.8868 21.3932 49.8471 21.3908Z" fill="#FEFEF8"/>
<path fill-rule="evenodd" clip-rule="evenodd" d="M49.7903 27.4869C49.5556 27.4739 49.4829 27.4315 49.4822 27.0999C49.4818 26.9314 49.4775 25.0875 49.4849 24.9936C49.5143 24.6217 49.9101 24.7173 49.9741 24.8137C50.0456 24.9214 50.0363 24.9307 50.0363 26.1058C50.0363 27.3222 50.0501 27.3458 49.9494 27.4292C49.9 27.4702 49.8942 27.4583 49.7903 27.4869Z" fill="#010100"/>
<path fill-rule="evenodd" clip-rule="evenodd" d="M27.3382 24.7258C27.5488 24.7464 27.6711 24.7436 27.6722 25.1122C27.6737 25.6544 27.7231 25.8463 27.2792 25.8371C27.0928 25.8332 27.1155 25.7655 27.1153 25.5799C27.1143 24.7943 27.1116 24.7799 27.1574 24.7544C27.2396 24.7085 27.2447 24.7307 27.3382 24.7258Z" fill="#070700"/>
<path fill-rule="evenodd" clip-rule="evenodd" d="M27.3384 27.4896C27.2052 27.4881 27.1176 27.5036 27.1154 27.3321C27.104 26.4599 27.1043 26.4432 27.1663 26.4018C27.1968 26.3816 27.5451 26.3284 27.6332 26.5125C27.6555 26.5591 27.6809 26.6122 27.672 27.1567C27.6667 27.4764 27.5148 27.4804 27.3384 27.4896Z" fill="#070700"/>
<path fill-rule="evenodd" clip-rule="evenodd" d="M49.549 20.7243C49.5429 20.5423 49.5433 20.5092 49.5435 20.4904C49.5466 20.2154 49.635 20.2256 49.9096 20.2331C50.3552 20.2452 50.3125 20.5744 50.1782 20.7024C50.0913 20.7852 50.1106 20.8076 50.1839 20.9116C50.3119 21.0928 50.3008 21.1148 50.2919 21.1324C50.288 21.14 50.2736 21.1334 50.2673 21.139C50.2597 21.1456 50.2623 21.161 50.2535 21.1659C50.1676 21.2141 50.0921 21.0885 50.0842 21.0754C50.0738 21.0581 49.9811 20.9037 49.947 20.8645C49.8849 20.7932 49.775 20.7964 49.7542 20.8097C49.6826 20.8553 49.7792 21.2303 49.6109 21.155C49.515 21.112 49.5449 20.8933 49.549 20.7243Z" fill="#FEF21C"/>
<path fill-rule="evenodd" clip-rule="evenodd" d="M42.9042 25.7109C42.9358 25.7134 42.9235 25.7393 42.9556 25.7418C43.0029 25.7454 42.9806 25.7157 42.9832 25.7171C42.9988 25.7249 43.0077 25.8603 43.0086 25.8729C43.0656 26.7387 43.1068 26.734 43.1115 26.8092C43.1157 26.8764 43.1209 26.8838 43.0673 26.9247C43.0526 26.9358 42.7983 26.9795 42.7707 26.8681C42.7638 26.8402 42.7824 26.7066 42.7844 26.6926C42.8331 26.3441 42.8366 26.3457 42.8615 25.9944C42.8717 25.8506 42.8642 25.8499 42.9042 25.7109Z" fill="#171600"/>
<path fill-rule="evenodd" clip-rule="evenodd" d="M31.4312 26.9388C31.3382 26.9215 31.3109 26.95 31.2786 26.8612C31.2762 26.8546 31.2746 26.8541 31.313 26.5726C31.3643 26.1957 31.3537 26.1958 31.3852 25.8167C31.389 25.7705 31.3888 25.7688 31.422 25.7369C31.4484 25.7115 31.4468 25.6922 31.4794 25.7101C31.5145 25.7295 31.5252 25.9159 31.5263 25.9342C31.5634 26.5822 31.604 26.5774 31.6216 26.8062C31.6225 26.8177 31.6297 26.9114 31.5517 26.9332C31.5517 26.9332 31.4408 26.9384 31.4312 26.9388Z" fill="#191800"/>
<path fill-rule="evenodd" clip-rule="evenodd" d="M49.9062 20.6429C49.7571 20.6376 49.7054 20.6398 49.7212 20.4912C49.7317 20.3923 49.7955 20.3855 49.9078 20.3927C50.1542 20.4087 50.1138 20.5899 49.9735 20.6313C49.9517 20.6377 49.928 20.6365 49.9062 20.6429Z" fill="#FEFEF6"/>
<path fill-rule="evenodd" clip-rule="evenodd" d="M35.6728 25.9531C35.7034 25.9668 35.734 25.9804 35.7646 25.9941C35.7677 26.0193 35.7492 26.0161 35.7523 26.0412C35.7567 26.0773 35.7783 26.0702 35.7784 26.1071C35.7785 26.1292 35.7559 26.1463 35.7527 26.1681C35.7503 26.185 35.7645 26.2016 35.762 26.2186C35.7554 26.2215 35.7167 26.2046 35.6756 26.2567C35.665 26.27 35.6665 26.2702 35.656 26.2834C35.6529 26.1177 35.6364 26.1197 35.6367 26.1053C35.6372 26.0828 35.6531 26.0629 35.6567 26.0405C35.6597 26.0218 35.6529 26.0022 35.6563 25.9835C35.6584 25.9722 35.6707 25.9645 35.6728 25.9531Z" fill="#CDC300"/>
</svg>
