<?xml version="1.0" encoding="UTF-8"?>
<svg id="Capa_1" xmlns="http://www.w3.org/2000/svg" version="1.1" xmlns:serif="http://www.serif.com/" xmlns:xlink="http://www.w3.org/1999/xlink" viewBox="0 0 807.9 854">
  <!-- Generator: Adobe Illustrator 29.2.1, SVG Export Plug-In . SVG Version: 2.1.0 Build 116)  -->
  <defs>
    <style>
      .st0 {
        fill: #c12134;
        fill-rule: evenodd;
      }
    </style>
  </defs>
  <path class="st0" d="M359.6,710.5c-.4,0-.7.2-1.1.2-1.2,0-1.1-.3-1.3-1.5-2.1-11.8-3.6-23-2.9-32,.7-9.1,2.7-13.1,3.1-14.5,3.7-10.6,6.4-10.3,13.9-22.2,9.1-14.3,7-22.1,8.1-22.8.3-.2.7.2,1.1.2.4,0,.8-.4,1.1-.2,0,0,5,11.1,6.1,15.7,4.6,20.6-3.5,27.7-15.6,45.5-3.4,5-9.3,17-10.1,18.9-2.4,6-1.7,6.2-2.4,12.6h0ZM467.2,545.8c0,48.6.2,48.7-.2,49.8-.7,1.9-2.2,1.6-16.5,1.6-7.1,0-9.3.7-9.3-4.7,0-5,0-36,0-45.3,0-5.1,0-47,0-51.1.1-37.5-.4-37.9.9-38.9,1.3-1,1.4-.8,20-.7.3,0,3.2,0,4,.6,1.3.9,1.1,1.3,1.1,30.2v58.4c0,0,0,0,0,0ZM329.3,597.2c-2-.3-2.3.3-3.5-1.3-.9-1.2-.6-5-.6-7.8,0-2.3,0-127.1,0-128.4,0-.3.1-2.8,2.6-3.1.7-.1,17.5,0,19,0,4.7,0,4.7,1.4,4.6,6.1-.1,16.7,0,114,0,119.7,0,12.5.4,13.9-1.6,14.6-1.7.6-18.8.3-20.5.2h0ZM507.2,716.2c-.4-.1-.8.2-1.2,0-.8-.2-14.7-9.9-16.3-11-.4-.3-6.1-3.8-9.7-6.5-22.1-16.7-27.5-25.2-31.5-31.4-.8-1.2-5.7-10.3-6.9-13.4-3.7-9.3-5-16.2-5.2-17.7-.7-3.8-1.7-5.1-2-20.4-.1-5-.5-6.8,4.5-6.8,2.6,0,30.4-.3,32,.1,5.2,1.2,4.5,8.1,21.7,16.2,12.4,5.8,38.6,3.5,33.8,27-1.6,8.1-2.7,7.8-3.3,13-.4,3.7-1.1,6.9-1.3,6.9-.5,0-.7-.6-1.1-.8-.3-.2-.8,0-.9-.4-.5-1.4.5-20.5-23.9-23.9-1.9-.3-12.1-.7-17.1,4.1-9.4,9,2.9,30.5,9,40.1,6.7,10.7,14.3,17.8,15.7,19.2.8.7.7.8,1.5,1.5,1.8,1.6,1.6,1.8,2.4,4.1h0ZM257.3,646.6c.1-6.5.8-16.5,22.5-18.7,22-2.2,32-17.2,34.8-18.2.8-.3.8-.6,23.5-.5,11.5,0,14.1-.9,13.8,3.9-.8,13.3-1,13.2-3.7,26.2-1,4.6-6.8,18.4-8.2,20.7q-4.3,7.2-4.4,7.3c-9.9,14.9-25,24.5-27.7,26.6-2.2,1.7-5.6,4.3-29.6,18.6-2.1,1.3-2.5,2.7-4.1.8-1.1-1.3-.3-1.5,1-2.5.3-.3.3-.2,4-3.2,10.1-8.4,21.3-26.3,22.5-28.7,2.7-5.7,7.9-15,5.6-23.4-3-11-25.2-11.8-35.3-3.4-9.1,7.6-8.3,15.3-8.9,16.2-.2.3-.7.2-.9.4-.2.2,0,.7-.3.7-1.4-.1-1.5-2.3-2-6.7-.9-8.1-2.3-7.8-2.7-15.9h0ZM383.1,821.5c-1.9-.2-2,0-2.1-.2-.1-.1-.6-2.2-.6-2.4-.4-1.6-1.3-2.5-2.5-6.1-2.9-8.1-3.5-7.8-6.4-15.8-5.4-15-6.6-22.9-6.9-24.9-3-19.6-2.2-19.7-.5-33.6,2.7-22.5,20.3-46.1,29.2-60,1.5-2.3,9.5-14.9,12.4-31.8,3.7-21.7,2.6-25.7,3.1-26,.3-.2.6.4.9.4.3,0,.7-.4,1-.2.2.1,1.8,7.2,3.9,12.5,2.9,7.2,2.7,7.3,5.2,16.3.7,2.4,3.9,13.8,2.9,30.6,0,1.2-.4,6.8-2.3,14.7-4.3,17.6-18.2,31.5-29,51.3-2.7,4.9-7.3,20.1-8.1,27.4-1.1,9.5-1.1,10.8-1.2,11.7-1.8,28,1.2,32.3,1.3,33.6.3,1.9-.1,2.3-.2,2.7h0ZM370.2,457.2q8.4,0,40.9,0c20.8,0,21.1-.1,22.1,1,.6.6.7.8.6,10.3-.1,9.7.7,11.6-3.7,11.7-1.6,0-33.6,0-36.5,0-4.9,0-6.8-.6-6.7,4.3,0,7.5,0,23.8,0,24.8.3,4.6,2.2,3.5,6.8,3.6,9.5.3,29.3,0,33.6.1,4.6.2,3.8,1.9,3.8,6.5,0,3.7.4,13.6-.8,14.7-1.1,1.2-1.4,1-25,1-16.2,0-16.5-.3-18,1.5-.9,1.1-.5,1.2-.5,12-.1,36.9.4,44.7-.5,46.7-.8,1.9-5.4,1.5-7.3,1.5-16,0-16.1.2-17.3-.5-1.8-1-1.3-5.1-1.3-9.8.2-115.5-.2-115.5,0-125.5,0-4.8,2.1-4.1,9.8-4h0ZM600.2,493.3c0,17.6-.5,18.6,2,19.4,1.7.6,8.2.3,8.9.2,3.3-.2,25.5,0,27.7,0,2.3,0,3.5.6,3.6,3.7,0,1.3.4,14-.2,16.2-.8,3.3-2.4,1.7-25.3,2.1-14.9.3-15.1,0-16,.8-1.4,1.2-.7,3.7-.9,11.6-.2,7.4,0,20.1,0,21.9,0,5.5,2.8,4.5,9.6,4.5,3,0,33.4,0,33.6,0,4.8.2,3.4,2.5,3.7,14.5.1,6,.5,9-3.7,9.1,0,0-55.1,0-59.9,0-4.6,0-8.4.5-9-1.7-.8-2.8-.1-24.4-.5-62.9-.1-11.8.3-35.5,0-58.4,0-6.6,0-6.6,0-13.1,0-3.3,1.7-4,3.7-4,1,0,65.1,0,65.6,0,2.5.7,2.1,1.3,2.3,3.9.3,6.3,0,6.6,0,16.1,0,3.4-2,3.5-3.7,3.6-12.1.3-25.5,0-27.8,0-5.1,0-5.1.1-10.2,0-3.5,0-3.6,1.4-3.7,6.7,0,.5,0,1.7,0,5.8h0ZM297.2,522.5l-.3,1.5c.3.4-1.1.8-.8,1.1.5.6,16.6,2.8,16.7,28.1,0,21.2-.9,32.7,5.2,40.7,1.5,2,.4,3.3-1.7,3.4-.5,0-18.9,0-20.5,0-5.2,0-6.7.6-7.6-4.6-3.2-18.6.2-35-4.1-46.8-3.8-10.4-13.1-9.6-16.1-9.7-14.1-.8-15.7-.4-16.3.8-.9,1.8-.3,2.9-.4,52.7,0,2.3.6,6.9-2.3,7.5-.7.2-.7,0-16.1.2-.5,0-5,0-5.7-.6-1.1-1-1.1-1.2-1.2-14.4-.3-37,0-51.1-.3-116.8,0-2.3-.3-6.9,1.1-7.6,1.3-.7,1.4-.6,45.5-.6.5,0,33.2-3.1,39.5,24.3,1,4.2,2.5,23.3-4,32.5-4.4,6.2-8.5,7.5-10.7,8.4ZM274,515.7c1.2-.4,2.7-.4,6.2-2.8,2.1-1.5,2.2-1.5,3.5-3.8,2.5-4.3,2.8-10.7,2.8-11.4-.6-17.5-4.4-20.6-16.9-20.7-16-.2-16.1-.2-17.2.7-1.1.9-1.1,5-1.1,5.5.1,6.7,0,6.7,0,7.3.8,22.5-1.9,25.6,3.7,25.8,9.6.2,9.5.3,19-.5h0ZM546.8,523.9l.2,1.3c12,3.8,16.5,14.7,16,30.8-1,33,4,35.3,5.6,38.1.1.2,1,1.8.2,2.7-.4.4-4,.4-4.3.4-22.7-.2-23,.4-24.4-.8-3.7-3.3-2.5-34.1-3-38.9-2.1-19.7-10-21-17.9-21.4-15-.8-15.5-.3-16.4.7-1.1,1.1-.6,1.4-.6,42.7,0,15.3.6,17.1-1.9,17.7-.5.1-4.1.1-4.4.1-17.7,0-18.4.2-19.1-1.8-.5-1.6-.3-124.8-.6-132.8-.1-3.9-.3-5,3.6-5.3,0,0,46,0,46.7,0,1.9,0,15.3.2,23.1,5.7,9.8,6.9,11.2,13.3,12,15.7,2.3,7.3,2.2,24.7-1.3,32.2-2.8,5.9-6.5,8.4-7.3,8.9-5.9,3.9-6.7,2.8-6.8,3.3,0,.4.8.5.7.8h0ZM537,497.7c-.3-22.3-8.5-20.8-20.8-20.7-10.6,0-14.1-.9-14.3,3.2,0,.9,0,27.8,0,29.2,0,4.9-.7,6.8,4.2,6.9,20.4.3,20.4-.8,24.9-3.9,5.2-3.6,6-13.4,6.1-14.6h0ZM183.3,457.4c24.8,2.7,30.2,19.4,33.8,35.8.1.5,2.2,14.1,2.2,27.8.1,24.1,1.4,51.1-15.9,66.7-12.2,11-29.9,9.6-36.1,9.5-35.1,0-35.2.2-36.3-.6-1-.8-.8-1.1-.8-21.6,0-104.7-.2-104.7-.2-113.9,0-4.8,1.8-4.1,6.6-4.1,18.9.2,34.3-.3,46.7.3h0ZM189.7,556.1c.6-5.5.6-5.5.6-6,.4-3,1.2-8.2.8-37.9-.1-10.1-1.9-20.1-2-20.4-2.9-11.4-7.2-12.9-11.7-14.2-4.7-1.4-19.6-.6-20.3-.4-1.8.7-1.7,3.1-1.7,13.1.1,83-.2,83.1.5,84.5.8,1.5,2.4,1.5,14.3,1.4,14.5-.1,17.1-10,19.5-20.1h0ZM582,409.9c3.9,1.2,17.4,4.8,29.2,14.5,1.8,1.5,5.7,4.7,11.9,14.6,1.9,2.9,5.1,7.8-.4,7.8-14,0-174.4,0-175.2-.1-.3,0-2.9-.3-2.8-3.1,0-1.5,7.4-38.2-19.4-62.3-2.9-2.6-8.9-6.8-13.3-8.5-.4-.1-.8-.2-1.2-.3-.8-.3-1.6-.4-2.4-.8-.3-.2-.5-.6-.8-.8-.2-.2-.8,0-.8-.3.2-1.9.8-1.8,2.7-1.6,3.7.3,4.6,1.3,14.7,2.7,4,.6,23.1,5,32.3,10.3.5.3,12,5.5,19.2,14.7,5.5,7.1,10.4,22.3,8.4,35.4-.4,2.8-.5,2.8-.4,3.1.1,1.4.4,1.6,1.8,1.3,1.6-.3,1.5-5.1,4.7-10,4.4-6.8,4.6-6.7,7.6-9.9,4.6-4.9,6.7-5.9,10-16.5,3-9.7,2.4-38.4-.6-54.1-.5-2.9-.5-5.2-1.8-11.6-1.6-7.7-2-12.5-4-20.5-.4-1.4-.1-1.4-4.1-17.6-1.9-7.7-2.3-7.5-4.6-17.5-1.2-5.4-8.8-24.9-4.3-43.8.2-1,.9-4,4.4-11.7,9.9-21.8,31.9-35.8,36-38.7,10.8-7.6,11-7.3,22.2-14.2,10.6-6.6,10.8-6.2,14.6-8.7,4-2.7,19.3-10.3,60.2-38.9,29.2-20.4,51.3-41.4,55.4-45.4,1.7-1.6,16.2-15.5,21.2-21,1.5-1.7,15.5-17.3,18.2-21.3,1.4-2.2,1.9-1.4,2.7-1.3.3,0,.8-.3,1,0,.2.3-3.7,11.6-5.5,18.7-1.8,7.2-2.3,7.1-7.3,21.9-3.2,9.5-14,34.5-20.7,45-2,3.1-1.6,3.3-6.5,10.7-1,1.5-10.7,17.9-31.1,40.5,0,0-1.7,2.3-10.5,11.4-22.1,22.8-28.5,28-31.2,30.2-3.7,2.9-3.5,3.1-7.2,5.9-8.3,6.3-8.1,6.5-16.8,12.2-1.5,1-1.5.9-12.3,6.9-1.8,1-3.5,1.6-4.8,2.3-1.8,1-2.2,1.1-1.9,3.2.1.9.7.4,10.4-3.8,3.9-1.7,3.8-1.9,8.9-3.8,3.6-1.3,16.4-3.8,24.8-3.9,15.6-.2,18.4.4,29.2,2.3,19.6,3.5,44.3,15.4,52.3,20.8.7.5,8.3,5,15.9,10.4.8.6.8.5,1.7,1.2.9.6.8.7,1.8,1.1,1,.5,1.1.5,1.2,1.6.2,2.5-1.4,1.2-8.6.9-20.5-.9-34,1.5-51.1,6.5-4.8,1.4-4.6,1.9-11.6,4.6-9.1,3.6-28.2,15.7-41.8,32.3-3.7,4.5-3.6,4.6-8.2,11-3.2,4.4-8.7,15.2-9.4,16.5-7.4,14.5-11.7,30.6-12.9,33.3-.8,1.9-1.8,2.3-.2,3.6,1.9,1.7,3.4-5.2,9.2-12.7,2.3-3,14-15.9,25.1-21.8,5.4-2.9,5.1-3.6,19.1-8.4,4.5-1.5,12.2-2.8,21.8-4.8,3.3-.7,23.8-2.6,30.6-3.6.5,0,1-.2,1.4-.1.2,0,.3.4.5.5,1.4.7,2.3.1,2.2,1.7,0,.2-2.1.5-2.3.6-.4,0-.8,0-1.2.2-.3.1-.5.5-.8.6-.9.4-1.1-.4-11.4,3.6-3.3,1.3-47.5,20.9-39.4,39.2,2.9,6.6,21.9,19.6,39,6.8,1.8-1.3,1.6-1.4,3.5-3.5.3-.3.7-.5,1-.9.2-.2.1-.6.3-.8.3-.3,2.5-1.4,2.6-1.4,1.2.4-.3,3.7-.5,4-4.5,9.9-1.3,23.7-16.9,28-11.1,3-23.2-2.6-37.9-3.6-18-1.3-27.1,3.3-32.5,5.9-.7.3-1.6.4-2.1.9,0,0,.1,0,0,1.1,0,.6-.2.6-.3,1.2h0ZM571.5,272.7c-6.5,5.9-5.8,6.6-12.4,12.5-4.7,4.2-4.6,4.5-12.6,9.1-3.5,2-8,3.3-8.1,3.6-.5.8,0,.8.7,1.4.3.2.3.6.6.8.4.2,8.7,2.2,11.4,2.4,16.5,1.5,23-.5,37.6-15.4,5.8-6,6.2-7.3,16-14.8.3-.2.2-.3,3.2-2.6,7.2-5.7,13.3-7.1,14.6-7.4.4-.1.9,0,1.3-.3.3-.1.2-.6.5-.7.3-.2.8,0,1-.3.3-.4.6-2-5.4-1.6-16,1.2-27.7.4-42.5,8.9-3.2,1.8-3.1,2-5.9,4.4h0ZM322.1,249.4c1.1,2.9,1.5,7.6,6,13,8.1,9.8,15.2,10.5,33.3,12.5,20.5,2.2,46.2-3,64.3,5.1,7.1,3.2,9.8,13.2,19,14.1,16.7,1.7,32,2.1,40.5,13.9,1.8,2.5,2.9,5.4,2.8,5.6-.7,2.4-1.6.7-5.3-.4-3.7-1.1-19.3-3.7-24.7-1.7-6,2.2-14,9.1-23.6,6.7-.3,0-2.6-.7-3.2-.6-1.6.3-1,1.7-.9,1.8,0,.2.4.2.6.3.4.3.3.8,1.9,1.4,4.4,1.7,8,3.8,16.1,6,10.4,2.8,14.7,2.9,21.9,1.5l1.2,1.2c-.2.3.1.8,0,1.2-.4.7-3.6,1.5-11.1,5.1-4.2,2-13.3,4.5-14.9,4.8-3.4.6-8.1,2.1-27.6,2.3-3.1,0-8.9-.4-16.1,2.7-6,2.6-7.3,6.4-7.6,7.2-2,5.6-2.5,16.5,5.3,25.9,4.7,5.7,10.6,9.3,18,24,.9,1.8,11.9,21.2,11.1,39.2-.2,5.4-2.6,4.5-13.7,4.5-53.1,0-53.3.4-55-.8-1.4-1-8.8-16.2-7.2-31.4,1.2-11.4,3.8-16.5,4.5-17.9.1-.2,1.1-2.1,1.1-2.6,0-2.6-2.9-1.3-3.2-1.2-8.2,3.7-12.9,9.9-13.7,11-9.5,12.5-4.4,24.8,0,38.5,1.4,4.4-.7,4.4-5.3,4.4-1.4,0-139.6,0-169.3,0-13.5,0-16.5.3-17.3-.4-1.9-1.6,1.9-7,2.1-7.3,9.5-15.5,18.7-19.7,25.2-23.5,1.1-.6,11.9-6,17.6-6,1.1,0,1.3.4,1.9-.4,1.4-1.8-.4-2.8-.6-2.9-.5-.3-5-2.1-5.4-2.3-19-7.6-42.1-.9-47-.2-4.8.7-16.2,3.6-25.2-3.2-7.5-5.7-6.7-17.4-10-25.4-.2-.5-.5-.9-.7-1.4,2.3-.5,2.3-.6,2.5-.6.5,0,.6.8,1.1.9,1.8,2.2,2.8,4.4,10.6,8.2.5.3,8.3,3.7,17.5.6,11.4-3.9,22.8-13,11.3-26.4-12.1-14.1-36.8-25.1-44.9-26.7-.4,0-.9-.1-1.3-.3-.3,0-.5-.4-.7-.4-.3,0-.3,0-3.7-.7l.3-1.2c.3-.3-.5-.9-.2-1.2.4-.4.5-.2,17.3,1.5,14,1.3,13.9,1.6,27.7,4.2,28.8,5.4,43.7,19.5,54.2,31.7.5.6,2.3,2.7,5.4,7.7.9,1.4,1.1,1.3,1.7,2.8,0,.2.7,1.6,1.4,1.8,2.5.5,1.9-.9,1.2-3.3-.3-1-5.7-16.4-6.2-17.8-3.7-10.7-14.2-30.1-21.5-38.8-4-4.7-9.3-11.9-22.7-22.6-4.1-3.2-21.4-15.3-42.6-20-8.7-1.9-8.6-2.3-17.5-3.3-18.1-2.1-28.2-.4-30.6,0-.3-.3-.3-.2-.7-.5-.1-.1-.1-.1-1.7-1.7,3.2-1.6,15.2-11.4,31.4-19.6,1.4-.7,9.8-5.5,27.8-11.5,1.3-.4,5.6-1.9,16.1-3.8,4-.7,8.8-1.9,23.2-2.1,6.2,0,20.3,1.3,27.8,3.9,10.8,3.7,12.1,5.5,14.5,6.2.5.2,1.1.2,1.5.4.5.3.8.9,1.4,1.1.5.2,1.1,0,1.6.3.5.2.8,1,1.4.9,2.5-.3,1-2.2.9-2.3-.6-.7-1,0-1.6-.6-.1-.1.2-.4,0-.6-.2-.3-3.6-1.9-3.9-2-4.6-2.2-6.1-3.5-8.5-4.6-7.7-3.6-26-16.6-43.6-33.7-51.7-50.2-63.3-76.9-66.3-81.3-.3-.4-7-12.1-10-19.1-.3-.8-2.8-5.5-5.8-13.2-1.7-4.3-1.9-4.2-3.4-8.6-3.9-11.1-8.1-21.8-11.4-35.2-.7-2.9-2.9-7.8-2.4-8.8.8-1.6,1.4-1.2,2.7,0,.7.6.1,1,7.1,8.9,3.7,4.2,13.8,17.2,38.2,39.2,16.2,14.7,21,18.1,22.9,19.5.6.4.4.7,7.3,5.9.7.5.6.6,8.1,6.3,9.6,7.4,9.7,7.3,19.7,14.2.4.3,8.8,6.4,13.7,9.4,1.1.7,2.2,1.6,6,4,12.7,8,12.4,8.4,25.6,15.8.8.5,11.4,6.9,12.4,7.5.5.3,17,9.8,25.6,15.6,12.7,8.6,13,9.1,18.4,13.5,1.5,1.2,9.9,8.1,16.3,17.1,13.1,18,13,33,13.2,37.5.2,6.6-3.3,20.9-3.8,23.3-1.4,6.2-8.9,30.5-12,48.1-.3,1.6-7.5,31.7-7,62.8.5,31.6,10.5,30.8,18,42,2,2.9,2.6,6.1,4,6.3,3.5.4-.4-5.1-.3-11.8,0-4.8,2.4-15.7,6.6-21.6,16.1-22.8,23.8-29.7,25.6-35.4,5.1-16.1-10.3-13.8-18.5-6.8-1.1.9-1.3,1.3-2.4.4-.4-.3-1.6-1.3.6-6.7,3.5-8.6,13.9-15.5,24.1-24.1,2-1.7,2.1-1.6,3.6-3.7.5-.7,4.4-6.7-8.6-5.8-3.7.3-7,1.8-7.3,1.7-.2,0-1.8-1.4-1.8-1.6-.1-.7,2.9-9.9,10.5-14.7,0,0,5-3.6,10.2-5.8,1.9-.8,2.7-.6,2.5-2.7-.1-1.4-.7-1.1-2.1-2-.4-.2-.3-.3-4.2-3.2-1.5-1.1-8.4-7.6-11.1-13.8-3.6-8.3-2.1-13.7-.8-21.9.2-3.8.1-3.9.3-4.1.1-.2,1.5-.2,1.9.2.1.1,0,.2.5,2.3h0ZM399.3,293.4c.3.2.4.5.7.7,4.8,2.9,5.6,1.5,11.5,6,.4.3,3.4,2.6,6.5,0,.2-.2,0-.2,2.2-2.3.2-.2.6-.2.7-.5.1-.4,0-.8,0-1.2,0-.3.2-.7,0-1-.8-1.2-5.9,0-17.2-3-.3,0-3-.8-3.7,0-.3.4-.4.9-.8,1.2h0ZM240.2,296.5c-1.6-.5-1.6-.4-3.1-1.1-9-4.4-8.7-4.8-11.9-7.2-10.4-7.8-9.4-10.7-18.7-18-2.5-1.9-12.6-9.9-37.8-10.8-11.9-.4-12-1-12.9-.6-1.7.7-1.8,1.7,0,2.3,3.4,1.2,4,1.3,4.3,1.4,4.5,1.2,5.2,2,8.8,4.3,7.2,4.6,6.6,5.3,11.6,8.9,4.4,3.2,12.2,12.4,18.6,17.9,1.5,1.3,11,9.5,22.2,9,14.9-.7,19-2.8,20.5-3.5v-1.4c-.1,0-1.6-1.2-1.6-1.2h0ZM401,288.4c9.5,1.2,9.5.8,18.9,2.2,2,.3,2.6.4,2.7-1.6,0-.3-.6-.2-.9-.4,0,0-.6-.9-3.2-1.6-1.7-.4-25-3.7-26.5-2.6-.4.3-.9.8-.9,1.3,0,.3.5.2.8.4.2.2.3.6.6.7.6.3.6.3,8.5,1.5h0Z"/>
</svg>