<svg width="80" height="30" viewBox="0 0 80 30" fill="none" xmlns="http://www.w3.org/2000/svg">
<g clip-path="url(#clip0_456_3023)">
<path d="M76 14.2134V16.7742C74.9852 18.6767 73.0777 19.8517 71.2 20.7317V10.2559C73.0754 11.1312 75.024 12.2853 76 14.2134Z" fill="#E4001C"/>
<path d="M4 12.351L5.49029 11.279L7.37143 10.2559V20.7317C6.17371 20.1427 5.01429 19.4571 4 18.5783V12.351Z" fill="#E4001C"/>
<path d="M44.8457 5.03626C47.4297 4.81045 49.9183 5.59439 49.9423 8.65683C49.752 13.0928 50.1972 17.7505 49.9452 22.1608C49.8086 24.5493 48.692 25.7971 46.3137 25.9699C43.6092 26.166 41.8377 25.4467 41.6577 22.4489C41.3852 17.9117 41.8629 13.1027 41.6543 8.53694C41.7709 6.48019 42.7766 5.21668 44.8457 5.03626ZM45.3566 7.88453C44.8423 7.96659 44.5652 8.3833 44.5149 8.88963L44.512 22.0438C44.5914 22.9901 45.1772 23.1944 46.0303 23.1205C46.6017 23.071 47.0406 22.7725 47.0846 22.1573L47.0857 8.82969C46.9989 7.91945 46.1092 7.76348 45.356 7.88395L45.3566 7.88453Z" fill="#E4001C"/>
<path d="M51.9429 5.7168L54.6343 6.04388L57.7429 16.2508L57.5503 6.51063L57.66 6.43847C58.0937 6.55137 58.544 6.5828 58.9829 6.66486C59.184 6.70269 60.116 6.83364 60.1629 6.97623L60.1743 24.074L57.7149 24.5145L54.4571 13.5743L54.6846 24.9801L51.9423 25.2717V5.7168H51.9429Z" fill="#E4001C"/>
<path d="M24.2857 21.6342C24.4406 22.7528 26.5206 23.0665 26.7377 21.8618L26.7508 5.75397L26.8371 5.66726L29.4028 5.4234C29.5834 5.40711 29.616 5.52292 29.6028 5.6853C29.4034 10.9465 29.8583 16.398 29.6028 21.6377C29.4468 24.8433 27.6646 25.8141 24.6846 25.2443C23.044 24.9306 21.8148 24.2147 21.6068 22.3844L21.5966 6.33306L24.2857 5.95011V21.6348V21.6342Z" fill="#E4001C"/>
<path d="M34.5714 25.8549L31.9143 25.7385L31.7714 25.6512V5.31055L34.5977 5.13363C37.3697 5.06204 39.6789 5.36701 39.888 8.71288C40.0063 10.6003 39.9926 13.2833 39.888 15.1776C39.8417 16.0122 39.6629 16.9562 39.1417 17.6185C38.0617 18.9903 36.2337 18.8925 34.6674 18.8797L34.5714 18.9583V25.8549ZM34.5714 16.0774H35.9714C36.0143 16.0774 36.3931 15.9627 36.4577 15.9325C36.7966 15.7771 36.9983 15.3697 37.0309 15.003C37.1994 13.0825 36.9051 10.9023 37.0223 8.9544C36.9709 8.586 36.824 8.32411 36.496 8.15184C36.4446 8.12506 36.108 7.98772 36.0857 7.98772H34.6571L34.5714 8.07501V16.0774Z" fill="#E4001C"/>
<path d="M11.8343 22.4717V8.51554C13.7914 8.04703 16.3743 6.8522 18.268 8.03306C19.3091 8.68199 19.5457 9.87914 19.6023 11.0391C19.7606 14.2912 19.5349 17.6132 19.528 20.8625C18.7634 24.8549 14.4434 23.2248 11.8343 22.4723V22.4717ZM15.7023 10.1568C15.5206 10.1725 14.3651 10.4041 14.312 10.4862V20.5011C15.1531 20.7932 16.8771 21.3176 17.0286 19.9458C16.8491 17.1051 17.2663 13.9606 17.0303 11.1554C16.9589 10.3092 16.4817 10.0881 15.7017 10.1562L15.7023 10.1568Z" fill="#E4001C"/>
<path d="M68.1714 8.97605V11.4786L66.1143 10.9548V22.6238L63.6 23.3512V10.3146L61.5428 9.90724V7.17188C63.7834 7.6526 66.0006 8.24041 68.1714 8.97605Z" fill="#E4001C"/>
</g>
<defs>
<clipPath id="clip0_456_3023">
<rect width="72" height="21" fill="white" transform="translate(4 5)"/>
</clipPath>
</defs>
</svg>
