<svg width="80" height="30" viewBox="0 0 80 30" fill="none" xmlns="http://www.w3.org/2000/svg">
<g clip-path="url(#clip0_454_2851)">
<path d="M5.31062 14.4962L5.27172 14.5114L5.1628 14.5721C4.14362 15.1111 3.43564 16.1437 3.2178 17.4647C2.93772 19.3324 2.92216 21.0255 3.1789 22.4983C3.43564 24.0092 4.02692 25.596 4.90606 27.2359C5.55959 28.4127 6.57099 29.1263 7.74577 29.2934C19.4625 30.4398 31.1792 30.1892 39.9551 28.6176L43.0204 28.0482C52.1619 26.4083 63.3652 22.597 73.7437 17.571C74.8952 16.9636 75.5954 15.9539 75.8132 14.6176C76.07 12.917 76.07 11.3682 75.7899 9.62199L75.7666 9.43977C75.4242 7.69357 74.9185 6.23587 74.1094 4.72502C73.4559 3.55583 72.4523 2.83457 71.2775 2.66754C59.7397 1.55149 47.9063 1.85517 38.7492 3.4875C38.7647 3.4875 35.6839 4.01136 35.6839 4.01136C26.9158 5.59812 15.8448 9.40181 5.30284 14.4962H5.31062Z" fill="#231F20"/>
<path d="M22.5901 14.9607C22.7924 14.8165 22.9636 14.6874 23.0258 14.5811C23.0881 14.4748 23.0881 14.323 23.0647 14.1787L22.9714 13.6321C22.8547 12.9412 22.6446 12.7362 22.0533 12.964C21.851 13.0475 21.3375 13.3208 20.754 13.7004C19.4392 14.5355 14.5767 17.5421 11.8693 19.2123C11.6359 19.3414 11.4725 19.4477 11.3791 19.6906C11.1768 20.169 11.3091 20.9054 11.3402 21.1104C11.3869 21.3609 11.6203 22.2037 11.9004 22.4086C12.126 22.5377 12.2505 22.5529 12.4528 22.5985C15.5648 23.221 21.1508 24.3598 22.6679 24.6939C23.3526 24.8381 23.9205 24.9217 24.1384 24.9217C24.7608 24.9368 24.893 24.6711 24.7685 23.9802L24.6596 23.4336C24.6363 23.2893 24.574 23.1375 24.4807 23.0616C24.3873 22.9781 24.1773 22.9173 23.9439 22.8566C22.2089 22.4618 15.1758 21.0952 13.3319 20.7156V20.6928C14.9501 19.6831 21.0886 15.9325 22.5901 14.9683V14.9607Z" fill="#FFDD00"/>
<path d="M36.8042 9.98696C36.7887 9.88826 36.7342 9.54661 36.7109 9.44032C36.602 8.87091 36.2519 8.62036 35.7617 8.76462C34.5325 9.03793 33.5755 9.2657 32.1674 9.70605C30.7825 10.1464 30.0512 10.4425 28.713 10.9436C28.4641 11.0423 27.935 11.2549 27.6549 11.3991C26.8925 11.7939 26.5035 11.9913 26.0445 12.3254C25.6243 12.6366 25.1887 12.9783 24.9553 13.3883C24.4262 14.2917 24.3951 14.7928 24.5663 15.8178C24.7219 16.6985 25.3754 20.487 25.531 21.3677C25.7099 22.4002 25.9044 22.8557 26.7136 23.5086C27.0637 23.8047 27.6083 23.987 28.0984 24.1312C28.6352 24.2831 29.0631 24.3438 29.9189 24.4501C30.2379 24.488 30.7981 24.5108 31.0548 24.5108C32.4786 24.5108 33.2643 24.5488 34.7192 24.4729C36.1896 24.4045 37.1621 24.2831 38.4147 24.1008C38.9204 24.0553 39.1772 23.706 39.0682 23.1214C39.0527 23.0227 38.9827 22.6811 38.9749 22.5824C38.8815 22.0206 38.6014 21.8308 38.0957 21.8839C36.7731 22.0282 35.6761 22.218 34.3847 22.3091C33.1165 22.4078 32.144 22.4761 30.6191 22.5596C29.8567 22.6052 29.1643 22.5141 28.6274 22.3091C28.0751 22.1041 27.7483 21.6562 27.6783 21.2614C27.5927 20.7982 26.6902 15.5824 26.6124 15.1345C26.5424 14.7397 26.698 14.2082 27.1492 13.8286C27.5927 13.449 28.2151 13.1225 28.9464 12.9024C30.4013 12.4468 31.3427 12.1887 32.5641 11.8319C33.8089 11.475 34.8904 11.2852 36.1896 10.9512C36.7031 10.8297 36.9054 10.5564 36.7965 10.0021L36.8042 9.98696Z" fill="#FFDD00"/>
<path d="M34.618 18.0659C35.1237 17.9672 35.2637 17.6483 35.2171 17.0561L35.1004 16.3652C34.9448 15.7806 34.7036 15.5225 34.1979 15.6136C33.3732 15.8034 28.8297 16.7676 28.5418 16.8359C28.0128 16.965 27.9894 17.0713 27.9661 17.2383C27.9427 17.3674 27.9894 17.6635 28.0517 18.0127C28.1139 18.3847 28.1684 18.6656 28.2384 18.7947C28.324 18.9466 28.4951 18.9617 28.9075 18.9162C29.2109 18.8706 33.7933 18.1797 34.6258 18.0583L34.618 18.0659Z" fill="#FFDD00"/>
<path d="M10.5544 18.0582V18.0431C10.64 17.5648 10.4377 17.3522 9.83867 17.4585C9.62861 17.4964 9.40299 17.5268 9.19293 17.5799C8.59386 17.6862 8.20486 17.9595 8.08038 18.4986C7.83142 19.6071 7.83142 20.6624 7.9948 21.6418C8.17374 22.6287 8.52384 23.6309 9.13069 24.5723C9.43411 25.0279 9.89313 25.1418 10.4922 25.0355C10.7023 24.9975 10.9279 24.9671 11.1379 24.914C11.737 24.8077 11.8537 24.5344 11.6203 24.1168C10.2977 22.0897 10.0798 20.093 10.5544 18.0582Z" fill="#FFDD00"/>
<path d="M67.2319 13.7683C67.4342 13.867 67.831 14.0189 67.901 13.7228C67.9632 13.4039 67.9477 13.1762 67.9399 12.7965C67.9243 12.4169 67.901 11.8096 67.8232 11.6198C67.7765 11.4755 67.5742 11.392 67.4342 11.3616C65.8626 10.7998 64.3844 10.2987 62.7273 9.76726C60.65 9.09156 56.2154 7.58071 56.1065 7.54275C55.6708 7.41368 55.3518 7.37572 55.0639 7.43646C54.9706 7.45165 54.9083 7.45924 54.815 7.48201C54.745 7.4972 54.6049 7.54275 54.4882 7.64904C54.3482 7.77052 54.2626 7.86162 54.2159 8.00588C54.1692 8.13494 54.1303 8.26401 54.1692 8.40826C54.1926 8.56011 54.2159 8.70436 54.2393 8.80306C54.5116 10.3746 54.8617 11.9234 55.134 13.495C55.4063 15.0211 55.593 16.6002 55.8731 18.1642C55.9587 18.6046 56.1921 18.8172 56.6822 18.7261L57.2813 18.6198C57.7714 18.5211 58.0359 18.225 58.0126 17.777C57.8803 16.4332 57.6936 15.1122 57.5302 13.8139C57.2968 12.4929 57.0712 11.2174 56.7911 9.89633C58.8217 10.5872 60.8445 11.2781 62.8751 12.0146C64.1899 12.4777 65.9482 13.2293 67.2397 13.7911L67.2319 13.7683Z" fill="#FFDD00"/>
<path d="M73.6893 14.1847C73.526 15.0502 73.3392 15.1944 72.3901 15.7183C62.0971 20.7747 51.7652 24.2443 42.6937 25.869L39.5973 26.4536C30.907 28.01 20.6373 28.2985 9.00619 27.1673C7.94811 27.0458 7.37239 27.0155 6.8589 26.2259C6.16648 24.7606 5.60632 23.4168 5.3807 22.1337C5.15508 20.881 5.1084 19.4233 5.40404 17.8137C5.54408 17.0014 6.0031 16.599 6.43878 16.4092C17.0585 11.33 27.406 7.77684 36.0651 6.23563L39.1771 5.69658C48.2409 4.07944 59.1951 3.7302 70.624 4.91459C71.4098 4.95255 71.8766 5.12717 72.1956 5.66621C72.958 6.92652 73.3237 8.22478 73.6193 9.73563L73.6427 9.87988C73.915 11.3907 73.9928 12.6738 73.7049 14.1922L73.6893 14.1847ZM73.1136 5.27142C72.6468 4.43628 71.9544 3.9276 71.1531 3.80613C59.7397 2.71285 48.0386 2.99376 38.9904 4.62608L35.9251 5.16513C27.2581 6.71393 16.2961 10.4948 5.8475 15.5437H5.83194L5.76192 15.5816C5.0306 15.9612 4.5638 16.6749 4.40041 17.6315C4.14367 19.3549 4.12811 20.9037 4.36151 22.2627C4.59492 23.6445 5.13952 25.1174 5.95642 26.6434C6.42322 27.4786 7.11564 27.9873 7.91699 28.0935C19.4937 29.2248 31.1015 28.9742 39.7762 27.4254L42.826 26.856C51.8741 25.2389 62.9685 21.4504 73.2537 16.4775C74.0394 16.0599 74.5218 15.3463 74.6774 14.3972C74.9264 12.8256 74.9108 11.3983 74.6541 9.78118C74.6541 9.766 74.6307 9.61415 74.6307 9.61415C74.3273 8.01979 73.8527 6.68357 73.1058 5.27901L73.1136 5.27142Z" fill="#FFDD00"/>
<path d="M51.0339 7.86882C49.7191 7.70179 48.3342 7.63347 47.0427 7.61828C45.7513 7.5955 44.9032 7.6031 43.6273 7.64106C43.3706 7.62587 42.6315 7.65624 42.328 7.70179C41.7757 7.80049 41.2933 7.93715 40.8732 8.16492C40.4531 8.39268 40.0874 8.71156 39.7918 9.06839C39.2083 9.82761 38.9593 10.7842 39.146 11.9155C39.3794 13.2365 40.3208 18.6421 40.5464 19.9632C40.7487 21.0944 41.3011 21.9068 42.1102 22.4155C42.507 22.6432 42.9582 22.8178 43.425 22.8786C43.8918 22.9469 44.3975 22.9014 44.9499 22.8103C45.2533 22.7495 45.9613 22.5142 46.1947 22.4155C47.4162 21.9979 48.2175 21.7094 49.4079 21.2463C50.6138 20.7831 51.8975 20.2365 53.0723 19.6291C53.5391 19.3938 53.5546 19.0445 53.469 18.6042C53.4535 18.5055 53.4457 18.4523 53.4224 18.3536C53.3368 17.8677 53.1034 17.7007 52.621 17.8905C51.4618 18.3536 48.4198 19.4393 45.4867 20.3048C44.7476 20.5326 44.1019 20.6009 43.5495 20.4719C43.0127 20.3276 42.717 20.0695 42.6081 19.5304C42.4292 18.6953 41.3555 12.3862 41.2233 11.5434C41.1377 11.0044 41.3322 10.6476 41.7834 10.3287C42.2502 10.0098 42.896 9.85038 43.6506 9.80483C46.7004 9.61503 49.9291 9.59984 51.1739 9.6378C51.6874 9.65299 51.8586 9.42522 51.773 8.93173C51.7574 8.83303 51.7497 8.78748 51.7263 8.68119C51.6796 8.25602 51.5474 7.92197 51.0339 7.86123V7.86882Z" fill="#FFDD00"/>
<path d="M68.9202 6.87452C68.7179 6.91248 68.5234 6.94285 68.2744 6.99599C67.7843 7.07951 67.6209 7.3756 67.8387 7.77799C68.2589 8.49165 68.5312 9.33439 68.7101 10.2454C68.7724 10.5036 68.819 10.7693 68.8502 11.0654C69.0058 12.1739 69.0291 13.2823 69.0058 14.1858C68.9824 14.3073 68.998 14.4136 69.068 14.4971C69.2469 14.6186 69.3481 14.6034 69.5815 14.5654C70.0872 14.4819 70.484 14.3832 70.7563 14.1858C71.0752 13.9277 71.2153 13.5177 71.2697 12.9938C71.3631 12.0144 71.3864 11.3539 71.1842 10.1619C70.9819 9.01551 70.6084 8.25629 70.1416 7.3756C69.9082 6.89729 69.4726 6.78341 68.9202 6.87452Z" fill="#FFDD00"/>
<path d="M49.4234 15.2717C49.9291 15.173 50.0692 14.8541 50.0303 14.3075C50.0069 14.2012 49.9603 13.9355 49.9603 13.9355C49.8047 13.4116 49.5635 13.1535 49.0578 13.2446C48.272 13.3888 45.2222 13.8292 43.2617 14.1025C43.2617 14.1025 42.8882 14.1405 42.8493 14.4366C42.8104 14.6719 42.896 15.1426 42.9582 15.4387C43.0049 15.6969 43.0749 16.0613 43.2305 16.3194C43.3628 16.5472 43.674 16.4864 43.674 16.4864C45.5957 16.0689 48.6377 15.4159 49.4234 15.2717Z" fill="#FFDD00"/>
</g>
<defs>
<clipPath id="clip0_454_2851">
<rect width="73" height="28" fill="white" transform="translate(3 2)"/>
</clipPath>
</defs>
</svg>
