<svg width="80" height="30" viewBox="0 0 80 30" fill="none" xmlns="http://www.w3.org/2000/svg">
<path fill-rule="evenodd" clip-rule="evenodd" d="M66.0003 13.6398C66.0474 13.4045 66.0442 13.4053 66.0511 13.3858C66.3557 12.5177 66.3319 12.5092 66.4399 12.2986C66.7125 11.7676 66.9698 11.2827 67.7127 10.6695C68.8949 9.69375 70.7914 9.49217 72.0065 9.72413C72.5851 9.83465 72.5743 9.86686 72.6696 9.88962C73.3944 10.0627 73.411 10.1573 73.7403 10.3227C75.6124 11.263 76.7676 14.4611 75.655 17.6914C75.0123 19.5571 73.8629 20.0225 73.5575 20.2201C73.0889 20.5234 71.9738 20.7703 71.7516 20.7933C70.6294 20.9088 70.1141 20.8568 69.0946 20.542C64.9332 19.2576 65.905 14.1785 66.0003 13.6398ZM68.2746 13.7969C68.0747 15.2758 68.158 15.6697 68.2724 16.696C68.2815 16.7779 68.4683 17.4022 68.4785 17.4262C68.7487 18.0617 69.0284 18.5341 69.6146 18.9082C70.2847 19.3357 71.8724 19.3577 72.5494 18.7274C73.016 18.2928 73.7912 17.4496 73.7597 14.9564C73.7314 12.7258 72.7572 11.2501 71.0925 11.231C70.3343 11.2223 69.6694 11.3026 68.8882 12.2482C68.4799 12.7423 68.3001 13.666 68.2746 13.7969Z" fill="#293946"/>
<path fill-rule="evenodd" clip-rule="evenodd" d="M55.9526 11.0771C56.408 10.6779 56.6876 10.421 57.5113 10.0631C57.9796 9.85949 59.0705 9.62363 59.422 9.60906C60.9753 9.54473 61.5754 9.8277 61.8247 9.88912C63.3581 10.267 64.147 11.5397 64.2733 12.3132C64.3797 12.965 64.3961 13.1434 64.0556 13.14C63.8218 13.1378 62.2602 13.14 62.234 13.1385C61.9946 13.1247 62.0168 12.6855 61.9763 12.5585C61.7131 11.7319 61.0958 11.4642 60.9848 11.416C60.2715 11.1067 59.3945 11.2128 59.1615 11.2767C58.2181 11.5353 58.2655 11.6501 58.0142 11.8134C57.452 12.1787 56.9969 13.154 56.8695 13.8014C56.7655 14.3302 56.7595 14.3289 56.7552 14.3755C56.6945 15.0212 56.5671 16.4205 57.1594 17.6175C57.6122 18.5326 58.3204 18.8283 58.4418 18.9026C58.7976 19.1202 60.0671 19.371 61.655 19.0968C62.0748 19.0244 61.9972 18.7787 61.9964 18.1026C61.995 16.7437 62.0166 16.7215 61.8284 16.4409C61.807 16.4089 61.5933 16.09 61.5581 16.0433C61.096 15.4281 61.1347 15.4017 60.9747 15.2171C60.6656 14.8605 61.218 14.9509 61.3237 14.9512C63.7624 14.9584 63.7612 14.9472 63.9732 14.9496C64.2994 14.9532 64.2273 15.2868 64.2268 15.4534C64.2195 17.3223 64.2255 19.9021 64.2242 20.0067C64.2191 20.4047 63.7272 20.391 62.8072 20.6357C62.5849 20.6948 61.3667 20.8227 61.2411 20.8358C61.084 20.8523 59.7465 20.8749 59.4207 20.8268C58.3426 20.6678 57.5314 20.6656 56.3282 19.882C53.9075 18.3055 54.3578 14.6319 54.4009 14.3821C54.7621 12.2864 55.4278 11.6417 55.9526 11.0771Z" fill="#293A46"/>
<path fill-rule="evenodd" clip-rule="evenodd" d="M45.3461 14.4553C45.379 14.4553 45.7207 14.4545 45.7572 14.4467C45.8569 14.4255 45.8398 14.4 45.8656 14.302C45.8664 14.2991 45.8843 14.2995 45.8775 11.1475C45.8752 10.0467 45.837 9.91296 46.0916 9.90932C48.047 9.88183 48.1138 9.91263 48.142 10.0748C48.1474 10.1058 48.1441 18.6018 48.1438 19.3434C48.1434 20.4269 48.1956 20.5798 47.9127 20.5873C47.042 20.6105 46.3129 20.5904 46.1739 20.5866C45.8547 20.5779 45.9285 20.2594 45.9304 19.9229C45.9502 16.2426 45.9341 16.2123 45.8287 16.1351C45.7597 16.0845 45.7507 16.0892 42.7798 16.089C41.9258 16.089 41.7593 16.0227 41.7556 16.3623C41.7348 18.3094 41.7687 18.3062 41.7565 20.2542C41.754 20.6549 41.5544 20.5946 40.7929 20.5946C39.6518 20.5945 39.4975 20.6529 39.4957 20.3367C39.4665 15.2443 39.5291 15.2464 39.494 10.1545C39.4919 9.84648 39.7569 9.91089 39.8823 9.91222C41.596 9.93068 41.6233 9.88399 41.7118 9.9825C41.7734 10.051 41.7537 10.1307 41.7536 12.3893C41.7536 14.2935 41.7405 14.3165 41.8457 14.4162C41.884 14.4524 41.8922 14.4579 45.3461 14.4553Z" fill="#2A3B48"/>
<path fill-rule="evenodd" clip-rule="evenodd" d="M32.5893 15.9806C32.5423 15.9691 32.396 15.9334 32.0157 15.7889C31.1349 15.4542 29.5923 14.8421 29.6355 12.9695C29.6897 10.6203 31.8306 10.0011 32.1894 9.93293C32.963 9.7859 33.1314 9.69335 34.4181 9.74857C34.72 9.76148 35.5606 9.96191 35.6573 9.99825C37.7958 10.8014 37.6585 12.7092 37.6564 12.7224C37.6121 12.9932 37.4882 12.9146 35.8262 12.9338C35.2673 12.9402 35.7185 12.4461 35.0609 11.7456C34.4964 11.1442 33.5319 11.2533 33.3389 11.2908C31.7163 11.6059 31.8476 12.9294 32.0568 13.3605C32.2328 13.7235 32.8905 14.0168 33.1878 14.087C33.4565 14.1504 34.4901 14.447 34.5035 14.4498C34.8397 14.5206 34.8404 14.5044 35.171 14.6C35.2858 14.6332 36.1868 14.8939 36.5725 15.1191C37.265 15.5236 37.3146 15.638 37.5574 15.9548C38.263 16.8753 38.2402 19.2911 36.0611 20.3111C34.1508 21.2051 31.3506 21.0658 30.0601 19.7297C29.8538 19.5161 29.4948 18.8466 29.4512 18.5986C29.3236 17.8719 29.1935 17.4207 29.3726 17.2802C29.41 17.2509 29.4132 17.2447 31.2727 17.2422C31.7808 17.2415 31.392 17.8464 31.8786 18.5776C32.0805 18.881 32.5415 19.1434 32.7582 19.194C33.6979 19.4135 33.7487 19.2827 34.084 19.2377C34.2439 19.2162 35.5206 19.0449 35.6248 17.9345C35.7549 16.5469 34.6796 16.5731 32.5893 15.9806Z" fill="#2A3946"/>
<path fill-rule="evenodd" clip-rule="evenodd" d="M17.6689 14.518C17.6861 14.4948 17.8477 14.2779 17.8859 14.2301C17.9446 14.1568 18.5567 13.3919 18.6254 13.3184C18.7093 13.2286 19.429 12.3102 19.4721 12.2583C20.5371 10.9764 21.1756 10.0532 21.3362 9.98525C21.434 9.94386 21.4373 9.94692 22.6628 9.94717C23.5746 9.94733 23.5742 9.91331 23.6521 9.92713C23.6697 9.9302 23.7537 10.0501 23.753 10.0751C23.7521 10.1071 23.5465 10.2927 22.5293 11.5881C21.6247 12.74 21.6081 12.7235 21.5337 12.8265C21.2903 13.1633 20.0367 14.7112 20.0307 14.7197C19.7687 15.0921 19.7198 15.0585 19.667 15.1986C19.5815 15.4256 19.7056 15.4163 21.3825 17.5554C21.5598 17.7816 23.392 20.1189 23.6267 20.361C23.7975 20.5371 23.8181 20.6959 23.5732 20.6636C23.2295 20.6181 22.6262 20.6459 21.5869 20.6389C21.2718 20.6367 21.238 20.5272 20.8942 20.1129C20.8586 20.07 20.5287 19.6725 20.4547 19.5717C20.2631 19.3103 20.2518 19.3232 20.0531 19.0649C19.4214 18.2439 19.3956 18.2646 19.3459 18.1895C19.0744 17.7794 18.6921 17.3823 18.436 17.0297C17.9147 16.3122 17.8579 16.359 17.3381 15.6394C17.1644 15.3989 16.9649 15.3582 17.2255 15.0611C17.4587 14.7954 17.4337 14.7785 17.6689 14.518Z" fill="#2A3A46"/>
<path fill-rule="evenodd" clip-rule="evenodd" d="M9.04829 20.518C8.99829 20.6424 9.00317 20.6448 8.99432 20.6523C8.97056 20.6721 8.84928 20.6558 8.83677 20.6542C8.37632 20.5923 7.40226 20.6486 6.84942 20.6266C6.52539 20.6137 6.5388 20.5303 4.97109 18.5797C3.84511 17.1787 3.86482 17.1645 3.75736 17.0512C3.5119 16.7925 3.55362 16.7608 3.3561 16.5437C3.0377 16.1937 3.07355 16.1661 2.76211 15.8122C2.35422 15.3488 2.34445 15.2916 2.4731 15.1295C3.14648 14.2814 3.14085 14.2783 3.20187 14.2066C3.56116 13.7843 3.55222 13.7798 4.08023 13.107C4.13271 13.04 4.58572 12.4628 4.75145 12.2825C4.97332 12.041 4.94766 12.0232 5.03988 11.9016C5.25198 11.6222 5.28327 11.6521 5.49106 11.3696C5.64919 11.1545 5.66061 11.166 5.81981 10.9523C6.15766 10.4988 6.15219 10.4984 6.52374 10.0765C6.66571 9.91519 6.80355 9.9541 8.3408 9.9575C8.8727 9.95874 8.8785 9.90609 8.91501 9.9339C9.11841 10.0889 8.93521 10.1227 8.70564 10.431C8.27524 11.0088 7.2621 12.232 6.87061 12.7364C5.84075 14.0633 5.81567 14.0406 5.72907 14.158C4.98764 15.1627 4.86123 15.1454 4.93905 15.3729C4.99534 15.5373 7.53546 18.6628 7.56477 18.705C7.73539 18.9509 7.76254 18.9276 7.93507 19.1723C8.32458 19.7248 8.37251 19.6944 8.55174 19.9522C8.81972 20.3375 8.88015 20.322 9.04829 20.518Z" fill="#F0603F"/>
<path fill-rule="evenodd" clip-rule="evenodd" d="M52.7177 20.2534C52.7126 20.3803 52.7537 20.5883 52.4667 20.6049C52.3052 20.6143 51.5149 20.6051 50.7276 20.6112C50.3506 20.6141 50.4395 20.4044 50.4381 19.7573C50.4363 18.9826 50.4166 10.2361 50.4355 10.0737C50.4668 9.80522 50.6529 9.88602 52.2174 9.877C52.5686 9.87493 52.718 9.80075 52.7172 10.1535C52.7174 13.5202 52.7176 16.8867 52.7177 20.2534Z" fill="#273745"/>
<path fill-rule="evenodd" clip-rule="evenodd" d="M25.306 13.2161C25.306 10.9649 25.3044 10.1773 25.31 10.07C25.3225 9.82607 25.6594 9.87748 26.0569 9.87773C27.4405 9.87872 27.5511 9.82922 27.5766 10.0657C27.5817 10.112 27.5789 20.2714 27.5783 20.3362C27.5753 20.6872 27.3506 20.6096 26.9676 20.6103C25.4113 20.6127 25.391 20.6209 25.3435 20.5644C25.3022 20.5153 25.306 20.5061 25.306 13.2161Z" fill="#263541"/>
<path fill-rule="evenodd" clip-rule="evenodd" d="M14.4668 20.5773C14.0795 20.5504 14.1725 20.3964 14.1692 20.0064C14.1465 17.348 14.1621 11.1713 14.164 10.403C14.1647 10.1165 14.1358 9.91387 14.4668 9.90385C14.6075 9.89955 16.131 9.89921 16.2057 9.9031C16.4861 9.91759 16.4207 10.1285 16.4237 10.8171C16.4324 12.8709 16.4189 19.7498 16.4316 20.3381C16.4383 20.6416 16.0612 20.5765 15.7914 20.5765C15.3499 20.5768 14.9084 20.577 14.4668 20.5773Z" fill="#2B3C49"/>
<path fill-rule="evenodd" clip-rule="evenodd" d="M77.1165 10.5684C77.1247 10.5754 77.218 10.6561 77.218 10.6561C77.2424 10.6612 77.2641 10.6261 77.2884 10.6311C77.2241 10.6381 77.2743 10.7074 77.2114 10.7142C77.2021 10.7152 77.1579 10.72 77.1126 10.6504C77.0976 10.6274 77.1314 10.5913 77.1165 10.5684Z" fill="#E2E3E6"/>
</svg>
