<svg width="80" height="30" viewBox="0 0 80 30" fill="none" xmlns="http://www.w3.org/2000/svg">
<path fill-rule="evenodd" clip-rule="evenodd" d="M75.3914 17.0822C74.9037 18.3324 73.9585 18.1769 72.0475 18.1769C67.9493 18.1769 67.945 18.1801 67.8952 18.1532C67.8068 18.1054 67.8188 18.0737 67.8188 15.3715L67.819 11.0378C67.8193 10.7548 67.77 10.6414 68.0542 10.64C68.5297 10.6375 73.6784 10.6109 73.9983 10.6503C74.1406 10.6679 75.1149 10.7367 75.4487 11.8869C75.524 12.1466 75.5088 12.1516 75.51 16.0513C75.5102 16.6951 75.513 16.7332 75.3914 17.0822ZM72.8043 12.6922C72.4496 12.6695 70.2745 12.625 70.1689 12.7273C70.109 12.7854 70.1182 12.8006 70.1182 14.6917C70.1182 16.032 70.0865 16.1117 70.2624 16.1405C70.2744 16.1425 72.343 16.1498 72.6423 16.1362C73.2895 16.1068 73.2086 15.7311 73.2085 14.4368C73.2085 12.9752 73.2479 12.8496 72.8043 12.6922Z" fill="#111822"/>
<path fill-rule="evenodd" clip-rule="evenodd" d="M10.2075 12.9066L10.0594 12.8225L10.0367 12.7376C9.77945 11.9306 8.8002 10.7648 7.37823 10.6532C7.26487 10.6443 4.03778 10.6071 3.96326 10.6696C3.8793 10.7401 3.88992 10.7629 3.88992 13.5873C3.88992 14.9816 3.74436 16.1265 4.73967 17.1638C5.2236 17.6682 5.56393 17.7795 5.77569 17.9012C5.79906 17.9147 5.81562 17.9396 5.84061 17.9497C5.92686 17.985 5.9317 17.9616 5.93714 17.9673C6.0058 18.0388 5.9543 18.0681 6.02313 18.1399C5.85888 18.1457 3.44432 18.4668 1.76657 16.4821C0.441133 14.9143 0.606578 13.4559 0.606578 12.0578C0.606578 6.89197 0.606154 6.89146 0.610232 6.8782C0.659518 6.7204 0.720445 6.74794 2.11327 6.74794C5.79803 6.74794 5.80262 6.72924 6.45005 6.85823C7.45037 7.0575 9.68759 8.03667 10.1408 10.7763C10.1761 10.9904 10.2621 11.1263 10.2075 12.9066Z" fill="#6ABE4A"/>
<path fill-rule="evenodd" clip-rule="evenodd" d="M24.6823 16.7304C24.6528 16.3965 24.6817 16.3774 24.6116 16.3371C24.5692 16.3127 24.3956 16.3127 24.3767 16.3127C21.773 16.3127 21.7764 16.3128 21.7441 16.3158C21.5272 16.3359 21.6003 16.5989 21.5903 17.9203C21.588 18.211 21.4485 18.1516 20.5529 18.1516C19.405 18.1516 19.3188 18.1872 19.2975 18.0029C19.2755 17.8114 19.2996 15.5818 19.3018 15.3712C19.3325 12.5229 19.1889 12.0825 19.4689 11.5572C20.0397 10.4867 21.1641 10.6311 21.5721 10.6361C22.0698 10.6423 24.1808 10.6383 26.671 10.6391C26.8938 10.6392 26.9526 10.6427 26.9575 10.866C26.989 12.3045 26.9608 17.3562 26.9577 17.9206C26.9569 18.0704 26.9764 18.1016 26.8363 18.1533C26.8114 18.1625 24.8451 18.161 24.8056 18.1542C24.6562 18.1284 24.6823 18.0598 24.6823 16.7304ZM22.0831 12.6871C21.5799 12.7387 21.569 12.8973 21.5907 14.0106C21.596 14.2872 21.7287 14.2358 22.8472 14.2358C24.537 14.2358 24.5558 14.2477 24.6214 14.1737C24.6888 14.0978 24.6774 14.086 24.6565 12.906C24.6514 12.6174 24.4691 12.6793 23.6969 12.6793C22.5855 12.6793 22.5874 12.6779 22.0831 12.6871Z" fill="#111822"/>
<path fill-rule="evenodd" clip-rule="evenodd" d="M50.8419 12.398C50.8467 12.3366 50.883 11.8698 50.9949 11.643C51.1123 11.4049 51.1886 11.3012 51.2528 11.2297C51.8898 10.5204 52.4651 10.6405 54.2028 10.6405C58.3865 10.6405 58.4024 10.6335 58.4586 10.6918C58.5094 10.7443 58.5033 10.7577 58.5033 15.4571C58.5033 18.0626 58.5149 18.0935 58.4315 18.1378C58.3899 18.16 58.0592 18.16 58.0267 18.16C56.3675 18.1601 56.3559 18.1677 56.3031 18.1176C56.1785 17.9998 56.3036 16.5413 56.2271 16.3993C56.1766 16.3055 56.1438 16.3196 54.1179 16.3196C53.3451 16.3196 53.161 16.2539 53.1574 16.561C53.1404 18.0433 53.1941 18.088 53.0815 18.141C52.9589 18.1988 51.2212 18.1628 51.0595 18.1594C50.7915 18.1539 50.8492 17.8519 50.8508 17.7514C50.8688 16.5551 50.8447 12.8263 50.8419 12.398ZM55.6472 12.6873C55.4843 12.6842 54.3465 12.6629 53.6095 12.6889C53.1334 12.7057 53.1524 13.0588 53.1523 13.5026C53.1521 14.0308 53.0789 14.2318 53.4382 14.2321C56.1047 14.2348 56.1069 14.2226 56.1646 14.1914C56.2548 14.1422 56.2354 14.1116 56.2248 12.9081C56.2222 12.6122 55.9373 12.6884 55.6472 12.6873Z" fill="#111822"/>
<path fill-rule="evenodd" clip-rule="evenodd" d="M10.2076 12.9053C10.2005 13.3064 10.2638 13.3059 10.2225 17.9204C10.2199 18.2145 10.0651 18.1517 9.25126 18.1517C8.65644 18.1517 8.06161 18.1517 7.46679 18.1517C6.1382 18.1516 6.13871 18.1386 6.02323 18.1387C5.9544 18.0668 6.0059 18.0375 5.93724 17.966C5.9318 17.9604 5.92696 17.9837 5.84071 17.9485C5.81572 17.9383 5.79915 17.9135 5.77579 17.9C5.56403 17.7782 5.2237 17.667 4.73977 17.1625C3.74446 16.1253 3.89002 14.9803 3.89002 13.586C3.89002 10.7616 3.8794 10.7389 3.96336 10.6683C4.03788 10.6058 7.26497 10.643 7.37833 10.6519C8.8003 10.7635 9.77955 11.9294 10.0368 12.7363L10.0595 12.8213L10.2076 12.9053Z" fill="#00943A"/>
<path fill-rule="evenodd" clip-rule="evenodd" d="M40.437 18.1458C39.0334 18.1458 39.0371 18.1565 37.6328 18.158C37.5012 18.1581 36.6189 18.159 36.1385 17.47C35.6977 16.8379 35.8032 16.6946 35.8032 14.266C35.8032 10.7821 35.767 10.763 35.8405 10.6894C35.8977 10.632 35.9129 10.6391 39.4173 10.6391C42.2921 10.6391 42.3202 10.6284 42.3691 10.71C42.4377 10.8245 42.3988 12.3401 42.3952 12.4817C42.3885 12.7412 42.1336 12.6792 41.6267 12.6792C38.2135 12.6792 38.1966 12.6714 38.1386 12.7333C38.1003 12.7742 38.0683 13.3181 38.1662 13.3842C38.2639 13.4503 40.9973 13.3983 41.3717 13.4159C41.6134 13.4272 41.547 13.7999 41.5469 13.9261C41.5464 15.2075 41.5707 15.3069 41.4495 15.3511C41.355 15.3856 38.3289 15.3492 38.2279 15.3718C38.0344 15.4151 38.0196 16.0294 38.4871 16.1014C38.5576 16.1122 41.542 16.115 41.9666 16.1136C42.2798 16.1125 42.3956 16.0769 42.3958 16.3904C42.3969 18.0604 42.4106 18.1089 42.2962 18.1417C42.1532 18.1825 42.1499 18.1641 40.437 18.1458Z" fill="#111822"/>
<path fill-rule="evenodd" clip-rule="evenodd" d="M64.3069 12.6919C64.0073 12.6722 64.0103 12.6696 63.6351 12.6696C61.7138 12.6695 61.6742 12.655 61.6369 12.7529C61.5881 12.8808 61.6677 17.9995 61.5929 18.0878C61.534 18.1572 61.5164 18.1528 59.7264 18.1511C59.6693 18.1511 59.357 18.2007 59.3322 18.0014C59.331 17.9912 59.3311 17.9921 59.3311 11.8865C59.3311 10.7833 59.2964 10.6913 59.4758 10.6416C59.4869 10.6385 59.4855 10.6389 64.6548 10.6389C64.9643 10.6389 66.6561 10.4085 66.957 11.9701C66.9934 12.1593 66.9984 12.1589 66.997 17.5798C66.9968 17.9866 67.1013 18.1668 66.6942 18.1672C64.8145 18.1689 64.8096 18.1637 64.7692 18.1347C64.7042 18.0881 64.7124 18.0667 64.7124 14.6907C64.7124 12.9954 64.7729 12.8523 64.3069 12.6919Z" fill="#121923"/>
<path fill-rule="evenodd" clip-rule="evenodd" d="M35.4967 10.637C35.5003 10.7185 35.5447 10.7341 35.4656 10.8062C35.4326 10.8362 35.3388 10.9327 35.3279 10.944C33.0155 13.3232 33.0099 13.3142 32.8136 13.5254C32.1508 14.2386 31.9516 14.2826 32.1873 14.529C34.1762 16.6084 34.1607 16.6218 34.3347 16.8014C34.4329 16.9027 35.5325 18.0377 35.5357 18.091C35.5459 18.2625 35.4345 18.1693 34.4887 18.169C33.1171 18.1686 33.0119 18.3075 32.428 17.6864C32.2569 17.5042 30.353 15.4787 30.2911 15.4067C29.9916 15.0582 30.054 15.5384 30.0542 15.5419C30.061 15.7228 30.0574 17.9913 30.0559 18.005C30.0341 18.1952 29.9448 18.1603 28.7104 18.1603C27.9557 18.1603 27.7774 18.2279 27.7758 17.9216C27.773 17.3573 27.7481 12.46 27.7766 10.8687C27.7812 10.6085 27.9062 10.6589 28.8803 10.6589C29.9192 10.6589 30.048 10.6063 30.0525 10.8693C30.0918 13.1455 30.0338 13.1431 30.0438 13.3406C30.0597 13.6509 30.4565 13.1513 30.5969 13.0102C32.859 10.7378 32.8657 10.7378 32.9598 10.7002C33.105 10.6423 33.1506 10.6241 34.9134 10.6365C34.96 10.6369 35.2173 10.6386 35.4967 10.637Z" fill="#111822"/>
<path fill-rule="evenodd" clip-rule="evenodd" d="M46.1303 18.1474C44.8811 18.1632 44.0792 18.2668 43.4754 17.3393C43.133 16.8134 43.2417 16.4631 43.2417 14.1826C43.2417 13.374 43.2362 13.3767 43.2316 12.5681C43.2308 12.4252 43.2218 10.8588 43.2342 10.7826C43.2637 10.6015 43.352 10.6362 44.5158 10.6362C45.3828 10.6362 45.5252 10.5749 45.5273 10.8687C45.5298 11.2154 45.5266 11.2128 45.5273 15.2023C45.5274 15.8793 45.5181 16.1003 46.1309 16.1085C47.0687 16.121 49.8876 16.0815 49.9554 16.1348C50.0447 16.205 50.026 16.2293 50.0267 17.6666C50.0268 17.7412 50.0543 18.0367 49.9724 18.1132C49.9307 18.1522 49.9213 18.1473 46.1303 18.1474Z" fill="#111822"/>
<path fill-rule="evenodd" clip-rule="evenodd" d="M18.0036 18.1468C16.9556 18.1468 15.9075 18.1468 14.8595 18.1468C13.7145 18.1468 12.9956 18.2158 12.5527 17.9437C11.568 17.3387 11.6529 16.67 11.6642 15.7124C11.6965 12.9567 11.651 12.9595 11.6628 10.8685C11.6647 10.5411 11.8138 10.6358 12.1404 10.6357C13.8507 10.635 13.8678 10.6275 13.9285 10.6955C14.031 10.8103 13.8703 15.5529 14.0168 15.8782C14.1379 16.1469 14.2253 16.1087 16.4741 16.1087C18.3601 16.1087 18.4112 16.0897 18.4506 16.2131C18.4921 16.3433 18.4755 16.3469 18.4621 17.9216C18.4594 18.2358 18.3188 18.1462 18.0036 18.1468Z" fill="#111822"/>
<path fill-rule="evenodd" clip-rule="evenodd" d="M50.719 23.0078L50.3844 22.9993C50.0977 22.8673 50.5004 22.2214 50.0409 22.2149C49.8983 22.2128 48.3959 22.1914 48.2586 22.2107C47.9051 22.2604 48.3122 22.9809 47.914 23.0065C47.3618 23.0419 47.3342 22.9821 47.314 22.9382C47.2852 22.8757 47.2854 22.8724 47.2861 20.7248C47.2863 20.2161 47.2057 20.1446 47.6102 19.832C47.7211 19.7463 47.7369 19.7593 50.2091 19.7587C50.6418 19.7587 50.6818 19.7263 50.9677 20.0507C51.1114 20.2137 51.1198 20.2383 51.0884 22.7646C51.085 23.0333 50.9879 22.999 50.719 23.0078ZM48.1006 20.9797C48.1152 21.2628 48.0443 21.3079 48.1841 21.3739C48.2549 21.4073 50.1176 21.4126 50.1921 21.3725C50.3016 21.3135 50.2719 20.9469 50.2707 20.8106C50.2681 20.5098 50.1181 20.5715 49.3594 20.5715C48.8801 20.5715 48.3025 20.5708 48.2573 20.5744C48.0498 20.5913 48.1013 20.9013 48.1006 20.9797Z" fill="#02943B"/>
<path fill-rule="evenodd" clip-rule="evenodd" d="M29.3052 23.0078C29.2204 23.0061 29.1356 23.0094 29.0508 23.0076C28.7369 23.0011 28.9209 22.7107 28.7727 22.5262C28.4463 22.12 28.1598 22.2081 28.1156 22.2088C26.9346 22.2291 26.9342 22.1996 26.8331 22.2172C26.5618 22.2649 26.7402 22.7782 26.6594 22.9273C26.5919 23.052 25.9442 23.0391 25.8946 22.9422C25.866 22.8862 25.8551 22.8849 25.8573 20.2143C25.8576 19.8773 25.8246 19.7572 26.1608 19.7578C29.1415 19.763 29.1421 19.7514 29.2245 19.776C29.3547 19.8147 29.594 20.0969 29.621 20.1427C29.6493 20.1906 29.7548 21.2113 29.5652 21.4088C29.4855 21.4917 29.3612 21.5923 29.3406 21.6114C29.0578 21.8731 29.3788 21.9718 29.5532 22.1751C29.7331 22.3848 29.6868 22.8956 29.5899 22.9744C29.5329 23.0209 29.5256 22.9994 29.3052 23.0078ZM28.6173 21.2258C28.6966 21.1479 28.6964 21.1486 28.703 21.1417C28.9409 20.8921 28.8661 20.6292 28.706 20.5771C28.6359 20.5544 27.0687 20.5703 26.9262 20.5717C26.6139 20.5748 26.6799 20.8225 26.6825 21.1489C26.6848 21.4673 26.9412 21.3949 27.2658 21.3951C28.3697 21.3961 28.404 21.4288 28.6173 21.2258Z" fill="#04953D"/>
<path fill-rule="evenodd" clip-rule="evenodd" d="M33.2991 22.2024C34.1774 22.2024 34.3463 22.1966 34.4184 22.2247C34.4656 22.2431 34.5517 22.2767 34.5092 22.852C34.4941 23.0556 34.1503 23.0082 33.7239 23.0082C30.8011 23.0083 30.7726 23.017 30.7359 22.9441C30.6846 22.8422 30.7019 22.515 30.7019 22.5092C30.7016 19.8746 30.6944 19.8566 30.7584 19.7997C30.8114 19.7524 30.8227 19.7588 33.469 19.7588C34.333 19.7588 34.501 19.7043 34.511 19.9583C34.5309 20.4723 34.5276 20.574 34.2339 20.573C34.0301 20.5722 31.8549 20.5647 31.6866 20.5736C31.4965 20.5835 31.3744 20.9759 31.7695 20.9789C34.0983 20.9965 34.1575 20.9265 34.2227 21.0693C34.2519 21.1333 34.2413 21.6336 34.2357 21.6599C34.1922 21.8647 33.815 21.7799 31.8544 21.794C31.5712 21.796 31.4625 21.8042 31.5272 22.0811C31.561 22.2258 31.6243 22.2024 33.2991 22.2024Z" fill="#04943D"/>
<path fill-rule="evenodd" clip-rule="evenodd" d="M60.8826 22.6789C60.8732 22.7512 60.9591 23.0047 60.6607 23.0078C60.3826 23.0107 57.3338 23.0428 57.1844 22.9955C57.047 22.952 57.0871 22.8891 57.0804 20.2146C57.0799 20.0256 57.0364 19.7719 57.2583 19.7598C57.3187 19.7565 60.3108 19.7582 60.5762 19.7584C60.9759 19.7587 60.8828 19.9688 60.8826 20.2145C60.8825 20.4708 60.9 20.5714 60.576 20.5714C58.0003 20.5708 57.9727 20.5578 57.9314 20.6312C57.8684 20.7427 57.876 20.9419 58.028 20.9729C58.1951 21.0069 60.4349 20.9283 60.5411 21.0195C60.5931 21.0641 60.6035 21.233 60.5958 21.5751C60.5896 21.8462 60.4583 21.7937 59.3863 21.7937C58.0002 21.7937 57.9496 21.7717 57.9062 21.9002C57.8083 22.191 58.0809 22.2008 58.1101 22.2019C58.1645 22.2039 60.7227 22.1993 60.7411 22.2043C60.9425 22.2594 60.882 22.6567 60.8826 22.6789Z" fill="#04943C"/>
<path fill-rule="evenodd" clip-rule="evenodd" d="M46.1798 22.1686C46.175 22.603 46.1977 22.6444 45.86 22.9158C45.7283 23.0218 45.71 23.0074 43.241 23.0074C42.6778 23.0074 42.3955 23.0531 42.3824 22.8494C42.3453 22.2789 42.4155 22.2486 42.4615 22.2287C42.6658 22.1403 45.2245 22.28 45.3405 22.1477C45.3773 22.1058 45.464 21.813 45.1995 21.7948C44.9635 21.7784 42.957 21.823 42.8062 21.7692C42.747 21.7481 42.4288 21.4774 42.392 21.3186C42.3865 21.2954 42.3462 20.2752 42.422 20.1452C42.6472 19.7592 42.931 19.7575 42.9857 19.7571C43.231 19.7556 45.9477 19.739 46.0517 19.7623C46.1723 19.7893 46.1791 19.9414 46.18 19.9602C46.2037 20.4918 46.1679 20.5691 45.9606 20.5711C45.2595 20.5783 43.3546 20.5476 43.2636 20.5939C43.2098 20.6213 43.0577 20.9691 43.4111 20.977C44.0356 20.9909 45.6621 20.9481 45.7771 21.0075C45.8535 21.0468 46.1167 21.2967 46.1513 21.3949C46.19 21.5047 46.1798 21.855 46.1798 22.1686Z" fill="#03943C"/>
<path fill-rule="evenodd" clip-rule="evenodd" d="M20.5027 21.4045C20.4973 21.673 20.5642 21.7837 20.2968 21.7941C19.8484 21.8113 17.9338 21.7495 17.84 21.8364C17.7136 21.9535 17.8641 22.8911 17.7236 22.981C17.681 23.0082 17.0678 23.0653 16.9971 22.9274C16.9728 22.8798 16.9745 22.8761 16.9749 20.3848C16.9749 19.97 16.8991 19.7578 17.2383 19.7578C17.5036 19.7579 20.554 19.7585 20.5544 19.7585C20.6034 19.7593 20.7639 19.747 20.7761 19.9615C20.8065 20.4984 20.7456 20.5688 20.5534 20.5714C20.4304 20.5732 17.9563 20.5655 17.9228 20.5768C17.7611 20.6316 17.6782 20.9653 18.0036 20.9778C18.427 20.9941 20.348 20.9439 20.4421 21.0103C20.5188 21.0645 20.4842 21.0848 20.5027 21.4045Z" fill="#03943C"/>
<path fill-rule="evenodd" clip-rule="evenodd" d="M55.7069 21.4034C55.703 21.6802 55.7531 21.7869 55.4771 21.7938C54.8075 21.8108 53.1261 21.7411 53.033 21.8456C52.9159 21.9771 53.0833 22.9018 52.9122 22.986C52.8863 22.9987 52.2587 23.0703 52.1971 22.9193C52.1721 22.8579 52.1842 22.8547 52.1805 20.2137C52.1805 20.187 52.1801 19.8938 52.1858 19.879C52.2431 19.7313 52.2963 19.7577 53.6931 19.7577C55.8558 19.7577 55.8638 19.7527 55.9043 19.7861C55.9817 19.85 55.9709 19.8582 55.9727 19.9596C55.9803 20.3678 56.0273 20.5694 55.7328 20.5706C53.1464 20.5817 53.1035 20.5189 53.0206 20.6432C53.0031 20.6695 52.909 20.9669 53.1833 20.9768C53.574 20.9911 55.5388 20.9482 55.632 21.0038C55.7749 21.0889 55.6968 21.1316 55.7069 21.4034Z" fill="#04943C"/>
<path fill-rule="evenodd" clip-rule="evenodd" d="M22.3372 22.2016C22.7146 22.2009 22.9076 22.2806 22.9084 21.9137C22.9112 20.7072 22.9049 20.7028 22.8599 20.6271C22.8033 20.5315 22.1935 20.5824 21.9955 20.569C21.7889 20.555 21.8265 20.2174 21.8329 19.9596C21.8393 19.7069 22.0613 19.7582 22.2523 19.7582C24.7032 19.7586 24.7207 19.7479 24.7763 19.8104C24.851 19.8945 24.8157 20.4371 24.8043 20.4703C24.7302 20.6856 23.8571 20.4789 23.7715 20.6303C23.6838 20.7853 23.7336 22.0656 23.7455 22.0994C23.8148 22.2977 24.5395 22.1466 24.7323 22.2247C24.7792 22.2436 24.8581 22.2756 24.8172 22.8507C24.8066 22.9996 24.65 23.0051 24.6306 23.0058C24.3705 23.0148 22.2863 23.0082 22.0824 23.0075C21.7638 23.0065 21.8278 22.7971 21.8318 22.4237C21.835 22.1237 22.1529 22.202 22.3372 22.2016Z" fill="#02943C"/>
<path fill-rule="evenodd" clip-rule="evenodd" d="M61.9841 20.2141C61.9901 19.988 61.8744 19.7562 62.2754 19.7574C65.3303 19.7663 65.3278 19.7458 65.5929 19.7578C65.8091 19.7675 65.7824 19.9264 65.7765 20.7244C65.7743 21.0192 65.5786 20.9773 65.1653 20.9673C64.9185 20.9614 64.9958 20.7581 64.9231 20.6275C64.8779 20.5462 64.3913 20.5361 64.3192 20.6417C64.2468 20.7476 64.3204 22.7967 64.2754 22.9179C64.2574 22.9662 64.2302 23.0395 63.6369 23.0046C63.447 22.9934 63.4857 22.8206 63.4857 21.8286C63.4857 20.6995 63.531 20.586 63.2939 20.5717C62.841 20.5442 62.8091 20.6047 62.7811 20.8082C62.7526 21.0157 62.4781 20.9724 62.1909 20.9674C61.9187 20.9627 61.9842 20.7215 61.9841 20.2141Z" fill="#03943B"/>
<path fill-rule="evenodd" clip-rule="evenodd" d="M67.6928 20.2149C67.7041 20.6372 67.6699 20.6784 67.9951 20.9497C68.0929 21.0314 68.1041 21.0431 69.2433 21.037C69.2956 21.0367 69.5485 21.0354 69.8008 20.6961C69.954 20.4902 69.7324 19.8217 70.0019 19.7638C70.0179 19.7603 70.5477 19.741 70.6047 19.7876C70.6682 19.8394 70.7076 19.8717 70.6725 20.809C70.6659 20.9857 70.6036 21.0292 70.2791 21.3364C69.6981 21.8866 69.6637 21.8449 69.5846 21.8489C69.3197 21.8625 69.3049 21.8279 69.2303 21.9012C69.1165 22.0129 69.2242 22.8377 69.1544 22.9318C69.0668 23.0499 68.4775 23.0429 68.3929 22.9346C68.3261 22.8492 68.4185 22.0082 68.3187 21.9052C68.1698 21.7514 68.0268 22.0387 67.5766 21.6238C66.9622 21.0576 66.96 21.0565 66.9284 20.9914C66.8924 20.9171 66.8661 20.863 66.8833 19.961C66.8871 19.7665 67.0194 19.76 67.118 19.7587C67.402 19.7552 67.6881 19.7022 67.6925 19.9611C67.694 20.0457 67.6913 20.1303 67.6928 20.2149Z" fill="#03933C"/>
<path fill-rule="evenodd" clip-rule="evenodd" d="M38.3975 20.0098C38.6253 20.0331 38.7179 19.984 38.7222 20.2147C38.7297 20.624 38.6522 20.9791 38.9059 20.9926C39.5702 21.0279 39.6664 20.9302 39.7037 21.1422C39.7043 21.1459 39.7274 21.6874 39.6755 21.7462C39.5389 21.9009 38.8098 21.6949 38.7384 21.9141C38.6879 22.0694 38.7902 22.665 38.6456 22.7514C38.611 22.772 38.5826 22.789 38.1421 22.7779C37.8303 22.77 37.9145 22.4775 37.9125 22.0832C37.9103 21.661 37.6891 21.8535 37.1246 21.8078C37.0704 21.8033 36.8635 21.7866 36.9557 21.1494C36.9867 20.9354 37.3504 20.9949 37.6329 20.9946C37.9543 20.9944 37.9112 20.874 37.9126 20.5541C37.9134 20.3881 37.8602 20.0496 38.0509 20.0138C38.0509 20.0138 38.3698 20.0101 38.3975 20.0098Z" fill="#05953D"/>
<path fill-rule="evenodd" clip-rule="evenodd" d="M76.7326 11.3212C76.6981 11.3133 76.6609 11.3282 76.6264 11.3203C76.5562 11.3043 76.4733 11.1168 76.715 11.1408C76.8317 11.1523 76.7962 11.2707 76.7904 11.2798C76.7778 11.2999 76.7453 11.3012 76.7326 11.3212Z" fill="#EFEFEE"/>
</svg>
