<svg width="80" height="30" viewBox="0 0 80 30" fill="none" xmlns="http://www.w3.org/2000/svg">
<path fill-rule="evenodd" clip-rule="evenodd" d="M69.9944 8.89769C70.0082 9.00956 69.9951 10.4716 69.9677 10.8861C69.6412 15.8233 65.2788 16.08 65.1466 16.0995C61.9719 16.5686 60.3486 15.3257 59.9247 14.6942C59.8376 14.5644 59.2673 13.9993 59.1481 12.1504C59.0753 11.0196 59.5068 9.03707 60.2337 7.93563C60.6778 7.2629 61.5602 6.06723 64.0176 5.65829C65.18 5.46489 67.9563 5.46023 69.1848 6.83928C69.6657 7.37914 69.7931 7.81728 69.8209 7.91306C70.0434 8.67848 69.9625 8.64124 69.9944 8.89769ZM65.4322 7.43471C64.07 7.42512 62.0842 7.48536 61.3655 10.1856C60.924 11.8448 61.3239 12.8173 61.4103 13.0276C62.1775 14.8931 65.4428 14.6299 66.6831 13.6832C68.1869 12.5353 68.496 9.47662 67.6431 8.37703C66.9195 7.44388 65.6941 7.45221 65.4322 7.43471Z" fill="#000D40"/>
<path fill-rule="evenodd" clip-rule="evenodd" d="M40.744 16.0375C40.2248 16.0003 40.2129 15.9951 40.1705 15.9767C40.0559 15.9272 40.0321 15.7893 40.1485 14.9684C40.2307 14.3883 40.498 12.1185 40.6148 11.4487C40.6244 11.394 40.6931 10.7614 40.7208 10.5967C40.883 9.62939 41.1337 7.46983 41.3232 6.37052C41.3611 6.15187 41.3208 5.8167 41.5748 5.74786C41.6208 5.73531 41.6195 5.73714 45.2573 5.73714C46.1972 5.73714 48.8256 5.53372 49.5695 7.10278C50.182 8.39465 49.4962 10.2261 49.4014 10.4793C49.1368 11.1862 48.4929 11.8196 48.0914 12.0344C47.0651 12.5838 46.229 12.6713 45.2573 12.6723C42.5803 12.6748 42.5614 12.6516 42.459 12.742C42.317 12.8674 42.2462 13.9629 42.1943 14.2761C41.9541 15.7217 42.0376 15.8247 41.8655 15.9518C41.7271 16.054 41.0068 16.0363 40.744 16.0375ZM44.5519 10.9447C45.7664 10.9447 46.4942 10.9956 47.0665 10.5666C47.8442 9.98375 48.0114 8.42498 47.5309 7.90502C47.1656 7.50976 46.7686 7.46814 44.693 7.46659C43.3419 7.4656 43.1837 7.43739 43.1071 7.62077C43.087 7.66888 42.9757 8.30973 42.9592 8.48C42.8899 9.19449 42.8517 9.18659 42.7727 9.90306C42.6807 10.7369 42.6175 10.7606 42.724 10.8768C42.804 10.9644 42.8259 10.9447 44.5519 10.9447Z" fill="#000D40"/>
<path fill-rule="evenodd" clip-rule="evenodd" d="M34.2542 14.2079C32.3796 14.2079 32.3232 14.1863 32.1976 14.3213C32.0743 14.454 31.4247 15.829 31.2782 15.9433C31.1113 16.0733 30.9043 15.9969 29.8812 16.0348C29.7894 16.0382 29.6964 16.0553 29.6057 16.0404C29.3408 15.9973 29.4068 15.8849 29.5325 15.6466C29.9939 14.7714 29.9981 14.7752 30.0365 14.6984C30.0843 14.6029 32.5796 9.91472 32.7385 9.63062C32.8141 9.49562 33.5896 8.0435 33.6634 7.9054C34.6933 5.97691 34.7361 5.72849 35.1016 5.66925C35.1607 5.65965 36.6287 5.62213 36.78 5.69083C36.9471 5.76672 36.9604 5.96548 37.3393 7.36033C38.3706 11.1568 38.3463 11.1616 39.3819 14.9586C39.5852 15.7037 39.6979 15.982 39.337 16.0026C39.3296 16.0031 37.9765 16.0035 37.9206 16.0019C37.5211 15.9904 37.5505 15.764 37.372 15.1098C37.161 14.3362 37.1795 14.221 36.7953 14.2086C36.7684 14.2077 36.6633 14.2079 34.2542 14.2079ZM35.8725 9.45457C35.8151 9.20757 35.8166 9.20884 35.8104 9.18782C35.5726 8.37839 35.6022 8.36682 35.5582 8.30828C35.3838 8.07708 35.2833 8.42 35.1608 8.65601C35.0516 8.86647 34.3252 10.2664 33.7736 11.274C33.2185 12.2879 33.2064 12.3254 33.2871 12.413C33.3345 12.4645 33.5265 12.4625 33.5476 12.4622C34.4631 12.4529 36.3123 12.4615 36.3724 12.4591C36.3975 12.4581 36.6224 12.4494 36.6385 12.2907C36.655 12.1286 35.9385 9.68013 35.8725 9.45457Z" fill="#000D40"/>
<path fill-rule="evenodd" clip-rule="evenodd" d="M55.6952 7.43254C55.0376 7.44129 53.6333 7.43987 52.6714 8.86547C51.9493 9.93559 51.9299 11.4914 51.927 11.728C51.9154 12.65 52.0669 14.5078 55.2706 14.366C56.5934 14.3075 57.4814 13.4779 57.5456 13.4475C57.7497 13.3509 57.8326 13.4629 58.274 13.9503C58.8092 14.5412 58.7827 14.5806 58.7647 14.6779C58.7474 14.7699 58.5831 14.8761 58.4064 15.0129C56.9232 16.1608 55.0832 16.1602 54.1451 16.1791C54.0898 16.1801 52.2856 16.1049 51.2255 15.3357C48.9838 13.7089 50.0955 9.39517 50.8006 8.2249C51.252 7.47542 52.0908 6.13136 54.5732 5.69406C57.2477 5.22305 58.6275 6.06506 58.9272 6.24788C58.9884 6.28526 59.4081 6.54129 59.6316 6.80311C59.8176 7.02077 59.7429 7.10061 59.1792 7.58588C59.1024 7.65204 59.1052 7.65077 59.0289 7.71735C58.3464 8.31179 58.3166 8.30545 58.2405 8.28936C57.8985 8.21672 57.4887 7.45596 55.9803 7.43466C55.8853 7.43324 55.7903 7.43381 55.6952 7.43254Z" fill="#000D40"/>
<path fill-rule="evenodd" clip-rule="evenodd" d="M18.6795 14.2513C18.0141 15.5811 17.6244 15.783 17.3546 15.9978C16.478 16.6957 15.7175 16.7409 15.2732 16.7934C14.8666 16.8414 13.756 16.7793 13.5072 16.7182C12.9484 16.5808 11.7471 16.4619 10.7815 15.1592C9.37428 13.261 9.96746 10.9177 10.0765 10.4472C10.4471 8.84994 11.2947 7.80014 11.554 7.36481C11.9778 6.65342 14.2125 4.23374 14.8559 2.87388C15.2749 1.98828 15.0949 1.14062 15.0513 1.00915C15.0183 0.9097 14.9126 0.869355 15.017 0.855108C15.2331 0.825484 15.279 0.7905 15.3757 0.987426C15.42 1.07757 15.4214 1.0739 15.4765 1.16094C16.087 2.12709 16.3647 3.62844 15.5649 5.20906C15.4886 5.35958 14.7817 6.39189 14.7268 6.46172C14.3846 6.89662 14.3766 6.88604 14.0456 7.32983C11.9697 10.1137 11.9905 11.4596 11.9717 11.7305C11.7653 14.7172 14.2564 15.7349 15.9174 15.5526C17.0914 15.4238 17.6596 14.9792 17.7845 14.8814C18.3165 14.4652 18.3 14.4011 18.3382 14.345C18.3549 14.3204 18.4333 14.148 18.4511 14.1243C18.4727 14.0956 18.479 14.0578 18.4985 14.0276C18.6007 13.8683 18.5954 13.867 18.6048 13.8538C18.6181 13.8347 18.8771 13.4262 18.9617 13.5224C18.9914 13.556 18.8623 13.7375 18.8497 13.7806C18.8338 13.8357 18.8018 13.9412 18.776 13.9926C18.776 13.9926 18.6871 14.2306 18.6795 14.2513Z" fill="#E92133"/>
<path fill-rule="evenodd" clip-rule="evenodd" d="M22.3279 11.5936C22.4539 10.8248 23.0606 6.09475 23.1119 5.94522C23.1923 5.71049 23.3697 5.75549 24.5207 5.75535C24.9078 5.75521 25.0719 5.6954 25.0482 6.08347C25.0138 6.64688 24.927 7.01534 24.9054 7.20973C24.7875 8.27279 24.7448 8.26461 24.6199 9.32457C24.5078 10.2782 24.3777 11.0763 24.3382 11.4407C24.2393 12.3553 24.2086 12.3503 24.2018 12.4298C24.0973 13.6583 23.8737 14.1019 24.1177 14.2239C24.2461 14.2879 28.7205 14.2369 28.8956 14.2534C29.0575 14.2687 29.1076 14.3991 29.1155 14.4197C29.1282 14.4525 29.0982 14.677 29.0952 14.6993C28.953 15.7605 29.0137 15.9861 28.6136 16.0014C28.58 16.0027 22.0092 16.0065 21.9734 15.9995C21.804 15.9664 21.7745 15.8358 21.7697 15.8144C21.7635 15.7867 22.2758 12.2302 22.3279 11.5936Z" fill="#000C40"/>
<path fill-rule="evenodd" clip-rule="evenodd" d="M15.8008 5.48438L15.8177 5.65492C15.7583 5.80685 15.7683 5.80727 15.7012 5.95257C15.3187 6.78104 13.7151 9.37042 13.4701 10.4487C13.3574 10.9451 13.3397 10.9407 13.3062 11.4494C13.3041 11.483 13.3128 11.48 13.3017 11.8695C13.2576 13.4139 14.7835 13.811 15.6035 13.3656C16.115 13.0879 16.2385 12.5358 16.2581 12.4477C16.4434 11.619 16.2808 11.583 16.3541 10.7426C16.4353 9.81322 16.5167 9.61644 17.2907 8.58243C17.3138 8.55154 17.5562 8.22794 17.6158 8.22568C17.6374 8.22484 17.8346 8.2175 17.717 8.47635C17.5842 8.7685 17.1987 9.07644 17.6546 10.0138C18.4004 11.547 18.5653 11.4844 18.7518 12.4315C18.8675 13.0188 18.4538 13.5655 18.3059 13.8402C18.2369 13.9683 17.7418 14.6921 17.0345 14.9495C16.4023 15.1797 15.4035 15.4325 14.2182 14.9856C13.2362 14.6155 12.3592 13.6203 12.3308 12.2947C12.3191 11.7402 12.2173 10.8642 13.3314 9.02354C13.4647 8.80334 13.4539 8.80052 13.5968 8.58427C14.6504 6.9884 14.8522 6.84663 15.0149 6.59737C15.0329 6.56958 15.2317 6.26517 15.2361 6.24782C15.2476 6.20239 15.3172 6.10337 15.3455 6.0808C15.3743 6.0578 15.3747 6.01266 15.396 5.98276C15.4175 5.95271 15.4509 5.93282 15.4725 5.90291C15.4989 5.86638 15.4825 5.86102 15.5092 5.82575C15.5628 5.75522 15.7464 5.55589 15.8008 5.48438Z" fill="#FF7F00"/>
<path fill-rule="evenodd" clip-rule="evenodd" d="M9.04654 12.293C8.96021 11.7059 9.02044 11.2984 9.02044 11.2984C9.02044 11.2984 9.05204 10.4335 9.10917 10.169C9.21342 9.68773 9.2398 8.60435 10.6245 6.56047C10.974 6.04446 12.0868 5.1755 12.3529 3.68163C12.4525 3.12287 12.1195 2.71491 12.3905 2.72478C12.4944 2.72859 12.4957 2.74326 12.5328 2.83919C12.5906 2.98858 12.6066 2.97912 12.6557 3.13232C12.8186 3.63987 12.8453 3.76189 12.8574 3.81775C13.1219 5.03204 12.9494 5.06547 12.4222 5.68968C11.8186 6.40431 11.204 7.21557 10.9668 7.63016C10.5137 8.42224 10.1585 8.76037 9.74579 10.3272C8.95329 13.3342 10.3168 14.7967 10.2439 14.9318C10.2189 14.9784 10.1346 14.969 10.1095 15.0155C9.21539 13.9418 9.07278 12.4709 9.04654 12.293Z" fill="#B81F51"/>
<path fill-rule="evenodd" clip-rule="evenodd" d="M18.966 14.3073C18.9969 14.2397 19.1525 14.076 19.1527 12.8588C19.1528 11.2083 18.0758 10.6536 18.113 9.88958C18.1158 9.83344 18.2058 8.92399 18.7759 8.23574C18.7959 8.21162 18.9368 8.04135 19.0356 7.94204C19.2843 7.6918 19.2813 7.68347 19.3115 7.68192C19.4957 7.67261 19.4242 7.8986 19.4179 7.91834C19.3067 8.26931 18.9719 8.52069 19.5888 10.0352C20.7123 12.7935 19.2676 14.4146 18.9183 14.8789C18.8529 14.9659 18.8467 14.9586 18.776 15.0432C18.7584 15.0641 18.6225 15.2043 18.6225 15.2043C18.6225 15.2043 18.5018 14.9936 18.6347 14.8402C18.7431 14.7148 18.9274 14.3656 18.966 14.3073Z" fill="#FCBB00"/>
<path fill-rule="evenodd" clip-rule="evenodd" d="M20.5724 28.4528L22.41 19.6484H28.1335L27.9234 20.6516H23.377L22.7945 23.4562H27.4248L27.2147 24.4591H22.5844L21.7495 28.4528H20.5724Z" fill="#000D40"/>
<path fill-rule="evenodd" clip-rule="evenodd" d="M22.1632 19.3457H28.5069L28.1694 20.9555H23.6237L23.1671 23.1534H27.7982L27.4607 24.763H22.8306L21.9957 28.7569H20.199L22.1632 19.3457ZM20.5722 28.4534H21.7492L22.5841 24.4597H27.2145L27.4246 23.4568H22.7942L23.3767 20.6522H27.9232L28.1333 19.649H22.4097L20.5722 28.4534ZM29.7005 19.3457H33.6406C34.4105 19.3457 34.994 19.4146 35.3918 19.5437C35.8371 19.6881 36.1864 19.9592 36.4398 20.357C36.6818 20.7368 36.8087 21.2145 36.8087 21.7931C36.8087 22.5963 36.5428 23.2612 36.0181 23.7906C35.6144 24.1974 35.0164 24.499 34.2182 24.6811C34.3306 24.7935 34.426 24.9049 34.5057 25.0156L34.5062 25.0161C34.8888 25.5526 35.1962 26.1078 35.4292 26.6817L36.2712 28.7569H34.2969L33.5916 26.9228C33.3725 26.3541 33.1233 25.8616 32.8421 25.4456L32.8416 25.4446C32.6807 25.2033 32.524 25.037 32.3565 24.9613C32.1742 24.8788 31.8766 24.8471 31.4665 24.8471H30.3438L29.5268 28.7569H27.7298L29.7005 19.3457ZM28.1033 28.4534H29.2803L30.097 24.5438H31.4665C31.9349 24.5438 32.2734 24.5908 32.4815 24.685C32.6896 24.779 32.8937 24.9763 33.094 25.2764C33.3862 25.7088 33.6465 26.2212 33.8748 26.8138L34.5053 28.4534H35.8206L35.148 26.7959C34.9237 26.2434 34.6275 25.7088 34.259 25.1925C34.0949 24.9642 33.8526 24.732 33.5323 24.4958C34.5773 24.3556 35.3343 24.0494 35.8026 23.5768C36.271 23.1045 36.5052 22.5099 36.5052 21.7931C36.5052 21.2807 36.3982 20.8564 36.1839 20.5198C35.9696 20.1836 35.6745 19.9543 35.2981 19.8323C34.9217 19.7103 34.3692 19.649 33.6406 19.649H29.947L28.1033 28.4534ZM30.2953 23.5889L30.9199 20.616H33.7906C34.243 20.616 34.5633 20.65 34.7515 20.7181C34.9397 20.7862 35.0919 20.9154 35.2081 21.1055C35.3242 21.2957 35.3822 21.5188 35.3822 21.7751C35.3822 22.0794 35.304 22.3638 35.148 22.628C34.9918 22.8922 34.7717 23.1023 34.4873 23.2585C34.2032 23.4147 33.8386 23.5148 33.3943 23.5588C33.1661 23.5788 32.6756 23.5889 31.9228 23.5889H30.2953ZM30.669 23.2855H31.9228C32.6603 23.2855 33.1412 23.2762 33.367 23.2568C33.7626 23.2172 34.088 23.1318 34.3412 22.9926C34.5756 22.8639 34.7581 22.6915 34.8868 22.4735C35.0147 22.257 35.0789 22.0243 35.0789 21.7751C35.0789 21.5796 35.0376 21.4086 34.949 21.2635C34.872 21.1373 34.7734 21.0487 34.6484 21.0035C34.4806 20.9427 34.1941 20.9193 33.7906 20.9193H31.1661L30.669 23.2855Z" fill="#000D40"/>
<path fill-rule="evenodd" clip-rule="evenodd" d="M28.1039 28.4528L29.9476 19.6484H33.6412C34.3698 19.6484 34.9223 19.7097 35.2987 19.8317C35.6751 19.9537 35.9703 20.183 36.1845 20.5193C36.3988 20.8558 36.5058 21.2801 36.5058 21.7925C36.5058 22.5093 36.2716 23.1039 35.8032 23.5762C35.3349 24.0488 34.578 24.355 33.533 24.4953C33.8533 24.7314 34.0956 24.9636 34.2596 25.1919C34.6281 25.7083 34.9243 26.2428 35.1487 26.7953L35.8212 28.4528H34.5059L33.8754 26.8133C33.6471 26.2207 33.3869 25.7083 33.0946 25.2758C32.8944 24.9757 32.6902 24.7784 32.4821 24.6844C32.274 24.5902 31.9355 24.5432 31.4671 24.5432H30.0977L29.281 28.4528H28.1039ZM30.2959 23.5883H31.9234C32.6762 23.5883 33.1667 23.5782 33.395 23.5583C33.8392 23.5142 34.2038 23.4141 34.4879 23.2579C34.7723 23.1017 34.9924 22.8916 35.1487 22.6274C35.3046 22.3632 35.3828 22.0789 35.3828 21.7746C35.3828 21.5182 35.3248 21.2951 35.2087 21.105C35.0926 20.9148 34.9403 20.7857 34.7521 20.7175C34.5639 20.6494 34.2436 20.6154 33.7913 20.6154H30.9205L30.2959 23.5883Z" fill="#000D40"/>
</svg>
