<svg width="80" height="30" viewBox="0 0 80 30" fill="none" xmlns="http://www.w3.org/2000/svg">
<g clip-path="url(#clip0_451_115)">
<path fill-rule="evenodd" clip-rule="evenodd" d="M10.9571 15.885C11.5133 15.8212 11.5134 15.8213 15.5163 15.8225C18.3784 15.8233 18.1599 16.8396 18.1599 19.9193C18.1599 22.837 18.3225 24.0646 17.1857 24.546C17.1052 24.5801 16.6719 24.7635 16.1103 24.7383C15.0862 24.6921 12.1511 24.743 11.3456 24.7161C9.21587 24.645 9.46124 23.0787 9.46124 20.7133C9.46124 16.9635 9.28208 16.3476 10.9571 15.885ZM14.6229 17.6956C12.0601 17.6956 11.7826 17.6106 11.7305 18.2303C11.7232 18.3179 11.6799 22.1974 11.7554 22.4971C11.8709 22.9553 12.0499 22.9029 14.7222 22.9005C15.6247 22.8997 15.8888 22.9076 15.9017 22.0036C15.9061 21.6945 15.9522 18.4773 15.8776 18.1391C15.765 17.6283 15.2923 17.698 14.6229 17.6956Z" fill="#01435A"/>
<path fill-rule="evenodd" clip-rule="evenodd" d="M49.7625 21.1109C49.1119 22.3165 48.0929 24.48 47.8501 24.6504C47.7962 24.6882 47.0539 24.8524 46.7808 24.586C46.5825 24.3925 46.6195 24.3643 45.229 21.4903C45.1807 21.3903 45.0069 20.836 44.8257 21.1288C44.6989 21.334 44.723 21.3449 43.4468 23.81C43.1008 24.4783 43.0734 24.7028 42.617 24.7182C42.0069 24.7388 41.8946 24.7954 41.57 24.1623C40.2852 21.6618 39.0004 19.1614 37.7156 16.6609C37.6186 16.4718 37.1894 15.8628 37.7484 15.8263C37.7573 15.8257 39.4733 15.8078 39.6382 15.837C40 15.901 39.9578 16.0164 41.5628 19.3036C42.1013 20.4064 42.0995 20.4048 42.1464 20.5005C42.3058 20.8253 42.3511 21.057 42.5179 21.0168C42.5494 21.0092 42.7035 20.6732 44.2361 17.5532C44.9813 16.0363 44.9672 16.021 45.0885 15.94C45.1988 15.8663 45.2006 15.8095 46.9816 15.8223C47.7513 15.8279 47.348 16.2732 46.6312 17.6601C46.1313 18.6273 46.1186 18.6611 46.2329 18.905C46.2751 18.9949 46.2752 18.9931 46.7634 20.0272C47.2144 20.9826 47.1934 21.0223 47.2764 21.0278C47.4036 21.0361 47.3747 20.9596 49.1311 17.4204C49.7963 16.0798 49.8047 15.8493 50.2557 15.8263C50.3762 15.8202 51.9732 15.8191 52.0457 15.8268C52.5813 15.8825 52.2222 16.361 51.764 17.2482C51.6042 17.5574 49.9334 20.7919 49.7625 21.1109Z" fill="#00425A"/>
<path fill-rule="evenodd" clip-rule="evenodd" d="M23.3579 21.9368C21.8543 21.9368 21.7733 21.9025 21.7302 22.0944C21.6723 22.3509 21.8348 24.4046 21.6183 24.625C21.4387 24.8079 20.3378 24.6936 19.9823 24.7222C19.3681 24.772 19.4671 24.466 19.4671 22.9971C19.4671 16.1519 19.4619 16.1454 19.5067 16.0572C19.6441 15.786 19.7279 15.8234 22.6631 15.8234C26.0739 15.8234 27.0684 15.6651 27.5888 16.859C27.8778 17.5218 27.8756 20.2405 27.5893 20.8968C27.0619 22.1066 25.8713 21.5945 26.3109 22.2191C26.3209 22.2332 27.6836 24.3106 27.684 24.3114C27.9049 24.7115 27.4686 24.7204 27.43 24.7211C25.5034 24.7605 25.4571 24.7076 25.347 24.5819C25.0909 24.2896 23.9014 22.0396 23.6719 21.9624L23.3579 21.9368ZM24.9492 20.0528C25.0575 20.0354 25.402 20.0483 25.4991 19.6146C25.5366 19.4478 25.523 18.4743 25.5179 18.3331C25.4909 17.5946 25.1673 17.6964 22.9609 17.6964C21.9088 17.6964 21.7065 17.6138 21.7187 18.0342C21.7574 19.3771 21.6301 19.984 21.8592 20.049C21.8964 20.0596 23.6574 20.0689 24.9492 20.0528Z" fill="#01435A"/>
<path fill-rule="evenodd" clip-rule="evenodd" d="M0.00208446 16.0594C0.0691837 16.01 0.0725585 16.0196 0.135687 15.9611C0.307704 15.8015 0.34036 15.8223 3.90297 15.8223C6.92929 15.8223 8.31971 15.5623 8.35028 18.0331C8.38225 20.607 8.3343 21.138 7.49834 21.6455C6.64541 22.1631 4.12055 21.8607 2.51543 21.9364C2.18668 21.9519 2.31463 22.3126 2.29468 24.1871C2.28852 24.7616 2.09765 24.7217 1.52075 24.7219C0.436344 24.7221 0.420661 24.7709 0 24.57C0.0216385 23.6708 0.01608 16.6248 0.00208446 16.0594ZM5.4938 20.0534C5.60636 20.0384 5.9222 20.0498 6.04876 19.7081C6.1244 19.5041 6.09164 18.3145 6.0832 18.232C6.02017 17.6117 5.75168 17.6953 3.1089 17.6953C2.54143 17.6953 2.29448 17.5898 2.29468 18.0331C2.29547 19.9371 2.27115 19.9906 2.40396 20.0401C2.51245 20.0805 5.24665 20.0557 5.4938 20.0534Z" fill="#01425A"/>
<path fill-rule="evenodd" clip-rule="evenodd" d="M66.8335 19.3429C68.3653 19.3429 69.1785 19.2629 69.8066 19.8238C70.3265 20.2883 70.4289 20.7761 70.3854 22.7957C70.3812 22.9927 70.347 24.5788 68.8216 24.6995C68.2305 24.7463 63.6805 24.7176 63.4563 24.706C61.4615 24.602 61.9286 22.2542 61.9597 22.1948C62.0229 22.0739 62.0966 21.933 63.6563 22.0179C64.3362 22.0549 63.8404 22.7783 64.4533 22.8825C64.7563 22.9341 67.1911 22.902 67.4291 22.8988C67.9811 22.8916 68.1903 22.8229 68.1289 21.7041C68.0949 21.085 67.8243 21.1747 65.7417 21.1747C64.1162 21.1747 62.0621 21.4761 62.0099 19.2216C61.9586 17.0065 61.9804 15.8285 64.3521 15.821C69.0155 15.8064 69.0413 15.8441 69.5223 16.1322C70.3506 16.6281 70.3002 18.2116 70.0925 18.4106C70.0015 18.4977 69.9423 18.5544 68.521 18.5223C67.7646 18.5052 68.2125 17.8945 67.8223 17.743C67.6226 17.6655 67.6194 17.6853 65.1461 17.694C64.5485 17.6962 64.176 17.6399 64.263 18.8253C64.3075 19.4301 64.5702 19.3429 66.8335 19.3429Z" fill="#01435A"/>
<path fill-rule="evenodd" clip-rule="evenodd" d="M57.106 19.344C59.2256 19.344 59.3458 19.293 59.4547 19.6297C59.4886 19.7348 59.4743 20.7649 59.4665 20.8094C59.3906 21.2387 59.2139 21.1757 57.0067 21.1757C55.4034 21.1757 55.265 21.1267 55.254 21.4091C55.2063 22.6304 55.2468 22.713 55.2963 22.814C55.3456 22.9144 55.3835 22.9 57.9993 22.9C60.7336 22.9 60.8072 22.8657 60.941 23.1122C61.0595 23.3306 60.9864 24.284 60.9786 24.3856C60.9472 24.7956 60.7109 24.7216 59.389 24.7216C53.2395 24.7216 53.2087 24.7354 53.0959 24.6162C52.9926 24.5071 53.005 24.4824 53.005 19.4225C53.005 16.0834 52.9801 16.0323 53.1686 15.8986C53.2919 15.8112 53.3088 15.822 58.3964 15.822C60.7286 15.822 60.9601 15.7498 60.9825 16.2459C61.0315 17.3322 60.9492 17.461 60.8929 17.549C60.7855 17.7171 60.7335 17.6951 57.0067 17.6951C55.4051 17.6951 55.2603 17.6449 55.2539 17.9349C55.2281 19.107 55.2454 19.1472 55.2867 19.2435C55.3386 19.3647 55.3793 19.344 57.106 19.344Z" fill="#00425A"/>
<path fill-rule="evenodd" clip-rule="evenodd" d="M36.4563 17.6914C33.9849 17.7134 33.9043 17.6427 33.8471 17.8224C33.7978 17.9772 33.8817 24.2108 33.8007 24.4916C33.6934 24.8637 33.2205 24.6599 31.9976 24.738C31.4908 24.7703 31.5752 24.3637 31.5752 22.6988C31.5752 17.862 31.5762 17.861 31.5687 17.8414C31.4935 17.6434 31.4153 17.7027 29.2142 17.6958C28.3986 17.6932 28.5497 17.3618 28.5498 16.5447C28.5498 15.9435 28.616 15.8258 29.2142 15.8228C29.794 15.8198 36.1124 15.7877 36.4621 15.8312C36.8512 15.8796 36.8789 16.0444 36.8505 17.2392C36.8399 17.6831 36.5257 17.6727 36.4563 17.6914Z" fill="#02435B"/>
<path fill-rule="evenodd" clip-rule="evenodd" d="M79.1994 15.9785C79.2786 16.2636 79.2604 16.3304 79.2483 17.3385C79.1559 17.7584 79.0046 17.6946 77.5534 17.6946C76.4391 17.6946 76.263 17.6361 76.2566 17.9328C76.2467 18.3996 76.2805 24.3383 76.2364 24.4773C76.1083 24.8808 75.6121 24.6512 74.4781 24.7383C73.914 24.7817 74.0017 24.4637 74.0017 22.3998C74.0017 17.8353 74.0084 17.8224 73.9539 17.7587C73.7992 17.5775 71.3775 17.8259 71.1264 17.6038C70.883 17.3885 70.9358 16.1 71.0969 15.9433C71.2391 15.8048 71.2717 15.8216 76.6601 15.8216C78.9795 15.8216 79.0134 15.7958 79.1994 15.9785Z" fill="#01435A"/>
<path fill-rule="evenodd" clip-rule="evenodd" d="M40.4037 10.272C40.8931 9.62251 41.6633 8.49681 41.7702 8.34057C41.8261 8.25878 42.4117 7.40307 43.003 8.21302C44.6096 10.4139 46.2715 12.7923 46.5518 13.1933C47.4146 14.428 47.5454 14.5177 47.3051 14.6986C47.2076 14.7721 45.2612 14.8131 44.9888 14.6716C44.7509 14.5481 42.6312 11.1798 42.5078 11.0969C42.3484 10.9899 42.3575 11.1382 41.1461 12.8861C40.1045 14.3889 40.0762 14.7403 39.537 14.7517C37.5417 14.7941 37.479 14.7247 37.4554 14.5592C37.4314 14.3906 37.5234 14.3156 40.4037 10.272Z" fill="#F47021"/>
<path fill-rule="evenodd" clip-rule="evenodd" d="M45.4953 5.40287C45.6252 5.40208 45.7553 5.40118 45.8852 5.40039C45.9109 5.44079 45.9723 5.44903 45.9979 5.48943C46.0443 5.56278 46.0049 5.58005 46.0711 5.64288C46.1305 5.69926 52.2975 14.2911 52.3221 14.4634C52.3716 14.8095 52.066 14.7525 50.4555 14.7523C49.6857 14.7522 49.7691 14.5166 49.1432 13.6819C49.0852 13.6046 44.5613 7.2482 44.5277 7.19609C44.3312 6.89196 44.3888 6.819 44.9778 6.01024C45.1901 5.71872 45.171 5.70174 45.2885 5.62005C45.376 5.55911 45.3392 5.53528 45.382 5.48198C45.4107 5.44605 45.4664 5.4388 45.4953 5.40287Z" fill="#F47021"/>
<path fill-rule="evenodd" clip-rule="evenodd" d="M79.1993 15.9805C79.2229 16.0197 79.2923 16.0136 79.3158 16.0528C79.3329 16.0815 79.3031 16.1186 79.3019 16.1521C79.2924 16.4248 79.3067 17.3318 79.3083 17.4343L79.2482 17.3405C79.2603 16.3323 79.2785 16.2655 79.1993 15.9805Z" fill="#85A3AF" fill-opacity="0.97"/>
</g>
<defs>
<clipPath id="clip0_451_115">
<rect width="79.2" height="30" fill="white"/>
</clipPath>
</defs>
</svg>
