<svg width="80" height="30" viewBox="0 0 80 30" fill="none" xmlns="http://www.w3.org/2000/svg">
<path fill-rule="evenodd" clip-rule="evenodd" d="M32.8059 16.2036C32.5734 16.197 32.5753 16.1935 32.342 16.2081C32.1579 16.2196 32.0545 16.2272 31.9942 16.1539C31.8954 16.034 31.9697 15.9606 32.2607 15.5519C32.9073 14.6445 32.9191 14.6542 32.9698 14.5717C33.0165 14.4954 33.0209 14.4987 33.6266 13.6654C33.799 13.4282 35.2242 11.4676 35.7697 10.6924C36.2466 10.0148 36.2425 10.0126 36.2866 9.95558C36.7248 9.38959 36.7068 9.37903 37.1305 8.80171C37.334 8.52446 37.324 8.52011 37.5272 8.24147C38.7214 6.603 38.7112 6.59632 38.8168 6.45529C39.7253 5.24255 39.7102 5.00988 40.2625 5.0046C40.4369 5.00305 41.8878 4.98938 42.4424 5.01811C42.7897 5.03598 42.8635 5.22935 42.9614 5.35609C43.1866 5.64778 45.9328 9.38121 46.1906 9.73161C46.6339 10.3343 46.8364 10.4298 46.5166 10.8654C46.3546 11.0863 45.3997 12.4519 45.3489 12.5196C44.6113 13.5036 44.6598 13.5354 43.934 14.5265C42.8466 16.011 42.8848 16.05 42.7478 16.1215C42.4609 16.2712 42.4399 16.1965 37.4654 16.1962C36.2949 16.196 36.2776 16.2578 36.1779 16.1806C35.9957 16.0393 36.0818 15.9918 36.2177 15.8052C37.5494 13.9782 37.5471 13.977 37.6631 13.8184C37.9302 13.4534 39.5984 11.1741 40.9908 9.24918C41.1938 8.96868 41.2064 8.79783 41.4917 8.99027C41.5717 9.04416 41.5546 9.06094 42.2279 9.94533C42.5904 10.4217 42.4957 10.5121 42.2683 10.8296C40.1835 13.741 40.1078 13.831 39.9008 14.077C39.6022 14.4317 40.0699 14.4327 40.1027 14.4327C41.2184 14.4349 41.3027 14.3615 41.3804 14.2943C41.4751 14.2121 41.5135 14.1789 42.332 13.0489C42.8692 12.3073 42.882 12.3183 42.9252 12.2517C43.1027 11.9782 43.1147 11.9892 43.3051 11.7234C44.0351 10.7053 44.0807 10.6626 43.9479 10.395C43.9453 10.3897 42.2357 8.02154 41.8502 7.54812C41.4908 7.10655 41.3456 6.55718 40.9858 7.0657C40.8937 7.19586 40.0844 8.34041 39.8253 8.68537C39.4726 9.15537 39.4854 9.16283 39.3738 9.31582C38.8323 10.0572 38.8258 10.0503 38.7806 10.1159C37.2043 12.3994 35.6304 14.4586 34.7572 15.759C34.3801 16.3204 34.2597 16.1693 33.582 16.1921C33.1928 16.2053 33.1962 16.2032 32.8059 16.2036Z" fill="#EE6D28"/>
<path fill-rule="evenodd" clip-rule="evenodd" d="M47.8723 25.9869C47.5768 25.9664 47.5786 25.9673 47.5531 25.9646C46.9629 25.9039 46.5454 25.3851 46.4776 25.2792C46.3625 25.0994 46.18 24.8673 46.1736 24.1946C46.1332 19.9552 46.1733 19.8781 46.3454 19.5484C46.9423 18.404 48.0492 18.5733 48.8038 18.5733C52.3772 18.5733 52.4061 18.5394 52.8286 18.7823C53.7869 19.3333 53.719 20.2127 53.72 20.4673C53.7211 20.7777 53.7316 23.6561 53.7198 24.3481C53.7041 25.2589 53.0016 25.8662 52.3858 25.9646C52.0292 26.0215 52.0276 25.9928 47.8723 25.9869ZM52.3143 20.469C52.2912 20.3705 52.3435 20.0356 51.9128 19.9774C51.6385 19.9401 48.4807 19.9688 48.1823 19.9715C47.4632 19.978 47.566 20.3233 47.566 21.0882C47.566 24.3335 47.5446 24.3714 47.7046 24.5186C47.8305 24.6345 47.9073 24.6224 49.891 24.619C52.0559 24.6154 52.187 24.6742 52.2993 24.333C52.3112 24.2965 52.3168 24.2953 52.3143 20.469Z" fill="#343D46"/>
<path fill-rule="evenodd" clip-rule="evenodd" d="M24.2631 25.988C21.5997 25.9268 20.0502 26.0778 19.6171 25.8737C18.4225 25.3108 18.6073 24.1071 18.6072 23.8848C18.6053 21.7894 18.6037 21.7748 18.6674 21.707C18.7799 21.5876 18.9147 21.6128 20.5356 21.6115C24.5449 21.6084 24.5806 21.6367 24.6799 21.5149C24.7459 21.434 24.7449 21.1235 24.7448 21.089C24.7434 20.6051 24.8332 20.0852 24.4202 19.9936C24.1974 19.9442 19.0104 19.9957 18.8345 19.9642C18.539 19.9111 18.6072 19.442 18.6079 19.225C18.6096 18.7682 18.523 18.5882 18.981 18.5752C19.007 18.5746 24.3116 18.5732 24.4189 18.5756C25.4599 18.601 26.0659 19.3341 26.1447 20.1557C26.1619 20.3362 26.1599 25.696 26.1479 25.7527C26.0881 26.0366 25.887 25.988 24.2631 25.988ZM19.9967 23.5741C19.9808 24.3192 19.9328 24.6 20.5362 24.6162C20.6532 24.6193 24.4015 24.6184 24.4157 24.6179C24.4494 24.6168 24.7192 24.6078 24.7429 24.3525C24.7442 24.3386 24.7459 23.2792 24.7451 23.2626C24.7238 22.8193 24.5503 22.9063 24.1078 22.9064C20.1986 22.9084 20.1796 22.8907 20.085 22.9714C20.0373 23.012 20.0179 23.0756 20.0147 23.086C20.0033 23.1233 20.0134 23.1217 19.9967 23.5741Z" fill="#333D47"/>
<path fill-rule="evenodd" clip-rule="evenodd" d="M29.3891 25.988C29.2319 25.9818 29.2339 25.9796 29.0761 25.9756C28.0173 25.9481 27.6226 25.0059 27.5605 24.6551C27.4569 24.0692 27.743 24.1358 28.4579 24.1416C28.9021 24.1452 28.8493 24.2778 28.9894 24.4535C29.1418 24.6447 29.1901 24.6178 32.0295 24.6178C33.3707 24.6178 33.6639 24.7212 33.6708 24.04C33.6759 23.5355 33.7123 23.1548 33.4035 23.0248C33.2752 22.9709 30.6059 23.0067 29.2334 22.9928C28.2757 22.9832 27.6456 22.3077 27.5453 21.5529C27.5012 21.2214 27.5296 20.207 27.5333 20.1581C27.5442 20.0107 27.6119 19.1004 28.642 18.6791C28.9849 18.5389 28.9989 18.5561 33.2721 18.5752C34.8209 18.5821 35.1665 19.9976 35.0191 20.3387C34.9578 20.481 34.5519 20.453 34.204 20.4524C33.7366 20.4516 33.7405 20.3804 33.5909 20.1513C33.4577 19.947 33.4015 19.9698 30.9423 19.9714C29.2698 19.9723 28.9345 19.8841 28.9057 20.4673C28.8658 21.2797 28.9626 21.3923 29.0143 21.4524C29.2114 21.6818 29.4108 21.596 33.2719 21.6096C34.9966 21.6155 35.0687 23.1438 35.0668 23.2656C35.0497 24.4137 35.0578 24.4131 35.0511 24.5126C34.9947 25.3377 34.2691 25.828 33.9008 25.9306C33.6689 25.995 33.6655 25.991 29.3891 25.988Z" fill="#343D46"/>
<path fill-rule="evenodd" clip-rule="evenodd" d="M42.436 25.9864C41.6402 25.959 38.6254 25.9851 38.2402 25.9743C37.376 25.95 36.7888 25.1998 36.7271 24.5012C36.676 23.9211 36.7117 20.6469 36.7153 20.3118C36.7167 20.1838 36.7259 19.3565 37.4496 18.89C38.0138 18.5264 38.1104 18.5728 40.1062 18.5717C44.0341 18.5697 44.0431 18.5806 44.1196 18.6365C44.303 18.7713 44.221 19.761 44.1702 19.8638C44.1032 19.9996 43.78 19.9693 42.902 19.9693C38.4421 19.9693 38.4271 19.9573 38.2759 20.0519C38.0788 20.1752 38.1074 20.2335 38.1074 23.1072C38.1073 24.1767 38.0422 24.4863 38.4131 24.5995C38.5245 24.6334 42.8976 24.6078 43.8345 24.6154C44.0959 24.6174 44.1545 24.5807 44.2446 24.8275C44.2603 24.8702 44.2539 25.5305 44.2534 25.5915C44.2516 25.7753 44.2934 25.7973 44.1585 25.9211C44.0716 26.0011 43.8027 25.9865 42.436 25.9864Z" fill="#333D45"/>
<path fill-rule="evenodd" clip-rule="evenodd" d="M62.8745 22.4882C62.8747 18.7678 62.8584 18.7363 62.9707 18.6437C63.0777 18.5555 63.0959 18.5768 65.5785 18.5766C66.7658 18.5766 67.3394 18.4732 67.6899 19.1036C67.7553 19.2211 67.8504 19.3919 67.7963 20.7811C67.7928 20.873 67.7665 21.5471 67.1345 21.7214C66.9096 21.7835 66.9028 21.7007 66.6765 21.747C66.6403 21.7545 66.6266 21.8014 66.6004 21.8275C66.5064 21.9207 66.5368 21.9455 66.6271 22.0415C66.6456 22.0611 66.7675 22.1964 66.7796 22.2097C66.8332 22.2692 67.6983 23.281 67.7005 23.2856C67.7359 23.3644 67.623 23.5087 67.5811 23.5205C67.5531 23.5284 67.1143 23.5293 66.9556 23.4739C66.7133 23.3892 66.0872 22.5179 65.6852 22.064C65.3915 21.7324 65.3357 21.7671 64.0258 21.7709C63.7471 21.7717 63.6863 21.7582 63.6205 22.0289C63.6142 22.055 63.6219 23.2295 63.6136 23.2751C63.544 23.6512 62.9997 23.4962 62.9357 23.422C62.853 23.3262 62.8745 22.7976 62.8745 22.4882ZM66.3554 21.004C66.4606 20.9988 66.566 21.0065 66.6713 21.0013C67.1056 20.9796 67.0443 20.6896 67.0384 19.8471C67.0343 19.2588 66.7995 19.3441 66.0445 19.3441C63.8301 19.3439 63.7468 19.3048 63.6367 19.5606C63.6193 19.6011 63.5918 20.6255 63.655 20.8053C63.7471 21.068 64.2911 21.0019 64.336 21.0019C66.234 21.0063 66.2337 21.008 66.3554 21.004Z" fill="#353D45"/>
<path fill-rule="evenodd" clip-rule="evenodd" d="M11.8377 25.9876C11.3067 25.9874 11.0129 26.077 11.0058 25.5943C10.9938 24.7699 11.0039 21.0206 11.0049 20.6228C11.0061 20.2137 10.9132 19.4615 11.8023 18.8584C12.2884 18.5286 12.3311 18.5743 15.4101 18.5743C16.4229 18.5743 16.7273 18.5265 16.7995 18.7619C16.8283 18.8557 16.8482 19.7094 16.782 19.8332C16.6932 19.9989 16.6389 19.9723 14.3228 19.9723C12.8571 19.9723 12.6485 19.9348 12.466 20.1617C12.3816 20.2667 12.3911 20.2855 12.3933 25.2826C12.3933 25.3191 12.3934 25.7265 12.3899 25.74C12.322 25.9966 12.1145 25.9723 11.8377 25.9876Z" fill="#343D46"/>
<path fill-rule="evenodd" clip-rule="evenodd" d="M57.4108 20.9337C57.4121 19.0778 57.3992 19.0784 57.4111 18.9175C57.4136 18.8844 57.4333 18.6227 57.6523 18.5795C57.6809 18.5739 58.0852 18.5742 58.1228 18.5742C61.6517 18.5764 61.6525 18.5719 61.6997 18.5815C62.0105 18.6454 61.9291 19.04 61.9202 19.0829C61.8823 19.2671 61.8685 19.2777 61.6876 19.3291C61.6742 19.333 61.2659 19.333 61.2292 19.333C58.3527 19.333 58.3403 19.3277 58.2789 19.3816C58.2227 19.431 58.127 19.515 58.1753 20.3107C58.1797 20.3826 58.1851 20.6279 58.4249 20.672C58.5018 20.6861 60.8745 20.6734 60.9122 20.6819C61.3715 20.7866 61.1596 21.3307 61.0689 21.3914C60.9967 21.4399 60.502 21.4399 60.4526 21.4399C58.3469 21.44 58.2677 21.4108 58.1994 21.5853C58.1487 21.7149 58.1874 23.1712 58.1677 23.272C58.0981 23.6244 57.5697 23.5163 57.4875 23.4319C57.399 23.3408 57.411 23.3202 57.4108 20.9337Z" fill="#363E46"/>
</svg>
