<svg width="80" height="30" viewBox="0 0 80 30" fill="none" xmlns="http://www.w3.org/2000/svg">
<g clip-path="url(#clip0_454_2838)">
<mask id="mask0_454_2838" style="mask-type:luminance" maskUnits="userSpaceOnUse" x="4" y="8" width="72" height="14">
<path d="M76 8H4V22H76V8Z" fill="white"/>
</mask>
<g mask="url(#mask0_454_2838)">
<path d="M39.5287 14.5007H39.8429C40.2684 14.5166 40.6251 14.192 40.6415 13.7784C40.6415 13.7657 40.6415 13.7561 40.6415 13.7434C40.6415 13.3139 40.3535 13.0752 39.8331 13.0752H39.5287V14.4975V14.5007ZM43.456 18.5034H41.3647L41.2764 18.3634C41.1422 18.1502 41.0211 17.9498 40.9066 17.7652C40.5564 17.1384 40.1571 16.5402 39.712 15.9739H39.5287V18.5066H37.7091V11.5098H39.8037C41.476 11.5098 42.4742 12.2957 42.4742 13.6098C42.4677 14.332 42.0749 15.0034 41.4335 15.3693C41.9538 16.0789 42.4349 16.8139 42.8767 17.5711L43.456 18.5034Z" fill="#363432"/>
<path d="M32.9571 11.5098L32.2502 13.0689V18.5034H37.2051V16.9475H34.0731V15.7193H36.4818V14.1634H34.0731V13.072H37.2051V11.5129H32.9571V11.5098Z" fill="#363432"/>
<path d="M17.8764 16.9971C16.7702 16.9971 16.0862 16.2367 16.0862 15.0117C16.0862 13.7867 16.7735 13.0326 17.8764 13.0326C18.9793 13.0326 19.6567 13.7898 19.6567 15.0117C19.6567 16.2335 18.9727 16.9971 17.8764 16.9971ZM20.6254 12.5744C19.9054 11.8617 18.9105 11.4735 17.8862 11.5085C15.9422 11.4353 14.3058 12.9085 14.2305 14.7985C14.2305 14.8812 14.2273 14.9639 14.2305 15.0467C14.2011 16.0362 14.6135 16.9876 15.3629 17.6557C16.0665 18.2317 16.9665 18.5339 17.8862 18.5021C18.8615 18.5276 19.804 18.1712 20.5076 17.5157C21.1884 16.8444 21.5582 15.9344 21.532 14.9894C21.5615 14.1017 21.2375 13.233 20.6287 12.5712" fill="#363432"/>
<path d="M21.9967 11.5098V18.5034H27.6062L26.9484 16.9379H23.8164V11.5098H21.9935H21.9967Z" fill="#363432"/>
<path d="M29.3342 18.5034H28.0546L25.1157 11.5098H27.1022L28.6208 15.3025C28.6764 15.4489 28.7288 15.5825 28.7778 15.7098C28.8269 15.5857 28.8826 15.4552 28.9448 15.3216L30.6073 11.5129H32.5186L29.3375 18.5066L29.3342 18.5034Z" fill="#363432"/>
<path d="M45.6618 11.5117H43.8389V18.5054H45.6618V11.5117Z" fill="#363432"/>
<path d="M52.9011 18.5034H51.2091L48.2211 14.7775L48.1032 14.6279V18.5034H46.2902V11.5098H47.8709L50.9963 15.4107L51.0814 15.5189V11.5098H52.9011V18.5034Z" fill="#363432"/>
<path d="M8.21527 18.4735H6.94218L4 11.5117H5.98655L7.50509 15.2854C7.56727 15.4413 7.62291 15.5844 7.67527 15.7181C7.84545 15.3172 8.02545 14.9099 8.03855 14.8813L8.32 14.2385L9.22327 16.3799L8.21527 18.4735Z" fill="#363432"/>
<path d="M11.8218 18.4748H10.5422L7.60327 11.5098H9.58982L11.1084 15.2834C11.164 15.4298 11.2164 15.5634 11.2655 15.6907C11.3145 15.5666 11.3702 15.4361 11.4324 15.3025L13.0949 11.5098H15.0062L11.8218 18.4748Z" fill="#363432"/>
<path d="M53.5262 11.5098V18.5034H58.4811V16.9475H55.3491V15.7193H57.7578V14.1634H55.3491V13.072H58.4811V11.5129H53.5295L53.5262 11.5098Z" fill="#363432"/>
<path d="M71.3364 14.168C70.9404 14.8139 70.7244 15.5489 70.7113 16.303C70.7113 16.303 72.8484 17.6998 71.0222 20.4012C72.1415 19.7712 72.8877 18.6671 73.0448 17.4198C73.4048 15.2052 71.3364 14.1712 71.3364 14.1712" fill="#363432"/>
<path d="M68.548 14.4512C67.5989 15.1416 67.2291 16.7262 67.2291 16.7262C68.5185 18.228 68.6298 20.3757 67.5072 21.9984C68.9374 21.1234 69.8767 19.663 70.0567 18.0307C70.42 15.4884 68.5512 14.4512 68.5512 14.4512" fill="#363432"/>
<path d="M65.5894 14.4051C64.3556 15.0319 63.652 16.3396 63.8255 17.6823C64.0644 18.9741 64.7124 20.161 65.6811 21.0773C64.7451 18.0323 66.3389 16.7596 66.3389 16.7596C66.4371 15.1114 65.8284 14.2969 65.8284 14.2969C65.7465 14.3319 65.6647 14.3701 65.5894 14.4051Z" fill="#363432"/>
<path d="M75.3225 13.3511C75.028 12.9947 74.6614 12.6988 74.2458 12.4825C74.2458 12.4825 73.2934 11.8811 72.3443 11.1906C72.0825 10.9997 71.4084 10.4047 71.4051 10.4047C71.0582 10.0834 70.6196 9.67291 70.4298 9.48518C69.5953 8.57837 68.5022 7.99609 67.6578 7.99609C66.7316 7.99609 65.56 8.41928 64.4244 9.98155C63.2887 11.5438 61.8094 11.3402 61.204 14.1497C60.8047 15.7184 61.3284 17.3729 62.5687 18.4515C61.8291 16.0015 63.3902 14.8879 63.3902 14.8879C63.0465 13.9143 63.0956 12.3934 64.8858 10.9011C65.8414 10.1056 67.1276 9.80018 68.3549 10.0738C68.6593 10.1597 68.9538 10.2711 69.2418 10.4015C69.3302 10.4429 69.4218 10.4906 69.52 10.5415C69.7687 10.6688 70.0403 10.8215 70.2858 10.9838C70.3414 11.022 70.3971 11.0602 70.4494 11.0984C70.7702 11.3147 71.4673 11.7761 71.7684 11.932C74.3964 13.3511 74.0625 14.9293 73.9153 15.3493C73.9022 15.3843 73.8858 15.4193 73.8727 15.4575C74.776 16.7747 73.6436 18.6138 73.6436 18.6138C76.5563 16.6538 76.2978 14.522 75.316 13.3575" fill="#363432"/>
<path d="M59.1978 11.6867V12.1163H59.2764V11.9476H59.3385C59.368 11.9476 59.3974 11.9476 59.4269 11.9604C59.4596 11.9826 59.476 12.0208 59.4694 12.059V12.1067V12.1099C59.4694 12.1099 59.4694 12.1099 59.4694 12.1131H59.5447V12.1067C59.5447 12.1067 59.5382 12.0908 59.5382 12.0844V12.0208C59.5382 11.9954 59.5284 11.9731 59.5153 11.954C59.4956 11.9285 59.4694 11.9158 59.44 11.9126C59.4629 11.9126 59.4858 11.9031 59.5054 11.8935C59.5349 11.8744 59.5513 11.8426 59.548 11.8076C59.5513 11.7599 59.5251 11.7154 59.4793 11.6994C59.44 11.6867 59.3974 11.6804 59.3582 11.6835H59.2011L59.1978 11.6867ZM59.4694 11.8172C59.4694 11.8458 59.4531 11.8744 59.4236 11.884C59.4007 11.8904 59.3745 11.8935 59.3484 11.8935H59.2764V11.7376H59.3451C59.3778 11.7376 59.4105 11.7408 59.44 11.7535C59.4629 11.7663 59.4727 11.7917 59.4694 11.8172ZM59.7705 11.9031C59.7705 11.7981 59.728 11.6994 59.6494 11.6263C59.4891 11.4735 59.2338 11.4735 59.0734 11.6263C58.9164 11.7758 58.9131 12.0208 59.0669 12.1735C59.0669 12.1735 59.0702 12.1767 59.0734 12.1799C59.2338 12.3326 59.4924 12.3326 59.6527 12.1799C59.7313 12.1067 59.7738 12.0081 59.7738 11.9031M59.3647 11.5658C59.4596 11.5658 59.548 11.6008 59.6134 11.6644C59.6789 11.7249 59.7182 11.814 59.7149 11.9031C59.7149 11.9922 59.6789 12.0813 59.6134 12.1417C59.476 12.2722 59.2534 12.2722 59.116 12.1417C59.0505 12.0781 59.0113 11.9922 59.0145 11.9031C59.0145 11.814 59.0505 11.7281 59.116 11.6644C59.1814 11.6008 59.2698 11.5626 59.3647 11.5658Z" fill="#363432"/>
</g>
</g>
<defs>
<clipPath id="clip0_454_2838">
<rect width="72" height="14" fill="white" transform="translate(4 8)"/>
</clipPath>
</defs>
</svg>
