<svg width="80" height="30" viewBox="0 0 80 30" fill="none" xmlns="http://www.w3.org/2000/svg">
<g clip-path="url(#clip0_456_2941)">
<path fill-rule="evenodd" clip-rule="evenodd" d="M11.1288 10.1052H19.223C19.241 9.6027 19.3165 9.14476 19.4549 8.7367C19.9528 7.2702 21.628 6.49151 23.2512 6.4434C25.0918 6.38995 26.866 7.27733 26.7851 9.17149C26.803 10.5934 25.7407 11.2189 24.0457 11.3899C22.7695 11.3899 21.4914 11.3882 20.2134 11.3882V16.9673H23.084C23.6934 17.035 24.2812 17.2399 24.7845 17.5464C27.5328 19.2249 26.2225 22.7798 23.4255 23.1505C21.6928 23.3803 19.7407 22.7905 18.948 20.9694C18.5399 20.0304 18.4141 18.9167 18.3835 17.9812H10C10 25.7075 14.4237 30.0161 22.6364 29.9983C27.6353 29.9306 32.6306 28.2235 34.6006 24.5386C34.633 24.4798 34.6635 24.421 34.6923 24.3621V29.3069H43.2214V11.4309L47.7422 29.3069H55.0364L59.674 11.4398L59.5985 29.3069H67.9982V0.545328H55.484L51.4414 17.2595L47.2496 0.545328H34.6923V6.38995C33.2327 1.56635 27.9804 0.0553064 23.4273 6.76393e-05C15.2146 -0.0177513 11.5189 3.48546 11.1288 10.1052ZM34.6923 17.1116C34.0506 16.0425 33.1141 15.0393 31.7965 14.1287C31.6725 14.0307 31.6599 13.9808 31.7965 13.8989C32.6647 13.3803 33.4197 12.8333 33.9805 12.092C34.2878 11.6875 34.5197 11.2456 34.6887 10.7788V17.1098L34.6923 17.1116Z" fill="#E30613"/>
</g>
<defs>
<clipPath id="clip0_456_2941">
<rect width="58" height="30" fill="white" transform="translate(10)"/>
</clipPath>
</defs>
</svg>
