<svg width="80" height="30" viewBox="0 0 80 30" fill="none" xmlns="http://www.w3.org/2000/svg">
<g clip-path="url(#clip0_456_2987)">
<path d="M52.94 16.5427L54.1793 18.0741C53.1074 19.0309 51.8148 19.4602 50.2107 19.4131C48.7779 19.3712 47.7021 18.9982 47.0272 18.1814C46.2278 17.2128 45.8735 15.9393 45.771 14.3568C45.6633 12.7023 46.1642 11.3895 46.9494 10.4314C47.7371 9.47329 48.813 8.9301 50.1757 8.99554C51.441 9.05706 52.5415 9.21282 53.2839 10.4092C53.8705 11.3542 54.2183 12.6919 54.2183 14.4327C54.2183 14.6264 54.2222 15.0283 54.2222 15.0283L48.534 15.0191C48.569 15.8149 48.6118 16.3921 48.9363 16.7966C49.262 17.201 50.2211 17.7377 51.4812 17.3581C51.7992 17.2626 52.6544 16.8673 52.9387 16.5427H52.94ZM48.656 13.0584L51.4838 13.0885C51.4488 12.0793 51.5098 11.2325 50.0472 11.2325C49.4995 11.2325 49.0427 11.4353 48.8675 11.701C48.604 12.0989 48.6391 12.5361 48.656 13.0584Z" fill="#0061AD"/>
<path d="M37.5767 16.2384C37.5806 16.3012 39.465 17.402 40.4046 17.3876C42.4343 17.3575 42.4889 15.8156 40.9432 15.4662C40.5318 15.3732 40.1438 15.2868 39.9011 15.2201C38.6734 14.8824 38.0764 14.3916 37.5988 13.9308C36.558 12.9269 37.0952 10.7502 38.0855 9.88763C38.7811 9.2803 39.5675 8.98187 40.7576 8.97663C43.0742 8.96747 44.4823 9.85491 44.4823 9.85491L43.3999 11.7594C43.3908 11.6481 41.2131 11.0094 40.6797 11.1062C40.4319 11.1507 40.1879 11.2594 40.0802 11.3457C39.9919 11.4164 39.8517 11.6376 39.8517 11.9491C39.8517 12.3536 39.8868 12.4845 41.1418 12.7934C41.4286 12.8641 41.657 12.919 41.8257 12.9622C43.0806 13.279 43.8126 13.724 44.272 14.1717C44.7301 14.618 44.8353 15.2162 44.8353 16.0303C44.8353 17.1834 44.3019 17.9963 43.7049 18.5683C42.3331 19.8811 38.8602 19.7253 37.3509 18.6088C37.0875 18.4138 36.6644 18.2188 36.7059 18.1298C36.8045 17.923 36.946 17.508 37.5767 16.2371V16.2384Z" fill="#0061AD"/>
<path d="M27.6499 19.1317V9.72727L29.9392 9.05318L30.2429 10.1959C30.5985 9.70502 30.8775 9.51653 31.3655 9.28748C31.8703 9.05057 32.3856 8.9668 32.9748 8.9668C34.0169 8.9668 34.4049 9.09507 34.9227 9.67753C35.4406 10.26 35.6028 10.7482 35.6028 12.1592V19.133H32.9566L33.0176 13.0048C33.0033 12.5911 32.88 11.9694 32.7957 11.815C32.6088 11.476 32.1974 11.2744 31.6835 11.2862C31.3136 11.294 30.9969 11.4367 30.8788 11.5532C30.5258 11.9014 30.3584 12.4301 30.3584 13.116V19.133H27.6512L27.6499 19.1317Z" fill="#0061AD"/>
<path d="M19.8788 5.75781H22.913L26.9725 19.1282L24.0317 19.0667L23.0428 15.8743H19.248L18.3461 19.1269H15.5792L19.8788 5.75781ZM21.2856 8.75389L19.9411 13.6217H22.5146L21.2856 8.75389Z" fill="#0061AD"/>
<path d="M55.6251 5.55105C55.6459 9.48429 55.6653 13.6008 55.6861 17.5641C55.995 18.7186 56.5543 19.3128 57.782 19.4332H59.7274L59.4834 17.4725C58.536 17.6636 58.3894 17.1754 58.3894 16.462L58.4179 5L55.6251 5.55105Z" fill="#0061AD"/>
<path d="M60.6112 5.5504C60.632 9.48365 60.6514 13.6001 60.6722 17.5635C60.9824 18.7179 61.5404 19.3122 62.7694 19.4326L64.6837 19.4627L64.4708 17.4706C63.5234 17.6617 63.3768 17.1734 63.3768 16.4601L63.4676 4.99805L60.6112 5.54909V5.5504Z" fill="#0061AD"/>
<path d="M18.1903 21.1805C23.7734 20.4502 29.1826 20.0104 34.6217 20.212C38.4618 20.3546 42.5654 20.6688 46.6314 20.8729C49.6695 21.0156 53.4383 21.2813 56.8411 21.3023L60.9733 21.2407C64.4526 21.0091 68.0397 20.4279 70.7573 19.8926C70.8378 20.0352 70.9195 20.1779 71 20.3219L67.2935 21.6701C63.1964 23.1478 58.9383 23.5091 54.3494 23.6923C48.8636 23.8062 43.4895 23.3952 38.1231 23.0798C29.9016 22.6688 20.0579 21.3651 11.9311 23.5091L10.2297 23.9999C8.59319 22.5038 16.2008 21.4921 18.1903 21.1805Z" fill="#009E91"/>
</g>
<defs>
<clipPath id="clip0_456_2987">
<rect width="61" height="19" fill="white" transform="translate(10 5)"/>
</clipPath>
</defs>
</svg>
