<svg width="80" height="30" viewBox="0 0 80 30" fill="none" xmlns="http://www.w3.org/2000/svg">
<g clip-path="url(#clip0_454_2876)">
<path d="M71.763 16.666V25.6499L71.4338 25.9999H9.0022V16.666H71.763ZM23.4855 24.8355C23.5008 24.3455 23.5074 23.8601 23.4328 23.3724C23.3033 22.5277 22.5353 18.6168 22.2719 18.0731C21.9362 17.3801 21.0079 17.6251 20.4111 17.6017L22.0525 24.6092L23.4855 24.8378V24.8355ZM25.6777 20.4019L26.8846 24.6045L28.5414 24.7258C28.8684 24.4668 28.6577 24.4388 28.5963 24.1938C28.4032 23.4378 26.6784 18.0708 26.4545 17.8281C26.0859 17.4291 25.2322 17.5947 24.7231 17.6344C23.6062 19.4709 23.187 21.7693 23.9287 23.9021C24.4269 23.9978 24.2777 23.8741 24.4181 23.6034C24.9009 22.67 24.8723 21.095 25.6799 20.4019H25.6777ZM30.5077 17.5994C29.6211 17.6274 29.0286 17.2821 28.6402 18.2994C27.9292 20.1592 27.995 21.6293 28.7543 23.4331C29.2502 23.5311 29.1032 23.4051 29.2415 23.1367C29.5223 22.593 30.6964 17.8048 30.5077 17.5994ZM36.2132 17.5994C30.7381 17.2821 30.7403 25.2392 36.2132 25.0689C36.674 22.9804 35.0874 23.8321 34.4862 22.586C33.6545 20.8663 34.4554 19.2725 36.1846 18.9692L36.2132 17.5994ZM36.6521 25.0689C41.8792 25.1552 41.978 17.3077 36.6521 17.5994L36.6433 18.8431C39.1274 19.5712 39.4653 23.2207 36.6652 23.4471L36.6521 25.0689ZM43.0159 24.8332L44.631 24.8005L44.9602 24.4505L44.8944 17.8188L43.0159 17.5994V24.8332ZM48.7215 21.802C49.992 21.669 50.4375 20.6446 50.2444 19.3635C49.9284 17.2471 46.9264 17.6134 45.4276 17.5994V19.2352C45.669 19.4919 49.54 18.5001 47.9183 20.5979L45.4276 20.6329V22.033C47.1195 21.4566 47.5211 24.2265 48.2826 24.7165C48.7829 25.0362 49.8713 24.7375 50.4748 24.8332L48.7193 21.8043L48.7215 21.802ZM54.8659 24.8332V17.9494C54.427 17.4057 53.3298 17.4057 52.8909 17.9494V24.8332H54.8659ZM60.1325 17.6017C59.461 17.6787 58.5591 17.4197 57.9425 17.7207C57.6199 17.8794 55.4452 19.9959 55.3486 20.3319C55.2323 20.7403 55.2499 21.172 55.4211 21.5616C55.5922 21.9513 57.9798 24.6792 58.3133 24.7842C58.9585 24.9872 59.8801 24.7445 60.5714 24.8308C60.6701 24.4272 60.4134 24.3641 60.2444 24.1308C59.7792 23.4844 57.4092 21.375 57.3214 20.9456C57.1437 20.0682 60.6855 18.1104 60.1325 17.5994V17.6017Z" fill="#FF9E19"/>
<path d="M37.3104 14.5651H34.2382C33.7795 13.7997 32.7196 11.7999 32.1491 11.3029C31.5785 10.8059 28.9649 11.1115 28.0784 11.1675L27.8743 14.5674H25.0193V4.06445H33.6874C34.0846 4.06445 35.3661 4.61049 35.7567 4.8975C37.9292 6.49127 37.2818 9.7348 35.1181 10.9482C35.1181 11.1652 37.5452 13.7834 37.3082 14.5651H37.3104ZM33.6896 6.63128C32.3839 6.23692 29.3841 6.92296 27.8743 6.63128V8.7314H33.4701C34.2667 8.7314 34.5476 6.89029 33.6896 6.63128Z" fill="black"/>
<path d="M60.1325 14.5659L57.4268 14.5286C56.9001 14.3372 56.6082 12.9955 56.2966 12.6968C55.6624 12.0924 51.3109 12.6781 50.1873 12.4565L49.0177 14.5286L46.3076 14.4469L51.4623 4.29629C51.8573 3.92061 54.5959 3.80393 54.969 4.54131L60.1325 14.5659ZM54.6464 9.89897L53.3276 6.86545L51.5742 9.89897H54.6464Z" fill="black"/>
<path d="M22.6075 14.5663L19.9742 14.4519L18.9911 12.6971L12.8818 12.4568L11.8131 14.5173L9.00201 14.4473L14.1567 4.29664C14.5539 3.91862 17.286 3.80661 17.6656 4.53932C18.1155 5.67106 23.0003 14.1719 22.6097 14.5663H22.6075ZM17.3409 9.89931L16.022 6.8658C15.7543 6.64412 14.3872 9.59363 14.2687 9.89931H17.3409Z" fill="black"/>
<path d="M67.3742 6.63128V14.2151C66.6763 14.9151 65.4321 14.4297 64.5214 14.5651V6.63128H59.9131V4.06445H71.6533L71.9474 4.45181C72.0088 4.74583 71.9956 5.04918 71.9956 5.34786C71.9956 5.82623 72.0681 6.33492 71.6533 6.63128H67.3742Z" fill="black"/>
<path d="M40.8215 14.5651V4.06445L43.5777 4.2838L43.6435 14.1824C43.4219 14.9058 41.4425 14.4391 40.8215 14.5651Z" fill="black"/>
</g>
<defs>
<clipPath id="clip0_454_2876">
<rect width="63" height="22" fill="white" transform="translate(9 4)"/>
</clipPath>
</defs>
</svg>
