<svg width="80" height="30" viewBox="0 0 80 30" fill="none" xmlns="http://www.w3.org/2000/svg">
<path fill-rule="evenodd" clip-rule="evenodd" d="M55.5507 12.2861L55.2108 11.6698H42.2839L40.688 10.3023L42.2839 8.92398H55.0836L55.5507 8.37563V7.82031H56.6912V12.7842H55.5507V12.2861Z" fill="black"/>
<path fill-rule="evenodd" clip-rule="evenodd" d="M58.8596 1.47865V0.599609H60.0001V6.55199H58.8596V5.64727L58.5068 5.2115H45.4213L47.6772 1.81712H58.4576L58.8596 1.47865Z" fill="black"/>
<path fill-rule="evenodd" clip-rule="evenodd" d="M58.8596 19.7264L58.4576 19.388H47.6772L45.4213 15.9936H58.5068L58.8596 15.5578V14.6531H60.0001V20.6055H58.8596V19.7264Z" fill="black"/>
<path fill-rule="evenodd" clip-rule="evenodd" d="M32.6028 18.1909H33.6293V19.3314H26.173V18.1909H27.5386L39.7471 2.96469H38.5558V1.82422H46.0122V2.96469H44.9316L38.6254 10.3012L44.8992 18.1909H46.0388V19.3314H38.5825V18.1909H39.8715L35.9014 13.5312L32.6028 18.1909Z" fill="black"/>
<path fill-rule="evenodd" clip-rule="evenodd" d="M27.545 2.96469H26.173V1.82422H33.6293V2.96469H32.6733L35.1683 6.16021L32.6028 9.2493L27.545 2.96469Z" fill="#D1322A"/>
<path fill-rule="evenodd" clip-rule="evenodd" d="M12.8549 18.1909H13.8967V19.3314H6.6001V18.1909H8.06421L20.3554 2.96469H19.196V1.82422H25.88V2.96469H25.0127L31.0661 10.3481L30.1862 11.7374H20.0079L22.1382 8.92295H25.1845L22.7762 5.48526L12.8549 18.1909Z" fill="black"/>
<path d="M50.599 29.003V23.5684H54.2652V24.2097H51.3181V25.8926H53.8686V26.534H51.3181V29.003H50.599Z" fill="#D1322A"/>
<path d="M55.2104 29.003V23.5684H57.62C58.1044 23.5684 58.4726 23.6171 58.7247 23.7147C58.9768 23.8124 59.1783 23.9847 59.329 24.2319C59.4798 24.4791 59.5551 24.7521 59.5551 25.0511C59.5551 25.4368 59.4303 25.7617 59.1807 26.0261C58.931 26.2906 58.5455 26.4587 58.0241 26.5304C58.2144 26.6218 58.3589 26.712 58.4578 26.8009C58.6679 26.9936 58.8668 27.2346 59.0547 27.5239L60 29.003H59.0955L58.3762 27.8723C58.1662 27.546 57.9931 27.2964 57.8572 27.1235C57.7213 26.9505 57.5997 26.8293 57.492 26.7601C57.3845 26.691 57.2752 26.6427 57.1641 26.6155C57.0825 26.5982 56.9491 26.5896 56.7637 26.5896H55.9296V29.003H55.2104ZM55.9296 25.9669H57.4755C57.8041 25.9669 58.0611 25.9329 58.2465 25.8648C58.4318 25.797 58.5727 25.6882 58.6691 25.5387C58.7655 25.3891 58.8137 25.2266 58.8137 25.0511C58.8137 24.7942 58.7205 24.5828 58.5338 24.4173C58.3472 24.2517 58.0525 24.1689 57.6497 24.1689H55.9296V25.9669Z" fill="#D1322A"/>
</svg>
