<svg width="80" height="30" viewBox="0 0 80 30" fill="none" xmlns="http://www.w3.org/2000/svg">
<path fill-rule="evenodd" clip-rule="evenodd" d="M6.12222 10.0291C8.40002 10.0291 8.65509 10.0289 8.69103 10.0295C8.96339 10.0339 9.57401 10.0594 9.605 10.9587C9.65173 12.3177 9.441 12.3769 9.28454 12.5652C9.0495 12.8482 9.15067 12.897 9.3626 13.1945C9.63102 13.5716 9.61304 13.9503 9.60654 14.5558C9.59421 15.7101 8.85589 15.5704 8.00526 15.5706C4.2455 15.5708 4.23147 15.579 4.12704 15.5047C4.01269 15.4234 4.01081 15.1053 4.01046 15.0694C4.00807 14.6849 3.98068 10.4294 4.02553 10.2628C4.10222 9.97742 4.25492 10.0289 6.12222 10.0291ZM7.32052 12.0933C7.37359 12.0933 7.94826 12.0923 7.98301 12.0774C8.23123 11.9717 8.33617 11.4857 7.8375 11.4373C7.7995 11.4337 5.78481 11.4349 5.77625 11.4358C5.28186 11.4784 5.28683 12.0513 5.78361 12.0936C5.90618 12.1041 5.90567 12.0933 7.32052 12.0933ZM6.97815 13.498C5.89283 13.498 5.52067 13.4511 5.44055 13.7004C5.28957 14.1708 5.73345 14.1908 5.78138 14.1931C6.08798 14.2067 7.51225 14.1934 7.66272 14.192C7.7038 14.1915 8.0621 14.1883 8.14855 14.0272C8.23345 13.8692 8.17371 13.5954 8.00304 13.5335C7.87191 13.4859 7.38831 13.498 6.97815 13.498Z" fill="#010101"/>
<path fill-rule="evenodd" clip-rule="evenodd" d="M55.0072 11.8161C55.0072 12.7545 55.0996 13.4336 54.5619 13.6878C54.5349 13.7005 54.2661 13.8277 54.2408 13.8785C54.1576 14.0461 54.2372 14.0496 54.5445 14.7377C54.6062 14.8764 54.8546 15.3358 54.8409 15.4055C54.8098 15.5639 54.5936 15.5777 54.5677 15.5794C54.1488 15.6067 53.7816 15.5716 53.7135 15.5651C53.3121 15.5267 53.2335 15.2313 52.8009 14.4109C52.5405 13.9172 52.5589 13.7941 52.0006 13.7912C50.6899 13.7844 50.4572 13.693 50.444 14.212C50.4158 15.3216 50.4704 15.3482 50.3506 15.4695C50.1694 15.6531 49.2303 15.5711 49.1446 15.5127C49.0131 15.4232 49.0324 15.3834 49.0324 12.5008C49.0324 10.2499 49.016 10.2283 49.1127 10.1248C49.2141 10.0162 49.2423 10.0287 53.541 10.0291C54.0994 10.0291 54.5236 9.96831 54.8271 10.3403C55.0469 10.6097 55.007 11.2953 55.0072 11.8161ZM52.8562 11.4357C50.6414 11.4359 50.5402 11.3945 50.4671 11.6475C50.4536 11.6945 50.3714 12.2595 50.6176 12.3548C50.7852 12.4199 53.3027 12.3959 53.3857 12.3687C53.6601 12.2785 53.6658 11.5444 53.3761 11.4549L52.8562 11.4357Z" fill="#020202"/>
<path fill-rule="evenodd" clip-rule="evenodd" d="M44.6388 10.0289C47.3794 10.0289 47.5026 10.0286 47.5512 10.0301C47.5701 10.0308 48.3312 9.98509 48.3972 10.7893C48.4215 11.0858 48.4048 14.7261 48.4032 15.0685C48.4029 15.1332 48.4623 15.5437 48.0612 15.5678C47.1654 15.6219 47.0959 15.4728 47.0615 15.3994C47.0031 15.2739 47.0327 14.3657 47.0233 14.2137C46.9976 13.7943 46.5698 13.8614 46.3507 13.8614C44.417 13.8609 44.3792 13.8352 44.241 14.0015C44.0714 14.2059 44.2975 15.3251 44.0599 15.5043C43.9707 15.5716 43.4904 15.5706 43.4405 15.5704C43.3538 15.5702 42.7888 15.6767 42.7401 15.2414C42.7217 15.0777 42.7358 11.4599 42.7371 11.1312C42.7421 9.86013 43.4226 10.0289 44.6388 10.0289ZM45.666 11.4357C44.7515 11.4357 44.411 11.4196 44.3067 11.4903C44.1114 11.6227 44.173 12.2174 44.2063 12.2939C44.2829 12.4707 44.3454 12.4457 46.5217 12.4495C46.8037 12.45 47.0683 12.4786 47.0252 11.8166C46.9949 11.351 46.7208 11.4357 45.666 11.4357Z" fill="#010101"/>
<path fill-rule="evenodd" clip-rule="evenodd" d="M15.9836 12.8431C15.969 12.9542 15.9959 13.068 15.9814 13.1791C15.9358 13.5295 15.6272 13.4878 15.5371 13.4886C14.2031 13.5004 12.131 13.4539 11.9422 13.5268C11.7334 13.6076 11.6183 14.1444 12.1162 14.1896C12.2076 14.198 15.625 14.1829 15.7112 14.199C15.954 14.2446 15.979 14.5239 15.9822 14.5599C15.9886 14.6302 16.0397 15.2027 15.9245 15.4413C15.8516 15.5923 15.7967 15.5704 12.7987 15.5704C10.6417 15.5704 10.5156 15.6028 10.4135 15.4052C10.368 15.3172 10.3743 15.31 10.3748 10.6175C10.3748 10.5791 10.3748 10.238 10.4491 10.1435C10.5534 10.0106 10.5904 10.0289 13.997 10.0289C15.7734 10.0289 15.8752 9.97981 15.9552 10.2472C15.9665 10.2849 16.0769 11.2817 15.8374 11.3969C15.6279 11.4975 12.2007 11.3726 11.9417 11.4714C11.7377 11.5492 11.6245 12.04 12.1189 12.0881C12.1651 12.0926 15.6522 12.0815 15.7222 12.0955C15.8915 12.1296 15.9074 12.1349 15.9565 12.3009C15.969 12.3425 15.9586 12.341 15.9836 12.8431Z" fill="#010101"/>
<path fill-rule="evenodd" clip-rule="evenodd" d="M41.2153 10.0297C41.7037 10.0346 41.7011 10.028 41.7427 10.0351C41.948 10.0702 41.9569 10.0882 42.0224 10.2854C42.0301 10.3087 42.0293 10.7493 42.0293 10.7896C42.0284 11.275 42.0289 15.236 42.0289 15.2372C42.0277 15.2639 42.0192 15.4655 41.8754 15.5336C41.7388 15.5984 40.8955 15.5639 40.8775 15.5607C40.5336 15.4994 40.6076 15.0418 40.6076 14.3845C40.6076 12.9693 40.6791 12.9712 40.6571 12.8503C40.6042 12.5595 40.3874 12.6656 40.363 12.6777C40.3455 12.6861 40.3626 12.6971 40.2245 12.8765C40.1295 13.0001 39.5378 13.7691 39.0063 14.3983C38.8675 14.5628 38.7488 14.8236 38.4755 14.7282C38.3983 14.7013 38.4133 14.6827 38.2361 14.4377C38.1848 14.3665 37.7541 13.7706 37.586 13.5549C37.089 12.9169 37.0652 12.7683 37.0404 12.7346C37.0276 12.7171 36.9249 12.5776 36.7746 12.6839C36.6737 12.7553 36.7425 13.2197 36.7456 13.5285C36.7631 15.3382 36.7631 15.3589 36.6534 15.4688C36.5149 15.6078 36.1597 15.5716 35.9087 15.5711C35.378 15.5699 35.3597 15.4292 35.3599 14.898C35.3599 10.2693 35.3482 10.2502 35.4373 10.1409C35.5732 9.97421 36.6304 9.95794 36.872 10.1724C36.999 10.2856 38.3034 12.1098 38.4217 12.2332C38.4407 12.253 38.5818 12.4003 38.7637 12.2638C38.7942 12.2411 39.9679 10.7913 40.0719 10.6627C40.5109 10.1204 40.5191 10.0403 41.2153 10.0297Z" fill="#020202"/>
<path fill-rule="evenodd" clip-rule="evenodd" d="M17.2489 10.0284C17.7847 10.0423 17.8531 9.93086 18.2184 10.3263C18.4725 10.6012 18.4638 10.6041 18.6931 10.8999C18.7077 10.9186 19.2264 11.4948 19.2454 11.5188C20.0121 12.4867 20.0371 12.462 20.1029 12.5466C20.2985 12.7989 20.2578 12.8287 20.4879 13.0497C20.652 13.2074 20.7085 13.0945 20.7378 12.8665C20.7624 12.6745 20.6779 12.6775 20.7118 10.4472C20.7149 10.2457 20.6823 10.2239 20.8338 10.0897C20.886 10.0433 20.9302 10.0043 21.7048 10.0293C21.7411 10.0305 22.0392 10.0401 22.0979 10.2568C22.1431 10.4235 22.117 14.6842 22.1148 15.069C22.1128 15.398 22.0963 15.5547 21.6993 15.5687C20.84 15.5992 20.6988 15.5307 20.4043 15.1753C20.2612 15.0028 19.0569 13.5492 18.6043 13.0266C18.3107 12.6876 18.2933 12.4993 18.1048 12.4976C17.8634 12.4956 17.9291 12.6058 17.9499 12.8438C17.9651 13.0211 17.9904 13.313 17.9846 15.0685C17.9831 15.5305 17.8807 15.5685 17.4202 15.5689C17.1739 15.569 16.6276 15.6661 16.6045 15.2356C16.5995 15.1407 16.6016 10.5035 16.6026 10.4473C16.6062 10.2457 16.5737 10.2239 16.7254 10.0894C16.7851 10.0365 17.2067 10.0291 17.2489 10.0284Z" fill="#010101"/>
<path fill-rule="evenodd" clip-rule="evenodd" d="M32.4851 12.0868C32.5243 12.0858 32.9759 12.0741 32.9759 12.0741C33.2457 11.9533 33.1226 11.8548 33.1748 10.4466C33.1928 9.96544 33.372 10.0444 33.8544 10.029C34.2897 10.0149 34.5828 9.97126 34.5969 10.4434C34.597 10.4477 34.5994 15.2145 34.5955 15.2469C34.5601 15.5348 34.3978 15.5639 34.1963 15.5694C33.4535 15.5898 33.2133 15.5862 33.1774 15.239C33.1505 14.9779 33.2387 13.7668 33.0976 13.5944C32.9882 13.4611 32.9591 13.4652 30.9437 13.4903C30.404 13.497 30.4377 13.6737 30.4372 14.2126C30.4365 14.9981 30.4922 15.4497 30.2439 15.5413C30.2294 15.5466 29.355 15.6541 29.1685 15.4788C29.0496 15.367 29.0571 15.3414 29.0571 13.0143C29.0571 10.2595 29.0568 10.2479 29.124 10.1508C29.1949 10.0486 29.3695 10.0343 29.393 10.0324C30.2388 9.96322 30.3246 10.0846 30.3699 10.1488C30.5567 10.4134 30.2794 11.8875 30.5769 12.0248C30.7417 12.1008 31.0766 12.0866 32.4851 12.0868Z" fill="#010101"/>
<path fill-rule="evenodd" clip-rule="evenodd" d="M27.0069 10.03C28.0565 10.0298 28.3586 9.92608 28.3735 10.4477C28.3935 11.1489 28.3846 11.4176 28.0306 11.4349C27.7695 11.4478 24.5947 11.4144 24.4343 11.4575C24.1151 11.5433 24.1657 11.8855 24.1666 13.3577C24.1666 13.3977 24.1669 13.8197 24.1769 13.8574C24.2613 14.1748 24.5648 14.1845 24.6124 14.1869C25.1056 14.2109 28.0058 14.1511 28.2001 14.2253C28.5005 14.3398 28.3478 15.376 28.3393 15.3957C28.2484 15.6052 28.1768 15.5715 25.8086 15.5715C23.3993 15.5715 23.1426 15.6321 22.9127 15.2311C22.7639 14.9715 22.7843 14.9536 22.7843 11.817C22.7843 11.0261 22.71 10.4398 23.1095 10.1603C23.3244 10.0098 23.3483 10.03 27.0069 10.03Z" fill="#020202"/>
<path fill-rule="evenodd" clip-rule="evenodd" d="M68.4 13.4985C68.2896 13.5867 68.2553 13.7722 67.7507 13.7806C67.1596 13.7904 66.5883 13.6928 66.5053 14.0292C66.4555 14.231 66.5668 15.2886 66.4194 15.4439C66.382 15.4832 66.393 15.5774 65.5249 15.5556C65.1367 15.5459 65.11 15.4593 65.1071 15.0708C65.0999 14.1519 65.1225 11.3681 65.0958 10.6181C65.0745 10.0246 65.2729 10.045 65.8663 10.0448C70.719 10.0441 70.8485 10.0496 71.0089 10.0313C71.2617 10.0024 71.2631 9.98884 71.3134 10.0111C71.429 10.0621 71.369 10.2619 71.3627 10.2831C71.3374 10.3677 71.2853 10.3266 70.5953 11.0738C70.1865 11.5163 70.0973 11.4417 68.7764 11.4417C66.7183 11.4417 66.6017 11.404 66.5211 11.6322C66.5086 11.6675 66.3904 12.274 66.7078 12.3697C66.9745 12.4503 68.7653 12.3765 68.944 12.3692C69.0841 12.3634 69.1135 12.3413 69.1693 12.471C69.2186 12.5856 69.245 12.6008 69.1575 12.691C68.645 13.219 68.4584 13.4319 68.4 13.4985Z" fill="#020202"/>
<path fill-rule="evenodd" clip-rule="evenodd" d="M74.482 14.5245C74.5676 14.6996 74.567 14.6953 74.652 14.8718C74.7021 14.9762 74.7052 14.972 74.7536 15.0748C74.7654 15.1002 74.886 15.357 74.8753 15.4023C74.8389 15.5569 74.6205 15.5612 74.5946 15.5617C73.5882 15.581 73.4733 15.472 73.4037 15.4059C73.2148 15.2269 72.7232 14.0031 72.5399 13.8736C72.4416 13.8041 72.4332 13.7791 70.1458 13.7862C69.6607 13.7877 69.4975 13.8526 69.3965 13.7687C69.1807 13.589 69.4422 13.4407 69.5777 13.3128C70.0987 12.8203 70.2246 12.4014 70.8318 12.3915C73.3354 12.3501 73.4954 12.5273 73.6014 12.169C73.6051 12.1563 73.7188 11.55 73.4032 11.458C73.3109 11.4312 72.1326 11.4361 71.8585 11.4531C71.832 11.4546 71.5595 11.4716 71.5263 11.4512C71.2934 11.3086 71.5754 11.0575 71.6006 11.035C72.3509 10.3672 72.2988 10.0622 72.8827 10.0454C74.3366 10.0038 74.4585 10.0764 74.5749 10.1459C75.0541 10.4314 75.0007 10.6437 74.9959 12.6719C74.9938 13.5292 74.8091 13.5516 74.4452 13.741C74.2221 13.857 74.2353 14.0147 74.2377 14.044C74.2413 14.0874 74.3515 14.273 74.482 14.5245Z" fill="#050505"/>
<path fill-rule="evenodd" clip-rule="evenodd" d="M57.3017 12.8453C57.308 12.7817 57.2759 12.7182 57.2824 12.6547C57.2957 12.5233 57.614 12.1935 57.6482 12.1579C57.8634 11.9349 58.2778 11.4718 58.5623 11.1882C59.5205 10.233 59.4554 10.0205 60.2174 10.0188C61.2104 10.0166 61.2246 9.98422 61.2876 10.0423C61.5163 10.2533 61.3734 10.3052 61.144 10.5115C60.872 10.7561 59.6952 12.0335 59.6363 12.0944C59.1486 12.5982 58.8528 12.6994 59.3369 13.2087C59.4773 13.3562 61.0502 15.0106 61.0931 15.0494C61.1139 15.0683 61.5316 15.3384 61.3597 15.5269C61.2888 15.6044 61.2725 15.5933 60.0463 15.5688C59.5398 15.5587 59.4516 15.329 59.2779 15.1499C59.15 15.0181 58.1532 13.9903 57.6865 13.4934C57.1603 12.9329 57.3033 12.8524 57.3017 12.8453Z" fill="#010101"/>
<path fill-rule="evenodd" clip-rule="evenodd" d="M56.9274 12.5102C56.9255 12.6184 56.8887 12.7241 56.8866 12.8323C56.8856 12.8892 56.9115 12.9433 56.9187 12.9996C56.963 13.3411 56.964 13.9581 56.9642 14.0414C56.9664 15.2485 56.9882 15.3546 56.8567 15.4778C56.8028 15.5283 56.7156 15.6102 55.9383 15.5686C55.8047 15.5614 55.7981 15.572 55.7002 15.4847C55.4916 15.2984 55.5992 15.2385 55.5853 10.7889C55.5836 10.2182 55.5399 10.0233 56.1091 10.018C56.8524 10.011 56.9467 10.0821 56.9632 10.4465C56.9953 11.1667 56.9358 12.3453 56.9274 12.5102Z" fill="#010101"/>
<path d="M11.2633 20.5916C11.231 20.5916 11.2114 20.5766 11.2045 20.5467L11.1285 20.277C11.1238 20.2678 11.1181 20.2632 11.1112 20.2632H10.3783C10.3714 20.2632 10.3656 20.2678 10.3611 20.277L10.285 20.5467C10.2781 20.5766 10.2585 20.5916 10.2262 20.5916H9.63513C9.59365 20.5916 9.57865 20.572 9.59019 20.5329L10.3196 18.2134C10.3288 18.1857 10.3483 18.1719 10.3783 18.1719H11.1112C11.1411 18.1719 11.1607 18.1857 11.1699 18.2134L11.8993 20.5329C11.9016 20.5374 11.9028 20.5443 11.9028 20.5536C11.9028 20.5789 11.8866 20.5916 11.8544 20.5916H11.2633ZM10.5132 19.7447C10.5108 19.7585 10.5154 19.7654 10.527 19.7654H10.9591C10.9729 19.7654 10.9775 19.7585 10.9729 19.7447L10.7517 18.9704C10.7493 18.9635 10.7459 18.96 10.7413 18.96C10.7367 18.96 10.7332 18.9635 10.7309 18.9704L10.5132 19.7447Z" fill="black"/>
<path d="M14.3881 20.5916C14.3581 20.5916 14.3385 20.5789 14.3293 20.5536L13.949 19.6756C13.9444 19.6663 13.9375 19.6617 13.9283 19.6617H13.7831C13.7716 19.6617 13.7658 19.6675 13.7658 19.679V20.5398C13.7658 20.5559 13.7612 20.5685 13.752 20.5778C13.7427 20.587 13.7301 20.5916 13.714 20.5916H13.1678C13.1516 20.5916 13.139 20.587 13.1298 20.5778C13.1205 20.5685 13.116 20.5559 13.116 20.5398V18.2237C13.116 18.2075 13.1205 18.1949 13.1298 18.1857C13.139 18.1764 13.1516 18.1719 13.1678 18.1719H14.2152C14.3719 18.1719 14.5096 18.2041 14.6283 18.2687C14.7469 18.3332 14.8392 18.4236 14.9048 18.54C14.9705 18.6564 15.0034 18.7906 15.0034 18.9427C15.0034 19.0948 14.9659 19.2279 14.891 19.342C14.8161 19.4561 14.713 19.5396 14.5816 19.5926C14.5701 19.5972 14.5666 19.6053 14.5713 19.6168L15.0103 20.5294C15.0148 20.5432 15.0172 20.5512 15.0172 20.5536C15.0172 20.5651 15.0126 20.5743 15.0034 20.5812C14.9941 20.5882 14.9826 20.5916 14.9688 20.5916H14.3881ZM13.7831 18.7284C13.7716 18.7284 13.7658 18.7342 13.7658 18.7457V19.1501C13.7658 19.1616 13.7716 19.1674 13.7831 19.1674H14.1081C14.1818 19.1674 14.2417 19.1472 14.2878 19.1069C14.3339 19.0666 14.3569 19.0142 14.3569 18.9496C14.3569 18.8828 14.3339 18.8292 14.2878 18.7889C14.2417 18.7485 14.1818 18.7284 14.1081 18.7284H13.7831Z" fill="black"/>
<path d="M17.1673 20.6196C16.9783 20.6196 16.8118 20.5827 16.6678 20.509C16.5237 20.4352 16.412 20.3309 16.3325 20.1961C16.253 20.0613 16.2133 19.9051 16.2133 19.7277V19.0295C16.2133 18.8543 16.253 18.6999 16.3325 18.5663C16.412 18.4325 16.5237 18.3288 16.6678 18.2551C16.8118 18.1814 16.9783 18.1445 17.1673 18.1445C17.3563 18.1445 17.5228 18.1791 17.6668 18.2482C17.8108 18.3174 17.9226 18.4147 18.0021 18.5403C18.0816 18.6659 18.1214 18.8117 18.1214 18.9776C18.1214 18.9984 18.1041 19.011 18.0695 19.0156L17.5234 19.0502H17.513C17.4854 19.0502 17.4715 19.0375 17.4715 19.0122C17.4715 18.9177 17.4439 18.8422 17.3886 18.7858C17.3333 18.7293 17.2595 18.7011 17.1673 18.7011C17.0751 18.7011 17.0014 18.7293 16.9461 18.7858C16.8908 18.8422 16.8631 18.9177 16.8631 19.0122V19.7554C16.8631 19.8475 16.8908 19.9219 16.9461 19.9783C17.0014 20.0348 17.0751 20.063 17.1673 20.063C17.2595 20.063 17.3333 20.0348 17.3886 19.9783C17.4439 19.9219 17.4715 19.8475 17.4715 19.7554C17.4715 19.7416 17.4761 19.7312 17.4854 19.7243C17.4945 19.7174 17.5072 19.715 17.5234 19.7174L18.0695 19.745C18.1041 19.7473 18.1214 19.7588 18.1214 19.7796C18.1214 19.9455 18.0816 20.0918 18.0021 20.2186C17.9226 20.3453 17.8108 20.4438 17.6668 20.5141C17.5228 20.5844 17.3563 20.6196 17.1673 20.6196Z" fill="black"/>
<path d="M23.3033 20.5297C23.3148 20.5412 23.3206 20.5516 23.3206 20.5608C23.3206 20.57 23.3166 20.5775 23.3085 20.5833C23.3004 20.589 23.2895 20.5919 23.2757 20.5919H22.6673C22.6419 20.5919 22.62 20.5827 22.6016 20.5643L22.5048 20.4606C22.4979 20.4537 22.4898 20.4525 22.4806 20.4571C22.2617 20.5654 22.037 20.6196 21.8066 20.6196C21.5807 20.6196 21.3894 20.5666 21.2327 20.4606C21.076 20.3545 20.9977 20.1932 20.9977 19.9766C20.9977 19.8291 21.0351 19.7041 21.11 19.6016C21.1849 19.499 21.2881 19.4097 21.4194 19.3337C21.4332 19.3244 21.4343 19.3164 21.4229 19.3095C21.3237 19.1896 21.258 19.0934 21.2258 19.0208C21.1935 18.9482 21.1774 18.8681 21.1774 18.7806C21.1774 18.6653 21.2103 18.5593 21.276 18.4626C21.3416 18.3658 21.4343 18.2885 21.5542 18.231C21.674 18.1733 21.8111 18.1445 21.9656 18.1445C22.1222 18.1445 22.2629 18.1739 22.3873 18.2327C22.5117 18.2914 22.6096 18.3738 22.6811 18.4798C22.7525 18.5858 22.7883 18.7068 22.7883 18.8428C22.7883 18.9856 22.7514 19.109 22.6777 19.2127C22.6039 19.3164 22.5037 19.4085 22.3769 19.4892C22.3654 19.4961 22.3642 19.5041 22.3735 19.5134C22.408 19.5525 22.4622 19.6113 22.5359 19.6897C22.5429 19.6989 22.5509 19.6989 22.5601 19.6897C22.6615 19.5883 22.7341 19.4996 22.7779 19.4235C22.7894 19.4051 22.8032 19.3959 22.8194 19.3959C22.8309 19.3959 22.8401 19.3982 22.8471 19.4028L23.2515 19.6344C23.2792 19.6528 23.2861 19.6759 23.2722 19.7035C23.1777 19.8602 23.0706 19.9996 22.9508 20.1218C22.9415 20.1287 22.9392 20.1345 22.9438 20.1391L23.0337 20.2359L23.3033 20.5297ZM21.9794 18.7322C21.9333 18.7322 21.8964 18.7431 21.8688 18.765C21.8411 18.7869 21.8273 18.814 21.8273 18.8463C21.8273 18.8646 21.8353 18.8871 21.8515 18.9137C21.8676 18.9401 21.9034 18.9856 21.9587 19.0502C21.9632 19.0594 21.9713 19.0617 21.9829 19.0571C22.0335 19.0248 22.0721 18.9932 22.0987 18.9621C22.1251 18.9309 22.1384 18.8969 22.1384 18.8601C22.1384 18.8186 22.124 18.7869 22.0952 18.765C22.0664 18.7431 22.0278 18.7322 21.9794 18.7322ZM21.9241 20.0734C21.9679 20.0619 22.0128 20.0458 22.0589 20.025C22.0658 20.0227 22.0698 20.0198 22.071 20.0164C22.0721 20.0129 22.0704 20.0088 22.0658 20.0043L21.9517 19.8833L21.8411 19.7692C21.8365 19.7623 21.8284 19.7611 21.8169 19.7658C21.7109 19.8233 21.6579 19.8879 21.6579 19.9593C21.6579 19.9962 21.674 20.0261 21.7063 20.0492C21.7385 20.0722 21.78 20.0838 21.8308 20.0838C21.863 20.0838 21.8941 20.0803 21.9241 20.0734Z" fill="black"/>
<path d="M28.0354 18.6766C28.0354 18.6927 28.0308 18.7053 28.0216 18.7146C28.0123 18.7238 27.9996 18.7284 27.9835 18.7284H26.9534C26.9419 18.7284 26.9361 18.7342 26.9361 18.7457V19.0706C26.9361 19.0821 26.9419 19.0879 26.9534 19.0879H27.5929C27.609 19.0879 27.6217 19.0925 27.6309 19.1017C27.6401 19.1109 27.6448 19.1236 27.6448 19.1398V19.5892C27.6448 19.6053 27.6401 19.6179 27.6309 19.6272C27.6217 19.6364 27.609 19.641 27.5929 19.641H26.9534C26.9419 19.641 26.9361 19.6467 26.9361 19.6583V20.5398C26.9361 20.5559 26.9315 20.5685 26.9223 20.5778C26.913 20.587 26.9004 20.5916 26.8843 20.5916H26.3381C26.3219 20.5916 26.3093 20.587 26.3001 20.5778C26.2908 20.5685 26.2863 20.5559 26.2863 20.5398V18.2237C26.2863 18.2075 26.2908 18.1949 26.3001 18.1857C26.3093 18.1764 26.3219 18.1719 26.3381 18.1719H27.9835C27.9996 18.1719 28.0123 18.1764 28.0216 18.1857C28.0308 18.1949 28.0354 18.2075 28.0354 18.2237V18.6766Z" fill="black"/>
<path d="M29.256 20.5916C29.2398 20.5916 29.2271 20.587 29.2179 20.5778C29.2087 20.5685 29.2041 20.5559 29.2041 20.5398V18.2237C29.2041 18.2075 29.2087 18.1949 29.2179 18.1857C29.2271 18.1764 29.2398 18.1719 29.256 18.1719H29.8021C29.8182 18.1719 29.8309 18.1764 29.8401 18.1857C29.8493 18.1949 29.854 18.2075 29.854 18.2237V20.0178C29.854 20.0293 29.8597 20.0351 29.8713 20.0351H30.9394C30.9555 20.0351 30.9682 20.0396 30.9774 20.0489C30.9866 20.0581 30.9913 20.0707 30.9913 20.0869V20.5398C30.9913 20.5559 30.9866 20.5685 30.9774 20.5778C30.9682 20.587 30.9555 20.5916 30.9394 20.5916H29.256Z" fill="black"/>
<path d="M33.8079 20.5916C33.7757 20.5916 33.7561 20.5766 33.7492 20.5467L33.6731 20.277C33.6685 20.2678 33.6628 20.2632 33.6558 20.2632H32.923C32.9161 20.2632 32.9103 20.2678 32.9057 20.277L32.8297 20.5467C32.8228 20.5766 32.8031 20.5916 32.7709 20.5916H32.1798C32.1383 20.5916 32.1233 20.572 32.1349 20.5329L32.8642 18.2134C32.8734 18.1857 32.893 18.1719 32.923 18.1719H33.6558C33.6858 18.1719 33.7054 18.1857 33.7146 18.2134L34.444 20.5329C34.4463 20.5374 34.4475 20.5443 34.4475 20.5536C34.4475 20.5789 34.4313 20.5916 34.3991 20.5916H33.8079ZM33.0578 19.7447C33.0555 19.7585 33.0601 19.7654 33.0717 19.7654H33.5038C33.5176 19.7654 33.5221 19.7585 33.5176 19.7447L33.2963 18.9704C33.294 18.9635 33.2905 18.96 33.286 18.96C33.2813 18.96 33.2779 18.9635 33.2756 18.9704L33.0578 19.7447Z" fill="black"/>
<path d="M37.2063 18.2064C37.2201 18.1834 37.2409 18.1719 37.2685 18.1719H37.8078C37.8239 18.1719 37.8366 18.1764 37.8458 18.1857C37.855 18.1949 37.8596 18.2075 37.8596 18.2237V20.5398C37.8596 20.5559 37.855 20.5685 37.8458 20.5778C37.8366 20.587 37.8239 20.5916 37.8078 20.5916H37.2616C37.2454 20.5916 37.2328 20.587 37.2236 20.5778C37.2143 20.5685 37.2098 20.5559 37.2098 20.5398V19.285C37.2098 19.2757 37.2074 19.2705 37.2029 19.2694C37.1982 19.2682 37.1936 19.2711 37.189 19.278L36.954 19.6617C36.9401 19.6848 36.9194 19.6963 36.8917 19.6963H36.629C36.6014 19.6963 36.5806 19.6848 36.5668 19.6617L36.3317 19.278C36.3271 19.2711 36.3225 19.2682 36.3179 19.2694C36.3133 19.2705 36.311 19.2757 36.311 19.285V20.5398C36.311 20.5559 36.3064 20.5685 36.2972 20.5778C36.2879 20.587 36.2753 20.5916 36.2592 20.5916H35.713C35.6968 20.5916 35.6842 20.587 35.675 20.5778C35.6657 20.5685 35.6611 20.5559 35.6611 20.5398V18.2237C35.6611 18.2075 35.6657 18.1949 35.675 18.1857C35.6842 18.1764 35.6968 18.1719 35.713 18.1719H36.2522C36.2799 18.1719 36.3006 18.1834 36.3145 18.2064L36.75 18.9082C36.7569 18.922 36.7638 18.922 36.7708 18.9082L37.2063 18.2064Z" fill="black"/>
<path d="M40.8841 18.6766C40.8841 18.6927 40.8794 18.7053 40.8702 18.7146C40.861 18.7238 40.8483 18.7284 40.8322 18.7284H39.7986C39.7871 18.7284 39.7813 18.7342 39.7813 18.7457V19.0706C39.7813 19.0821 39.7871 19.0879 39.7986 19.0879H40.4381C40.4542 19.0879 40.4669 19.0925 40.4762 19.1017C40.4854 19.1109 40.49 19.1236 40.49 19.1398V19.5892C40.49 19.6053 40.4854 19.6179 40.4762 19.6272C40.4669 19.6364 40.4542 19.641 40.4381 19.641H39.7986C39.7871 19.641 39.7813 19.6467 39.7813 19.6583V20.0178C39.7813 20.0293 39.7871 20.0351 39.7986 20.0351H40.8322C40.8483 20.0351 40.861 20.0396 40.8702 20.0489C40.8794 20.0581 40.8841 20.0707 40.8841 20.0869V20.5398C40.8841 20.5559 40.8794 20.5685 40.8702 20.5778C40.861 20.587 40.8483 20.5916 40.8322 20.5916H39.1833C39.1671 20.5916 39.1545 20.587 39.1453 20.5778C39.136 20.5685 39.1315 20.5559 39.1315 20.5398V18.2237C39.1315 18.2075 39.136 18.1949 39.1453 18.1857C39.1545 18.1764 39.1671 18.1719 39.1833 18.1719H40.8322C40.8483 18.1719 40.861 18.1764 40.8702 18.1857C40.8794 18.1949 40.8841 18.2075 40.8841 18.2237V18.6766Z" fill="black"/>
<path d="M45.0706 20.5916C45.0406 20.5916 45.021 20.5789 45.0118 20.5536L44.6315 19.6756C44.6269 19.6663 44.62 19.6617 44.6108 19.6617H44.4656C44.4541 19.6617 44.4483 19.6675 44.4483 19.679V20.5398C44.4483 20.5559 44.4437 20.5685 44.4345 20.5778C44.4252 20.587 44.4126 20.5916 44.3965 20.5916H43.8503C43.8341 20.5916 43.8215 20.587 43.8123 20.5778C43.803 20.5685 43.7985 20.5559 43.7985 20.5398V18.2237C43.7985 18.2075 43.803 18.1949 43.8123 18.1857C43.8215 18.1764 43.8341 18.1719 43.8503 18.1719H44.8977C45.0544 18.1719 45.1921 18.2041 45.3108 18.2687C45.4294 18.3332 45.5217 18.4236 45.5873 18.54C45.653 18.6564 45.6859 18.7906 45.6859 18.9427C45.6859 19.0948 45.6484 19.2279 45.5735 19.342C45.4986 19.4561 45.3955 19.5396 45.2641 19.5926C45.2526 19.5972 45.2491 19.6053 45.2538 19.6168L45.6928 20.5294C45.6973 20.5432 45.6997 20.5512 45.6997 20.5536C45.6997 20.5651 45.6951 20.5743 45.6859 20.5812C45.6766 20.5882 45.6651 20.5916 45.6513 20.5916H45.0706ZM44.4656 18.7284C44.4541 18.7284 44.4483 18.7342 44.4483 18.7457V19.1501C44.4483 19.1616 44.4541 19.1674 44.4656 19.1674H44.7906C44.8643 19.1674 44.9242 19.1472 44.9703 19.1069C45.0164 19.0666 45.0394 19.0142 45.0394 18.9496C45.0394 18.8828 45.0164 18.8292 44.9703 18.7889C44.9242 18.7485 44.8643 18.7284 44.7906 18.7284H44.4656Z" fill="black"/>
<path d="M48.679 18.6766C48.679 18.6927 48.6743 18.7053 48.6652 18.7146C48.6559 18.7238 48.6432 18.7284 48.6271 18.7284H47.5936C47.582 18.7284 47.5763 18.7342 47.5763 18.7457V19.0706C47.5763 19.0821 47.582 19.0879 47.5936 19.0879H48.2331C48.2492 19.0879 48.2618 19.0925 48.2711 19.1017C48.2803 19.1109 48.2849 19.1236 48.2849 19.1398V19.5892C48.2849 19.6053 48.2803 19.6179 48.2711 19.6272C48.2618 19.6364 48.2492 19.641 48.2331 19.641H47.5936C47.582 19.641 47.5763 19.6467 47.5763 19.6583V20.0178C47.5763 20.0293 47.582 20.0351 47.5936 20.0351H48.6271C48.6432 20.0351 48.6559 20.0396 48.6652 20.0489C48.6743 20.0581 48.679 20.0707 48.679 20.0869V20.5398C48.679 20.5559 48.6743 20.5685 48.6652 20.5778C48.6559 20.587 48.6432 20.5916 48.6271 20.5916H46.9782C46.9621 20.5916 46.9494 20.587 46.9402 20.5778C46.931 20.5685 46.9264 20.5559 46.9264 20.5398V18.2237C46.9264 18.2075 46.931 18.1949 46.9402 18.1857C46.9494 18.1764 46.9621 18.1719 46.9782 18.1719H48.6271C48.6432 18.1719 48.6559 18.1764 48.6652 18.1857C48.6743 18.1949 48.679 18.2075 48.679 18.2237V18.6766Z" fill="black"/>
<path d="M50.8156 20.6196C50.6221 20.6196 50.4527 20.5878 50.3075 20.5245C50.1623 20.4611 50.05 20.3707 49.9705 20.2532C49.891 20.1356 49.8512 19.9996 49.8512 19.8453V19.7969C49.8512 19.7807 49.8558 19.768 49.865 19.7588C49.8742 19.7496 49.8869 19.745 49.903 19.745H50.4388C50.455 19.745 50.4676 19.7496 50.4769 19.7588C50.4861 19.768 50.4907 19.7807 50.4907 19.7969V19.8176C50.4907 19.8821 50.5246 19.9391 50.5927 19.9887C50.6606 20.0382 50.7511 20.063 50.864 20.063C50.9493 20.063 51.0103 20.0451 51.0472 20.0095C51.0841 19.9737 51.1026 19.934 51.1026 19.8902C51.1026 19.8395 51.0795 19.8014 51.0334 19.7761C50.9873 19.7508 50.9032 19.7196 50.7811 19.6828L50.6808 19.6551C50.4527 19.586 50.2614 19.4938 50.107 19.3786C49.9525 19.2633 49.8754 19.0962 49.8754 18.8774C49.8754 18.7322 49.9145 18.6037 49.9929 18.4919C50.0713 18.3801 50.179 18.2943 50.3161 18.2344C50.4532 18.1745 50.6071 18.1445 50.7776 18.1445C50.9574 18.1445 51.1204 18.1779 51.2667 18.2448C51.413 18.3116 51.5283 18.4061 51.6124 18.5282C51.6965 18.6503 51.7386 18.7898 51.7386 18.9465V18.9776C51.7386 18.9937 51.734 19.0064 51.7248 19.0156C51.7155 19.0248 51.7029 19.0295 51.6867 19.0295H51.1509C51.1348 19.0295 51.1221 19.0248 51.1129 19.0156C51.1037 19.0064 51.0991 18.9937 51.0991 18.9776V18.9742C51.0991 18.905 51.068 18.8422 51.0058 18.7858C50.9435 18.7293 50.8594 18.7011 50.7534 18.7011C50.6797 18.7011 50.6214 18.716 50.5788 18.746C50.5362 18.7759 50.5149 18.8174 50.5149 18.8705C50.5149 18.9119 50.5305 18.9471 50.5616 18.9759C50.5927 19.0046 50.6404 19.0323 50.705 19.0588C50.7695 19.0853 50.8686 19.1193 51.0023 19.1608C51.0207 19.1677 51.1019 19.1925 51.246 19.2351C51.39 19.2777 51.5104 19.355 51.6072 19.4667C51.704 19.5785 51.7524 19.7139 51.7524 19.8729C51.7524 20.0273 51.7132 20.1604 51.6349 20.2722C51.5565 20.3839 51.4471 20.4698 51.3065 20.5297C51.1659 20.5896 51.0023 20.6196 50.8156 20.6196Z" fill="black"/>
<path d="M53.035 20.5916C53.0188 20.5916 53.0062 20.587 52.997 20.5778C52.9877 20.5685 52.9832 20.5559 52.9832 20.5398V18.2237C52.9832 18.2075 52.9877 18.1949 52.997 18.1857C53.0062 18.1764 53.0188 18.1719 53.035 18.1719H53.5812C53.5973 18.1719 53.6099 18.1764 53.6192 18.1857C53.6284 18.1949 53.633 18.2075 53.633 18.2237V20.5398C53.633 20.5559 53.6284 20.5685 53.6192 20.5778C53.6099 20.587 53.5973 20.5916 53.5812 20.5916H53.035Z" fill="black"/>
<path d="M55.821 20.6196C55.6274 20.6196 55.458 20.5878 55.3129 20.5245C55.1677 20.4611 55.0553 20.3707 54.9758 20.2532C54.8963 20.1356 54.8566 19.9996 54.8566 19.8453V19.7969C54.8566 19.7807 54.8611 19.768 54.8704 19.7588C54.8796 19.7496 54.8922 19.745 54.9084 19.745H55.4442C55.4603 19.745 55.473 19.7496 55.4822 19.7588C55.4914 19.768 55.4961 19.7807 55.4961 19.7969V19.8176C55.4961 19.8821 55.53 19.9391 55.598 19.9887C55.666 20.0382 55.7564 20.063 55.8694 20.063C55.9546 20.063 56.0157 20.0451 56.0526 20.0095C56.0895 19.9737 56.1079 19.934 56.1079 19.8902C56.1079 19.8395 56.0848 19.8014 56.0388 19.7761C55.9927 19.7508 55.9085 19.7196 55.7864 19.6828L55.6862 19.6551C55.458 19.586 55.2667 19.4938 55.1124 19.3786C54.9579 19.2633 54.8808 19.0962 54.8808 18.8774C54.8808 18.7322 54.9199 18.6037 54.9983 18.4919C55.0766 18.3801 55.1843 18.2943 55.3215 18.2344C55.4586 18.1745 55.6124 18.1445 55.783 18.1445C55.9627 18.1445 56.1258 18.1779 56.2721 18.2448C56.4184 18.3116 56.5337 18.4061 56.6178 18.5282C56.7019 18.6503 56.744 18.7898 56.744 18.9465V18.9776C56.744 18.9937 56.7393 19.0064 56.7301 19.0156C56.7209 19.0248 56.7082 19.0295 56.6921 19.0295H56.1563C56.1401 19.0295 56.1275 19.0248 56.1183 19.0156C56.109 19.0064 56.1045 18.9937 56.1045 18.9776V18.9742C56.1045 18.905 56.0734 18.8422 56.0111 18.7858C55.9489 18.7293 55.8648 18.7011 55.7588 18.7011C55.685 18.7011 55.6268 18.716 55.5842 18.746C55.5416 18.7759 55.5203 18.8174 55.5203 18.8705C55.5203 18.9119 55.5358 18.9471 55.5669 18.9759C55.598 19.0046 55.6458 19.0323 55.7104 19.0588C55.7749 19.0853 55.874 19.1193 56.0077 19.1608C56.0261 19.1677 56.1073 19.1925 56.2514 19.2351C56.3954 19.2777 56.5158 19.355 56.6126 19.4667C56.7094 19.5785 56.7578 19.7139 56.7578 19.8729C56.7578 20.0273 56.7186 20.1604 56.6403 20.2722C56.5619 20.3839 56.4524 20.4698 56.3119 20.5297C56.1712 20.5896 56.0077 20.6196 55.821 20.6196Z" fill="black"/>
<path d="M59.7959 18.1719C59.812 18.1719 59.8247 18.1764 59.8339 18.1857C59.8431 18.1949 59.8477 18.2075 59.8477 18.2237V18.68C59.8477 18.6961 59.8431 18.7088 59.8339 18.718C59.8247 18.7272 59.812 18.7319 59.7959 18.7319H59.2152C59.2036 18.7319 59.1979 18.7376 59.1979 18.7492V20.5398C59.1979 20.5559 59.1932 20.5685 59.184 20.5778C59.1748 20.587 59.1621 20.5916 59.146 20.5916H58.5998C58.5837 20.5916 58.571 20.587 58.5618 20.5778C58.5526 20.5685 58.548 20.5559 58.548 20.5398V18.7492C58.548 18.7376 58.5422 18.7319 58.5307 18.7319H57.9673C57.9511 18.7319 57.9384 18.7272 57.9292 18.718C57.92 18.7088 57.9154 18.6961 57.9154 18.68V18.2237C57.9154 18.2075 57.92 18.1949 57.9292 18.1857C57.9384 18.1764 57.9511 18.1719 57.9673 18.1719H59.7959Z" fill="black"/>
<path d="M62.4232 20.5916C62.3909 20.5916 62.3713 20.5766 62.3644 20.5467L62.2884 20.277C62.2837 20.2678 62.278 20.2632 62.2711 20.2632H61.5383C61.5313 20.2632 61.5255 20.2678 61.521 20.277L61.4449 20.5467C61.438 20.5766 61.4184 20.5916 61.3862 20.5916H60.795C60.7536 20.5916 60.7386 20.572 60.7501 20.5329L61.4795 18.2134C61.4887 18.1857 61.5082 18.1719 61.5383 18.1719H62.2711C62.301 18.1719 62.3206 18.1857 62.3298 18.2134L63.0592 20.5329C63.0615 20.5374 63.0627 20.5443 63.0627 20.5536C63.0627 20.5789 63.0465 20.5916 63.0143 20.5916H62.4232ZM61.6731 19.7447C61.6707 19.7585 61.6753 19.7654 61.6869 19.7654H62.119C62.1328 19.7654 62.1374 19.7585 62.1328 19.7447L61.9116 18.9704C61.9092 18.9635 61.9058 18.96 61.9012 18.96C61.8966 18.96 61.8931 18.9635 61.8908 18.9704L61.6731 19.7447Z" fill="black"/>
<path d="M65.6315 18.2237C65.6315 18.2075 65.6361 18.1949 65.6454 18.1857C65.6546 18.1764 65.6672 18.1719 65.6834 18.1719H66.2296C66.2457 18.1719 66.2583 18.1764 66.2676 18.1857C66.2768 18.1949 66.2814 18.2075 66.2814 18.2237V20.5398C66.2814 20.5559 66.2768 20.5685 66.2676 20.5778C66.2583 20.587 66.2457 20.5916 66.2296 20.5916H65.7076C65.6799 20.5916 65.6592 20.5801 65.6454 20.557L64.9402 19.3817C64.9356 19.3748 64.9309 19.3719 64.9264 19.3731C64.9217 19.3742 64.9194 19.3794 64.9194 19.3887L64.9264 20.5398C64.9264 20.5559 64.9217 20.5685 64.9125 20.5778C64.9033 20.587 64.8906 20.5916 64.8745 20.5916H64.3283C64.3122 20.5916 64.2995 20.587 64.2903 20.5778C64.2811 20.5685 64.2765 20.5559 64.2765 20.5398V18.2237C64.2765 18.2075 64.2811 18.1949 64.2903 18.1857C64.2995 18.1764 64.3122 18.1719 64.3283 18.1719H64.8503C64.878 18.1719 64.8987 18.1834 64.9125 18.2064L65.6143 19.3817C65.6188 19.3887 65.6235 19.3915 65.6281 19.3904C65.6327 19.3892 65.635 19.384 65.635 19.3748L65.6315 18.2237Z" fill="black"/>
<path d="M69.3613 18.1719C69.3774 18.1719 69.3901 18.1764 69.3993 18.1857C69.4085 18.1949 69.4132 18.2075 69.4132 18.2237V18.68C69.4132 18.6961 69.4085 18.7088 69.3993 18.718C69.3901 18.7272 69.3774 18.7319 69.3613 18.7319H68.7806C68.769 18.7319 68.7633 18.7376 68.7633 18.7492V20.5398C68.7633 20.5559 68.7587 20.5685 68.7495 20.5778C68.7402 20.587 68.7276 20.5916 68.7115 20.5916H68.1653C68.1491 20.5916 68.1364 20.587 68.1273 20.5778C68.118 20.5685 68.1134 20.5559 68.1134 20.5398V18.7492C68.1134 18.7376 68.1076 18.7319 68.0961 18.7319H67.5327C67.5165 18.7319 67.5039 18.7272 67.4947 18.718C67.4854 18.7088 67.4808 18.6961 67.4808 18.68V18.2237C67.4808 18.2075 67.4854 18.1949 67.4947 18.1857C67.5039 18.1764 67.5165 18.1719 67.5327 18.1719H69.3613Z" fill="black"/>
</svg>
