<svg width="80" height="30" viewBox="0 0 80 30" fill="none" xmlns="http://www.w3.org/2000/svg">
<g clip-path="url(#clip0_456_3014)">
<path d="M5.48199 22.139L7.04055 15.2614C9.12769 13.3931 11.6545 11.9968 14.4036 11.3691L13.7861 11.9845C11.773 14.2165 10.3176 16.955 9.55747 19.8621L10.8277 17.6516C13.4063 13.6934 17.307 11.107 22.2149 11.4319L20.0833 12.9679C17.6868 15.2547 15.9979 18.3242 15.1767 21.523L16.4839 19.5347C18.9564 15.9673 22.9868 12.6245 27.6501 13.8627L25.7037 22.1384H5.48199V22.139Z" fill="#006E53"/>
<path d="M29.1321 20.7234L30.4294 15.0003C30.5505 14.8932 32.3844 16.3369 32.5894 16.5388L32.0041 15.7382L30.6135 14.2305L31.5162 10.3203L37.9932 10.324C38.6076 10.4083 39.0275 10.8483 39.0503 11.4723C39.0645 11.8594 38.5983 13.8705 38.4421 14.2797C38.2463 14.7917 37.7165 15.3406 37.1595 15.4329L37.7153 15.788C38.1148 16.2194 38.0339 16.6415 37.9425 17.1665C37.8178 17.8865 37.5134 19.4723 37.0867 20.0059C36.9138 20.2225 36.2759 20.724 36.0165 20.724H29.1315L29.1321 20.7234ZM33.7016 14.3849H35.0292C35.5281 14.3849 36.0388 12.3554 35.6967 12.1037C35.4009 11.8859 34.6605 12.028 34.295 11.9812L33.7016 14.3849ZM32.7136 18.8772H33.9794C33.9973 18.8772 34.253 18.7265 34.2888 18.6932C34.5667 18.4415 34.8791 17.1837 34.7995 16.8286C34.6809 16.3025 33.6707 16.4951 33.265 16.5037L32.7136 18.8772Z" fill="black"/>
<path d="M76 10.3223L73.6869 20.6632L70.9674 20.7223C70.6846 20.6687 70.9112 20.2792 70.7217 20.3536C70.6506 20.3813 70.5173 20.5247 70.3938 20.5813C69.8133 20.8466 68.8303 20.8343 68.1862 20.7863C67.436 20.7303 66.8154 20.31 66.7332 19.5223C67.126 17.9069 67.3933 16.2337 67.8176 14.6287C68.0423 13.7801 68.3258 13.2158 69.2088 12.8767C69.7689 12.6613 71.5843 12.6053 72.0919 12.894C72.2191 12.966 72.2938 13.0835 72.4179 13.153L73.036 10.3223H76ZM71.2286 14.0903C70.8896 14.1604 70.7087 14.465 70.6093 14.7653C70.3295 15.6115 69.8041 17.8706 69.7188 18.7389C69.6157 19.7887 70.7649 19.6361 71.0724 18.9186C71.5596 17.7813 71.5855 15.9752 72.0326 14.7672C72.1444 14.201 71.7492 13.982 71.2286 14.0897V14.0903Z" fill="black"/>
<path d="M53.6467 15.1838C53.8387 13.8711 54.5482 12.7548 55.9697 12.6065C56.7162 12.529 59.4382 12.5031 60.081 12.6785C60.7497 12.8607 61.0301 13.3321 61.114 13.993L59.6302 20.7161L56.8292 20.7265L56.7638 20.537C56.4841 20.6287 56.2241 20.7548 55.9333 20.817C55.1225 20.9905 53.6788 21.0761 52.9983 20.5382C52.6352 20.2514 52.6204 19.9745 52.6747 19.5382C52.7513 18.9222 53.0607 17.5727 53.2583 16.9813C53.5207 16.1936 54.292 15.6933 55.099 15.6158C55.9363 15.5351 57.8135 15.9511 58.0167 14.7702C58.1809 13.8158 57.1392 13.7013 56.673 14.3536C56.5106 14.5807 56.4476 14.9093 56.426 15.1844H53.6473L53.6467 15.1838ZM57.5986 16.7844C57.0979 16.9678 56.4983 16.7844 56.1877 17.3161C56.0845 17.4927 55.8178 18.6262 55.806 18.8478C55.769 19.5678 56.7094 19.4391 57.0355 19.0225L57.5986 16.7844Z" fill="black"/>
<path d="M42.3465 12.9082L41.0473 18.9125C41.1393 19.646 42.0624 19.3919 42.331 18.8922L43.7365 12.9082H46.6078L44.8708 20.7156L42.1909 20.7248C42.0686 20.7488 42.0501 20.5347 42.0038 20.5347C41.9365 20.5347 41.3671 20.7784 41.1757 20.8184C40.331 20.9937 37.9592 21.1624 37.8962 19.894L39.4757 12.9082H42.3471H42.3465Z" fill="black"/>
<path d="M29.0086 7.98438L27.9903 12.1678C27.5766 11.9044 27.1141 11.6496 26.6602 11.4638C26.0835 11.2275 25.4172 11.1573 24.9103 10.9308C24.5922 10.7887 24.2514 10.4878 23.9247 10.313C21.8703 9.21145 19.8394 8.71237 17.5361 9.38314C17.2941 9.45391 17.073 9.63668 16.8106 9.64961C16.4641 9.66745 15.8979 9.49391 15.5157 9.46253C12.6913 9.22745 10.0854 9.86991 7.89084 11.6773L8.78559 7.98499H29.0086V7.98438Z" fill="#006F51"/>
<path d="M30.3671 7L29.0697 12.8462L28.5899 12.5871L28.5751 12.3895L29.6878 7.43077H8.26072L4.80274 22.6923H26.2298L28.2083 14.0172L28.6924 14.1458L26.7238 23H4L7.73585 7H30.3671Z" fill="black"/>
<path d="M54.1407 10.3223L51.7633 20.7223H48.8919L51.1767 10.3223H54.1407Z" fill="black"/>
<path d="M50.6827 10.3223L48.3979 20.7223H45.434L47.8113 10.3223H50.6827Z" fill="black"/>
<path d="M60.4391 20.7232L62.1712 12.9109L64.7931 12.9078L65.1012 13.2758C65.6434 12.8026 66.8117 12.5441 67.4619 12.8888C67.5298 12.9245 67.5601 12.9448 67.5755 13.026C67.6515 13.4352 67.1235 14.5651 67.1698 15.0611C66.8963 14.9725 66.6277 14.8235 66.33 14.8223C65.5785 14.818 64.5634 15.5749 64.3824 16.314L63.4037 20.7232H60.4397H60.4391Z" fill="black"/>
</g>
<defs>
<clipPath id="clip0_456_3014">
<rect width="72" height="16" fill="white" transform="translate(4 7)"/>
</clipPath>
</defs>
</svg>
