<svg width="80" height="30" viewBox="0 0 80 30" fill="none" xmlns="http://www.w3.org/2000/svg">
<g clip-path="url(#clip0_454_2768)">
<path d="M42.0277 10.2476C42.2051 10.0857 42.2196 9.82809 42.2603 9.60437C42.5264 8.16341 42.5642 6.5208 42.8798 5.1034C42.8973 5.02539 42.9234 4.88114 42.9685 4.82668C43.0892 4.68391 45.0029 4.76634 45.3636 4.75751C45.7242 4.74868 46.159 4.56028 46.5458 4.76487L44.6786 18.1824C44.6103 18.2943 44.3965 18.2972 44.2773 18.3075C43.524 18.3708 42.2778 18.3605 41.5172 18.3075C41.3587 18.2972 41.2089 18.2531 41.0548 18.2251L41.7005 13.1766H37.4615C37.3771 13.2517 37.3248 13.34 37.2972 13.4504C37.1096 14.1716 37.0907 15.2195 36.9816 15.9879C36.8725 16.7562 36.7635 17.4803 36.6108 18.2133C36.4668 18.2722 36.3156 18.2943 36.16 18.3075C35.7543 18.3384 33.3912 18.3561 33.1673 18.2501C33.1033 18.2207 33.0335 18.1809 33.0117 18.1073L34.9966 4.75456H38.5114L37.796 10.1254C37.809 10.1651 37.8701 10.2476 37.8948 10.2476H42.0262H42.0277Z" fill="black"/>
<path d="M6.27485 4.76743C6.43045 4.63055 8.9273 4.66882 9.34465 4.67765C11.6757 4.72328 13.9704 4.75713 15.6079 6.69705C18.3723 9.97196 16.6287 15.2825 13.1939 17.2901C10.5734 18.8223 7.59671 18.157 4.6985 18.3057L4.40912 18.1555L6.27485 4.76743ZM8.37325 14.9233C9.19632 15.0602 10.3306 14.9881 11.1159 14.676C12.8231 13.9975 13.8105 12.0399 13.4906 10.2281C13.1314 8.19541 11.0664 7.75827 9.32284 8.06736L8.37325 14.9233Z" fill="black"/>
<path d="M77.9011 4.75538C77.936 4.76715 77.9869 4.83633 78 4.87754L76.1605 18.1567L76.0543 18.2686C75.6471 18.298 72.9278 18.379 72.7984 18.2259L72.9292 17.4605L72.7576 17.3531C71.4852 18.8794 68.7659 19.0016 67.2506 17.7902C64.5604 15.6398 65.5187 11.236 68.0577 9.38146C69.7911 8.11565 72.3185 7.77418 73.9152 9.44033L74.6757 4.75391H77.9011V4.75538ZM71.5478 11.2905C68.6874 11.4318 68.0679 16.0534 71.5899 15.5868C73.9675 15.2733 74.4416 11.1462 71.5478 11.2905Z" fill="black"/>
<path d="M57.935 8.63595L56.6132 18.2134C56.4997 18.2958 56.3674 18.2958 56.2351 18.3076C55.6316 18.3576 54.0538 18.3841 53.4939 18.2855C53.4343 18.2752 53.3107 18.2561 53.2932 18.184C53.2438 17.9573 53.3456 17.7306 53.3616 17.529C53.3936 17.0933 52.966 17.6703 52.8134 17.7807C49.3786 20.2725 45.4522 17.2493 46.2273 13.1016C46.9108 9.43812 51.3417 6.63716 54.4202 9.44401L54.602 8.63742H57.9365L57.935 8.63595ZM51.9045 11.2927C49.1066 11.5473 48.6326 16.1778 52.1561 15.5773C54.4886 15.1799 54.8754 11.0233 51.9045 11.2927Z" fill="black"/>
<path d="M32.1347 15.3003C32.2743 15.443 31.7261 16.2643 31.6141 16.4218C29.1958 19.8233 21.9859 19.3876 21.9816 14.3848C21.9787 11.6309 23.7135 9.14934 26.395 8.51054C29.8997 7.676 32.9564 9.24206 32.6423 13.2117C32.6248 13.4369 32.5914 13.9756 32.3747 14.0403L25.4629 14.0874C24.9161 16.0436 27.1251 16.7118 28.5356 15.7271C28.6447 15.6506 28.9515 15.3003 28.9835 15.3003H32.1362H32.1347ZM26.2176 11.2247C26.0882 11.3542 25.7785 11.7854 25.8337 11.9591L25.9486 12.0666C27.016 11.9915 28.3073 12.2049 29.3471 12.0813C29.8618 12.0209 29.4648 11.3601 29.2729 11.1246C28.5327 10.2209 26.9782 10.4593 26.2176 11.2261V11.2247Z" fill="black"/>
<path d="M62.4649 8.63614C62.5332 8.68766 62.5565 8.71121 62.5594 8.80099C62.5696 9.10272 62.3849 9.60169 62.3645 9.92697C62.3572 10.0359 62.3034 10.1301 62.4649 10.1007C63.1222 9.17043 64.1764 8.60818 65.3005 8.49926C65.5623 8.47424 66.3199 8.38445 66.3359 8.74065L65.8342 12.0052C63.6951 11.3414 62.2904 11.9581 61.8105 14.1998C61.5342 15.4936 61.5036 16.8918 61.2055 18.1886C61.1023 18.3387 58.5531 18.3372 58.1881 18.3048C58.1066 18.2975 57.8798 18.2695 57.858 18.1827L59.1667 8.63761H62.4649V8.63614Z" fill="black"/>
<path d="M21.7707 8.63672L20.4503 18.1052C20.3849 18.2642 20.2234 18.2878 20.0693 18.3054C19.4833 18.3746 18.128 18.3628 17.5288 18.3084C17.366 18.2936 17.0795 18.2774 17.0649 18.0552L18.4741 8.63672H21.7722H21.7707Z" fill="black"/>
<path d="M20.302 4.03957C22.9893 3.57446 22.9835 7.35421 20.6146 7.79725C17.9244 8.29915 17.9782 4.44286 20.302 4.03957Z" fill="black"/>
<path d="M10.7552 25.1138C10.8846 25.1432 10.8977 25.0755 10.9602 24.9931C11.2962 24.5456 11.3456 23.4299 12.0931 23.5786C12.5293 23.6654 12.4159 24.7899 12.6762 25.1138C12.8071 25.1108 13.159 23.8671 13.3669 23.689C13.5094 23.5668 13.953 23.4888 14.014 23.6949C14.0489 23.8111 13.1066 25.8217 13.0034 25.885C12.9001 25.9483 12.2879 25.9498 12.2007 25.888L11.8778 24.6015C11.6117 24.606 11.3703 25.6819 11.0867 25.8526C10.8817 25.9763 10.54 25.9351 10.3175 25.888C10.2288 25.8261 9.85796 23.9171 9.88413 23.7626C9.89867 23.6728 9.91322 23.6183 10.0063 23.5874C10.8046 23.3151 10.6883 24.6339 10.7566 25.1152L10.7552 25.1138Z" fill="black"/>
<path d="M7.03976 23.5948C7.4193 23.53 8.4416 23.533 8.83423 23.5771C9.71256 23.6772 9.5686 24.4441 9.40282 25.1034C9.31411 25.4552 9.24431 25.7437 8.85895 25.8732C8.39943 26.0263 6.7242 26.0925 6.36646 25.779C6.032 25.4861 6.28067 24.0702 6.58605 23.795C6.68639 23.7052 6.90742 23.6169 7.04121 23.5948H7.03976ZM7.14737 24.3248C7.05139 24.422 6.96123 24.9783 6.99758 25.1388C7.08047 25.3949 8.08387 25.3787 8.32526 25.3331C8.69608 25.2639 8.86331 24.4146 8.57975 24.2733C8.32672 24.1482 7.34805 24.1217 7.14737 24.3263V24.3248Z" fill="black"/>
<path d="M35.6859 25.9214C35.5957 25.864 35.8444 23.9697 35.9214 23.7799C35.9505 23.7092 35.9753 23.6503 36.0465 23.6135C36.5889 23.6077 38.5041 23.4163 38.8356 23.799C39.1672 24.1817 38.8502 25.9214 38.1856 25.9214H35.6859ZM38.0402 24.2361H36.6267L36.4784 25.2135C36.5264 25.4136 37.8206 25.3503 38.0039 25.2267C38.1493 25.1296 38.1871 24.5202 38.1362 24.3583L38.0387 24.2376L38.0402 24.2361Z" fill="black"/>
<path d="M19.2244 25.4176C18.6355 25.3086 17.8633 25.0805 17.7891 25.8886L17.1318 25.9209C17.1347 25.5942 17.3223 23.7234 17.4925 23.6116C18.0145 23.6116 19.761 23.4158 20.0751 23.7911C20.4372 24.2239 19.937 24.7066 19.9064 25.0157C19.8933 25.1467 19.9908 25.2969 19.9937 25.444C20.0024 25.9857 19.7857 25.9872 19.3029 25.89L19.2259 25.419L19.2244 25.4176ZM19.3786 24.2356H18.1832C18.0523 24.2356 17.7819 24.689 18.397 24.7523C18.8434 24.7979 19.5036 24.8568 19.38 24.2356H19.3786Z" fill="black"/>
<path d="M16.7334 23.5777C16.7727 23.5836 16.8439 23.6557 16.9079 23.6586C16.9748 23.769 16.8148 24.1635 16.7334 24.1635H15.1396C15.064 24.1635 15.0014 24.371 15.0305 24.4564C15.1221 24.421 15.2443 24.53 15.2836 24.53H16.588L16.6912 24.6492C16.7407 24.8376 16.5443 25.0422 16.3698 25.0422H14.9927L14.8837 25.1526L14.9927 25.3351H16.4426C16.8904 25.3351 16.6563 25.9209 16.5153 25.9209H14.1958C14.1537 25.8885 14.1158 25.8532 14.0984 25.8002C14.049 25.6486 14.3165 23.7587 14.3965 23.6704C14.4169 23.6483 14.5434 23.5777 14.5594 23.5777C15.1614 23.5777 16.1968 23.4864 16.7334 23.5777Z" fill="black"/>
<path d="M29.0911 25.92C29.0126 25.8405 29.2991 23.7769 29.3733 23.6783C29.459 23.565 29.5827 23.5827 29.7019 23.5723C30.1571 23.5282 30.9845 23.5385 31.4484 23.5723C31.7945 23.5974 31.9384 23.6342 31.8468 24.0389C31.7814 24.3259 29.9564 23.9683 29.9607 24.3436C30.0131 24.4054 30.2312 24.5261 30.285 24.5261H31.6258C31.8454 25.4666 30.1382 24.8043 29.9186 25.1075L29.8866 25.3312H31.5167C31.5284 25.3312 31.6927 25.4063 31.7029 25.4519L31.5167 25.917H29.0882L29.0911 25.92Z" fill="black"/>
<path d="M3.64275 25.912L3 25.9223L3.30683 23.6689C3.43335 23.5379 4.86428 23.5526 5.14057 23.5762C5.95928 23.6453 6.12506 24.0678 5.86185 24.8228C5.45468 25.9886 3.78381 24.6506 3.64275 25.9135V25.912ZM3.94232 24.2356C3.6413 24.8714 4.32041 24.7993 4.77993 24.7522C5.34561 24.6963 5.18856 24.2356 5.06495 24.2356H3.94232Z" fill="black"/>
<path d="M26.5536 24.3818H27.8943C28.2171 24.0418 27.8943 23.4354 28.6185 23.5753C28.9442 23.6386 28.7494 24.4113 28.7174 24.7012C28.6447 25.3459 28.7101 26.1201 27.858 25.9199L27.8158 25.106C27.5322 25.0339 26.5681 24.9323 26.4445 25.187C26.2496 25.5902 26.5812 26.1157 25.6796 25.8876L25.6069 25.7345C25.7814 25.2252 25.7058 24.136 25.9021 23.7048C25.9719 23.5517 26.5041 23.5164 26.5943 23.6444C26.7179 23.8211 26.5259 24.1728 26.5536 24.3818Z" fill="black"/>
<path d="M35.2511 25.92C35.0519 25.892 34.7523 25.97 34.5749 25.9082C34.4164 25.8523 34.4062 25.4917 33.9816 25.4755C33.8827 25.471 33.0465 25.5491 32.9825 25.5682C32.8168 25.6168 32.7542 25.8758 32.5317 25.9185C32.4416 25.9362 31.9166 25.9406 31.9166 25.8832L33.2937 23.7593C33.4566 23.537 34.1052 23.509 34.3102 23.6121C34.4222 23.668 35.3412 25.8331 35.2511 25.92ZM33.3665 24.9677C33.5032 24.9574 34.0746 25.028 34.0877 24.8587L33.8362 24.3083C33.6791 24.2715 33.3112 24.9162 33.3665 24.9662V24.9677Z" fill="black"/>
<path d="M25.2491 25.92C25.0499 25.8921 24.7503 25.9701 24.5729 25.9083C24.4581 25.8685 24.4144 25.6492 24.2632 25.5624C24.0596 25.4432 23.302 25.4432 23.0708 25.5138C22.8395 25.5845 22.7508 25.8759 22.5298 25.9186C22.4396 25.9362 21.9147 25.9406 21.9147 25.8832L23.3863 23.6725C23.5826 23.5135 24.2516 23.5224 24.4115 23.7284C24.5511 23.908 24.9816 25.0266 25.0877 25.3166C25.1226 25.4137 25.2942 25.8774 25.2491 25.9215V25.92ZM23.366 24.9677C23.5027 24.9574 24.0741 25.0281 24.0872 24.8588L23.8357 24.3083C23.6786 24.2715 23.3107 24.9162 23.366 24.9663V24.9677Z" fill="black"/>
</g>
<defs>
<clipPath id="clip0_454_2768">
<rect width="75" height="22" fill="white" transform="translate(3 4)"/>
</clipPath>
</defs>
</svg>
