<svg width="80" height="30" viewBox="0 0 80 30" fill="none" xmlns="http://www.w3.org/2000/svg">
<g clip-path="url(#clip0_451_32)">
<path d="M70.3266 19.0234V25.5643C70.3266 26.0297 69.5602 26.7604 69.1251 26.9064C68.622 27.0748 68.3953 26.9678 67.9529 26.9707C62.5533 27.0032 57.1515 26.9534 51.7526 26.9743V20.5781C51.7526 20.0396 52.6337 19.0242 53.1785 19.0242H70.3266V19.0234ZM61.3321 20.3966H56.8714L55.4827 25.6727L56.6155 25.6026L57.2348 23.4654L59.9361 23.4249L60.1628 22.4926H57.4571L57.7526 21.3391L61.1098 21.3326L61.3321 20.3966ZM64.769 23.649C65.3167 23.701 65.8974 23.3693 66.1738 22.9046C66.3595 22.5923 66.7025 21.3738 66.6396 21.0435C66.5679 20.6662 66.2864 20.4422 65.9039 20.3938L61.9932 20.3988L60.603 25.5643L60.7522 25.6438L61.7613 25.5903L62.293 23.7307L63.5332 23.7654L64.2666 25.5903L65.4995 25.672L64.7683 23.649H64.769Z" fill="#CD9F54"/>
<path d="M13.7268 2.40039C13.3378 3.26335 13.3334 4.1263 13.6917 5.0001C14.2709 6.41378 15.6969 7.04474 16.6497 8.14764C17.9126 9.60975 18.7521 11.6978 18.4713 13.6296C18.2446 15.1893 17.1704 16.8827 15.6281 17.432C16.3587 16.5568 16.4427 15.3071 16.3623 14.2136C16.3543 14.1088 16.2651 13.3651 16.1407 13.4576C16.0939 13.7344 15.4775 14.9154 15.1221 14.6798C14.8669 14.0633 15.2018 13.3796 15.1916 12.7754C15.1762 11.8712 14.5927 10.6491 14.0172 9.9545C13.9082 9.82224 13.2018 9.08721 13.068 9.1949C13.8321 10.9786 12.0574 11.7368 11.2669 12.943C10.3952 14.2743 10.2146 15.7473 11.0629 17.1386C11.1806 17.3315 11.4512 17.5281 11.4234 17.7218C10.2534 17.2961 9.05481 16.7526 8.40253 15.6483C7.50308 14.1262 7.76121 12.2629 8.20509 10.6397L8.53342 9.84464C8.50929 10.8558 9.02629 11.7614 9.88772 12.2868C10.1283 12.2687 10.0793 11.6436 10.0683 11.4715C9.93964 9.41461 9.19814 8.74318 10.0866 6.50123C10.7075 4.93722 12.1429 3.05809 13.7268 2.40039Z" fill="#CD9F54"/>
<path d="M38.0047 15.4806H34.1291V17.7211H31.3503C31.3437 15.589 31.3583 13.4547 31.3532 11.3219C31.3517 10.6317 31.1916 10.3007 31.5835 9.60468C31.8351 9.15875 32.6241 8.54297 33.1419 8.54297H40.6738L40.7835 8.65138V17.6134L40.6738 17.7218H38.0413L37.9316 17.6134V15.5897C37.9316 15.568 38.0245 15.5341 38.0047 15.4813V15.4806ZM37.9316 11.0718H34.4581C34.344 11.0718 34.1291 11.366 34.1291 11.4694V12.951H37.9316V11.0718Z" fill="#CD9F54"/>
<path d="M70.3998 8.54297V11.0726H63.8916V11.9399H68.8641V14.3249H63.8916C63.8389 14.5511 63.9098 15.1922 64.2206 15.1922H70.3998V17.7218H62.9044C62.4758 17.7218 61.6627 17.1624 61.417 16.8068C60.7479 15.8362 61.0959 13.3926 61.0974 12.1928L61.0389 8.54297H70.3991H70.3998Z" fill="#CD9F54"/>
<path d="M30.3997 8.54297V11.0726H23.8915V11.9399H28.7544L28.8341 12.0873C28.7076 12.7797 28.8363 13.4858 28.8341 14.1775C28.8341 14.262 28.8289 14.2707 28.7544 14.3249H23.8915C23.8388 14.5511 23.9098 15.1922 24.2205 15.1922H30.3997V17.7218H22.9043C22.4458 17.7218 21.5917 17.1219 21.3438 16.7345C21.2911 16.6521 21.0396 16.0689 21.0396 16.0234V8.54297H30.3997Z" fill="#CD9F54"/>
<path d="M50.8748 8.54246C50.9114 8.56848 50.8017 8.63569 50.8017 8.65087V10.7468C50.8017 10.7721 50.9311 10.8271 50.7651 10.9275H44.915C44.7212 10.9275 44.5333 11.2795 44.5114 11.4681C44.4302 12.1576 44.4309 14.0331 44.5114 14.7234C44.5501 15.0558 44.7212 15.2264 45.0598 15.2654C45.6046 15.3276 47.3882 15.3399 47.9088 15.2589C48.2803 15.2018 48.3556 14.8607 48.3885 14.5405H46.341V12.3H50.9479V16.0944C50.9479 16.6704 49.9132 17.6252 49.296 17.6418C47.4225 17.5009 45.2119 17.8521 43.3787 17.6483C42.6116 17.563 41.8196 16.7803 41.7333 16.0221C41.5249 14.1885 41.884 11.9762 41.7399 10.1014C41.7801 9.49937 42.7249 8.54102 43.3055 8.54102H50.8741L50.8748 8.54246Z" fill="#CD9F54"/>
<path d="M54.6776 8.54297V14.867C54.6776 14.9392 54.9335 15.1922 55.0067 15.1922H60.2352V17.6134L60.1255 17.7218H53.7635C53.1493 17.7218 52.3471 17.1053 52.0787 16.5683C51.5741 15.5565 51.9054 13.5154 51.9017 12.3345C51.9017 12.1278 51.8228 11.9507 51.822 11.7628C51.8176 10.6902 51.8315 9.61552 51.8249 8.54369H54.6769L54.6776 8.54297Z" fill="#CD9F54"/>
<path d="M55.7744 4.0625V5.00207H53.4344V5.29116H55.1529L55.2509 5.41114C55.2721 5.47691 55.2604 5.54629 55.2662 5.61278C55.2823 5.79202 55.3021 6.04715 55.1529 6.15845H53.4344C53.4052 6.24229 53.4666 6.44755 53.5441 6.44755H55.7744V7.38712H53.0322C52.8801 7.38712 52.4106 6.98021 52.4106 6.84506V4.0625H55.7744Z" fill="#13161B"/>
<path d="M62.8677 4.0625V7.38712H61.8439V6.5921H60.5277V7.38712H59.5039V4.53228C59.5039 4.44483 59.9463 4.0625 60.0524 4.0625H62.8677ZM61.8439 5.00207H60.5277V5.65253H61.8439V5.00207Z" fill="#13161B"/>
<path d="M48.4617 7.38712H47.5103V6.5921H46.1209V7.38712H45.0972V4.60456C45.0972 4.4694 45.5666 4.0625 45.7187 4.0625H48.4244L48.518 4.17091C48.5202 4.20054 48.461 4.22512 48.461 4.24319V7.38712H48.4617ZM47.5111 5.00207H46.2314C46.0405 5.15601 46.1421 5.43427 46.1217 5.65253H47.4379L47.5111 5.00207Z" fill="#13161B"/>
<path d="M67.0359 7.38712V4.0625H69.8512C69.8966 4.0625 70.2374 4.28438 70.2885 4.35304C70.3895 4.48964 70.3887 4.58793 70.4033 4.74549C70.4406 5.15456 70.464 6.54946 70.3843 6.90216C70.3419 7.09152 70.0319 7.38712 69.8512 7.38712H67.0359ZM69.3759 6.44755V5.11048L69.2662 5.00207H68.0597V6.51983H69.1931C69.2172 6.51983 69.3043 6.42442 69.3759 6.44755Z" fill="#13161B"/>
<path d="M66.6703 7.38712H65.6466V5.11048L65.5369 5.00207H64.2572V7.38712H63.2334V4.0625H66.0488C66.244 4.0625 66.6703 4.48458 66.6703 4.67683V7.38712Z" fill="#13161B"/>
<path d="M49.8512 4.06189V5.29055C50.238 5.24863 50.9364 4.06189 51.204 4.06189H52.2643C52.2965 4.18837 52.2117 4.20644 52.1554 4.27943C51.974 4.5136 50.7301 5.58904 50.7301 5.68806L52.3374 7.38651H51.1309L49.8512 6.08557V7.38651H48.8274V4.1703C49.0811 3.94914 49.5265 4.1067 49.8512 4.06189Z" fill="#13161B"/>
<path d="M57.1639 6.44613H59.1383V7.38569H56.6886C56.4238 7.38569 56.1277 6.93615 56.0845 6.68174C56.0414 6.42734 56.0253 4.23381 56.0992 4.12901C56.2608 4.02277 57.0527 4.01627 57.1324 4.12901L57.1646 6.44613H57.1639Z" fill="#13161B"/>
<path d="M42.7579 6.4458H44.7323V7.38536H42.2826C42.1415 7.38536 41.7897 7.07748 41.7495 6.9004C41.5755 6.12996 41.8899 4.96924 41.6793 4.16627C41.7064 4.01088 42.6234 3.99209 42.7579 4.16916V6.4458Z" fill="#13161B"/>
<path d="M71.258 4.15381C71.6412 4.5159 71.1769 5.06302 70.7235 4.7891C70.1911 4.46748 70.8829 3.79894 71.258 4.15381Z" fill="#13161B"/>
<path d="M62.5751 22.7091L62.9773 21.3359H65.3173C65.6018 21.3359 65.2105 22.7091 64.9517 22.7091H62.5751Z" fill="#CD9F54"/>
</g>
<defs>
<clipPath id="clip0_451_32">
<rect width="63.6" height="24.6" fill="white" transform="translate(7.79993 2.40039)"/>
</clipPath>
</defs>
</svg>
