<svg width="80" height="30" viewBox="0 0 80 30" fill="none" xmlns="http://www.w3.org/2000/svg">
<g clip-path="url(#clip0_454_2761)">
<path d="M17.2884 22.8013C16.2687 24.0171 14.3677 24.1155 12.8859 23.9269C10.7752 23.6563 9.88579 21.8418 9.76163 19.8879C9.52757 16.1932 9.86544 12.1419 9.8634 8.43291C10.3153 5.51946 12.198 4.82236 14.907 5.03559C17.205 5.21601 18.1962 6.84394 18.3468 9.01314C18.5951 12.6155 18.1555 16.5049 18.3427 20.138C18.2043 21.0955 17.9173 22.0509 17.2904 22.7993L17.2884 22.8013ZM13.4436 20.4988C13.9606 20.9807 14.9396 20.6485 14.9477 19.8858L14.8806 8.82657C14.2924 7.77477 13.2625 8.04951 13.1587 9.27148C12.8757 12.6073 13.3785 16.3388 13.1587 19.7156C13.1587 19.9432 13.2787 20.3471 13.4436 20.4988Z" fill="black"/>
<path d="M20.2966 5.29688H25.9448C25.9814 5.29688 26.5676 5.4773 26.6653 5.51216C28.0229 6.00627 28.3892 7.25695 28.5378 8.58758C28.3282 12.3847 28.8065 16.4668 28.5378 20.2312C28.4218 21.8468 27.5588 23.692 25.6903 23.692H20.4249L20.2966 23.5629V5.29688ZM23.6082 20.6986C24.4773 20.7335 25.096 20.7007 25.212 19.7042C25.0411 16.3377 25.4705 12.6902 25.2242 9.35644C25.1388 8.18778 24.7297 8.04836 23.6061 8.12012V20.6966L23.6082 20.6986Z" fill="black"/>
<path d="M3.31154 5.29688V12.1428L5.43442 5.29688H8.57703L6.10813 13.7256L8.91693 23.692H5.56265L3.31154 16.0773V23.692H0V5.29688H3.31154Z" fill="black"/>
<path d="M48.6595 5.29688V12.2268L50.9106 5.29688H54.0084L51.4764 13.6395L54.2649 23.692H50.8679L48.6595 15.9912V23.692H45.4314V5.29688H48.6595Z" fill="black"/>
<path d="M35.3258 23.6904L37.5342 5.29521L41.3159 5.28906L43.9028 23.6904H40.7602L40.4081 20.6231L38.4196 20.6908L38.1285 23.6904H35.3258ZM40.0825 17.4452L39.4454 11.2841L38.7228 17.4452H40.0825Z" fill="black"/>
<path d="M33.7972 5.29688H30.5712V23.692H33.7972V5.29688Z" fill="black"/>
<path d="M77.4823 5.64844H58.6857L56.1822 13.8455L58.9605 23.691H77.2075L80 13.866L77.4802 5.64844H77.4823ZM76.4076 12.7896C76.3832 12.8736 76.3527 13.0151 76.3018 13.0807C76.2285 13.1709 76.141 13.1484 76.0535 13.2017C75.9558 13.2632 75.8479 13.417 75.7278 13.4846C75.4367 13.6528 75.1233 13.6589 74.8119 13.7307C74.4252 13.8209 74.187 14.0669 73.9041 14.3293C73.8105 14.2166 73.5255 14.0157 73.3831 14.0423C73.2609 14.0649 73.0554 14.3027 72.9292 14.356L72.9027 14.2227L72.0845 14.7804C72.0499 14.721 72.1639 14.6656 72.1761 14.6082C72.1822 14.5631 72.1781 14.5651 72.1374 14.5692C72.0295 14.5754 71.4861 14.7558 71.4657 14.8522C71.5655 14.9977 71.769 15.0818 71.8993 15.2089C72.1883 15.4898 72.805 16.2976 72.9271 16.6708C73.149 17.3453 73.1083 18.1531 73.0208 18.8482C72.7378 18.8277 72.4834 18.6452 72.341 18.4053C72.2392 18.2351 72.1903 17.9235 71.9542 17.8907C71.8179 17.8722 71.6571 17.9153 71.5166 17.8784C71.4149 17.8517 71.3741 17.7636 71.3049 17.7205C71.138 17.6201 71.0017 17.5791 70.849 17.4376C70.7554 17.3515 70.212 16.6974 70.1611 16.6974C69.929 16.9681 69.7052 17.2469 69.4629 17.5073C69.3266 17.6549 68.7058 18.2105 68.6976 18.3582C68.6936 18.4299 68.7445 18.4607 68.7953 18.4976C69.1495 18.7518 69.7479 18.76 69.9372 19.2726C69.7479 19.2787 69.5586 19.2644 69.3693 19.2726C69.0823 19.2828 68.7607 19.3238 68.4758 19.3279C68.1277 19.3341 67.855 19.3628 67.6047 19.0881C67.4133 18.8789 66.8862 18.1634 66.8556 17.903C66.8271 17.6549 66.9757 17.2367 66.6155 17.2551L66.9839 16.3263C66.6643 16.437 66.3549 16.6195 66.0293 16.6933C65.8705 16.556 65.5754 16.6113 65.3881 16.6708C65.3535 16.681 65.3495 16.6523 65.3474 16.7118C65.3474 16.7958 65.3881 16.9127 65.4085 16.9968C65.5204 17.4478 65.7097 18.1531 66.0619 18.4627C66.3794 18.7436 66.9289 18.8031 67.0348 19.3013C66.9228 19.2828 66.817 19.3279 66.7071 19.33C66.591 19.33 66.4893 19.3013 66.3895 19.3013C65.9906 19.2992 65.5123 19.3772 65.1215 19.33C65.0503 19.3218 64.975 19.2808 64.9241 19.2295C64.7877 19.0901 64.6574 18.8031 64.5028 18.6247C64.4254 18.5365 64.3114 18.4238 64.2239 18.3479C64.1303 18.2659 63.7436 18.0178 63.709 17.9645C63.6622 17.8907 63.6683 17.7554 63.6011 17.6488C63.4953 17.4806 63.251 17.3576 63.1838 17.1526H63.1452C62.8704 17.4027 62.5386 17.6426 62.2008 17.7943C61.9871 17.8907 61.523 17.9399 61.6085 18.2741C61.6675 18.5017 62.3147 18.8215 62.5101 18.9855C62.5977 19.0594 62.7361 19.1824 62.734 19.3033C62.6872 19.3484 61.5779 19.3402 61.4273 19.332C61.293 19.3238 61.0915 19.2992 60.9612 19.2705C60.4972 19.166 60.0392 18.5304 59.7013 18.2023C59.6667 18.1449 59.6464 18.0875 59.6505 18.0199C59.6749 17.6139 60.027 16.8143 60.2244 16.4452C60.3058 16.2935 60.4198 16.148 60.4972 16.0024C60.662 15.6928 60.5888 15.2438 60.6254 14.8829C60.6783 14.3355 60.9144 13.8373 60.9144 13.3165C60.9144 13.2673 60.8859 13.214 60.8859 13.1566C60.8859 12.5805 61.6349 12.3816 61.9972 12.0699C62.0624 11.9818 61.985 11.8588 61.9972 11.8444L63.7029 11.0243C63.7883 10.9792 63.825 10.9177 63.8596 10.8316C64.2361 10.8316 64.6127 10.8295 64.9892 10.8603C65.6466 10.9136 66.2817 11.1001 66.9391 11.1268C67.2342 11.1391 67.1141 11.053 67.2322 10.9689C67.3401 10.8931 67.6657 10.8008 67.8143 10.7311C68.0565 10.6163 68.2987 10.4994 68.4982 10.319C68.602 10.2247 68.6956 10.0299 68.8666 10.0094C69.0457 9.98889 69.7153 10.1591 69.9311 10.2083C70.1183 10.2513 70.7066 10.4523 70.8389 10.4338C70.8938 10.4256 70.9203 10.3825 70.9874 10.3928C71.1055 10.4113 71.2785 10.5261 71.4291 10.5609C71.7446 10.6306 72.1008 10.5773 72.4244 10.6368C72.5017 10.6265 72.5933 10.362 72.6483 10.2882C72.7908 10.0976 73.0594 9.97044 73.2446 10.1775C73.3607 10.3087 73.3362 10.5691 73.5092 10.6696C73.9021 10.8336 74.4638 10.9218 74.8343 11.1145C75.2027 11.3072 75.1172 11.7706 75.622 11.9408C75.8397 12.0146 76.2529 12.0207 76.4259 12.113C76.487 12.1458 76.5236 12.2053 76.5216 12.277C76.5195 12.3693 76.4341 12.6912 76.4056 12.7978L76.4076 12.7896Z" fill="#E51E26"/>
<path d="M74.3906 11.6324C74.3906 11.8046 74.7997 11.778 74.8139 11.5935C74.7386 11.5688 74.3906 11.5176 74.3906 11.6324Z" fill="#E51E26"/>
</g>
<defs>
<clipPath id="clip0_454_2761">
<rect width="79.2" height="30" fill="white"/>
</clipPath>
</defs>
</svg>
