<svg width="352" height="106" viewBox="0 0 352 106" fill="none" xmlns="http://www.w3.org/2000/svg">
<g clip-path="url(#clip0_152_86)">
<path d="M202.06 10.7277C195.842 4.41195 187.605 0.918152 178.851 0.918152C178.694 0.918152 178.514 0.918152 178.357 0.918152C160.333 1.18691 145.832 16.0579 146.079 34.0644C146.192 42.6422 149.738 50.7496 156.09 56.8861C162.398 63.0003 170.635 66.3597 179.277 66.3597H188.637C190.702 66.3597 192.386 64.68 192.386 62.6195V53.7955C192.386 51.735 190.702 50.0777 188.637 50.0777H178.873C174.294 50.0777 169.895 48.1516 166.775 44.7922C163.61 41.388 162.061 36.9759 162.42 32.3399C163.026 24.2549 169.603 17.7601 177.706 17.2001C178.087 17.1778 178.469 17.1554 178.851 17.1554C184.866 17.1554 190.276 20.358 193.194 25.4643H173.217C171.174 25.4643 169.491 27.1216 169.491 29.1821V38.0286C169.491 40.0666 171.152 41.7463 173.217 41.7463H207.941C209.983 41.7463 211.667 40.089 211.667 38.0286V34.0421C211.667 25.2628 208.255 16.9762 202.06 10.6829" fill="#0092FF"/>
<path d="M92.7474 76.9083V61.9253C98.2691 65.1503 104.801 66.8076 111.759 66.2925C127.763 65.0831 140.692 52.2278 141.927 36.2593C143.431 17.0434 128.167 0.940582 109.223 0.940582C90.2783 0.940582 76.4291 15.6325 76.4291 33.6613C76.4291 34.0869 76.4291 34.49 76.4515 34.9155H76.4291V76.9083C76.4291 77.7818 77.1474 78.4984 78.0227 78.4984H91.1762C92.0516 78.4984 92.7699 77.7818 92.7699 76.9083M109.245 17.2002C118.336 17.2002 125.743 24.5909 125.743 33.6613C125.743 42.7318 118.336 50.1225 109.245 50.1225C100.155 50.1225 92.7474 42.7318 92.7474 33.6613C92.7474 24.5909 100.155 17.2002 109.245 17.2002Z" fill="#0092FF"/>
<path d="M204.776 65.1055C200.646 65.1055 197.301 61.746 197.301 57.6476C197.301 53.5491 200.668 50.1896 204.776 50.1896C208.884 50.1896 212.251 53.5491 212.251 57.6476C212.251 61.746 208.884 65.1055 204.776 65.1055Z" fill="#0092FF"/>
<path d="M224.888 0C223.384 0 222.172 1.20939 222.172 2.70993V65.1056C222.172 66.6061 223.384 67.7931 224.888 67.7931H236.38C237.884 67.7931 239.074 66.5837 239.074 65.1056V42.1943H272.182C273.686 42.1943 274.898 40.9849 274.898 39.4844V28.0176C274.898 26.517 273.686 25.3076 272.182 25.3076H239.074V16.8643H274.561C276.065 16.8643 277.254 15.6549 277.254 14.1544V2.70993C277.254 1.20939 276.042 0 274.561 0H224.888Z" fill="black"/>
<path d="M285.762 67.9723H297.254C298.758 67.9723 299.948 66.7629 299.948 65.2624V16.8643H323.718C327.197 16.8643 330.16 19.5518 330.295 23.0232C330.429 26.6738 327.511 29.6749 323.875 29.6749H307.198C305.694 29.6749 304.504 30.8843 304.504 32.3624V43.8293C304.504 45.3298 305.716 46.5392 307.198 46.5392H313.685L329.554 67.1884C330.07 67.8603 330.856 68.2411 331.709 68.2411H348.072C350.384 68.2411 351.641 65.5311 350.115 63.7842L333.46 44.4787C341.563 40.8282 347.219 32.6984 347.219 23.2696C347.219 10.4366 336.759 0 323.898 0L285.762 0.156773C284.28 0.156773 283.068 1.36616 283.068 2.86671V65.2848C283.068 66.7853 284.28 67.9947 285.784 67.9947" fill="black"/>
<path d="M69.8971 6.9202L58.7189 3.11285C56.5417 3.11285 54.7909 4.85975 54.7909 7.03218V32.1159C54.7909 42.3957 46.4185 50.7495 36.1157 50.7495C36.0035 50.7495 35.8688 50.7495 35.7566 50.7495C25.6558 50.5479 17.4405 42.0374 17.4405 31.7799V7.03218C17.4405 4.85975 15.6897 3.11285 13.5125 3.11285L2.28941 6.9202C1.09977 6.9202 0.134583 7.88323 0.134583 9.09263V31.0632C0.134583 40.7608 3.70352 50.212 10.4822 57.1772C17.2161 64.0752 26.1721 67.9497 35.7341 68.0393C35.8912 68.0393 36.0484 68.0393 36.2279 68.0393C56.0479 67.9721 72.0519 51.8917 72.0519 32.1383V9.09263C72.0519 7.90563 71.0868 6.9426 69.8971 6.9426" fill="#0092FF"/>
<path d="M3.77096 90.3897V99.6393C3.77096 100.558 3.99542 101.274 4.46679 101.767C4.91571 102.26 5.5891 102.506 6.48694 102.506C7.38479 102.506 8.05817 102.26 8.52954 101.767C9.00091 101.274 9.22537 100.558 9.22537 99.6393V90.3897H12.9963V99.6169C12.9963 101.005 12.7045 102.17 12.1209 103.111C11.5373 104.074 10.7517 104.79 9.74163 105.261C8.754 105.753 7.63169 105.977 6.4196 105.977C5.20751 105.977 4.10765 105.731 3.14247 105.261C2.17729 104.79 1.41412 104.074 0.852967 103.111C0.291814 102.148 0.0224609 100.983 0.0224609 99.5945V90.3673H3.79341L3.77096 90.3897Z" fill="black"/>
<path d="M34.6793 105.865H30.9083L24.601 96.3247V105.865H20.83V90.3897H24.601L30.9083 99.9753V90.3897H34.6793V105.865Z" fill="black"/>
<path d="M46.3512 90.3897V105.865H42.5803V90.3897H46.3512Z" fill="black"/>
<path d="M64.353 90.3897V93.4132H58.0457V96.683H62.7818V99.6169H58.0457V105.865H54.2747V90.3897H64.3755H64.353Z" fill="black"/>
<path d="M74.6109 104.992C73.3988 104.32 72.4336 103.38 71.7154 102.17C70.9971 100.961 70.6379 99.5947 70.6379 98.0718C70.6379 96.5488 70.9971 95.205 71.7154 93.9957C72.4336 92.7863 73.3988 91.8456 74.6109 91.1737C75.823 90.5019 77.1698 90.1659 78.6288 90.1659C80.0878 90.1659 81.4121 90.5019 82.6466 91.1737C83.8811 91.8456 84.8239 92.7863 85.5197 93.9957C86.2155 95.205 86.5747 96.5488 86.5747 98.0718C86.5747 99.5947 86.2155 100.938 85.5197 102.17C84.8239 103.38 83.8587 104.32 82.6466 104.992C81.4345 105.664 80.1102 106 78.6512 106C77.1922 106 75.8679 105.664 74.6333 104.992H74.6109ZM81.5916 101.342C82.3324 100.513 82.7139 99.4379 82.7139 98.0718C82.7139 96.7056 82.3324 95.6082 81.5916 94.8019C80.8509 93.9957 79.8633 93.5701 78.6288 93.5701C77.3942 93.5701 76.3841 93.9733 75.6434 94.7795C74.9027 95.5858 74.5211 96.6832 74.5211 98.0718C74.5211 99.4603 74.9027 100.535 75.6434 101.342C76.3841 102.148 77.3942 102.573 78.6288 102.573C79.8633 102.573 80.8509 102.17 81.5916 101.342Z" fill="black"/>
<path d="M101.726 105.865L98.4936 100.02H97.5958V105.865H93.8248V90.3897H100.155C101.367 90.3897 102.422 90.5913 103.275 91.0392C104.128 91.4871 104.779 92.047 105.205 92.7861C105.631 93.5252 105.856 94.3538 105.856 95.2721C105.856 96.3023 105.564 97.2205 104.981 98.0268C104.397 98.8331 103.544 99.4154 102.399 99.7513L105.968 105.888H101.703L101.726 105.865ZM97.5958 97.3549H99.9302C100.626 97.3549 101.142 97.1758 101.479 96.8398C101.816 96.5039 101.995 96.0335 101.995 95.4065C101.995 94.7794 101.816 94.3538 101.479 94.0179C101.142 93.682 100.604 93.5028 99.9302 93.5028H97.5958V97.3325V97.3549Z" fill="black"/>
<path d="M130.928 90.3897V105.865H127.157V96.5935L123.701 105.865H120.648L117.169 96.5711V105.865H113.398V90.3897H117.865L122.219 101.095L126.529 90.3897H130.973H130.928Z" fill="black"/>
<path d="M142.6 93.4132V96.5487H147.651V99.4602H142.6V102.864H148.324V105.888H138.829V90.4122H148.324V93.4356H142.6V93.4132Z" fill="black"/>
<path d="M158.47 105.462C157.572 105.104 156.853 104.544 156.315 103.828C155.776 103.111 155.484 102.237 155.462 101.23H159.48C159.547 101.812 159.727 102.237 160.086 102.551C160.445 102.865 160.871 102.999 161.41 102.999C161.949 102.999 162.42 102.865 162.734 102.618C163.049 102.372 163.228 102.013 163.228 101.543C163.228 101.162 163.093 100.849 162.847 100.603C162.6 100.356 162.263 100.155 161.904 99.9754C161.545 99.7963 160.984 99.6395 160.31 99.4155C159.3 99.102 158.492 98.7884 157.864 98.4973C157.235 98.1837 156.696 97.7358 156.225 97.1311C155.776 96.5264 155.529 95.7426 155.529 94.7795C155.529 93.3462 156.045 92.204 157.1 91.3977C158.155 90.5914 159.502 90.1659 161.186 90.1659C162.869 90.1659 164.261 90.569 165.316 91.3977C166.371 92.2264 166.932 93.3462 166.999 94.8019H162.914C162.891 94.3092 162.689 93.9061 162.353 93.6149C162.016 93.3238 161.59 93.1894 161.051 93.1894C160.602 93.1894 160.22 93.3014 159.951 93.5477C159.682 93.7941 159.525 94.13 159.525 94.6004C159.525 95.0931 159.749 95.4962 160.22 95.7649C160.692 96.0337 161.432 96.3472 162.42 96.6608C163.43 96.9967 164.238 97.3327 164.867 97.6238C165.495 97.915 166.034 98.3853 166.483 98.9676C166.932 99.5499 167.179 100.311 167.179 101.23C167.179 102.148 166.954 102.909 166.505 103.626C166.056 104.343 165.405 104.925 164.552 105.351C163.7 105.776 162.689 106 161.522 106C160.355 106 159.367 105.821 158.47 105.44V105.462Z" fill="black"/>
<path d="M194.136 103.133H188.345L187.425 105.865H183.475L189.086 90.3897H193.463L199.075 105.865H195.079L194.159 103.133H194.136ZM193.171 100.222L191.241 94.5554L189.333 100.222H193.149H193.171Z" fill="black"/>
<path d="M219.815 105.865H216.044L209.737 96.3247V105.865H205.966V90.3897H209.737L216.044 99.9753V90.3897H219.815V105.865Z" fill="black"/>
<path d="M238.872 90.3897V93.4132H234.764V105.865H230.993V93.4132H226.885V90.3897H238.872Z" fill="black"/>
<path d="M249.713 90.3897V105.865H245.942V90.3897H249.713Z" fill="black"/>
<path d="M267.715 90.3897V93.4132H261.407V96.683H266.144V99.6169H261.407V105.865H257.637V90.3897H267.737H267.715Z" fill="black"/>
<path d="M278.624 102.954H283.562V105.865H274.83V90.3897H278.601V102.954H278.624Z" fill="black"/>
<path d="M300.194 103.133H294.403L293.483 105.865H289.532L295.144 90.3897H299.521L305.133 105.865H301.137L300.217 103.133H300.194ZM299.207 100.222L297.276 94.5554L295.368 100.222H299.184H299.207Z" fill="black"/>
<path d="M329.531 90.3897V105.865H325.76V96.5935L322.304 105.865H319.251L315.772 96.5711V105.865H312.001V90.3897H316.468L320.822 101.095L325.132 90.3897H329.576H329.531Z" fill="black"/>
<path d="M347.084 103.133H341.293L340.373 105.865H336.422L342.034 90.3897H346.411L352.022 105.865H348.027L347.107 103.133H347.084ZM346.097 100.222L344.166 94.5554L342.258 100.222H346.074H346.097Z" fill="black"/>
</g>
<defs>
<clipPath id="clip0_152_86">
<rect width="352" height="106" fill="white"/>
</clipPath>
</defs>
</svg>
