<svg width="80" height="30" viewBox="0 0 80 30" fill="none" xmlns="http://www.w3.org/2000/svg">
<path fill-rule="evenodd" clip-rule="evenodd" d="M40.0105 29C39.7908 28.9955 39.7929 28.999 39.5762 28.9754C38.9663 28.9092 38.975 28.8681 31.3532 26.3172C30.5452 26.0468 22.2392 23.2669 21.2587 22.9233C19.8499 22.4297 18.4047 22.0263 18.0129 21.761C17.0746 21.1257 17.0202 20.2509 17.0105 20.0957C16.9925 19.8071 17.0029 1.8666 17.004 1.76656C17.0155 0.711769 17.783 0.196379 18.2699 0.062949C18.6482 -0.0406402 18.6587 0.0162005 60.0462 0.0105166C61.3873 0.0103745 61.9066 -0.0734649 62.4787 0.469632C63.0445 1.00662 63.0368 1.56094 63.0355 1.90851C63.0353 6.92925 63.0351 11.9501 63.035 16.9709C63.035 20.3477 63.0604 20.3666 62.8609 20.7953C62.4808 21.6122 61.8144 21.8793 61.738 21.9143C61.4242 22.058 50.1817 25.7995 45.8156 27.2828C45.6115 27.3521 43.7363 27.9893 43.2611 28.142C41.0961 28.8384 41.1164 28.9709 40.0105 29Z" fill="#801410"/>
<path fill-rule="evenodd" clip-rule="evenodd" d="M40.1508 28.156C39.339 28.1546 39.3414 28.0949 36.9016 27.2908C36.5807 27.1849 34.2689 26.423 32.8985 25.9434C32.0741 25.6548 32.0657 25.683 22.5481 22.4667C18.6036 21.1337 18.5734 21.1715 18.3008 20.915C17.7653 20.4106 17.8508 20.0019 17.8481 18.8181C17.8481 18.8063 17.8467 2.14307 17.8493 1.90846C17.8625 0.668234 18.908 0.821559 19.6904 0.823264C33.1424 0.823122 46.5943 0.822979 60.0463 0.822837C61.2379 0.8217 61.6352 0.751362 62.0054 1.22071C62.2285 1.50334 62.2018 1.53901 62.2018 4.89251C62.2018 20.0029 62.2076 20.0045 62.1547 20.2334C62.0068 20.8749 61.4414 21.1147 61.3515 21.1527C60.9742 21.3126 46.7815 26.0494 45.9729 26.3331C45.5998 26.4639 45.6004 26.4565 41.2867 27.9049C40.7317 28.0914 40.7374 28.1195 40.1508 28.156Z" fill="#FCF6F6"/>
<path fill-rule="evenodd" clip-rule="evenodd" d="M20.1168 1.72746C33.3318 1.72817 46.5469 1.72888 59.762 1.72944C60.1515 1.7293 61.076 1.57712 61.2876 2.48356C61.3109 2.58331 61.307 2.58288 61.3073 18.5338C61.3073 19.2443 61.4187 19.9263 60.6451 20.4295C60.3392 20.6284 55.1229 22.3016 53.3619 22.9222C53.1924 22.9819 53.1897 22.9668 51.2316 23.6354C49.8973 24.0911 43.4495 26.2433 42.4159 26.6034C40.7634 27.1791 40.4714 27.1995 40.2953 27.2117C39.3667 27.2763 39.1455 27.0984 36.1597 26.1069C35.3194 25.8279 23.5476 21.8702 23.2528 21.7733C22.9557 21.6756 20.0112 20.7074 19.5526 20.5133C18.5594 20.0929 18.7295 18.9301 18.7295 18.3917C18.7302 2.61613 18.7235 2.61443 18.7523 2.48668C18.9574 1.57911 19.9506 1.72817 20.1168 1.72746Z" fill="#D4142B"/>
<path fill-rule="evenodd" clip-rule="evenodd" d="M33.9005 15.8887C33.8404 15.8873 33.3446 15.9448 33.2628 15.7241C33.2082 15.5772 33.2432 14.0597 33.2341 9.013C33.2335 8.70635 33.2271 5.21032 33.2295 5.17991C33.2554 4.85692 33.5622 4.89827 33.6163 4.89813C36.2642 4.88861 36.2792 4.92016 36.7496 5.16272C38.0329 5.82475 37.8564 7.52396 37.8564 8.87076C37.8564 14.0744 37.9002 14.1817 37.5645 14.8242C37.4146 15.111 37.1389 15.5258 36.4793 15.752C35.9659 15.928 35.9531 15.876 33.9005 15.8887Z" fill="#FDF6F6"/>
<path fill-rule="evenodd" clip-rule="evenodd" d="M26.6537 15.946C26.0846 15.938 25.5068 15.923 25.4954 14.2711C25.4785 11.8053 25.6785 11.2896 24.6644 11.2771C24.0179 11.269 24.1796 11.5491 24.1697 11.9989C24.1461 13.0654 24.1601 13.0621 24.159 14.1288C24.1574 15.7162 24.1962 15.8047 23.9658 15.8714C23.8777 15.8968 22.8193 15.8839 22.8086 15.8825C22.7831 15.8791 22.5904 15.8529 22.5515 15.6869C22.5382 15.6307 22.5399 15.6312 22.5399 7.02396C22.5399 5.13051 22.5111 5.00404 22.6887 4.92816C22.8445 4.86152 22.8523 4.89377 24.8063 4.89988C26.7557 4.90599 27.0217 6.14835 27.0204 7.3073C27.0182 9.2897 27.0878 9.67834 26.5732 10.2091C26.3473 10.4421 26.2744 10.4076 26.2746 10.5771C26.2747 10.7445 26.3416 10.712 26.5707 10.9439C27.1759 11.5563 27.0395 12.0411 27.054 14.2712C27.0613 15.4096 27.5036 15.5934 27.2508 15.8602C27.1311 15.9863 26.8245 15.9448 26.6537 15.946Z" fill="#FDF8F9"/>
<path fill-rule="evenodd" clip-rule="evenodd" d="M41.8577 15.8854C41.4565 15.857 41.2917 15.9539 41.2756 15.5499C41.2742 15.5141 41.2761 5.98661 41.2752 5.60224C41.2748 5.40543 41.2339 5.11612 41.3805 4.97246C41.4702 4.88465 41.6198 4.89246 42.2838 4.89701C42.3172 4.89729 42.6423 4.89957 42.7012 4.91975C42.8715 4.97786 42.8752 5.28252 42.8757 5.31733C42.9157 8.62593 42.835 9.38417 42.7977 9.73572C42.7932 9.77749 42.7785 9.81757 42.7736 9.85935C42.7621 9.95725 42.7509 9.96506 42.8181 10.0382C42.8974 10.1246 42.8832 10.1889 42.9899 10.143C43.021 10.1296 43.0057 10.0762 43.0223 10.0468C43.0374 10.0202 43.0728 10.007 43.0834 9.97828C43.1404 9.82467 43.2261 9.10324 43.46 8.3136C43.7788 7.23764 44.315 5.17509 44.425 5.0411C44.5611 4.87527 44.6929 4.90127 45.5519 4.8953C45.5735 4.89516 45.7671 4.89374 45.8201 4.92443C45.9583 5.00486 45.8681 5.29346 45.8584 5.32401C45.3172 7.05334 44.5557 9.50538 44.5379 9.57572C44.4416 9.95512 44.5368 9.95753 45.1434 12.4184C45.1624 12.4957 45.4841 13.7383 45.5138 13.8531C45.5428 13.9653 45.8026 14.9687 45.8729 15.2555C45.943 15.541 46.0072 15.6869 45.9299 15.7977C45.8734 15.8789 45.722 15.8864 45.7024 15.8874C45.6103 15.892 44.9094 15.8861 44.8404 15.8856C44.3168 15.8812 44.3612 15.6743 44.2273 15.1343C44.1761 14.9281 43.862 13.6599 43.616 12.5514C43.5744 12.3638 43.5488 11.9313 43.5104 11.8962C43.506 11.8921 43.3088 11.881 43.3025 11.8845C43.2984 11.8869 42.896 12.9497 42.8786 13.2766C42.866 13.5168 42.8963 15.5674 42.8596 15.6936C42.8117 15.8581 42.6018 15.8792 42.5747 15.8819C42.5483 15.8846 41.9149 15.8854 41.8577 15.8854Z" fill="#FDF9F9"/>
<path fill-rule="evenodd" clip-rule="evenodd" d="M53.9365 15.886C53.6976 15.8848 53.2299 15.9184 53.1192 15.7989C53.0103 15.6815 53.0497 15.6214 53.0466 11.5712C53.0423 5.81751 53.0421 5.8178 53.0497 5.31761C53.0575 4.79469 53.2718 4.89843 53.7941 4.89999C55.7443 4.90581 56.0897 4.82098 56.7815 5.31463C57.6177 5.91144 57.4988 7.30229 57.4968 8.16085C57.4951 8.83751 57.6788 10.5917 55.9155 10.9548C55.4869 11.043 54.8965 10.9059 54.726 11.0801C54.6194 11.1891 54.6351 11.212 54.6351 13.7027C54.6351 15.7264 54.6577 15.779 54.5107 15.8443C54.4279 15.8813 53.9826 15.8856 53.9365 15.886Z" fill="#FDF9F9"/>
<path fill-rule="evenodd" clip-rule="evenodd" d="M50.952 15.8844C50.5482 15.8723 50.55 15.8788 50.5159 15.8713C50.5054 15.869 50.4329 15.853 50.3903 15.8217C50.2439 15.714 50.3045 15.6738 50.188 14.7009C50.0922 13.9017 50.172 13.604 49.8149 13.5598C49.7715 13.5544 48.9888 13.5547 48.9626 13.5577C48.6745 13.5901 48.6655 13.7451 48.5895 14.4165C48.449 15.66 48.4811 15.8628 48.1156 15.8825C48.1 15.8834 47.2678 15.8854 47.2498 15.884C47.2238 15.8821 47.0135 15.867 46.9895 15.6874C46.979 15.6084 47.3466 13.2024 47.3795 12.9867C47.5977 11.5586 47.5827 11.5588 47.6018 11.4347C48.1643 7.76095 48.145 7.75853 48.1987 7.43995C48.2433 7.17437 48.4851 5.46919 48.5121 5.31203C48.5969 4.82023 48.7653 4.89398 49.6731 4.89697C49.8635 4.89768 50.2792 4.82152 50.3651 5.17875C50.3934 5.29626 50.7528 7.79235 50.7855 8.0197C51.1625 10.638 51.1798 10.6342 51.2098 10.8621C51.3243 11.7322 51.8953 15.5276 51.8982 15.5526C51.9174 15.7151 51.936 15.7346 51.8093 15.8386C51.7395 15.8959 51.225 15.884 50.952 15.8844Z" fill="#FDF8F9"/>
<path fill-rule="evenodd" clip-rule="evenodd" d="M30.9164 15.8865C28.4801 15.8855 28.4641 15.8986 28.369 15.8214C28.255 15.729 28.2694 15.6993 28.2694 13.4187C28.2694 5.76145 28.2677 5.76202 28.2709 5.31996C28.2745 4.84379 28.4498 4.90062 28.927 4.90048C31.9555 4.89906 31.9599 4.89949 32.0328 4.93615C32.1496 4.99483 32.1656 5.15796 32.1677 5.18013C32.1684 5.18795 32.1712 6.13247 32.1596 6.16515C32.1029 6.3253 32.0958 6.33652 31.9292 6.37688C31.7394 6.42306 30.1863 6.37276 30.0487 6.41681C29.8498 6.48061 29.8735 6.55435 29.8742 8.30287C29.8747 9.20305 29.8074 9.46764 30.2022 9.48413C31.2109 9.52604 31.393 9.33393 31.4652 9.72782C31.4751 9.78182 31.4822 10.6317 31.464 10.7141C31.4045 10.986 31.0012 10.9182 30.348 10.9204C29.7715 10.9224 29.8757 11.1782 29.8752 11.8557C29.8737 14.1715 29.8656 14.1836 29.9277 14.2668C30.0554 14.4379 30.8853 14.3535 31.7708 14.3723C32.2667 14.3829 32.1685 14.7274 32.1684 15.2661C32.1684 15.2995 32.1684 15.6551 32.1569 15.6833C32.0648 15.9106 32.0162 15.8822 31.7717 15.8859C31.7033 15.8869 31.7039 15.8856 30.9164 15.8865Z" fill="#FDF6F6"/>
<path fill-rule="evenodd" clip-rule="evenodd" d="M26.0836 17.9086C26.6068 17.9191 26.6067 17.918 51.9467 17.918C54.2961 17.918 54.2946 17.8632 54.4985 17.8725C54.5621 17.8755 54.6247 17.8943 54.6883 17.894C54.7183 17.894 54.7454 17.8687 54.7751 17.8718C54.7994 17.8742 54.8137 17.9075 54.838 17.9095C54.8621 17.9116 54.8819 17.8774 54.9053 17.8829C54.9319 17.8892 54.9431 17.9227 54.9648 17.939C54.9876 17.9562 55.0267 17.9571 55.0379 17.9832C55.0876 18.0983 54.849 18.1427 54.8282 18.1466C54.6588 18.1781 54.6679 18.2062 54.5002 18.2379C53.7049 18.3886 53.7049 18.4001 52.5151 18.4001C26.4362 18.4001 26.4342 18.4037 26.2306 18.3709C26.1632 18.3601 25.6069 18.2704 25.3933 18.2073C25.3663 18.1994 25.3496 18.1705 25.3236 18.1597C25.1319 18.0794 25.1204 18.1047 25.1135 18.0884C25.0996 18.0553 25.1331 18.019 25.1492 17.9869C25.1775 17.9304 25.1908 17.9478 25.3309 17.9011C25.3498 17.8948 25.3621 17.8724 25.3817 17.8698C25.431 17.8633 26.0275 17.9048 26.0836 17.9086Z" fill="#8C0A0C"/>
<path fill-rule="evenodd" clip-rule="evenodd" d="M35.3212 14.3955C35.0033 14.38 34.8454 14.4389 34.8389 13.9883C34.8365 13.8203 34.8338 6.79103 34.8382 6.73519C34.8603 6.44886 34.9611 6.3879 35.4654 6.41973C36.357 6.47586 36.236 7.01597 36.236 9.01344C36.236 13.7169 36.2476 13.7245 36.1523 13.9782C35.9784 14.441 35.4183 14.3911 35.3212 14.3955Z" fill="#CF1329"/>
<path fill-rule="evenodd" clip-rule="evenodd" d="M37.4518 21.8906C36.9827 21.8805 35.9417 21.9582 35.8236 21.243C35.7007 20.4979 36.6368 20.3676 36.738 20.3535C37.1154 20.3009 38.2843 20.23 38.7238 20.5335C39.3147 20.9415 39.4288 22.3434 38.314 22.6818C37.5364 22.9178 36.0664 22.8004 35.9475 22.4887C35.8692 22.2833 36.0247 22.175 36.1753 22.1961C36.2269 22.2032 36.6795 22.3836 37.4525 22.3686C37.5478 22.3667 38.3485 22.3512 38.563 21.9335C38.7286 21.6106 38.3224 21.751 38.2985 21.7593C37.891 21.9001 37.8844 21.8661 37.4518 21.8906Z" fill="#FDE4CB"/>
<path fill-rule="evenodd" clip-rule="evenodd" d="M24.8076 9.88192C24.557 9.8859 24.1904 9.96278 24.1566 9.57855C24.1526 9.53307 24.1573 8.01206 24.1578 7.87593C24.1613 6.67705 24.1536 6.67634 24.185 6.5773C24.2815 6.27364 25.0307 6.3687 25.2005 6.49602C25.422 6.66213 25.4227 6.71201 25.4115 9.01257C25.4078 9.78018 25.1782 9.79737 24.8076 9.88192Z" fill="#CD182D"/>
<path fill-rule="evenodd" clip-rule="evenodd" d="M44.4155 21.321C45.0157 21.323 45.3855 21.3265 45.5642 21.3022C45.6016 21.2971 45.9952 21.2435 45.8574 20.9346C45.7848 20.7721 45.055 20.7745 44.9839 20.7748C44.3364 20.7769 44.3413 20.8154 43.7028 20.9333C43.6732 20.9389 43.3323 21.002 43.4345 20.6698C43.5197 20.3928 44.7045 20.2615 45.5553 20.3573C46.7651 20.4936 46.4423 21.2109 46.3442 21.3365C46.2112 21.5067 46.1956 21.5418 46.3364 21.7058C46.358 21.7311 46.5127 21.9113 46.5021 22.0866C46.4367 23.1589 43.773 22.7766 43.5143 22.5616C43.2843 22.3705 43.498 22.2045 43.5536 22.194C43.6 22.1854 43.8221 22.2337 43.8451 22.2387C44.5646 22.3954 45.9193 22.4629 45.9428 22.0826C45.9696 21.6465 44.833 21.7966 44.1333 21.7734C43.7869 21.7619 43.7938 21.5012 43.8819 21.4089C43.9924 21.2931 44.0167 21.3474 44.4155 21.321Z" fill="#FDE5CD"/>
<path fill-rule="evenodd" clip-rule="evenodd" d="M40.1526 22.7373C39.7595 22.7112 39.5613 22.7315 39.6889 22.3584C40.0795 21.2151 42.0283 21.5216 42.2262 21.0765C42.2281 21.0721 42.3521 20.7429 41.431 20.7531C40.6052 20.7623 40.0244 20.9999 40.0095 21.0002C39.9789 21.0005 39.6474 21.004 39.8522 20.6533C40.047 20.3198 42.9243 19.9149 42.7785 21.0964C42.6877 21.8322 41.4114 21.7407 40.6022 21.999C40.3588 22.0766 40.3718 22.2262 40.3743 22.2534C40.3873 22.4034 40.826 22.2789 41.8578 22.2993C42.5753 22.3135 42.6006 22.2589 42.7098 22.37C42.9565 22.6217 42.589 22.728 42.5584 22.7368C42.5441 22.7409 41.0496 22.7504 40.1526 22.7373Z" fill="#FDE1CA"/>
<path fill-rule="evenodd" clip-rule="evenodd" d="M55.2154 6.39258C55.4335 6.40636 55.4412 6.36487 55.6404 6.45695C55.9344 6.59294 55.9275 6.90754 55.9157 8.58657C55.9108 9.27631 55.9252 9.60967 55.0732 9.60726C54.5363 9.60569 54.6368 9.37521 54.6332 8.58685C54.625 6.75436 54.6099 6.75223 54.6463 6.5972C54.6898 6.41233 54.8961 6.39713 54.9234 6.39514C55.0205 6.38789 55.1184 6.39983 55.2154 6.39258Z" fill="#CC1429"/>
<path fill-rule="evenodd" clip-rule="evenodd" d="M49.3984 8.32821C49.4367 8.35024 49.4909 8.28317 49.5292 8.30534C49.6253 8.36062 49.6291 9.55878 49.6624 9.86798C49.8731 11.8245 49.9588 11.8626 49.8168 11.9994C49.7027 12.1093 49.6862 12.0756 49.5294 12.0769C49.4964 12.077 49.1395 12.0799 49.1173 12.0725C48.8554 11.9864 48.9357 11.664 48.9482 11.5699C49.1466 10.0855 49.1935 10.0924 49.2473 9.01398C49.2612 8.7349 49.2651 8.73845 49.283 8.46108C49.3215 8.41674 49.3598 8.37241 49.3984 8.32821Z" fill="#C42637"/>
<path fill-rule="evenodd" clip-rule="evenodd" d="M34.1764 20.5041C34.4511 20.4089 34.4484 20.4061 34.473 20.4014C35.1255 20.2753 35.0726 20.7166 35.0743 20.8054C35.0766 20.9172 35.0749 22.3333 35.0738 22.371C35.0726 22.4095 35.0617 22.7716 34.7381 22.7159C34.4785 22.6712 34.5487 22.161 34.5491 21.9423C34.5501 21.4192 34.5494 21.4199 34.5497 21.3745C34.5526 21.0174 34.526 20.8365 34.2053 20.9955C33.8989 21.1474 33.9033 21.2264 33.718 21.159C33.6397 21.1305 33.5565 20.9462 33.7173 20.7738C33.8377 20.6448 34.0653 20.5587 34.1764 20.5041Z" fill="#FCE9CC"/>
<path fill-rule="evenodd" clip-rule="evenodd" d="M37.8829 20.7689C37.9198 20.7734 38.4592 20.7783 38.5364 21.0946C38.6388 21.5146 36.814 21.554 36.4922 21.3305C36.3239 21.2135 36.278 20.8819 36.8821 20.7911C37.2757 20.7319 37.803 20.7641 37.8829 20.7689Z" fill="#C41526"/>
<path fill-rule="evenodd" clip-rule="evenodd" d="M48.6825 21.9049C48.6254 21.8837 48.6232 21.8988 48.565 21.8772C48.5445 21.8695 48.5279 21.854 48.5103 21.8411C48.1255 21.56 48.4273 21.1393 48.6814 21.1168C49.0801 21.0817 49.2475 21.6369 48.9728 21.813C48.779 21.937 48.7328 21.889 48.6825 21.9049Z" fill="#FDECCF"/>
<path fill-rule="evenodd" clip-rule="evenodd" d="M31.3401 21.906C31.3003 21.8915 31.2536 21.9078 31.2138 21.8932C30.8537 21.7615 30.8186 21.2845 31.2131 21.1331C31.5224 21.0146 31.9848 21.5111 31.5125 21.8473C31.5007 21.8557 31.4998 21.8516 31.3401 21.906Z" fill="#FDE5CC"/>
</svg>
