<svg width="80" height="30" viewBox="0 0 80 30" fill="none" xmlns="http://www.w3.org/2000/svg">
<path fill-rule="evenodd" clip-rule="evenodd" d="M12.2335 19.0072C13.1924 19.0072 13.1903 19.0052 14.1487 18.9969C14.2505 18.9959 14.2714 18.9738 14.3136 19.0639C14.3532 19.1488 14.3766 19.1583 14.3168 19.2284C14.1785 19.3908 13.7632 19.9143 13.7603 19.9177C13.5752 20.1337 13.5739 20.1505 13.5719 20.176C13.5705 20.1945 13.5599 20.331 13.7363 20.3406C13.7429 20.341 14.6249 20.3269 14.7023 20.3258C14.8969 20.3226 15.1171 20.2852 15.1876 20.3696C15.2918 20.4946 15.0787 20.6678 15.0113 20.7515C14.453 21.4456 14.5084 21.4875 13.6055 22.5102C13.5863 22.532 13.3822 22.7631 13.381 22.7954C13.3789 22.8447 13.4259 22.8922 13.4705 22.9133C13.6605 23.0034 13.5776 22.7648 15.5322 21.2843C16.1264 20.8342 17.0845 20.0432 17.3211 19.917C17.5613 19.7891 17.5882 19.5984 17.3161 19.5992C17.2605 19.5995 17.2642 19.6099 16.6225 19.6338C16.3218 19.6451 16.3037 19.6966 16.224 19.6145C16.1231 19.5101 16.2907 19.3459 16.3077 19.3292C16.4614 19.1785 17.4355 18.0235 17.7216 17.7112C17.8353 17.5871 17.8847 17.5999 17.8678 17.4306C17.8495 17.2465 17.7644 17.3374 17.5813 17.3473C17.4853 17.3525 11.8352 17.3698 11.4074 17.3369C11.0485 17.3093 10.0224 17.2103 9.40319 16.038C9.13382 15.5281 8.94743 14.8585 9.06099 12.2225C9.07444 11.9119 9.01381 10.3062 10.2095 9.53251C10.3678 9.43019 13.8386 7.55624 18.2535 8.71438C19.6923 9.09183 21.2698 9.81504 21.4037 10.0407C21.4424 10.1059 21.4583 10.107 21.5713 12.0855C21.6023 12.6284 21.592 12.7458 21.4713 12.8392C21.3853 12.9058 21.3705 12.8876 17.7197 12.8898C17.489 12.8899 17.2073 12.9361 17.1474 12.64C17.1297 12.5528 17.1273 12.463 17.109 12.3759C17.0437 12.0656 16.7552 11.7266 16.8013 11.3938C16.8197 11.2611 16.8585 11.2327 16.744 11.166C16.727 11.1561 16.6337 11.1018 16.5326 11.2926C16.3346 11.6662 16.808 12.0891 16.3892 12.4182C16.142 12.6125 15.707 12.5916 15.6828 11.9481C15.6568 11.2557 16.2121 11.3814 16.2168 10.7142C16.2191 10.375 16.0906 9.89651 15.9374 9.88582C15.8174 9.87745 15.8126 10.0157 15.812 10.0311C15.8079 10.1468 16.0032 10.6104 15.6882 10.8857C15.5214 11.0315 15.1354 11.026 15.109 10.4406C15.095 10.1294 15.3546 9.52565 15.2205 9.21938C15.1948 9.16095 15.1748 9.08991 15.1206 9.05617C15.098 9.04204 14.9219 8.93245 14.9453 9.34022C14.9958 10.2158 14.3353 10.2593 14.4686 11.1182C14.5442 11.6057 15.0191 11.785 14.8093 12.4878C14.6421 13.0474 13.919 12.9917 13.8146 12.3728C13.724 11.8353 14.263 11.5568 14.0344 10.9717C13.9506 10.7569 13.7867 10.9525 13.7782 10.9959C13.7518 11.1306 13.8477 11.143 13.7129 11.5159C13.6025 11.8211 12.4397 13.0228 13.848 14.0519C14.5387 14.5565 15.2397 14.4767 16.7596 14.4767C19.2938 14.4767 20.6761 14.3527 21.2765 15.9297C21.8535 17.4452 20.593 21.508 20.1626 22.3599C19.3904 23.8886 18.0902 23.7236 16.7596 23.7236C11.2618 23.7236 11.2582 23.7279 11.1604 23.6913C11.088 23.6641 11.0271 23.6881 10.4559 22.3705C10.355 22.1383 9.78133 20.8151 9.51045 19.3518C9.43694 18.9548 9.63622 19.017 10.0389 19.0165C11.6298 19.014 11.6281 19.0276 12.2335 19.0072Z" fill="#FFAA2A"/>
<path fill-rule="evenodd" clip-rule="evenodd" d="M13.3274 5.05833C13.7053 5.02006 16.9766 4.9796 17.0339 5.01156C17.1335 5.06697 18.7763 5.0922 20.0475 5.38284C22.3108 5.90046 23.3487 6.31727 25.1197 7.0265C25.5542 7.20041 25.5965 7.23292 25.6283 7.70144C25.6483 7.99714 25.8158 10.467 25.8276 11.4005C25.8462 12.8874 26.1083 19.3664 23.558 24.5417C23.5497 24.5586 23.5342 24.5712 23.5254 24.5878C23.4404 24.75 23.451 24.8594 23.4533 24.8836C23.4549 24.9009 23.492 24.8991 23.4936 24.9164C21.5858 24.9153 21.5844 24.946 21.422 24.9134C21.3987 24.9087 21.4009 24.9068 21.1381 24.8236C21.1542 24.7915 21.1521 24.7522 21.168 24.7201C21.2009 24.6539 21.2105 24.6608 21.6239 23.9165C21.8516 23.5067 23.032 21.3817 23.5499 18.3833C24.0727 15.3565 23.9594 12.7922 23.9458 11.8113C23.9262 10.3979 23.7716 8.79648 23.7696 8.7899C23.7157 8.61708 23.5928 8.53767 21.9818 7.94365C15.9223 5.70954 11.2198 7.03445 8.54678 8.01675C7.05234 8.56606 7.02505 8.64835 6.98102 8.78057C6.93247 8.92691 6.81438 10.8641 6.81027 10.9923C6.70699 14.1939 6.44777 19.8632 9.62002 24.8577C9.57969 24.8631 9.5513 24.7979 9.51098 24.8033C9.50659 24.8038 9.39892 24.8994 9.21459 24.9046C8.85963 24.9146 8.1441 24.8906 7.28098 24.9141C7.27508 24.8962 7.32158 24.8872 7.31568 24.8694C7.27618 24.7506 7.2076 24.7834 6.65309 23.4524C5.87885 21.5942 5.28771 19.1112 5.18581 17.4412C5.17785 17.3091 5.17497 17.3121 5.07457 15.7919C5.07238 15.7586 5.04975 15.4163 5.02575 15.3781C4.98981 15.3209 4.9931 10.4984 5.02561 10.4406C5.0326 10.4281 5.03219 10.1332 5.04111 10.0244C5.12834 8.95215 5.13767 7.49296 5.2201 7.27242C5.24245 7.21262 5.22846 7.16955 6.21488 6.77838C10.6225 5.03076 12.8448 5.10715 13.3274 5.05833Z" fill="#FFAA2A"/>
<path fill-rule="evenodd" clip-rule="evenodd" d="M58.3761 12.9809C58.3788 12.9794 58.6143 13.0462 58.54 12.6327C58.463 12.2052 58.4328 12.2078 58.432 11.2637C58.4296 8.01551 58.4426 8.01633 58.4584 7.97368C58.5231 7.79716 58.8471 7.83556 59.5518 7.83556C61.0976 7.83556 61.1281 7.81348 61.2375 7.94556C61.2817 7.99891 61.2821 8.34838 61.2821 8.38363C61.2829 9.51255 61.3263 9.72898 61.0655 9.78151C60.8583 9.82334 60.6899 9.73077 60.6877 10.1669C60.6858 10.5398 60.6711 13.5134 60.6878 14.8288C60.693 15.2367 60.9657 15.157 61.0753 15.1812C61.2322 15.2156 61.2362 15.232 61.2783 15.3863C61.2873 15.4193 61.2825 16.6403 61.2821 16.7494C61.2811 16.9974 61.2954 17.0525 61.0547 17.1119C61.0391 17.1157 58.6229 17.1141 58.5935 17.1124C58.2849 17.0946 58.2877 17.0444 58.1366 16.773C57.9944 16.5176 56.9447 14.5011 56.9099 14.4372C55.8356 12.466 55.9771 12.3739 55.9342 12.2491C55.9247 12.2215 55.8962 12.2044 55.8827 12.1786C55.8675 12.1495 55.8778 12.1019 55.8491 12.086C55.808 12.0631 55.7549 12.0761 55.7081 12.0816C55.5367 12.1018 55.6405 12.1814 55.6711 12.3503C55.7519 12.7964 55.7575 13.243 55.7585 13.3209C55.7619 13.5952 55.7962 16.3258 55.7941 16.7492C55.7929 16.9963 55.807 17.0504 55.5682 17.1112C55.5514 17.1154 53.1278 17.1156 53.1122 17.1113C52.8125 17.0315 52.9338 16.8731 52.8926 15.6527C52.876 15.164 53.0244 15.208 53.2358 15.1743C53.2561 15.171 53.4214 15.1447 53.4709 15.0712C53.5244 14.9917 53.5176 14.9816 53.5176 10.9894C53.5176 10.0248 53.5831 9.81841 53.2392 9.78727C52.932 9.75929 52.9004 9.701 52.901 9.34413C52.9032 8.08656 52.8738 8.08079 52.9323 7.94995C52.9975 7.80347 53.3237 7.83556 53.9284 7.83556C55.7666 7.83556 55.8122 7.80594 55.9554 7.99411C56.0324 8.09533 58.0653 12.0908 58.1273 12.2581C58.1898 12.4263 58.1627 12.4334 58.3761 12.9809Z" fill="#FFAA2A"/>
<path fill-rule="evenodd" clip-rule="evenodd" d="M74.9809 9.46978C75.0388 9.65823 74.9604 15.9036 74.8143 16.2214C74.7228 16.4202 74.5494 16.9638 73.398 17.099C73.161 17.1267 70.7186 17.1122 70.6636 17.1105C68.5429 17.0437 68.6493 15.6027 68.6492 14.8303C68.6488 9.49049 68.6307 9.48473 68.7486 9.07203C69.0239 8.10989 69.6622 7.86191 70.6614 7.83846C72.4071 7.79759 73.1824 7.85602 73.401 7.87248C75.0206 7.99468 74.8846 9.15666 74.9809 9.46978ZM71.8956 15.167C72.2867 15.1632 72.2846 15.1686 72.3179 15.1629C72.4833 15.1354 72.4905 15.1199 72.5397 14.9604C72.5446 14.9443 72.5445 14.5884 72.5445 14.556C72.5425 10.0826 72.5548 10.0039 72.5216 9.91814C72.4555 9.74738 72.0531 9.78757 71.6215 9.78757C71.5274 9.78757 71.2372 9.74285 71.1975 10.0283C71.1963 10.0381 71.1872 14.8964 71.2026 14.969C71.265 15.2621 71.8136 15.1687 71.8956 15.167Z" fill="#FFAA2A"/>
<path fill-rule="evenodd" clip-rule="evenodd" d="M47.4198 15.9178C47.391 16.1149 47.3427 16.4301 47.3359 16.4747C47.2756 16.8683 47.3334 16.8919 47.2132 17.0293C47.1227 17.133 46.9564 17.1134 45.0133 17.1142C44.5577 17.1144 44.3699 17.2053 44.367 16.7497C44.3663 16.6405 44.3585 15.4289 44.3713 15.3854C44.4386 15.1559 44.4994 15.196 44.7357 15.1749C45.0627 15.1455 45.0751 15.0555 45.1805 14.4239C45.2187 14.1947 46.2662 8.09987 46.3056 7.99727C46.3795 7.80471 46.4544 7.83584 48.305 7.83584C50.2461 7.83584 50.2976 7.81225 50.3742 7.96491C50.439 8.09397 50.642 9.41244 50.9336 10.9856C50.9865 11.2712 51.2867 12.8914 51.5619 14.5619C51.5693 14.607 51.637 15.0184 51.7311 15.1076C51.8766 15.2458 52.3076 14.9979 52.3161 15.5149C52.318 15.625 52.3365 16.7558 52.3128 16.8923C52.2737 17.1178 52.0112 17.1137 52.0058 17.1141C51.8622 17.1246 49.9895 17.1152 49.8142 17.1144C49.3481 17.112 49.4085 16.9459 49.3448 16.4848C49.1522 15.0941 49.1637 15.0884 49.0962 14.9875C49.0323 14.892 49.0156 14.8561 47.8942 14.8691C47.579 14.8728 47.559 14.9326 47.5118 15.2462C47.4611 15.5843 47.4611 15.5811 47.4198 15.9178ZM48.3206 9.68318L48.2065 9.76972C48.1068 11.506 47.9418 11.8701 47.8103 12.9169C47.8074 12.9401 47.7855 13.1147 47.8823 13.2001C47.9318 13.2439 48.7294 13.2927 48.8313 13.1659C48.9011 13.0793 48.8732 13.013 48.6316 11.3928C48.442 10.1208 48.5024 9.70307 48.4101 9.6541C48.3823 9.63929 48.3483 9.69786 48.3206 9.68318Z" fill="#FFAA2A"/>
<path fill-rule="evenodd" clip-rule="evenodd" d="M30.2758 9.89163C30.2818 9.66875 30.1624 8.50445 31.1869 8.02742C31.5434 7.86147 31.6718 7.8018 36.0984 7.835C36.5013 7.83801 36.4644 7.97914 36.4645 8.3832C36.4649 10.3958 36.4709 10.4065 36.4184 10.4714C36.309 10.6069 36.2771 10.5834 34.864 10.5836C34.6377 10.5836 34.2334 10.6655 34.2176 10.3004C34.2017 9.93662 34.2677 9.79439 33.9026 9.78643C32.9919 9.76641 32.9646 9.79014 32.9042 9.84267C32.7886 9.9432 32.8074 10.0794 32.8074 10.3032C32.8075 11.0269 32.7732 11.3581 32.9311 11.4242C33.0947 11.4928 34.6804 11.4164 35.2803 11.5046C36.9107 11.7443 36.754 13.2049 36.7548 13.5949C36.7583 15.2068 36.84 16.2644 36.0987 16.7499C35.466 17.1643 35.4177 17.1135 32.6696 17.1135C30.5678 17.1135 30.5456 17.1274 30.4596 17.0375C30.3906 16.9652 30.3969 16.6466 30.3977 16.6123C30.4385 14.5911 30.3601 14.5827 30.4291 14.394C30.4977 14.2058 31.016 14.2569 31.0237 14.2569C32.5652 14.2563 32.5799 14.2531 32.6675 14.2854C32.8971 14.37 32.7538 14.9205 32.8535 15.0706C32.9005 15.1412 32.9429 15.205 33.909 15.1651C34.2485 15.1511 34.2172 14.9565 34.2171 14.6923C34.2168 13.6916 34.2394 13.4614 34.1293 13.3843C33.9024 13.2256 31.8546 13.5235 31.1362 13.0919C30.1515 12.5004 30.2758 11.7423 30.2758 9.89163Z" fill="#FFAA2A"/>
<path fill-rule="evenodd" clip-rule="evenodd" d="M43.0146 16.201C43.0147 16.4594 43.032 16.9589 42.9644 17.0305C42.8572 17.1443 42.8394 17.1123 42.6806 17.1139C42.419 17.1163 39.5644 17.1432 39.4103 17.0982C39.263 17.0552 39.2605 16.7799 39.2602 16.7494C39.248 15.3815 39.2407 15.3741 39.3026 15.2734C39.4284 15.0687 39.8493 15.3518 39.8597 14.8317C39.8821 13.7087 39.8619 10.5384 39.8596 10.1651C39.8568 9.72451 39.6939 9.77567 39.2545 9.78623C38.9162 9.79446 38.9427 10.0306 38.9419 10.1656C38.9365 11.0346 38.9832 11.0512 38.8976 11.1637C38.7868 11.3093 38.7185 11.2808 37.7443 11.2804C37.5097 11.2804 37.1718 11.3619 37.1438 10.9939C37.141 10.9573 37.1438 8.59189 37.1441 8.383C37.1441 8.34899 37.1445 8.0264 37.1718 7.95933C37.2314 7.81285 37.2868 7.83521 39.3901 7.83521C44.921 7.83521 44.9258 7.83123 44.9985 7.86607C45.1503 7.9389 45.1266 7.99101 45.1263 9.89184C45.1263 10.9175 45.1565 11.1633 45.0045 11.246C44.9216 11.2912 44.6061 11.2803 43.9162 11.2804C43.8832 11.2805 43.5481 11.2805 43.5031 11.2697C43.3315 11.2284 43.3212 11.0198 43.32 10.9933C43.3042 10.6727 43.3705 9.98209 43.259 9.86715C43.1306 9.7348 42.5928 9.76813 42.5061 9.84617C42.3997 9.94204 42.4153 9.967 42.4153 12.0863C42.4153 12.9092 42.4153 13.7322 42.4153 14.5551C42.4153 14.5962 42.4152 14.9995 42.4589 15.0682C42.6089 15.3037 42.7508 15.0478 42.9523 15.2444C43.0331 15.3234 43.0146 15.6916 43.0146 16.201Z" fill="#FFAA2A"/>
<path fill-rule="evenodd" clip-rule="evenodd" d="M65.0381 15.1677C65.6217 15.1867 65.7638 15.1948 65.7704 14.8326C65.7866 13.9189 65.7062 13.8784 65.8653 13.7399C65.9292 13.6842 66.0211 13.6905 67.507 13.6915C67.8289 13.6917 68.0307 13.655 68.0401 14.0087C68.0592 14.7107 68.0429 16.5315 68.0408 16.7508C68.0367 17.2191 67.8391 17.1153 67.3697 17.1151C63.3984 17.1136 63.1842 17.1672 62.6112 16.8208C61.7533 16.3018 61.8586 15.2786 61.8586 12.9108C61.8586 9.31664 61.7715 8.83331 62.5516 8.22338C63.1269 7.77351 63.6453 7.83866 67.3697 7.83674C67.6451 7.8366 67.9192 7.78764 67.9398 8.10831C67.9411 8.12915 67.9399 10.0552 67.9402 10.3048C67.9402 10.3446 67.9406 10.7289 67.8653 10.7956C67.7774 10.8733 67.6435 10.8603 66.2725 10.86C66.0285 10.86 65.9221 10.8784 65.8159 10.7469C65.7211 10.6293 65.8114 9.98856 65.7292 9.89008C65.6262 9.76664 65.6081 9.79161 65.4483 9.78845C64.5228 9.76994 64.5039 9.80738 64.4685 9.8776C64.4162 9.98115 64.4238 9.9887 64.4235 14.2823C64.4235 14.9131 64.3175 15.1587 64.7613 15.1674C64.8536 15.1692 64.9458 15.1659 65.0381 15.1677Z" fill="#FFAA2A"/>
<path fill-rule="evenodd" clip-rule="evenodd" d="M74.9136 19.5118C60.2837 19.5121 45.6537 19.5124 31.0238 19.5127C30.9809 19.5127 30.5431 19.5128 30.4885 19.4722C30.3487 19.3685 30.3404 19.0926 30.6064 19.0473C30.6446 19.0408 74.9012 19.0362 74.9156 19.0499C74.9288 19.0625 74.9383 19.1861 74.9392 19.198C74.9553 19.4076 74.9165 19.4769 74.9136 19.5118Z" fill="#FFAA2A"/>
<path fill-rule="evenodd" clip-rule="evenodd" d="M74.9193 6.09607C73.6426 6.13448 34.4091 6.11061 30.8864 6.10855C30.8528 6.10855 30.5237 6.10828 30.4689 6.05959C30.3648 5.96701 30.3264 5.69078 30.614 5.65306C30.6672 5.64607 63.0408 5.65128 74.3645 5.64977C74.5711 5.64963 74.5679 5.65498 74.7753 5.65087C74.8852 5.64881 74.9292 5.61562 74.9388 5.72452C74.9416 5.75415 74.9374 5.75195 74.9193 6.09607Z" fill="#FFAA2A"/>
<path fill-rule="evenodd" clip-rule="evenodd" d="M58.7868 22.4924C58.8391 22.7061 58.9613 23.0126 58.8498 23.605C58.6491 24.6716 57.8908 24.6977 57.7716 24.7132C57.6632 24.7273 56.8321 24.8354 56.4154 24.5453C55.5035 23.9103 55.5099 21.515 57.3572 21.5117C58.0551 21.5104 58.5569 21.8838 58.7454 22.3666C58.7614 22.4078 58.7708 22.4512 58.7868 22.4924ZM56.5892 23.4644C56.5917 23.4769 56.5881 23.6213 56.6926 23.8727C56.9483 24.488 58.085 24.5985 58.1366 23.3312C58.1403 23.2414 58.2515 22.0352 57.3571 22.0391C56.4265 22.0432 56.5836 23.3363 56.5892 23.4644Z" fill="#FFAA2A"/>
<path fill-rule="evenodd" clip-rule="evenodd" d="M59.6065 24.5619C59.6043 24.365 59.5991 23.9128 59.6035 22.0993C59.6045 21.7153 59.5784 21.5877 59.9638 21.5835C60.7699 21.5743 62.3177 21.3912 62.3035 23.1966C62.2922 24.6497 61.2581 24.6712 60.9217 24.6922C60.6511 24.7091 59.709 24.6928 59.7084 24.6924C59.6607 24.6647 59.6543 24.5898 59.6065 24.5619ZM61.5493 22.9294C61.532 22.8538 61.4983 22.201 60.7818 22.1412C60.4023 22.1095 60.297 22.1292 60.2964 22.5112C60.2963 22.6208 60.2946 23.8472 60.2961 23.8812C60.309 24.1746 60.3548 24.2162 60.649 24.2148C61.692 24.21 61.5588 23.1878 61.5493 22.9294Z" fill="#FFAA2A"/>
<path fill-rule="evenodd" clip-rule="evenodd" d="M52.7513 24.5619C52.7436 23.7413 52.7487 23.7438 52.7491 22.9221C52.7496 21.8638 52.696 21.6198 52.9733 21.5862C53.0005 21.5829 54.0235 21.5784 54.2008 21.5871C55.4942 21.6502 55.3147 22.6793 54.9581 23.0046C54.8702 23.0849 54.8485 23.0824 54.8584 23.2012C54.8677 23.3131 55.047 23.3756 55.112 23.7543C55.1825 24.1645 55.1708 24.1647 55.2565 24.5731C55.2295 24.5875 55.2179 24.6892 55.0236 24.6966C54.9926 24.6978 54.6692 24.7104 54.6359 24.6907C54.5864 24.6613 54.5779 24.5849 54.5285 24.5557C54.4081 23.7387 54.4667 23.5094 53.9282 23.497C53.5561 23.4886 53.4631 23.5094 53.4614 23.8813C53.4598 24.2216 53.461 24.2194 53.4583 24.5617C53.4114 24.5896 53.4111 24.6678 53.3643 24.6955C53.3572 24.6997 53.004 24.6923 52.9728 24.6916C52.9322 24.6908 52.8859 24.7133 52.8508 24.6927C52.8035 24.665 52.7986 24.5896 52.7513 24.5619ZM53.4612 22.51C53.4753 22.7534 53.3803 22.9806 53.9296 22.9478C54.6389 22.9056 54.5245 22.2929 54.2264 22.1828C54.0634 22.1224 53.5708 22.0887 53.5027 22.2267C53.4763 22.2803 53.4654 22.3538 53.4638 22.3652C53.4532 22.4376 53.472 22.4363 53.4612 22.51Z" fill="#FFAA2A"/>
<path fill-rule="evenodd" clip-rule="evenodd" d="M33.3783 24.5712C34.2033 22.2844 34.3825 21.7546 34.4499 21.6856C34.4791 21.6559 34.5693 21.5651 34.9997 21.5848C35.3721 21.6018 35.3681 21.849 35.5608 22.3697C35.6256 22.5449 35.6619 22.6432 36.3273 24.5748L36.2163 24.6922C36.1767 24.693 35.7561 24.7021 35.7212 24.6849C35.4849 24.5692 35.729 24.0666 35.0008 24.0873C34.5154 24.1012 34.2714 24.0462 34.1577 24.2831C34.147 24.3053 34.1615 24.3094 34.0412 24.5682C34.0225 24.6081 34.0183 24.6606 33.983 24.6868C33.9613 24.7029 33.5517 24.686 33.5141 24.6845L33.3783 24.5712ZM34.8637 23.548C34.914 23.5375 34.9671 23.5472 35.0173 23.5368C35.2516 23.488 35.2407 23.4157 35.1651 23.1888C34.9307 22.4858 34.9978 22.4578 34.9479 22.4175C34.9247 22.3988 34.8884 22.4223 34.8585 22.4217C34.8276 22.4213 34.7918 22.3976 34.766 22.4146C34.7372 22.4337 34.7363 22.477 34.7252 22.5098C34.6071 22.8606 34.6267 22.8643 34.51 23.2145C34.3772 23.6125 34.7611 23.5465 34.8637 23.548Z" fill="#FFAA2A"/>
<path fill-rule="evenodd" clip-rule="evenodd" d="M50.4673 24.6974C50.3427 24.6963 50.3459 24.6893 50.224 24.6952C50.2133 24.6958 50.1613 24.6984 50.09 24.6946C49.865 24.6829 49.8646 24.7102 49.8494 24.6983C49.814 24.6708 49.8284 24.6109 49.8228 24.5663C49.7996 24.3823 49.8146 22.1702 49.8161 21.9619C49.8184 21.6071 49.9078 21.5833 50.2256 21.5828C50.8423 21.5816 51.0588 21.5757 51.3345 21.6337C51.4334 21.6545 52.1738 21.8105 52.0932 22.6434C51.992 23.6926 50.7963 23.5052 50.6219 23.5831C50.4629 23.654 50.5157 24.1721 50.5105 24.4311C50.5071 24.6061 50.4715 24.6718 50.4673 24.6974ZM50.906 22.996C50.9492 22.9822 51.1116 22.9888 51.2481 22.8367C51.325 22.7508 51.3407 22.6681 51.3437 22.6518C51.4479 22.0986 50.6541 22.0187 50.5409 22.2565C50.5083 22.3252 50.5103 22.6161 50.5106 22.6474C50.5138 23.0837 50.773 22.9768 50.906 22.996Z" fill="#FFAA2A"/>
<path fill-rule="evenodd" clip-rule="evenodd" d="M33.0256 23.8773C32.954 24.1811 32.9559 24.3713 32.5514 24.5987C32.3807 24.6946 31.8518 24.7811 31.4311 24.736C31.0766 24.698 30.6473 24.6752 30.4875 24.1529C30.4789 24.1247 30.4033 23.8778 30.5106 23.7839C30.5819 23.7214 30.9895 23.6488 31.1437 23.8919C31.1652 23.9261 31.1748 23.9665 31.1952 24.0014C31.5322 24.5759 32.1859 24.2369 32.2516 24.0169C32.4837 23.2403 30.5528 23.7162 30.531 22.5123C30.5104 21.3804 32.6876 21.1233 32.9158 22.2409C32.9795 22.5522 32.5701 22.5056 32.5332 22.5013C32.1402 22.4566 32.2288 21.998 31.7038 22.045C31.2613 22.0846 31.0381 22.6477 31.6986 22.8232C31.7744 22.8434 32.4731 23.0291 32.631 23.1255C33.0906 23.4061 33.0193 23.8018 33.0256 23.8773Z" fill="#FFAA2A"/>
<path fill-rule="evenodd" clip-rule="evenodd" d="M74.9074 22.4826C74.4647 22.5218 74.4183 22.5482 74.1988 22.2567C73.8557 21.8014 73.0398 22.122 73.389 22.6613C73.538 22.8916 74.5849 22.8835 74.8844 23.3718C74.8954 23.3899 74.9556 23.6243 74.9417 23.8857C74.9265 24.1728 74.8697 24.2962 74.7784 24.4325C74.6271 24.6584 73.9284 24.8592 73.0144 24.6726C72.5716 24.582 72.4721 24.0895 72.4638 24.0164C72.4358 23.7724 72.578 23.7355 72.7168 23.7254C73.1527 23.6934 73.1772 23.961 73.1918 23.9883C73.5035 24.5685 74.1872 24.2445 74.2553 24.0296C74.4177 23.5165 73.5689 23.4937 73.1417 23.3057C72.107 22.8502 72.5271 21.8752 73.2447 21.6246C74.2507 21.2732 74.8619 21.816 74.8736 22.2445C74.8744 22.2783 74.8608 22.3121 74.8656 22.3456C74.8723 22.3929 74.9007 22.4353 74.9074 22.4826Z" fill="#FFAA2A"/>
<path fill-rule="evenodd" clip-rule="evenodd" d="M63.8578 23.735C63.86 23.7415 63.9012 24.2008 64.3509 24.2993C65.0978 24.4629 65.1868 23.6963 65.1969 23.6097C65.2324 23.3041 65.1798 21.8472 65.2333 21.712C65.2945 21.5577 65.8424 21.4632 65.8961 21.8194C65.8974 21.8282 65.9077 23.5798 65.8885 23.7472C65.836 24.2061 65.5628 24.4829 65.4371 24.5522C65.2831 24.6369 65.1563 24.7005 64.6299 24.7452C64.3081 24.7725 63.7426 24.6681 63.5605 24.5298C63.0758 24.1623 63.1479 23.7199 63.148 22.2359C63.148 22.0188 63.1229 21.7516 63.2216 21.6534C63.3148 21.5604 63.7859 21.486 63.8356 21.8199C63.8567 21.9619 63.8086 23.0011 63.8578 23.735Z" fill="#FFAA2A"/>
<path fill-rule="evenodd" clip-rule="evenodd" d="M41.8426 24.566L41.7007 24.684C41.3847 24.7033 41.3865 24.7 40.8987 24.7C40.8221 24.7 40.0053 24.7 39.94 24.696C39.7106 24.6821 39.708 24.7085 39.6912 24.6975C39.6539 24.6732 39.6552 24.6153 39.6464 24.5717C39.6307 24.4934 39.6398 21.8326 39.6413 21.8219C39.6446 21.7994 39.6691 21.63 39.8141 21.5953C39.9411 21.565 39.9417 21.5689 41.4468 21.5826C42.0356 21.5879 41.7085 22.0767 41.7058 22.0789C41.5903 22.17 40.8775 22.1228 40.6272 22.1339C40.1981 22.153 40.388 22.7374 40.3978 22.7526C40.512 22.9318 41.2307 22.8256 41.4423 22.8507C41.776 22.8903 41.7016 23.2286 41.6617 23.2955C41.5461 23.4898 40.7077 23.3303 40.4678 23.4391C40.3006 23.5149 40.3434 24.0353 40.4003 24.1208C40.5109 24.2864 41.3659 24.1934 41.5801 24.2173C41.6071 24.2203 41.8163 24.2436 41.8437 24.4332C41.8502 24.4769 41.8363 24.5222 41.8426 24.566Z" fill="#FFAA2A"/>
<path fill-rule="evenodd" clip-rule="evenodd" d="M67.4437 23.4791C67.4502 23.5169 67.4735 23.9569 67.7503 24.1954C67.9053 24.3288 68.2849 24.4162 68.5502 23.9888C68.6292 23.8614 68.6108 23.722 69.0162 23.7231C69.7035 23.7249 69.0871 24.5524 68.8178 24.6421C68.7109 24.6776 67.8109 24.8633 67.3365 24.6199C67.026 24.4603 67.0231 24.4483 66.8664 24.1343C66.4361 23.2722 66.6215 21.1445 68.464 21.5639C69.3086 21.7562 69.4063 22.4887 69.247 22.5826C69.2001 22.6103 68.7818 22.6773 68.6248 22.4949C68.6089 22.4765 68.6275 22.4652 68.4666 22.2367C68.3074 22.0105 67.2894 21.6721 67.4437 23.4791Z" fill="#FFAA2A"/>
<path fill-rule="evenodd" clip-rule="evenodd" d="M36.9338 24.5653C36.9295 24.3365 36.8827 21.8585 36.9583 21.7054C37.0292 21.562 37.1115 21.5805 38.5668 21.5815C38.6051 21.5815 38.8013 21.5669 38.8829 21.6323C39.0514 21.7673 39.0471 22.1109 38.7074 22.1312C38.4427 22.1471 37.8266 22.0844 37.7084 22.1954C37.6063 22.2911 37.4996 22.8521 37.8856 22.8678C38.1312 22.878 38.7177 22.8302 38.8267 22.9367C38.8552 22.9645 39.0656 23.3913 38.5656 23.4178C38.37 23.4282 37.7636 23.3664 37.6682 23.5141C37.5757 23.6572 37.6694 24.6331 37.577 24.6969C37.5608 24.708 37.5609 24.6839 37.3315 24.6951C37.3113 24.6961 37.3128 24.6942 37.0791 24.6821L36.9338 24.5653Z" fill="#FFAA2A"/>
<path fill-rule="evenodd" clip-rule="evenodd" d="M45.1582 21.5789C45.654 21.5879 45.7582 21.5134 45.9586 21.9685C45.9997 22.0621 46.0432 22.1545 46.085 22.2478C46.1734 22.4447 46.1809 22.4395 46.2528 22.6448C46.2612 22.669 46.3489 22.9201 46.4879 22.861C46.5489 22.8351 46.9497 21.7979 47.0678 21.6845C47.2088 21.5491 47.5937 21.5789 47.607 21.5856C47.7467 21.6569 47.7298 21.6909 47.6792 21.839C47.5862 22.1112 46.769 23.4778 46.7408 23.8781C46.7369 23.9327 46.7412 23.9324 46.7354 24.5614C46.6888 24.5891 46.6873 24.6659 46.6407 24.6936C46.6393 24.6945 46.6404 24.6942 46.2535 24.6897C46.212 24.6893 46.1647 24.7157 46.1292 24.6945C46.083 24.667 46.0844 24.5889 46.0381 24.5613C46.0344 23.8667 46.094 23.8436 45.7832 23.2225C45.7509 23.1581 45.2225 22.1474 45.166 21.9529C45.154 21.9119 45.1572 21.865 45.1346 21.8286C45.1189 21.8037 45.0623 21.8115 45.0594 21.7823C45.0576 21.7642 45.0664 21.7679 45.1582 21.5789Z" fill="#FFAA2A"/>
<path fill-rule="evenodd" clip-rule="evenodd" d="M70.5818 24.5632C70.5742 23.3037 70.584 23.3061 70.5794 22.511C70.5777 22.2059 70.5541 22.1382 70.2489 22.1339C70.1574 22.1327 70.0659 22.1357 69.9744 22.1341C69.4699 22.1256 69.5845 21.6233 69.8441 21.5878C70.0999 21.5528 71.7306 21.5807 71.8946 21.5835C72.3753 21.5918 72.2401 22.0682 72.039 22.1224C72.0004 22.1328 72.0002 22.1283 71.6225 22.1339C71.4597 22.1364 71.4409 22.1071 71.3346 22.2291C71.2686 22.3048 71.3031 22.4894 71.2895 24.5631C71.2422 24.5908 71.2367 24.6658 71.1894 24.6935C71.187 24.6949 70.6822 24.6959 70.6801 24.6946C70.6329 24.6669 70.6288 24.5909 70.5818 24.5632Z" fill="#FFAA2A"/>
<path fill-rule="evenodd" clip-rule="evenodd" d="M44.7277 21.5934C44.8243 21.7543 44.8302 21.7539 44.835 21.9403C44.8395 22.1137 44.6636 22.1264 44.6055 22.1303C44.3972 22.1444 44.3998 22.1172 44.1935 22.133C43.8714 22.1576 43.9282 22.3086 43.9282 23.6069C43.9282 23.9987 43.9418 24.6558 43.8845 24.6966C43.8686 24.708 43.8684 24.6833 43.6405 24.6942C43.6203 24.6953 43.6218 24.6934 43.3885 24.6818L43.2438 24.5648C43.206 22.4112 43.3145 22.2153 43.0772 22.1475C42.9952 22.1242 42.4744 22.1458 42.4083 22.0967C42.2597 21.9861 42.2126 21.6006 42.5476 21.5825C42.5816 21.5806 43.6206 21.5822 43.6418 21.5822C44.1861 21.5819 44.1847 21.5679 44.7277 21.5934Z" fill="#FFAA2A"/>
<path fill-rule="evenodd" clip-rule="evenodd" d="M53.4583 24.5621C53.461 24.2198 53.4598 24.222 53.4614 23.8817C53.463 23.5098 53.556 23.489 53.9281 23.4974C54.4666 23.5098 54.408 23.7391 54.5285 24.5561C54.4672 24.6738 54.406 24.7916 54.3447 24.9093C54.2046 24.9116 54.2067 24.9043 54.0657 24.9067C54.0329 24.9071 54.0354 24.9075 53.6552 24.9193C53.484 24.7243 53.4812 24.7284 53.4705 24.7088C53.4467 24.6658 53.4818 24.6052 53.4583 24.5621Z" fill="#FEFEFE"/>
</svg>
