<svg width="80" height="30" viewBox="0 0 80 30" fill="none" xmlns="http://www.w3.org/2000/svg">
<g clip-path="url(#clip0_454_2812)">
<path fill-rule="evenodd" clip-rule="evenodd" d="M32.8503 12.4616V19.9835C32.7793 20.3707 33.4431 20.3127 33.2325 20.7139C32.9647 21.0431 32.4131 20.8715 31.9759 20.9295C31.5936 20.8715 31.0168 21.057 30.9023 20.6281C30.8588 20.2849 31.2846 20.3127 31.2411 19.9835V16.2805C31.1701 16.5379 31.1999 16.8949 30.9298 17.0248C30.7604 17.0387 30.591 16.9807 30.4788 16.8393C30.3804 16.7257 30.4216 16.4103 30.282 16.3964C29.7601 16.4822 29.5197 17.041 29.3778 17.4538C29.2359 18.2839 29.3206 19.2693 29.3206 20.1713C29.3778 20.4148 29.8013 20.3707 29.6182 20.686C29.5335 20.8159 29.3366 20.9017 29.3366 20.9017C29.3366 20.9017 28.9841 20.9156 28.4187 20.9156C27.8121 20.9156 27.5146 20.9017 27.5146 20.9017C27.4299 20.8739 27.3177 20.7579 27.3177 20.6582C27.2193 20.5145 27.3589 20.3869 27.4299 20.3429C27.5146 20.3429 27.6427 20.1852 27.6565 20.0994V16.3964C27.6427 16.0672 27.1208 16.153 27.233 15.8237C27.7 15.4226 28.3203 15.4226 28.8147 15.0933C28.9429 15.1211 29.0825 15.0794 29.197 15.1652C29.3526 15.4086 29.2245 15.7796 29.3252 16.0509H29.3824C29.68 15.6637 30.0462 15.0933 30.6253 15.1211C30.7673 15.135 31.1472 15.1211 31.2457 15.3646C31.2457 14.5925 31.3441 13.5769 30.8634 13.1757C30.8634 12.6169 32.0079 12.6888 32.3604 12.2598C32.5161 12.2019 32.8411 12.2019 32.8548 12.4592L32.8503 12.4616Z" fill="#231F20"/>
<path fill-rule="evenodd" clip-rule="evenodd" d="M43.7208 20.9142C43.5652 20.986 43.3958 21.0139 43.2402 20.9281C42.5191 20.8701 42.1254 20.2696 41.9125 19.6551C41.8553 19.2679 41.8141 18.883 41.8004 18.4818V18.1247C41.8278 17.137 42.0682 16.1793 42.6061 15.4373C42.8464 15.1661 43.1577 15.0501 43.4965 14.9945C43.5675 15.0223 43.6522 15.0385 43.7231 15.0803C43.8651 15.1382 44.0047 15.224 44.1191 15.2959L44.2038 15.1962L44.2176 13.4803C44.0619 13.2809 43.611 13.1951 43.8216 12.8357C43.9635 12.7221 44.0894 12.8079 44.3023 12.7059C44.7257 12.5204 45.1629 12.3187 45.5864 12.1193C45.7283 12.0752 45.797 12.1633 45.8405 12.2329L45.884 13.2902L45.8977 19.7548C45.9824 19.8986 46.1793 19.7989 46.2227 19.9542C46.28 20.2835 46.0671 20.3832 45.8267 20.4829C45.3461 20.6684 44.9088 20.8979 44.3595 20.9118C44.1191 20.8539 44.4304 20.6266 44.2038 20.5107C44.0756 20.6684 43.9063 20.826 43.7231 20.9118L43.7208 20.9142ZM43.7208 15.9521C43.6499 15.908 43.5789 15.9799 43.524 16.0518C43.1417 17.0813 42.9586 18.5978 43.6362 19.5554C43.6636 19.5832 43.6934 19.5994 43.7208 19.5994C43.8055 19.6273 43.9177 19.5716 43.9749 19.4557C44.3 18.6835 44.3 17.7537 44.1443 16.8958C44.0596 16.5805 44.0161 16.2373 43.7346 15.9938C43.7346 15.9799 43.7208 15.966 43.7208 15.9498V15.9521Z" fill="#231F20"/>
<path fill-rule="evenodd" clip-rule="evenodd" d="M11.4503 12.2763L11.931 14.4072C11.9585 14.6506 11.8463 14.8083 11.6495 14.8941C11.4526 14.9799 11.2672 14.85 11.1276 14.7503C10.8025 14.2495 10.7453 13.6211 10.2234 13.2339C10.0815 13.22 9.94185 13.2339 9.92583 13.3777L9.93956 20.0857C10.0243 20.2851 10.2074 20.4729 10.4065 20.4868C10.5622 20.4729 10.7453 20.2434 10.7453 20.1437V16.4407C10.7018 16.2413 10.125 16.1694 10.2783 15.9259C10.8437 15.6686 11.4068 15.4831 11.9447 15.1955C12.0867 15.1816 12.327 15.1955 12.3682 15.3671L12.3819 20.1437C12.3682 20.415 12.707 20.3732 12.7642 20.6167C12.8489 20.4173 13.0893 20.3732 13.103 20.1437V16.5265C13.103 16.2111 12.5239 16.1694 12.707 15.9259C13.2014 15.6825 13.7233 15.4691 14.2315 15.2257C14.3871 15.1399 14.6687 15.1399 14.7259 15.3393C14.7259 15.5109 14.7122 15.6106 14.7831 15.7265C15.0097 15.854 15.0097 15.5271 15.1654 15.4413C15.463 15.126 16.0261 15.126 16.4083 15.2697C16.7334 15.2976 16.7471 15.7706 17.0447 15.7265C17.1866 15.541 17.2713 15.3254 17.5116 15.2396C17.8939 15.1955 18.2876 15.1816 18.5989 15.4251C19.2765 16.0975 19.2765 17.083 19.3749 18.0128C19.4596 18.8127 19.5168 19.557 19.6153 20.3732C19.6588 20.4868 19.7137 20.4312 19.8121 20.4868V13.7371C19.8121 13.2942 19.3886 13.2942 19.4596 12.9927C19.8556 12.5058 20.5744 12.5638 21.0551 12.1766C21.2107 12.1766 21.3801 12.2345 21.4511 12.376V15.3207C21.6204 15.5062 21.6914 15.221 21.8883 15.1631C21.9157 15.1492 21.9455 15.1352 21.973 15.1352C22.3964 15.0216 22.8062 15.2489 23.074 15.5364C23.6394 16.1508 23.7378 16.923 23.85 17.6951H23.8774C24.0193 16.7375 24.1887 15.5781 25.1913 15.221C25.3035 15.177 25.4179 15.1492 25.5438 15.1352C25.9101 15.0773 26.2786 15.1213 26.5739 15.3347C27.1667 15.8633 27.5627 16.7653 27.3796 17.5653C26.7295 17.8806 26.1092 18.138 25.5438 18.3954C25.4866 18.4232 25.4317 18.4533 25.3744 18.4812C25.4156 18.6667 25.4591 18.8684 25.5438 19.04C25.6148 19.2116 25.7269 19.3553 25.8963 19.455C26.1069 19.5825 26.448 19.7124 26.6586 19.4991C26.757 19.2997 26.6998 18.9565 26.9562 18.9264C27.1393 18.9264 27.3659 18.9542 27.4369 19.1559C27.6772 19.5988 27.5215 20.0996 27.24 20.4868C26.8303 20.9599 26.139 21.0294 25.5461 20.9297C25.4614 20.9158 25.3905 20.9019 25.3195 20.8718C24.3169 20.5564 24.0766 19.455 23.8934 18.5693C23.85 19.513 23.6966 20.6144 22.7352 20.9297C22.4949 21.0016 22.227 21.0155 21.973 20.9877C21.6204 20.946 21.3091 20.8161 21.1535 20.6167C21.0688 20.4868 21.0963 20.3153 20.8994 20.3153C20.5744 20.3153 20.6179 20.9019 20.2081 20.9297C20.0387 21.0155 19.8968 20.83 19.8259 20.7303C19.7984 20.83 19.7549 20.8578 19.5855 20.9019C19.613 20.9019 17.9763 20.9158 17.8344 20.8741C17.665 20.8602 17.665 20.7744 17.6375 20.7164C17.5254 20.415 17.9054 20.5587 17.9351 20.3153C17.9923 19.1281 17.8916 17.985 17.752 16.8696C17.6948 16.6262 17.6101 16.4129 17.4132 16.3108C17.2301 16.239 17.0744 16.4546 17.047 16.5821L17.0332 20.1437C17.0195 20.4868 17.5551 20.415 17.3148 20.772C16.8501 21.0155 16.0719 20.8718 15.4927 20.8718C15.408 20.8578 15.3508 20.8578 15.2959 20.8277C15.1974 20.8138 15.154 20.5564 15.2249 20.5124C15.4515 20.4845 15.55 20.2689 15.5912 20.0695C15.6049 18.9681 15.6049 16.5798 15.5477 16.3943C15.4904 16.2505 15.3073 16.1949 15.1654 16.2366C14.9685 16.2946 14.8678 16.3363 14.8129 16.6378L14.8266 20.1692C14.7419 20.4405 15.2936 20.4126 15.0944 20.728L14.9251 20.8555C14.3047 20.9274 13.6272 20.9135 13.0046 20.8694C12.8924 20.8115 12.7505 20.7257 12.7505 20.5541C12.707 20.6839 12.6795 20.7697 12.5536 20.8254C11.8486 20.8694 11.3107 20.9251 10.5622 20.8532C10.521 20.8091 10.45 20.7952 10.4065 20.7257C10.0815 20.997 9.58705 20.8694 9.16358 20.8973C8.59819 20.8973 8.18846 20.997 7.71005 20.7976C7.61162 20.7257 7.61162 20.6121 7.62536 20.5124C7.85197 20.4405 7.9504 20.3269 8.02136 20.0973V13.4634C8.00763 13.278 7.87944 13.2919 7.85197 13.2339C7.62536 13.22 7.4697 13.3916 7.37128 13.5771C6.98901 14.0199 7.10346 15.0796 6.24279 14.9219C6.14436 14.8361 6.04593 14.7782 6.00244 14.6506C6.08714 13.7788 6.27026 13.0484 6.43964 12.2624C6.5106 12.2044 6.56783 12.0769 6.70746 12.1047C6.81962 12.0769 6.94781 12.1626 7.00503 12.2624C8.16328 12.3041 9.55958 12.3041 10.83 12.2624C10.9422 12.0189 11.4091 11.9192 11.4503 12.2763ZM25.5393 15.8656C25.3561 15.7798 25.1433 15.9653 25.1158 16.0952C25.0036 16.6239 24.9739 17.3102 25.2279 17.7971C25.3264 17.7693 25.4248 17.7253 25.5393 17.6835C25.6377 17.6418 25.7498 17.5838 25.8506 17.5119C26.0909 17.2267 26.1046 16.8975 25.894 16.4384L25.5553 15.8656H25.5415H25.5393ZM21.9661 15.9514H21.9524C21.8104 15.9514 21.5701 16.6517 21.4854 17.0389C21.4007 17.9108 21.3435 18.9124 21.8516 19.6127C21.8951 19.6567 21.9226 19.6707 21.9638 19.6405C22.0348 19.6127 22.092 19.5107 22.1469 19.455C22.6276 18.5971 22.5429 17.454 22.2888 16.5242C22.2316 16.2946 22.2041 15.9653 21.9638 15.9514H21.9661Z" fill="#231F20"/>
<path fill-rule="evenodd" clip-rule="evenodd" d="M34.9264 15.9802C34.9127 15.9524 34.8852 15.9223 34.8554 15.9083C34.6586 15.9083 34.4182 15.8225 34.1916 15.9083C34.036 16.1518 34.4182 16.0938 34.4732 16.3095C34.5167 16.5251 34.4594 16.7663 34.361 16.9239C34.1344 17.1674 33.7544 17.1094 33.4568 17.0677C33.3012 16.968 33.2165 16.7964 33.1181 16.6387C33.0746 16.3095 33.0746 15.9663 33.2737 15.7228C33.6835 15.2498 34.3175 15.1803 34.9264 15.1942C35.137 15.1942 35.3499 15.222 35.533 15.2382C35.9427 15.2382 36.3387 15.5814 36.4784 15.9524C36.8171 17.1674 36.8309 18.4682 36.9018 19.7574C37.0003 20.2003 37.2406 19.6855 37.339 20.1006L37.3963 20.4878C37.6229 20.4878 37.6641 20.2884 37.7213 20.1446L37.6938 16.4416C37.6664 16.1564 37.1422 16.1564 37.3276 15.8272C37.7373 15.5118 38.3027 15.4121 38.7674 15.1269C38.9368 15.0829 39.1336 15.1269 39.1771 15.2846C39.2481 15.3426 39.1359 15.5142 39.2618 15.542C39.4587 15.2985 39.6143 15.0991 39.9256 15.0551C40.5047 15.0411 40.9007 15.426 41.1251 15.8991C41.5485 16.801 41.6195 17.9001 41.7042 18.9598C41.7454 19.4166 41.6058 20.2049 42.0567 20.4901C42.1277 20.562 42.1002 20.7197 42.043 20.8055L41.8598 20.8774C41.2807 20.9191 40.6467 21.0049 39.9828 20.8194C39.8982 20.7614 39.8844 20.6339 39.9256 20.5342C40.4475 20.2907 40.2072 19.4189 40.2369 18.9621C40.0813 18.0903 39.9828 17.1744 39.5868 16.3883C39.5434 16.3164 39.4587 16.2886 39.3465 16.3025L39.2046 16.4463L39.2481 20.0936C39.2618 20.2791 39.3053 20.4809 39.5159 20.4948C39.6006 20.6246 39.5434 20.7382 39.5022 20.824C38.8956 21.0095 38.2043 20.9678 37.6252 20.9237C37.4832 20.882 37.3848 20.8101 37.3436 20.6942C37.1605 20.8658 37.0048 20.9237 36.7233 20.9376C36.2563 20.9655 36.0022 20.722 35.7207 20.4948C35.5376 20.6385 35.2972 20.78 35.1004 20.882C35.0431 20.9098 34.9882 20.94 34.931 20.9539C34.5212 21.0675 34.0566 20.94 33.7018 20.7684C33.1226 20.4391 33.038 19.8107 33.0242 19.2241C32.983 18.3384 33.759 17.7216 34.464 17.3784C34.5922 17.3344 34.7753 17.3065 34.931 17.2486C35.0592 17.1906 35.1416 17.1187 35.1851 17.019C35.1988 16.6898 35.1988 16.2608 34.931 15.9895L34.9264 15.9802ZM34.9264 19.9986C35.082 20.0264 35.224 19.9846 35.2926 19.8849C35.3773 19.2264 35.3636 18.4984 35.2354 17.8978L35.1782 17.812C35.0798 17.8398 34.9951 17.87 34.9241 17.9256C34.7959 18.0114 34.7135 18.1413 34.6128 18.2966C34.4709 18.8114 34.4159 19.8409 34.8531 19.9846C34.8806 19.9846 34.9104 19.9986 34.9241 19.9986H34.9264Z" fill="#231F20"/>
<path fill-rule="evenodd" clip-rule="evenodd" d="M42.5351 12.6603H42.3657V13.2748H42.4366V13.0035H42.5351L42.7045 13.2748H42.8029L42.6198 13.0035C42.7182 12.9896 42.7754 12.9455 42.7754 12.8458C42.7754 12.7183 42.7182 12.6603 42.5625 12.6603H42.5351ZM42.5351 12.4609C42.8166 12.4609 43.0432 12.6603 43.0432 12.9757C43.0432 13.291 42.8166 13.4765 42.5351 13.4765C42.2535 13.4765 42.0406 13.2771 42.0406 12.9757C42.0406 12.6743 42.2673 12.4609 42.5351 12.4609ZM42.5351 13.3907C42.7754 13.3907 42.9448 13.2331 42.9448 12.9757C42.9448 12.7183 42.7754 12.5467 42.5351 12.5467C42.2947 12.5467 42.1391 12.7183 42.1391 12.9757C42.1391 13.2331 42.2947 13.3907 42.5351 13.3907ZM42.5351 12.9316H42.4366V12.7461H42.5648C42.6221 12.7461 42.7068 12.7902 42.7068 12.8458C42.7068 12.9316 42.6221 12.9316 42.5374 12.9316H42.5351Z" fill="#231F20"/>
<path fill-rule="evenodd" clip-rule="evenodd" d="M69.2 20.0683L70.5001 20.1819C69.1084 21.2277 66.6866 21.2509 65.1598 20.3628C64.7341 20.0892 64.2854 19.7715 63.926 19.4075C65.7664 19.4539 67.426 19.8851 69.1977 20.066L69.2 20.0683ZM63.2096 18.4081C62.3352 17.0447 62.0651 15.0228 62.738 13.5226L63.2096 13.4994L63.4339 13.4762H63.8826V13.3394C63.8368 13.1585 63.6124 12.9522 63.4339 12.7713C63.276 12.5673 63.1867 12.3841 63.4339 12.18C63.4568 12.1569 63.4797 12.1569 63.5232 12.1337C63.926 12.4513 64.2854 12.9522 64.6219 13.3162C64.7341 13.3162 64.8462 13.3394 64.9126 13.3162C64.9584 13.3162 64.979 13.3162 65.0248 13.293L64.9126 13.1794L63.7681 11.8392C63.8803 11.612 64.1275 11.4983 64.306 11.3175L64.9126 11.4543L65.3384 11.5447C65.3842 11.2502 65.3613 10.9766 65.3613 10.6358C65.5856 10.499 65.787 10.4549 66.0113 10.3622C66.0342 10.339 66.0571 10.339 66.0777 10.3158L66.6614 11.5424L67.4237 10.1117H67.5358C67.8265 10.6126 68.0509 11.1575 68.3439 11.656L68.5682 11.6328C68.4331 11.132 68.2088 10.6335 67.9616 10.1326C68.4102 9.97262 68.5682 10.2694 68.7009 10.5871C68.7902 10.7911 68.8795 11.0416 68.9917 11.1784C69.0145 11.1784 69.0145 11.2015 69.0145 11.2015C69.0809 11.2015 69.1496 11.1784 69.216 11.1552C69.4861 11.0416 69.7539 10.8607 70.024 10.7239C70.0698 10.7007 70.0904 10.7007 70.1133 10.6775C70.2254 10.6775 70.2712 10.8143 70.3605 10.8584L70.024 11.1529L69.351 11.7209C69.351 12.0154 69.509 12.3122 69.6417 12.6067L70.024 12.0618L70.7634 11.0856C70.8755 11.1088 70.9419 11.2665 71.0335 11.3128C70.8755 11.5865 70.697 11.7905 70.539 12.085L70.6283 12.1522C71.1227 12.289 71.9971 11.8114 72.1757 12.6067L71.0312 12.6971L70.5367 13.5597C71.2555 13.6501 71.7705 13.1725 72.3542 12.9684L72.6243 13.4229C71.885 13.7405 71.1204 14.0373 70.2918 14.1718C70.1797 14.3318 70.1339 14.4895 70.0217 14.6495C70.0217 14.6959 69.9988 14.7167 69.9759 14.7399H70.0217C70.9419 14.5127 71.8621 14.2623 72.78 14.035C73.2057 15.4216 72.9585 17.0795 72.265 18.262L71.9514 18.422C71.3242 18.5588 70.6718 18.6029 70.0217 18.6029C69.7516 18.6261 69.4838 18.6029 69.2137 18.6029H68.9894C68.9001 18.6029 68.8108 18.5797 68.6987 18.5797C68.2958 18.5565 67.8677 18.5333 67.4649 18.5125C67.1948 18.4893 66.927 18.4661 66.6568 18.4661C66.4325 18.4429 66.2311 18.4429 66.0068 18.4197C65.6474 18.4197 65.288 18.4197 64.908 18.4429C64.4136 18.4661 63.9444 18.5101 63.427 18.6029C63.4041 18.6029 63.3813 18.6029 63.3378 18.6261C63.292 18.5588 63.2485 18.4661 63.2027 18.3988L63.2096 18.4081ZM70.0309 12.9313L69.628 13.5898C69.7173 13.5898 69.8981 13.613 69.9645 13.613L70.0309 13.4762L70.4566 12.7273C70.2987 12.7504 70.1865 12.7736 70.143 12.7736L70.0309 12.9336V12.9313ZM70.0309 15.41C70.0309 15.3868 69.9851 15.3428 69.9645 15.2964C69.7173 15.3636 69.4701 15.4332 69.2251 15.5236C69.1587 15.5468 69.0901 15.57 69.0008 15.5909C68.9115 15.6141 68.8223 15.6373 68.7101 15.6813C68.5522 15.7277 68.3736 15.7717 68.2157 15.8181C68.2386 16.4998 68.2615 17.2488 68.3942 17.84C68.5064 17.8632 68.6185 17.8632 68.7078 17.8864C68.82 17.9096 68.9092 17.9096 68.9985 17.9328C69.0878 17.9328 69.1565 17.956 69.2228 17.956C69.493 18.0023 69.7608 18.0232 70.0309 18.0464C70.5917 18.0928 71.1754 18.1136 71.7362 18.1136C72.3199 17.2047 72.6793 16.0917 72.4321 14.9324C72.4092 14.8651 72.3657 14.7724 72.3657 14.7724C72.2535 14.8187 72.075 14.8396 71.8712 14.886L72.2741 15.6581L71.6469 15.6349C71.5576 15.5445 71.5348 15.4309 71.4684 15.3173C71.4455 15.2709 71.3333 15.0228 71.3562 15.0228C71.1548 15.09 70.7725 15.1364 70.5253 15.2037C70.5917 15.3636 70.6375 15.4541 70.6832 15.6349H70.1682C70.1224 15.5445 70.0789 15.4749 70.0332 15.4077L70.0309 15.41ZM69.2228 14.3643L68.9985 14.7051L68.8406 14.9787C68.8864 14.9787 68.9527 14.9787 68.9985 14.9556C69.0878 14.9556 69.1565 14.9324 69.2228 14.9092L69.2457 14.886L69.6051 14.2715C69.4929 14.2715 69.3808 14.2483 69.2686 14.2715L69.2228 14.362V14.3643ZM68.9985 12.8873C68.9092 12.9545 68.7971 13.0009 68.7078 13.0681C68.5728 13.1585 68.4606 13.249 68.3255 13.3626L68.3713 14.3851C68.4606 14.2483 68.5957 14.1115 68.7078 13.9771C68.82 13.8634 68.9321 13.7498 68.9985 13.613C69.1565 13.3858 69.2457 13.1354 69.1107 12.8177C69.0649 12.8409 69.0443 12.8641 68.9985 12.8849V12.8873ZM68.7055 12.2264C68.6826 12.2496 68.6597 12.2728 68.6391 12.2937L68.6849 12.3609L68.7078 12.3377C68.7536 12.2913 68.7971 12.2473 68.7971 12.2009C68.7742 12.2009 68.7307 12.2009 68.7078 12.2241L68.7055 12.2264ZM67.4717 11.2734L67.046 12.2496C67.0689 12.6368 67.181 13.0217 67.3367 13.2953C67.3825 13.2953 67.426 13.2722 67.4717 13.249C67.8746 13.0449 67.7853 12.4305 67.8975 12.0456L67.5381 11.1366L67.4717 11.2734ZM67.4717 13.8402C67.4488 13.9075 67.4488 14.0211 67.4717 14.0907C67.4946 14.2043 67.561 14.2947 67.6732 14.3179L67.6961 13.6826C67.5839 13.6594 67.4946 13.7289 67.4717 13.8426V13.8402ZM66.666 13.3858L66.8903 14.2275L66.666 13.9771L66.4417 13.7266L66.6431 13.249L66.666 13.3858ZM66.666 15.4773C66.5538 15.5004 66.4417 15.5236 66.3066 15.5445H65.2514L66.0136 15.1132L66.5744 14.7956L66.2608 14.5011C66.1716 14.5475 66.0823 14.5915 66.0136 14.6611C65.6543 14.9555 65.3178 15.366 64.9149 15.5236C64.9149 15.5236 64.892 15.5236 64.8691 15.5468H64.2419C64.377 15.41 64.512 15.2292 64.5555 15.0924C64.3541 14.9787 64.1527 14.9115 63.9054 14.8651C63.7704 15.0251 63.5918 15.3196 63.4339 15.4796C63.411 15.5028 63.3881 15.526 63.3675 15.5468H63.0768C63.0768 16.0013 63.0768 16.5021 63.2119 16.9334C63.2577 17.0702 63.3011 17.1838 63.3469 17.2975H63.4362C63.9306 17.3206 64.4228 17.3438 64.9172 17.3879C65.2766 17.4343 65.6565 17.4551 66.0159 17.5015C66.2402 17.5247 66.4646 17.5687 66.666 17.5919C66.8674 17.6151 67.0689 17.6383 67.2726 17.6592V15.7045L67.0483 15.3173C66.9361 15.3845 66.8011 15.4309 66.666 15.4773ZM66.0136 11.4775L65.8786 11.183C65.9244 11.3639 65.7664 11.7975 66.0136 11.8183C66.0365 11.8183 66.08 11.8183 66.1487 11.7951L66.0136 11.4775ZM66.0136 12.3864C65.9907 12.3864 65.9679 12.3864 65.9244 12.3632V13.2953L66.0136 13.1354L66.3272 12.5C66.238 12.4096 66.1258 12.4096 66.0136 12.3864ZM64.9149 13.8194C64.8485 13.8194 64.7799 13.8194 64.7364 13.7962L64.2877 14.3643L64.9149 14.6379L65.0271 14.6843L65.8122 14.1162C65.7229 13.6849 65.2743 13.8426 64.9149 13.8217V13.8194ZM64.9149 12.3192L65.2972 12.7064C65.3201 12.5023 65.3201 12.2983 65.3429 12.0919C65.2079 12.0456 65.0728 12.0015 64.9172 11.9783C64.7821 11.9319 64.6471 11.8879 64.5143 11.8647L64.9172 12.3192H64.9149ZM63.4339 13.8866H63.2096C63.1432 13.8866 63.0745 13.9098 63.031 13.9098L63.2096 14.0002L63.4339 14.1139L63.4797 14.137C63.704 14.3179 63.7269 14.0234 63.862 13.8866C63.7269 13.9098 63.5918 13.8866 63.4362 13.8866H63.4339ZM63.2096 14.5451L63.1203 14.4988L63.0745 15.09C63.1203 15.0228 63.1638 14.9532 63.2096 14.9092C63.276 14.8187 63.3217 14.7283 63.3446 14.6147L63.2096 14.5475V14.5451ZM72.0498 18.6585C71.6904 19.2034 71.331 19.5907 70.816 19.9315C68.3942 19.8643 66.1281 19.2498 63.7269 19.1594L63.5484 18.909C66.3295 18.2736 69.2457 19.273 72.0498 18.6585Z" fill="#F36C21"/>
<path fill-rule="evenodd" clip-rule="evenodd" d="M73.4186 11.2739H73.1943V11.9556H73.2835V11.6379H73.4186L73.5765 11.9556H73.7116L73.5102 11.6379C73.5994 11.6379 73.6887 11.5915 73.6887 11.4779C73.6887 11.3179 73.5994 11.2739 73.4415 11.2739H73.4186ZM73.4186 11.0234C73.7322 11.0234 74.0023 11.2739 74.0023 11.6147C74.0023 11.9556 73.7322 12.206 73.4186 12.206C73.0821 12.206 72.812 11.9556 72.812 11.6147C72.812 11.2739 73.0821 11.0234 73.4186 11.0234ZM73.4186 12.0924C73.6887 12.0924 73.8901 11.8883 73.8901 11.6147C73.8901 11.3202 73.6887 11.1139 73.4186 11.1139C73.1485 11.1139 72.9471 11.3179 72.9471 11.6147C72.9471 11.8883 73.1485 12.0924 73.4186 12.0924ZM73.4186 11.5683H73.2835V11.3411H73.4415C73.5079 11.3411 73.5765 11.3643 73.5765 11.4547C73.5765 11.5683 73.4873 11.5683 73.4186 11.5683Z" fill="#F36C21"/>
<path fill-rule="evenodd" clip-rule="evenodd" d="M47.619 10.1816H52.9135C54.9782 10.1816 56.6607 11.8859 56.6607 14.0006C56.6607 16.1152 54.9782 17.8195 52.9135 17.8195H51.6797V15.1831H52.1055C52.577 15.1831 52.9799 14.7959 52.9799 14.2974V14.1837C52.9799 13.6829 52.577 13.2748 52.1055 13.2748H51.2311V17.4346H51.254V21.0031H47.619V10.1816Z" fill="#F36C21"/>
<path fill-rule="evenodd" clip-rule="evenodd" d="M54.6624 10H58.7231C60.5177 10 61.9987 11.5002 61.9987 13.3413V13.9998C61.9987 15.1591 61.2364 16.1585 60.2041 16.5226L64.3999 20.9536H60.2933L56.2097 16.6594H55.9625L56.0083 16.5921L56.1205 16.4321L56.2326 16.2721L56.3448 16.1121L56.4341 15.9313L56.5233 15.7713L56.6126 15.5904L56.679 15.4096L56.7454 15.2055L56.7911 15.0247L56.814 14.911H57.4641C57.9585 14.911 58.3843 14.4798 58.3843 13.9557V13.8885C58.3843 13.3436 57.9585 12.9123 57.4641 12.9123H56.7911L56.7454 12.7755L56.679 12.5946L56.6126 12.4138L56.5233 12.2329L56.4341 12.0521L56.3448 11.8921L56.2326 11.7112L56.1205 11.5512L56.0083 11.4144L55.8732 11.2544L55.7382 11.1176L55.6031 10.9808L55.4681 10.844L55.3101 10.7304L55.1522 10.6168L54.9943 10.5032L54.8157 10.4127L54.6578 10.3223V10H54.6624Z" fill="#F36C21"/>
</g>
<defs>
<clipPath id="clip0_454_2812">
<rect width="68" height="11" fill="white" transform="translate(6 10)"/>
</clipPath>
</defs>
</svg>
