<svg width="80" height="30" viewBox="0 0 80 30" fill="none" xmlns="http://www.w3.org/2000/svg">
<path fill-rule="evenodd" clip-rule="evenodd" d="M31.4434 10.5059V10.507C31.4577 10.5074 31.4721 10.5078 31.4864 10.5078C32.8919 10.5065 32.8958 10.5076 32.945 10.537C33.0102 10.576 33.3285 12.0965 33.6388 13.4016C33.9202 14.5851 33.9432 14.7328 33.9614 14.8501C33.9635 14.8636 34.0443 15.3831 34.095 14.9556C34.1181 14.7603 34.1434 14.5464 34.5824 12.5456C34.9991 10.6462 34.9392 10.5684 35.0966 10.5435C35.1353 10.5373 35.9925 10.5395 36.0492 10.5423C36.4878 10.5646 36.4873 10.5491 37.4531 10.5526C37.701 10.5536 37.6495 10.6533 37.6972 10.8952C37.9336 12.0949 37.9455 12.0909 37.9654 12.1952C38.2627 13.758 38.4353 14.3832 38.4992 14.958C38.5084 15.0409 38.5269 15.0353 38.5582 15.0358C38.5702 15.0359 38.5832 15.0452 38.594 15.0399C38.6295 15.0224 38.6384 14.7544 38.7258 14.4081C38.8049 14.0951 39.509 10.9943 39.5765 10.6973C39.6172 10.5177 39.6848 10.5524 40.2109 10.5525C41.8872 10.5529 41.8959 10.5465 41.9299 10.5809C41.9727 10.6243 41.9262 10.7444 41.9099 10.7918C41.8499 10.967 39.882 18.0072 39.8319 18.1708C39.575 19.0096 39.6327 19.0958 39.4583 19.1055C39.0822 19.1264 37.7061 19.108 37.5537 19.1059C37.3633 19.1034 37.4002 18.9986 37.3426 18.7177C37.2966 18.4935 37.083 17.4515 36.7836 15.9113C36.4593 14.2423 36.4413 14.246 36.3926 13.8044C36.3914 13.7935 36.3772 13.6645 36.3003 13.7022C36.2647 13.7197 36.2485 13.9702 36.2322 14.0486C36.0769 14.7936 36.0859 14.7951 36.0717 14.8597C35.9107 15.5933 35.9233 15.5958 35.9083 15.6593C35.724 16.4382 35.6049 17.1047 35.6031 17.1123C35.4368 17.8138 35.2756 18.6886 35.2044 18.9685C35.161 19.1389 35.0061 19.0996 34.8458 19.0996C33.107 19.0997 33.0976 19.1052 33.0457 19.061C32.9976 19.0201 33.0034 19.014 32.8032 18.3109C32.7656 18.179 32.352 16.7264 32.3346 16.6611C32.3173 16.5961 32.1869 16.1069 32.1109 15.851C32.0289 15.5744 31.4873 13.6617 31.357 13.2013L31.0414 12.2476L30.5614 10.5059H31.4434Z" fill="#252022"/>
<path fill-rule="evenodd" clip-rule="evenodd" d="M55.4127 13.959C55.68 13.6764 56.0577 13.1703 56.1644 13.1211C56.1837 13.1123 56.1836 13.104 58.0611 13.1054C58.5796 13.1058 58.6132 13.0858 58.6178 13.1482C58.6229 13.2172 58.5191 13.2882 58.465 13.3522C58.3402 13.4998 56.8679 15.1766 56.8034 15.2518C56.6427 15.4389 56.7263 15.4725 56.9446 15.8647C57.5378 16.9303 57.5406 16.9271 57.5908 17.0203C57.9095 17.6114 58.6587 18.9353 58.6737 18.9606C58.6802 18.9717 58.7619 19.1098 58.6121 19.11C58.5841 19.11 58.5845 19.1061 58.2617 19.1059C56.3783 19.1046 56.3649 19.1162 56.3096 19.062C56.2347 18.9887 55.5474 17.6615 55.4897 17.5701C55.3624 17.3685 55.2636 17.0114 55.1224 17.1796C54.8267 17.5319 54.817 17.5241 54.798 17.5592C54.7105 17.7201 54.8085 18.9599 54.7419 19.059C54.7041 19.1153 54.6861 19.1056 52.9969 19.1055C52.7848 19.1055 52.569 19.1499 52.5667 18.9648C52.5662 18.9269 52.5665 17.305 52.5665 17.1607C52.5679 10.6348 52.559 10.625 52.5927 10.5897C52.6348 10.5456 52.6459 10.552 54.1502 10.5518C54.6609 10.5518 54.7581 10.5161 54.7635 10.692C54.7636 10.695 54.7635 14.1017 54.7635 14.2024C54.7632 14.587 54.7136 14.6383 54.8042 14.6404C54.8371 14.6412 54.8387 14.645 54.8609 14.62C55.0548 14.4011 55.3693 14.0126 55.4127 13.959Z" fill="#252122"/>
<path fill-rule="evenodd" clip-rule="evenodd" d="M41.3543 17.8194C41.3042 17.7294 41.305 17.7296 41.3002 17.7222C40.9175 17.1338 40.6711 15.8862 41.132 14.8135C41.923 12.973 44.0111 12.8591 44.9245 13.0484C47.028 13.4845 47.5285 15.2189 47.4548 16.2611C47.4496 16.3345 47.4129 16.8538 47.2938 17.1668C47.0864 17.7118 46.8292 18.2193 46.1359 18.679C44.851 19.5308 42.4616 19.5166 41.3543 17.8194ZM43.8168 17.2244C45.3748 17.6822 45.7845 15.3094 44.4227 14.9558C43.7712 14.7867 42.9767 15.3345 43.114 16.3103C43.2102 16.9941 43.7306 17.1917 43.8168 17.2244Z" fill="#252022"/>
<path fill-rule="evenodd" clip-rule="evenodd" d="M76.744 15.4593C76.8192 16.0198 76.8127 16.1199 76.7601 16.5087C76.7373 16.677 76.6671 16.6456 76.0613 16.6457C72.8996 16.6461 72.8907 16.6396 72.8615 16.669C72.7902 16.7409 73.0091 17.322 73.6575 17.4452C74.8794 17.6774 75.2799 16.8116 75.4524 16.8783C75.5299 16.9083 76.5196 18.0248 76.527 18.0596C76.5436 18.138 76.4848 18.1689 76.3811 18.282C76.0117 18.6848 75.4013 18.9225 75.3066 18.9594C73.8427 19.5296 72.4854 19.083 72.0044 18.7092C71.8451 18.5854 70.8242 17.9998 70.6874 16.4094C70.4592 13.7578 72.9197 12.4328 74.9118 13.1897C74.9298 13.1965 76.4292 13.658 76.744 15.4593ZM74.368 14.8928C74.2931 14.8315 73.7728 14.4058 73.1581 14.8613C73.0272 14.9582 72.6713 15.4561 72.9524 15.4592C73.1054 15.4608 74.3827 15.4589 74.5071 15.4587C74.5205 15.4587 74.6567 15.4585 74.641 15.3576C74.6092 15.1537 74.3973 14.9245 74.368 14.8928Z" fill="#252022"/>
<path fill-rule="evenodd" clip-rule="evenodd" d="M67.1089 12.798C67.1152 12.5876 67.1114 12.5888 67.1119 12.096C67.1121 11.8754 67.086 11.842 67.2753 11.7262C67.3169 11.7007 67.6475 11.4984 67.7996 11.4143C68.596 10.9739 68.5838 10.9534 68.6536 10.9161C69.1363 10.6579 69.3243 10.4607 69.3216 10.6931C69.3199 10.8435 69.3195 10.842 69.3195 10.9929C69.3195 13.0087 69.3164 13.0113 69.3354 13.0528C69.3638 13.1148 69.3866 13.105 70.2952 13.105C70.5062 13.105 70.6167 13.0547 70.6171 13.2992C70.6193 14.6413 70.6332 14.6418 70.6148 14.7569C70.5941 14.8868 70.5308 14.8616 69.8941 14.8616C69.4325 14.8616 69.3225 14.8233 69.3223 15.0038C69.3221 15.1524 69.3204 16.7336 69.3241 16.86C69.3448 17.5636 70.0096 17.2895 70.0483 17.2815C70.1831 17.2537 70.2191 17.4322 70.2446 17.5114C70.4254 18.0741 70.685 18.6812 70.6612 18.7697C70.6388 18.8529 70.1287 19.0685 69.9436 19.1132C69.0925 19.3184 68.5559 19.1998 68.4382 19.1737C68.3136 19.1462 67.5463 18.9766 67.2512 18.108C67.0644 17.5583 67.1248 17.147 67.1158 15.0545C67.1147 14.7913 66.9973 14.862 66.7353 14.8616C66.5428 14.8613 66.467 14.896 66.4637 14.7041C66.4617 14.5876 66.4483 13.8141 66.4638 13.2482C66.4694 13.0438 66.6645 13.1134 66.9863 13.1045C67.119 13.1009 67.1157 13.0244 67.1089 12.798Z" fill="#252022"/>
<path fill-rule="evenodd" clip-rule="evenodd" d="M50.0258 17.112C50.0259 19.0044 50.0264 19.004 50.0233 19.0146C49.9935 19.1163 49.914 19.107 49.8875 19.1073C49.7237 19.1092 47.9252 19.13 47.8394 19.097C47.768 19.0694 47.7783 19.0405 47.7781 17.5633C47.7777 13.1992 47.7785 13.1962 47.8002 13.1643C47.8358 13.1119 47.8523 13.1196 49.2862 13.1194C49.9417 13.1194 50.023 13.0908 50.0256 13.252C50.0273 13.3528 50.0036 13.5947 50.0798 13.6225C50.226 13.6758 50.3035 13.1245 51.0438 13.0222C51.7355 12.9266 52.5699 13.6496 52.2214 14.596C52.0781 14.9853 51.3167 15.7053 50.4229 15.0275C50.414 15.0208 50.2031 14.7656 50.0549 15.2118C50.0211 15.3136 50.0258 15.3161 50.0258 17.112Z" fill="#252123"/>
<path fill-rule="evenodd" clip-rule="evenodd" d="M59.3143 19.108C59.2986 19.1076 59.1176 19.1029 59.1176 19.1029C59.0296 19.0651 59.0419 19.0349 59.0423 18.0654C59.0431 15.6827 59.0342 15.6846 59.0355 13.3022C59.0356 13.0743 59.1391 13.1201 59.6152 13.1201C61.2027 13.1201 61.2185 13.1131 61.254 13.1637C61.3013 13.2313 61.2298 13.7309 61.4237 13.6075C61.4454 13.5937 61.4326 13.5824 61.6206 13.352C61.845 13.077 62.7702 12.708 63.3651 13.5103C63.9223 14.2617 63.2827 15.4696 62.2257 15.2891C61.7017 15.1996 61.5783 14.7355 61.3871 15.0668C61.2665 15.2758 61.2835 15.2913 61.2835 17.4135C61.2835 19.0176 61.287 19.0224 61.2608 19.0615C61.2224 19.1187 61.2077 19.1083 60.4174 19.1083C60.0497 19.1082 59.682 19.1081 59.3143 19.108Z" fill="#252122"/>
<path fill-rule="evenodd" clip-rule="evenodd" d="M64.2283 19.1081C64.1189 19.1078 63.9455 19.1156 63.9148 19.0905C63.8437 19.0328 63.8612 18.9328 63.8612 18.8674C63.8606 18.4181 63.8544 13.3082 63.8553 13.2506C63.8582 13.0777 63.9828 13.1074 64.128 13.1074C65.9758 13.1078 65.9939 13.0986 66.0301 13.1536C66.0524 13.1875 66.0498 13.1918 66.0498 17.8646C66.0498 19.0252 66.0591 19.0411 65.9962 19.0914C65.9723 19.1106 65.9679 19.1081 64.2283 19.1081Z" fill="#242022"/>
<path fill-rule="evenodd" clip-rule="evenodd" d="M65.4385 10.626C66.4176 11.0498 66.1937 12.5695 64.9804 12.6014C63.7904 12.6326 63.45 11.1573 64.3879 10.6613C64.835 10.4249 65.3587 10.5994 65.4385 10.626Z" fill="#252123"/>
<path fill-rule="evenodd" clip-rule="evenodd" d="M55.5538 23.24C55.4206 23.2275 55.3706 23.2597 55.358 23.1263C55.3516 23.0575 55.3565 21.0972 55.357 20.9207C55.3575 20.7102 55.4422 20.7489 55.6542 20.7488C56.4794 20.7485 56.5315 20.7275 56.8015 20.8797C56.9959 20.9892 57.0991 21.2157 57.1219 21.4202C57.1949 22.0727 56.7331 22.2452 56.7001 22.2644C56.5638 22.3437 56.72 22.4686 56.979 22.8617C57.0512 22.9712 57.2284 23.1664 57.1603 23.2302C57.1483 23.2415 56.9741 23.2401 56.9578 23.24C56.7801 23.2385 56.7496 23.2808 56.6452 23.1353C56.1505 22.4457 56.1981 22.3422 55.9553 22.3426C55.7537 22.3428 55.8038 22.4702 55.8007 23.0766C55.7998 23.2576 55.7342 23.2375 55.5538 23.24ZM56.4495 21.1873C56.28 21.1366 56.2803 21.1294 55.9553 21.1322C55.7706 21.1338 55.8007 21.2548 55.8007 21.3719C55.8006 21.8335 55.761 21.9595 55.9554 21.9605C56.0332 21.961 56.6958 22.021 56.6742 21.5214C56.6628 21.2592 56.4583 21.1922 56.4495 21.1873Z" fill="#292627"/>
<path fill-rule="evenodd" clip-rule="evenodd" d="M46.5786 23.2418C46.5437 23.2407 46.4159 23.2563 46.359 23.2026C46.288 23.1356 46.2215 23.0033 46.1688 22.9344C45.8612 22.5322 45.8588 22.321 45.5772 22.3445C45.3974 22.3596 45.4827 22.4542 45.4586 23.1271C45.4538 23.2614 45.3023 23.2493 45.123 23.2405C44.9936 23.2342 45.0142 23.1703 45.0143 22.2762C45.0146 20.8186 45.0054 20.7934 45.0708 20.7655C45.1554 20.7293 45.9514 20.7496 46.0279 20.7515C46.5683 20.7653 46.8355 21.1947 46.7763 21.6741C46.704 22.2604 46.2656 22.1981 46.3108 22.3818C46.3154 22.4007 46.4257 22.5566 46.4362 22.5714C46.7621 23.032 46.7527 23.0373 46.7829 23.0759C46.7906 23.0858 46.8668 23.1836 46.8275 23.2265C46.8135 23.2418 46.5986 23.2418 46.5786 23.2418ZM46.1186 21.1924C45.9986 21.1552 46.0018 21.1424 45.8761 21.1357C45.4896 21.1148 45.4627 21.1584 45.4595 21.2725C45.4431 21.8659 45.4522 21.878 45.4831 21.9196C45.5329 21.9864 45.9338 21.9881 46.133 21.8861C46.3795 21.7599 46.3492 21.469 46.306 21.383C46.233 21.2374 46.184 21.2301 46.1186 21.1924Z" fill="#292627"/>
<path fill-rule="evenodd" clip-rule="evenodd" d="M65.5819 23.2441C64.2741 23.2437 64.2677 23.2491 64.2336 23.2207C64.1928 23.1867 64.1962 23.175 64.1969 21.5738C64.1973 20.8352 64.1675 20.7603 64.3267 20.7504C64.3353 20.7499 65.6241 20.7497 65.6342 20.7505C65.836 20.7657 65.7588 21.0809 65.7236 21.1115C65.644 21.1807 64.7399 21.0991 64.6709 21.1608C64.5881 21.2349 64.631 21.7335 64.6485 21.7611C64.7048 21.85 65.2928 21.7906 65.4339 21.809C65.6132 21.8324 65.5315 22.1392 65.5137 22.1605C65.4433 22.2448 64.7899 22.1587 64.675 22.2188C64.5892 22.2636 64.6341 22.7566 64.6406 22.7719C64.6791 22.8625 64.7156 22.8193 65.6819 22.8332C65.8705 22.8359 65.8339 23.0145 65.8294 23.1279C65.8235 23.2783 65.6553 23.2431 65.5819 23.2441Z" fill="#2A2728"/>
<path fill-rule="evenodd" clip-rule="evenodd" d="M53.8993 23.2414C53.2477 23.2412 53.1735 23.2429 53.1454 23.2338C53.0667 23.2083 53.0804 23.068 53.0804 23.0281C53.0808 20.8311 53.0742 20.8219 53.1103 20.7836C53.1459 20.7458 53.1554 20.7501 54.451 20.7502C54.6421 20.7502 54.6459 20.8008 54.6452 20.9722C54.6444 21.179 54.5046 21.1336 54.2503 21.1336C53.595 21.1335 53.5119 21.1023 53.5091 21.2735C53.5017 21.7325 53.5003 21.8035 53.6492 21.8052C54.2296 21.8116 54.4146 21.758 54.4285 21.9261C54.4527 22.2206 54.3313 22.1963 54.2507 22.1966C53.6455 22.1994 53.5164 22.158 53.5093 22.3268C53.4903 22.7743 53.523 22.7939 53.5566 22.814C53.6285 22.857 54.5594 22.8145 54.6472 22.8406C54.7545 22.8725 54.7242 23.137 54.7083 23.1819C54.6829 23.2542 54.656 23.2413 53.8993 23.2414Z" fill="#282526"/>
<path fill-rule="evenodd" clip-rule="evenodd" d="M48.8348 23.2415C47.6799 23.2415 47.6803 23.2446 47.58 23.2407C47.4572 23.2359 47.4683 23.1385 47.4683 23.0281C47.4686 20.8321 47.463 20.8242 47.4964 20.7856C47.532 20.7445 47.5431 20.7504 48.835 20.7502C49.0471 20.7502 49.0579 20.8112 49.0329 21.0221C49.0166 21.1598 48.9525 21.1325 48.0828 21.1337C47.8712 21.134 47.8942 21.2091 47.8943 21.3734C47.8946 21.6678 47.8417 21.8052 48.0828 21.8054C48.7134 21.8057 48.7916 21.7762 48.8048 21.9229C48.8321 22.2265 48.711 22.1964 48.6344 22.1967C48.0265 22.1983 47.9021 22.1609 47.8945 22.3269C47.874 22.77 47.9087 22.7916 47.9418 22.8122C48.0085 22.8539 48.8516 22.8231 48.9848 22.833C49.1755 22.8472 49.0898 23.1969 49.0738 23.2136C49.0319 23.2574 49.0221 23.2356 48.8348 23.2415Z" fill="#272426"/>
<path fill-rule="evenodd" clip-rule="evenodd" d="M62.6238 23.2496C62.3035 23.2389 62.3019 23.2347 62.0113 23.1022C61.4006 22.8237 61.3678 22.1148 61.3726 21.9749C61.4185 20.6162 62.8832 20.4326 63.5069 21.0905C63.5763 21.1637 63.6187 21.2104 63.4201 21.3655C63.1803 21.5529 63.1283 21.1656 62.673 21.1404C61.6375 21.083 61.566 22.6367 62.4266 22.8124C63.0037 22.9303 63.1633 22.5262 63.3309 22.5566C63.3939 22.5681 63.5383 22.7114 63.5561 22.74C63.6408 22.876 63.2683 23.077 63.2345 23.0952C62.9192 23.2653 62.7845 23.2459 62.6238 23.2496Z" fill="#292627"/>
<path fill-rule="evenodd" clip-rule="evenodd" d="M51.5927 23.2464C51.4896 23.2435 51.3389 23.2858 50.9481 23.0658C50.6799 22.9148 50.7415 22.81 50.7552 22.7866C50.9086 22.5258 51.0081 22.5798 51.0318 22.5928C51.0475 22.6013 51.3702 22.9188 51.7434 22.8288C52.0872 22.7459 52.0323 22.409 51.8292 22.3002C51.5245 22.1368 50.6521 21.9922 50.8002 21.2755C50.8627 20.9728 51.3262 20.4733 52.1052 20.8498C52.2399 20.9149 52.4397 20.9688 52.317 21.1369C52.1979 21.3001 52.1644 21.3857 52.0323 21.2925C51.394 20.8417 50.9818 21.406 51.4374 21.6336C51.8204 21.8251 52.4761 21.9131 52.4564 22.5271C52.4424 22.9633 52.0893 23.1327 52.0345 23.159C51.8281 23.258 51.8227 23.2429 51.5927 23.2464Z" fill="#292728"/>
<path fill-rule="evenodd" clip-rule="evenodd" d="M58.6124 23.2446C58.5782 23.2427 58.4566 23.2658 58.3989 23.1884C58.3756 23.1573 57.5098 20.8311 57.5105 20.8222C57.5188 20.7114 57.8906 20.7363 57.9443 20.7883C58.023 20.8646 58.5463 22.5049 58.5706 22.5139C58.5824 22.5182 58.5952 22.5079 58.6077 22.5072C58.6784 22.5031 58.6528 22.4712 58.6786 22.3844C58.7064 22.2906 58.7159 22.2953 59.0773 21.2277C59.2353 20.7608 59.2665 20.7546 59.3629 20.7511C59.4612 20.7476 59.7165 20.7126 59.6735 20.874C59.6502 20.9612 59.6356 20.9551 59.2806 21.9308C59.2302 22.0693 58.8286 23.1417 58.8102 23.177C58.7682 23.2578 58.6688 23.2428 58.6124 23.2446Z" fill="#2A2829"/>
<path fill-rule="evenodd" clip-rule="evenodd" d="M41.7652 23.2412C41.7522 23.2408 41.5836 23.2618 41.5531 23.1845C41.5294 23.1243 41.5367 22.9566 41.5367 22.8774C41.5368 20.8583 41.5333 20.8564 41.5489 20.8151C41.5787 20.7361 41.6244 20.7501 42.417 20.7501C43.1056 20.7501 43.1755 20.7225 43.1837 20.8704C43.196 21.0923 43.1693 21.1331 43.0189 21.1336C42.2433 21.1363 42.0656 21.1154 42.0144 21.1714C41.9845 21.204 41.9669 21.2233 41.9868 21.7234C41.9936 21.8934 42.0829 21.8539 42.8185 21.8561C42.9785 21.8566 42.9999 21.8959 42.9891 22.1271C42.9794 22.3344 42.8661 22.2352 42.1149 22.2605C41.9466 22.2661 41.9903 22.3843 41.9869 23.0786C41.9858 23.2851 41.8802 23.2372 41.7652 23.2412Z" fill="#2B282A"/>
<path fill-rule="evenodd" clip-rule="evenodd" d="M60.4676 23.244C60.4335 23.2412 60.3991 23.2451 60.365 23.2423C60.2265 23.2309 60.2619 23.0189 60.2619 22.8271C60.2619 20.8308 60.2575 20.8242 60.2872 20.7872C60.3155 20.7519 60.6991 20.6741 60.705 20.8725C60.705 20.8755 60.7058 23.0926 60.7046 23.1268C60.6989 23.2797 60.5015 23.2431 60.4676 23.244Z" fill="#2D2A2B"/>
<path fill-rule="evenodd" clip-rule="evenodd" d="M44.0216 23.2418C43.8848 23.2348 43.8751 23.2561 43.8339 23.2127C43.8013 23.1783 43.8054 23.1702 43.8057 21.6245C43.8058 20.8382 43.7791 20.7604 43.9183 20.752C44.0358 20.7448 44.222 20.7204 44.2304 20.8717C44.2418 21.0761 44.2322 22.9023 44.2312 23.0788C44.2301 23.2894 44.1112 23.2362 44.0216 23.2418Z" fill="#272426"/>
<path fill-rule="evenodd" clip-rule="evenodd" d="M15.8346 7.35948C17.4916 7.65516 18.6102 8.32289 19.5102 9.0552C19.8621 9.34155 20.888 10.175 21.7085 11.9421C21.7831 12.1028 21.9169 12.4616 21.934 12.5072C21.9359 12.5125 22.1765 13.3041 22.2103 13.5814C22.2655 14.034 22.4176 14.4485 22.3481 15.6715C22.3411 15.7963 22.2361 16.6437 22.1073 17.0835C22.1064 17.0869 21.8364 18.2551 21.0794 19.3937C20.8377 19.7573 20.4637 20.2305 20.1999 20.4893C20.0853 20.6017 20.0932 20.6074 19.9736 20.7155C19.9477 20.7389 19.9584 20.7464 19.6611 21.021C19.5741 21.1014 19.2917 21.3252 19.2591 21.351C18.7776 21.7327 17.9733 22.1738 17.5816 22.3286C17.3461 22.4216 16.2496 22.8816 14.9856 22.9424C13.7054 23.004 13.4754 22.8803 12.6165 22.7176C12.1005 22.6198 11.049 22.1963 10.4734 21.8172C10.2693 21.6828 10.2618 21.697 10.0653 21.5538C10.036 21.5325 9.74915 21.3705 9.51026 21.1459C9.46828 21.1065 9.46077 21.1155 8.97638 20.6629C8.65121 20.359 8.34091 19.9421 8.29102 19.8751C8.20983 19.766 8.19367 19.7805 8.11705 19.6666C8.0245 19.5292 8.0323 19.5262 7.93534 19.3917C7.86579 19.2951 7.82076 19.2083 7.5126 18.673C7.44779 18.5604 6.89526 17.3323 6.8161 16.6844C6.75181 16.1584 6.59716 16.0469 6.67321 14.4271C6.68977 14.0751 6.73418 14.0819 6.82045 13.4715C6.83023 13.4024 6.83458 13.3717 7.04669 12.6282C7.27088 11.8422 8.07936 10.456 8.61189 9.91742C8.73913 9.78871 8.72071 9.77266 8.86033 9.65542C8.89959 9.62248 8.87134 9.59378 9.32087 9.21047C9.72316 8.86739 10.0507 8.59059 11.0358 8.05219C11.0625 8.03767 11.0698 8.0579 11.3835 7.89935C11.6373 7.77104 12.68 7.42067 13.1218 7.36502C14.1233 7.23891 14.3896 7.20156 15.2107 7.26942C15.4634 7.29033 15.4573 7.32327 15.8346 7.35948ZM13.4607 13.2007C13.668 13.1982 13.8053 13.2322 13.8093 13.0153C13.8363 11.5421 13.8158 11.4962 13.6954 11.4654C13.6439 11.4522 8.95005 11.4453 8.87524 11.4694C8.75247 11.5089 8.77201 11.5561 8.77066 12.8455C8.77021 13.3065 8.76473 18.5667 8.77303 18.6082C8.80716 18.7784 8.90745 18.7408 9.84464 18.741C10.5972 18.7412 10.7019 18.7774 10.7044 18.5525C10.7064 18.3656 10.6981 16.4625 10.7123 16.4098C10.7331 16.3323 10.7691 16.2981 10.862 16.2966C11.4879 16.2868 13.1177 16.3316 13.2 16.2598C13.2717 16.1974 13.236 16.1765 13.2486 14.7661C13.2511 14.4863 13.0561 14.5816 12.5002 14.5704C11.5593 14.5516 10.8421 14.6094 10.7566 14.5313C10.6937 14.4738 10.6931 14.4611 10.7059 13.4675C10.7089 13.2399 10.7411 13.203 10.9749 13.1995C10.9906 13.1993 13.313 13.2001 13.4607 13.2007ZM16.6248 16.521C16.8815 16.5416 16.8564 16.6119 17.1428 17.0773C17.4882 17.6386 17.4995 17.6295 17.837 18.1969C18.14 18.7062 18.2075 18.7215 18.2608 18.7335C18.3594 18.7558 19.1254 18.7244 20.2432 18.7439C20.2595 18.7442 20.465 18.7478 20.399 18.6124C20.3679 18.5487 20.3555 18.5568 19.3908 17.0848C19.3517 17.0252 18.912 16.3543 18.9047 16.3392C18.8289 16.1831 18.9218 16.1912 19.1881 15.981C19.3812 15.8286 19.5463 15.7381 19.8228 15.2071C19.9143 15.0313 20.0922 14.3938 20.0594 13.9195C20.0137 13.2556 19.9059 12.8811 19.6263 12.4454C19.4844 12.2243 19.4655 12.2423 19.2834 12.0511C19.2493 12.0152 18.9571 11.7942 18.818 11.7395C18.4915 11.611 18.5005 11.5853 18.1541 11.5253C17.7113 11.4485 17.7115 11.4561 16.6813 11.4558C14.5761 11.4553 14.5747 11.4593 14.5294 11.4822C14.4218 11.5363 14.4769 11.5849 14.4682 18.2131C14.4677 18.5702 14.4247 18.7428 14.6466 18.7454C14.7734 18.747 16.077 18.7627 16.2326 18.7389C16.4091 18.7119 16.3732 18.6337 16.3747 17.4786C16.3757 16.8161 16.3732 16.817 16.3764 16.6856C16.3808 16.5053 16.444 16.5267 16.6248 16.521ZM17.0202 14.8182C16.4998 14.8224 16.3733 14.8777 16.3728 14.5973L16.3729 13.7495C16.3731 13.3014 16.3255 13.1844 16.5683 13.1825C16.9574 13.1795 17.6951 13.1009 17.969 13.7538C18.0171 13.8684 18.0371 14.1228 17.9703 14.2532C17.7669 14.6505 17.5317 14.776 17.0202 14.8182ZM14.3083 3.00543C14.5599 3.00543 15.3526 2.93926 16.2966 3.26901C17.194 3.58248 17.9374 4.33372 19.2173 4.72979C21.5717 5.45832 22.8332 4.86155 23.0125 5.32944C23.1028 5.56517 22.8641 5.78897 22.83 5.83129C22.7919 5.87858 22.3982 6.36743 22.3571 6.4241C22.1095 6.76531 22.0195 6.81368 21.8163 7.07732C21.2527 7.80901 21.1183 7.94433 20.9932 8.11248C20.8177 8.34837 20.4451 8.79586 20.3389 8.93508C20.1771 9.14719 20.1047 9.00916 19.9933 8.91502C19.1 8.15994 18.6768 7.96874 18.6058 7.92405C18.4446 7.82257 18.4363 7.8402 18.2722 7.74403C17.6468 7.37756 16.5338 7.07376 16.3951 7.04426C14.7275 6.69 13.7084 6.86504 13.0637 6.96053C12.2019 7.08816 11.0857 7.54893 10.8509 7.68363C10.5172 7.87495 10.064 8.08055 9.46161 8.56641C9.33771 8.66636 9.33533 8.66105 9.21097 8.76224C8.86846 9.04097 8.86451 9.0682 8.78111 9.03944C8.72145 9.01893 7.97975 8.05276 7.97495 8.04716C7.76341 7.80082 7.36846 7.28637 7.34727 7.26094C6.99533 6.83848 6.80831 6.53145 6.66219 6.36359C6.50461 6.18256 6.24917 5.8414 6.16001 5.73637C6.13142 5.70269 5.86807 5.39233 6.18532 5.1848C6.33036 5.08988 7.497 5.17084 8.32034 5.05807C9.83402 4.85088 10.4645 4.51271 10.9038 4.28705C11.8212 3.81566 12.6166 3.0113 14.3083 3.00543ZM12.7278 26.9098C12.5735 26.8514 12.5724 26.8568 12.4929 26.8164C12.0772 26.6048 12.0739 26.6123 12.0395 26.5909C11.4859 26.2466 11.4785 26.2599 11.431 26.2292C11.0153 25.9609 11.0123 25.9701 10.567 25.7544C8.87089 24.933 6.66208 25.0777 6.34104 25.0561C6.04266 25.0361 5.98983 24.8054 6.00158 24.7107C6.0096 24.646 6.01418 24.6093 6.46873 24.0438C7.53571 22.7164 7.52525 22.7103 7.74516 22.4436C7.89387 22.2633 8.47013 21.5289 8.52284 21.47C8.70201 21.27 8.72986 21.1456 8.82761 21.1507C8.91152 21.1552 9.41088 21.6164 9.79209 21.88C10.4099 22.3072 12.0689 23.3554 14.4213 23.3577C15.6918 23.3589 15.8732 23.2403 16.0634 23.2102C17.3345 23.0091 19.0124 22.2387 20.072 21.2084C20.1869 21.0966 20.2418 21.1231 20.4776 21.4252C21.2128 22.3666 22.9673 24.5164 23.0033 24.6561C23.1304 25.1492 22.3906 25.0585 22.3315 25.0585C19.8382 25.0591 18.7725 25.5657 17.9335 26.0281C17.666 26.1755 16.8128 26.7309 16.3373 26.9005C16.2971 26.9149 16.0205 27.0136 15.8271 27.0559C14.1204 27.4294 12.9724 26.9819 12.7278 26.9098ZM24.0295 23.5738C23.8235 23.4588 23.0802 22.8282 22.1003 22.062C22.0319 22.0085 21.5845 21.6586 21.2532 21.383C20.7007 20.9233 20.4446 20.8339 20.6069 20.6668C21.0497 20.211 21.569 19.4516 21.8027 18.9935C21.8624 18.8764 22.1885 18.2372 22.4247 17.4722C22.7531 16.4089 22.7872 15.2157 22.7843 15.1055C22.7296 13.0296 22.0939 11.8287 22.0186 11.6477C21.6368 10.7291 20.8547 9.76577 20.6188 9.52722C20.4559 9.36246 20.6455 9.29466 20.7417 9.21951C22.3415 7.97049 22.3223 7.9467 22.4624 7.83946C23.6221 6.95166 24.0114 6.52919 24.2486 6.5927C24.5171 6.66452 24.4575 6.9859 24.4576 7.02584C24.4579 7.17953 24.4599 8.19525 24.5541 8.94469C24.5646 9.0278 24.7203 9.88148 24.7257 9.90239C25.0748 11.2433 25.4521 11.6603 25.9772 12.579C26.0435 12.695 26.4725 13.4456 26.5491 14.1477C26.8346 16.7647 26.0343 17.4064 25.2877 18.7884C24.4705 20.3011 24.4951 22.1074 24.464 22.7892C24.446 23.187 24.5931 23.7093 24.0295 23.5738ZM5.44137 6.96409C5.63003 7.10393 6.05198 7.45853 6.26702 7.61515C6.37777 7.69589 6.44709 7.78522 6.77209 8.01439C6.85034 8.06959 7.05612 8.24322 7.08036 8.26368C7.27461 8.42759 8.02778 9.01763 8.24503 9.19431C8.33221 9.26522 8.53629 9.35924 8.41905 9.50332C8.20423 9.76729 8.1922 9.7548 7.98518 10.0243C6.66541 11.7418 6.3637 13.2455 6.24188 14.7111C6.18854 15.3526 6.31629 16.9168 6.7648 17.9753C6.80136 18.0616 7.18647 19.3336 8.40617 20.6654C8.56652 20.8406 8.38634 20.8445 7.82821 21.3413C7.71058 21.4461 7.70357 21.4353 6.289 22.5687C5.9909 22.8074 5.73263 23.0056 5.68382 23.043C5.03648 23.5396 5.05733 23.6326 4.81324 23.5961C4.45632 23.5428 4.61357 23.1108 4.55034 22.4495C4.51096 22.0371 4.5765 21.9195 4.43841 21.0918C4.31586 20.3579 4.2684 19.9825 3.86741 19.0549C3.56258 18.3496 2.89728 17.6065 2.61392 16.6306C2.30249 15.5581 2.26373 14.0054 2.95779 12.7358C3.56603 11.6233 4.17867 11.0046 4.46564 8.94553C4.55882 8.2769 4.55915 7.17964 4.55915 7.02584C4.55921 6.98544 4.55927 6.67282 4.82053 6.5931C5.0332 6.52823 5.23435 6.80136 5.44137 6.96409Z" fill="#D36429"/>
</svg>
